<?xml version="1.0" encoding="UTF-8" standalone="no"?>
<svg
   width="1870.3"
   height="2989.4"
   version="1.1"
   id="svg4351"
   sodipodi:docname="abbiegen.svg"
   xmlns:inkscape="http://www.inkscape.org/namespaces/inkscape"
   xmlns:sodipodi="http://sodipodi.sourceforge.net/DTD/sodipodi-0.dtd"
   xmlns="http://www.w3.org/2000/svg"
   xmlns:svg="http://www.w3.org/2000/svg">
  <defs
     id="defs4355" />
  <sodipodi:namedview
     id="namedview4353"
     pagecolor="#ffffff"
     bordercolor="#666666"
     borderopacity="1.0"
     inkscape:pageshadow="2"
     inkscape:pageopacity="0.0"
     inkscape:pagecheckerboard="0"
     showgrid="false" />
  <path
     fill="#a5a8a7"
     d="M-233.2-631.3 2243.1-615v4236l-2468.6-20.6z"
     id="path4209" />
  <path
     fill="#db9f9d"
     d="M1634.4 3714.2h-373.6v-2500h373.6z"
     id="path4211" />
  <path
     fill="#fff"
     d="M1236 2712h25v943h-25z"
     id="path4213" />
  <path
     fill="none"
     stroke="#fff"
     stroke-dasharray="75 25"
     stroke-miterlimit="10"
     stroke-width="12.5"
     d="M-3.2-262h1574.8M97.4 72.7h1574.8"
     id="path4215" />
  <path
     fill="#db9f9d"
     d="M1743 793.4h-507.5v-687H1743z"
     id="path4217" />
  <path
     fill="none"
     stroke="#fff"
     stroke-width="12.5"
     d="M579.5 1338.9s2 270.8 5.3 663c-17.4 307.7 322.3 416.5 318 787.9.2 152.9-2.8 820.3-2.8 820.3"
     id="path4219" />
  <path
     fill="#fc4c64"
     stroke="#000301"
     stroke-width="7"
     d="M-174.7 387.8c-24.2 0-49 .2-74.5.5l1.3 100c200.8-2.6 359.5 4.1 481.2 31.7 121.8 27.6 205.1 73.5 268.4 152.4 126.7 158 173 472.5 175.5 1051.2 1 229.2 42.4 363.4 111 450.7 68.5 87.2 157.1 120.3 231.2 158.9 74.1 38.5 137 79 187.2 185.7 50.3 106.7 85 284.1 78.4 587.8l100 2.2c6.8-312-27.3-503.8-88-632.6-60.6-128.7-150.7-189.9-231.4-231.9-80.8-42-148.8-68.3-198.8-131.9-50-63.6-88.7-172-89.6-389.3-2.4-583.3-39.6-916.5-197.5-1113.3-78.9-98.4-188-156.6-324.3-187.4-119.2-27-260.3-35-430-34.7Z"
     color="#000"
     opacity=".5"
     id="path4221" />
  <g
     id="g4225">
    <path
       fill="#fff"
       stroke="#000"
       d="m279.3 437-6.3 25a12.3 12.3 0 0 0-7-4.2c-10.2-2.5-20.3 5.7-27 32.2-6.9 27.4 2.3 33.1 13.2 35.9a48 48 0 0 0 19.9.9l23.2-92.5c-12-3-14.4-3.6-16 2.7zm-9 35.8L260.2 513a7 7 0 0 1-4.6.2c-3.4-.8-3.7-5.5.2-20.8 5.3-21.4 9.3-21.5 12-20.8.8.2 1.8.6 2.5 1.3zm34.9-23.2c-2.5 8-.5 11.2 3.7 12.5 5 1.5 9-1.8 11-8.7 2.1-6.9 1.3-9.8-4-11.4-5.3-1.6-9 1.8-10.7 7.6zm-10.4 84.1 18.6-61.2c-11.7-3.6-14.5-4.4-16.4 1.8l-17.5 57.5c14.4 4.4 14.5 4.5 15.3 2zm28.2-53.2-20.6 58.4c14.3 5 14.3 5 15.2 2.6l16.4-46.1c2.2-.8 4.7-.7 6.2-.1 1.2.4 2.8 1.1 4.3 2.6a25 25 0 0 0 4.2-7.7c1.5-4.2.6-6.8-6.2-9.2-7-2.5-14-2-19.4-.5zm34.2 65.5c-5.9-2.6-6.1-6.7-3-14.7 6 2.5 15.3 6.1 21.8 7.5a83.6 83.6 0 0 0 9.3-16.6c6.2-14.2 2.8-22.5-7-26.8-11.4-5-23.7-4.2-36.6 25.4-10.1 23.2-4.8 32.2 6.3 37 9.6 4.2 18.6 5 20.7 0 1.2-2.7 2.6-6.8 3-9.6-5.3.2-10.1-.3-14.5-2.2zm14.1-39.5c3.1 1.3 3.7 3 .3 10.9-.9 2-2.3 4.8-3.4 6-2.2.1-6.1-1.3-9.4-2.8 5-11 8.9-15.7 12.5-14.1zm47-18.3-45.1 79.5c13.2 7.5 13 7.5 14.4 5.1l12.3-21.7s2-.5 4 .2c5 1.8 3 8.3-2 17.2-2.2 3.7-4.7 7.6-7.3 11.4 14.5 8.2 14.6 8.3 16 6.4 1.7-2.5 3.4-5 4.8-7.6 5.2-9.4 7.6-18.9 4.1-26.7 4.2-1.3 11.7-5 16.7-13.7 2.5-4.5 3.8-10.8-4-15.3a29 29 0 0 0-14.2-3.7l16.7-29.4c-10.7-6-13.1-7.4-16.4-1.7zm.5 46.7c-3.2 5.7-7.7 7.6-14 7.6l6.6-11.6c2.5-1.2 4.9-1.6 6.8-.5 1.7 1 1.7 2.5.6 4.5zm31.4 16.2-21.4 29.6c-7 9.7-9.3 16.5.2 23.4 4.1 3 10.3 6.4 14 1.3a28 28 0 0 0 3.5-6.4c-2.7-.5-4.6-1.3-6.6-2.7-2.6-1.9-.6-4.6 1.2-7l21.2-29.5 6.5 4.7c2.2 1.7 3 .8 9.7-8.5l-8.8-6.4 14-19.5c-9.7-7-12-8.7-14.8-5l-11.3 15.7-4-2.9c-2.4-1.7-3.3-.7-10 8.5z"
       transform="translate(0 -9.9)"
       id="path4223" />
  </g>
  <path
     fill="#2df45c"
     stroke="#000301"
     stroke-width="7"
     d="M1522.1 208.6c-23.1-.1-49.1 0-78 .4-115.2 1.6-274.3 7-458 13.6-367.3 13.5-832.7 32.5-1236 37.8l1.4 100c405.3-5.3 871.3-24.4 1238.3-37.8 183.5-6.8 342.3-12 455.7-13.6a2508 2508 0 0 1 132.6.9l8 .5c.3 14.7-.3 26.1-1.6 34.1a59 59 0 0 1-13 30.8c-16.2 22.2-60 59.2-127.2 140.3-28.1 34-39.6 77-51.4 134.8-11.8 57.8-20.7 129.8-27.6 214.3-13.8 169.1-19.3 388-19.9 633-1 490 18.2 1084.4 34.4 1584.7l100-3.2c-16.3-500.4-35.5-1094.1-34.4-1581.4.6-243.6 6.2-460.7 19.6-625 6.7-82 15.4-151 26-202.4 10.4-51.4 26-85.8 30.3-91 62.8-75.8 100.8-104 130.9-145 15-20.6 26.4-45.8 31-73.7 4.6-27.8 3.8-57.7.5-96.6l-1-11.4-5.8-9.9c-13.2-22.2-24.8-22.4-32-24.8-7.2-2.4-12.8-3.4-19-4.3-12.3-2-26.2-3-43.3-3.7-17.2-.8-37.4-1.2-60.5-1.4z"
     color="#000"
     opacity=".5"
     id="path4227" />
  <path
     fill="none"
     stroke="#fff"
     stroke-dasharray="150 150"
     stroke-miterlimit="10"
     stroke-width="12.5"
     d="M904.2 2494.7v-682.5"
     id="path4229" />
  <path
     fill="none"
     stroke="#fff"
     stroke-dasharray="75 25"
     stroke-miterlimit="10"
     stroke-width="25"
     d="M1248.5 2683.8v-630.3"
     id="path4231" />
  <path
     fill="none"
     stroke="#fff"
     stroke-dasharray="77.7 25.9"
     stroke-miterlimit="0"
     stroke-width="25.9"
     d="m1248.1 794.3-.2-687.9"
     id="path4233" />
  <path
     fill="#fff"
     d="M898 1341.9h12.5v590.8H898z"
     id="path4235" />
  <g
     transform="matrix(-1.13015 .0068 .00503 1 1898.3 817.7)"
     id="g4269">
    <rect
       width="155.9"
       height="441.8"
       x="671.4"
       y="1687.2"
       fill="#89bd27"
       rx="28"
       transform="rotate(.2)"
       id="rect4237" />
    <path
       fill="#8a8989"
       d="M793.8 1694a25 34.1.2 0 1 25 34.1l-1.3 365.2a25 34.1.2 0 1-25.1 34.1l-99.8-.3a25 34.1.2 0 1-25-34.2l1.3-365.3a25 34.1.2 0 1 25-34l99.9.3m0-8.2-99.8-.4a31 42.4.2 0 0-31.2 42.3l-1.2 365.2a31 42.4.2 0 0 31 42.5l99.8.4a31.1 42.4.2 0 0 31.2-42.3l1.1-365.2a31.1 42.4.2 0 0-30.9-42.5z"
       id="path4239" />
    <path
       fill="#060709"
       d="m784.9 2029 6.2 31c1 5.4-3 10.5-8.3 10.5l-79.4-.3a8.7 8.7 0 0 1-8.3-10.4l6.4-31.2c.8-4 4.1-6.7 8-6.7l67.4.2c3.9 0 7.1 2.8 8 6.8zm-107.5-113.1.1-47a6 8.8.2 0 1 6.1-8.7h3.6a2.4 3.5.2 0 1 2.4 3.6l-.2 57.4a2.4 3.5.2 0 1-2.4 3.5h-3.6a6 8.8.2 0 1-6-8.8zm133.5-115.2v-5.4a6 6.8.2 0 1 6-6.8h7.7a6 6.8.2 0 1 6 6.8 6 6.8.2 0 1-6 6.8H812a1.2 1.4.2 0 1-1.2-1.4zm-155.3-6a6 6.8.2 0 1 6-6.8h7.7a6 6.8.2 0 1 6 6.9v5.4a1.2 1.4.2 0 1-1.2 1.4h-12.5a6 6.8.2 0 1-6-6.9zm21.6 206.8.1-47a6 8.8.2 0 1 6-8.7h3.7a2.4 3.5.2 0 1 2.4 3.5l-.2 57.4a2.4 3.5.2 0 1-2.4 3.5h-3.6a6 8.8.2 0 1-6-8.8zm128.1-46.6-.4 47a6 8.8.6 0 1-6.2 8.6h-3.6a2.4 3.5.6 0 1-2.4-3.6l.6-57.4a2.4 3.5.6 0 1 2.5-3.4h3.6a6 8.8.6 0 1 6 8.8zm.9-85.6-.5 47a6 8.8.6 0 1-6.2 8.6H796a2.4 3.5.6 0 1-2.4-3.5l.6-57.4a2.4 3.5.6 0 1 2.5-3.5h3.6a6 8.8.6 0 1 6 8.8zm-7.5-60.3-8.6 34.5c-1 4.4-5 7.3-9.6 7.3l-76.1-.3a9.5 9.5 0 0 1-9.5-7l-9-34.6c-1.6-5.8 3.9-11.7 10.6-11.7l91.7.3c6.6 0 12 5.8 10.5 11.5z"
       id="path4241" />
    <rect
       width="17.9"
       height="36.2"
       x="-2112.1"
       y="689.6"
       fill="#9b4c17"
       rx="8.9"
       transform="rotate(-89.8)"
       id="rect4243" />
    <g
       fill="#ff7f2a"
       transform="translate(-1.4 391.2)"
       id="g4253">
      <rect
         width="17.9"
         height="36.2"
         x="-1720.9"
         y="782"
         rx="8.9"
         transform="rotate(-89.8)"
         id="rect4245" />
      <rect
         width="22"
         height="5"
         x="815.1"
         y="1712.3"
         rx="0"
         ry="2.5"
         id="rect4247" />
      <rect
         width="20"
         height="5"
         x="-150.1"
         y="1883.6"
         rx="0"
         ry="2.5"
         transform="rotate(-30)"
         id="rect4249" />
      <rect
         width="20"
         height="5"
         x="1564.3"
         y="-1086.6"
         rx="0"
         ry="2.5"
         transform="scale(1 -1) rotate(-30)"
         id="rect4251" />
    </g>
    <rect
       width="17.9"
       height="36.2"
       x="-2112.1"
       y="777.6"
       fill="#9b4c17"
       rx="8.9"
       transform="rotate(-89.8)"
       id="rect4255" />
    <rect
       width="17.9"
       height="36.2"
       x="-1721"
       y="689.6"
       fill="#edeeac"
       rx="8.9"
       transform="rotate(-89.8)"
       id="rect4257" />
    <rect
       width="17.9"
       height="36.2"
       x="-1720.9"
       y="782"
       fill="#ff7f2a"
       rx="8.9"
       transform="rotate(-89.8)"
       id="rect4259" />
    <rect
       width="22"
       height="5"
       x="815.1"
       y="1712.3"
       fill="#ff7f2a"
       rx="0"
       ry="2.5"
       id="rect4261" />
    <rect
       width="20"
       height="5"
       x="-150.1"
       y="1883.6"
       fill="#ff7f2a"
       rx="0"
       ry="2.5"
       transform="rotate(-30)"
       id="rect4263" />
    <rect
       width="20"
       height="5"
       x="1564.3"
       y="-1086.6"
       fill="#ff7f2a"
       rx="0"
       ry="2.5"
       transform="scale(1 -1) rotate(-30)"
       id="rect4265" />
    <rect
       width="17.9"
       height="36.2"
       x="-1721"
       y="774.8"
       fill="#edeeac"
       rx="8.9"
       transform="rotate(-89.8)"
       id="rect4267" />
  </g>
  <path
     fill="#fff"
     d="M1085.6 2010h-36.5s10.8-243.7 12.3-272.6h-20.2l25.6-181.1 27.9 181H1072zm-365.3-7s10.8-241 12.3-269.8c1.5-28.9-13.8-40.3-19.8-40.3-.6 7.1 0 81.2 0 81.2l-30.5-97.9 30.5-126.6.6 98.5s22 3.1 25.4 36.7c11.7 108.7 12.1 211.7 18 318.3z"
     id="path4271" />
  <g
     transform="translate(-820.2 497.3) scale(1.15838)"
     id="g4279">
    <circle
       cx="1317.8"
       cy="1436.6"
       r="19.3"
       fill="none"
       stroke="#fff"
       stroke-width="4.8"
       id="circle4273" />
    <circle
       cx="1386.7"
       cy="1436.3"
       r="19.3"
       fill="none"
       stroke="#fff"
       stroke-width="4.8"
       id="circle4275" />
    <path
       fill="#fff"
       fill-rule="evenodd"
       d="M1343.5 1389.5c-15.9.1-13.2-1.7-21.8 25.8-7 22-6.2 19.5-6.2 21 0 1.3 1 2.2 2.2 2.3 2.5-.3 1.4.3 10.2-26.9 32 33.7 20 28.3 37.1 29 22.6-.3 24.5 1.1 24.7-2.2 0-1.1-.5-1.8-16-36.3l1.5-4 5-.2-.1-4.3h-19c-1.7 2.3.6 2.3 9.1 4.2l-1.5 4.2h-38c2.6-8.8 1.2-8.3 12.7-8.3zm-13.8 17.3h37.1l-10.7 28.8zm41.6 1.7-10.5 27.7h23z"
       id="path4277" />
  </g>
  <g
     transform="translate(-175 114.2) scale(1.15838)"
     id="g4287">
    <circle
       cx="1317.8"
       cy="1436.6"
       r="19.3"
       fill="none"
       stroke="#fff"
       stroke-width="4.8"
       id="circle4281" />
    <circle
       cx="1386.7"
       cy="1436.3"
       r="19.3"
       fill="none"
       stroke="#fff"
       stroke-width="4.8"
       id="circle4283" />
    <path
       fill="#fff"
       fill-rule="evenodd"
       d="M1343.5 1389.5c-15.9.1-13.2-1.7-21.8 25.8-7 22-6.2 19.5-6.2 21 0 1.3 1 2.2 2.2 2.3 2.5-.3 1.4.3 10.2-26.9 32 33.7 20 28.3 37.1 29 22.6-.3 24.5 1.1 24.7-2.2 0-1.1-.5-1.8-16-36.3l1.5-4 5-.2-.1-4.3h-19c-1.7 2.3.6 2.3 9.1 4.2l-1.5 4.2h-38c2.6-8.8 1.2-8.3 12.7-8.3zm-13.8 17.3h37.1l-10.7 28.8zm41.6 1.7-10.5 27.7h23z"
       id="path4285" />
  </g>
  <g
     transform="translate(-199.7 1198) scale(1.15838)"
     id="g4295">
    <circle
       cx="1317.8"
       cy="1436.6"
       r="19.3"
       fill="none"
       stroke="#fff"
       stroke-width="4.8"
       id="circle4289" />
    <circle
       cx="1386.7"
       cy="1436.3"
       r="19.3"
       fill="none"
       stroke="#fff"
       stroke-width="4.8"
       id="circle4291" />
    <path
       fill="#fff"
       fill-rule="evenodd"
       d="M1343.5 1389.5c-15.9.1-13.2-1.7-21.8 25.8-7 22-6.2 19.5-6.2 21 0 1.3 1 2.2 2.2 2.3 2.5-.3 1.4.3 10.2-26.9 32 33.7 20 28.3 37.1 29 22.6-.3 24.5 1.1 24.7-2.2 0-1.1-.5-1.8-16-36.3l1.5-4 5-.2-.1-4.3h-19c-1.7 2.3.6 2.3 9.1 4.2l-1.5 4.2h-38c2.6-8.8 1.2-8.3 12.7-8.3zm-13.8 17.3h37.1l-10.7 28.8zm41.6 1.7-10.5 27.7h23z"
       id="path4293" />
  </g>
  <g
     transform="translate(47 -1225.4) scale(1.15838)"
     id="g4303">
    <circle
       cx="1317.8"
       cy="1436.6"
       r="19.3"
       fill="none"
       stroke="#fff"
       stroke-width="4.8"
       id="circle4297" />
    <circle
       cx="1386.7"
       cy="1436.3"
       r="19.3"
       fill="none"
       stroke="#fff"
       stroke-width="4.8"
       id="circle4299" />
    <path
       fill="#fff"
       fill-rule="evenodd"
       d="M1343.5 1389.5c-15.9.1-13.2-1.7-21.8 25.8-7 22-6.2 19.5-6.2 21 0 1.3 1 2.2 2.2 2.3 2.5-.3 1.4.3 10.2-26.9 32 33.7 20 28.3 37.1 29 22.6-.3 24.5 1.1 24.7-2.2 0-1.1-.5-1.8-16-36.3l1.5-4 5-.2-.1-4.3h-19c-1.7 2.3.6 2.3 9.1 4.2l-1.5 4.2h-38c2.6-8.8 1.2-8.3 12.7-8.3zm-13.8 17.3h37.1l-10.7 28.8zm41.6 1.7-10.5 27.7h23z"
       id="path4301" />
  </g>
  <path
     fill="#fff"
     d="m1324.5 2718 3.6-78.6c.5-8.4-4-11.8-5.7-11.8a932 932 0 0 0 0 23.7l-9-28.5 9-37 .1 28.8s6.5.9 7.4 10.7c3.4 31.7 3.6 61.7 5.3 92.7zm116.5-1.7h-13.7s4-71 4.6-79.4h-7.6l9.7-52.8 10.5 52.8h-8.6zM573 1337.9h665.2v50H573Zm663-127.5h294.7v50H1236z"
     id="path4305" />
  <path
     fill="#fff"
     d="M1236 1254.6h25v800.6h-25z"
     id="path4307" />
  <g
     transform="translate(-223 -522)"
     id="g4323">
    <path
       fill="none"
       stroke="#432918"
       stroke-miterlimit="10"
       stroke-width="4"
       d="M1670.3 1864.5a7.6 7 0 0 0-15.1 0v30a19.3 17.8 0 0 0-4.5-.6h-30.4a18.5 17 0 0 0-7.5 1.4v-30.8a7.6 7 0 0 0-15.2 0v39.7a7.6 7 0 0 0 4 6v1a18.7 17.3 0 0 0 18.7 17.2h30.4a18.7 17.3 0 0 0 18.7-17.3 19.4 17.9 0 0 0-.3-3.1 7.6 7 0 0 0 1.3-3.9z"
       id="path4309" />
    <path
       fill="none"
       stroke="#432918"
       stroke-miterlimit="10"
       stroke-width="1.3"
       d="M1622.2 1865a9.3 8.5 0 0 0-9.2 8.5v14a9.2 8.5 0 0 0 18.3 0v-14a9.2 8.5 0 0 0-9-8.5zm24.9 10.8h-2.3a8 7.4 0 0 0-8 7.5v4.7a8 7.4 0 0 0 8 7.5h2.3a8 7.4 0 0 0 8-7.5v-4.7a8 7.4 0 0 0-8-7.5z"
       id="path4311" />
    <rect
       width="180"
       height="8.5"
       x="-1977.5"
       y="1631.2"
       fill="#060709"
       rx="3.2"
       transform="rotate(-90)"
       id="rect4313" />
    <path
       fill="#8aff8a"
       d="M1670.3 1864.5a7.6 7 0 0 0-15.1 0v30a19.3 17.8 0 0 0-4.5-.6h-30.4a18.5 17 0 0 0-7.5 1.4v-30.8a7.6 7 0 0 0-15.2 0v39.7a7.6 7 0 0 0 4 6v1a18.7 17.3 0 0 0 18.7 17.2h30.4a18.7 17.3 0 0 0 18.7-17.3 19.4 17.9 0 0 0-.3-3.1 7.6 7 0 0 0 1.3-3.9z"
       id="path4315" />
    <path
       fill="#28a0df"
       d="M1622.2 1865a9.3 8.5 0 0 0-9.2 8.5v14a9.2 8.5 0 0 0 18.3 0v-14a9.2 8.5 0 0 0-9-8.5zm24.9 10.8h-2.3a8 7.4 0 0 0-8 7.5v4.7a8 7.4 0 0 0 8 7.5h2.3a8 7.4 0 0 0 8-7.5v-4.7a8 7.4 0 0 0-8-7.5z"
       id="path4317" />
    <rect
       width="19.7"
       height="21.3"
       x="-1922.5"
       y="1623.1"
       fill="#e06c2d"
       rx="9.8"
       transform="rotate(-90)"
       id="rect4319" />
    <path
       fill="#060709"
       d="m1628.6 1835.5-25.5 17.2a3.6 3.4 0 0 0 4.3 5.4l25.4-17.2a3.6 3.3 0 1 0-4.3-5.4zm37.4 19.7-23.2-18a3.6 3.3 0 1 0-4.7 5.2l23.2 18a3.6 3.3 0 0 0 4.7-5.2z"
       id="path4321" />
  </g>
  <g
     id="g10361">
    <path
       fill="none"
       stroke="#fbf6f3"
       stroke-miterlimit="10"
       stroke-width="4"
       d="M768.7 1467.1a7.6 7 0 0 0-15.1 0v30a19.3 17.8 0 0 0-4.5-.5h-30.4a18.5 17 0 0 0-7.5 1.4v-30.9a7.6 7 0 0 0-15.1 0v39.8a7.6 7 0 0 0 4 6v1a18.7 17.3 0 0 0 18.6 17.2h30.4a18.7 17.3 0 0 0 18.8-17.3 19.4 17.9 0 0 0-.4-3.1 7.6 7 0 0 0 1.3-3.9z"
       id="path4325" />
    <path
       fill="none"
       stroke="#f7eee8"
       stroke-miterlimit="10"
       stroke-width="1.3"
       d="M720.7 1467.7a9.3 8.5 0 0 0-9.3 8.5v14a9.2 8.5 0 0 0 18.4 0v-14a9.2 8.5 0 0 0-9.1-8.5zm24.8 10.8h-2.3a8 7.4 0 0 0-8 7.4v4.8a8 7.4 0 0 0 8 7.4h2.3a8 7.4 0 0 0 8-7.4v-4.8a8 7.4 0 0 0-8-7.4z"
       id="path4327" />
    <rect
       width="180"
       height="8.5"
       x="-1580.2"
       y="729.6"
       rx="3.2"
       transform="rotate(-90)"
       id="rect4329" />
    <path
       fill="maroon"
       d="M768.7 1467.1a7.6 7 0 0 0-15.1 0v30a19.3 17.8 0 0 0-4.5-.5h-30.4a18.5 17 0 0 0-7.5 1.4v-30.9a7.6 7 0 0 0-15.1 0v39.8a7.6 7 0 0 0 4 6v1a18.7 17.3 0 0 0 18.6 17.2h30.4a18.7 17.3 0 0 0 18.8-17.3 19.4 17.9 0 0 0-.4-3.1 7.6 7 0 0 0 1.3-3.9z"
       id="path4331" />
    <path
       fill="#176892"
       d="M720.7 1467.7a9.3 8.5 0 0 0-9.3 8.5v14a9.2 8.5 0 0 0 18.4 0v-14a9.2 8.5 0 0 0-9.1-8.5zm24.8 10.8h-2.3a8 7.4 0 0 0-8 7.4v4.8a8 7.4 0 0 0 8 7.4h2.3a8 7.4 0 0 0 8-7.4v-4.8a8 7.4 0 0 0-8-7.4z"
       id="path4333" />
    <rect
       width="19.7"
       height="21.3"
       x="-1525.1"
       y="721.5"
       fill="#fefefe"
       rx="9.8"
       transform="rotate(-90)"
       id="rect4335" />
    <path
       d="m727 1438.2-25.5 17.2a3.6 3.4 0 0 0 4.3 5.4l25.4-17.2a3.6 3.3 0 1 0-4.3-5.4zm37.5 19.7-23.3-18a3.6 3.3 0 1 0-4.7 5.2l23.2 17.9a3.6 3.3 0 0 0 4.7-5.1z"
       id="path4337" />
  </g>
  <path
     fill="#fff"
     d="M1611.8 350.1s5.4-76.5 6.2-85.7c.8-9.1-7-12.7-10-12.7a731 731 0 0 0 0 25.7l-15.4-31 15.4-40.2.3 31.2s11.1 1 12.8 11.7c6 34.5 6.1 67.2 9.1 101zM1550.6 191v161.2h-25V191Z"
     id="path4339" />
  <path
     fill="none"
     stroke="#fff"
     stroke-dasharray="75 25"
     stroke-miterlimit="10"
     stroke-width="12.5"
     d="M-1.8 830.7h1574.9M98.9 1165.4h1574.8"
     id="path4341" />
  <path
     fill="#ccd0ce"
     stroke="#e1e1e1"
     stroke-linecap="round"
     stroke-linejoin="round"
     stroke-miterlimit="10"
     stroke-width="15"
     d="M1532.6-803.2h500.8v4447.4h-500.8L1529.2 661c0-111.6 165.3-113.7 165.5-179.2.6-169.3 2.4-183.2 2.4-293.6l-164.5-2zM238.1-1014.6 229-67.4C231.2 123.8 84 224.5-191 219l-97.9-2-273.1 1.4c-18.5 0-7.6-10.5-7.6-23.5V96.5c0-13-10.8-93.6 7.8-93.5l381.5-1.2S13 8.1 8.7-163.5l6.9-852.6M-521.7 705.6l460.6-5.7c203.4 10.4 292 144.9 286.5 419.8-3 112 1.9 748.6 12.3 1091.4 10.9 359.3 324.7 503.5 328.4 807-6.5 224.5 4.2 732.2 4.2 732.2l-568 6C3 2904.6 8.7 1960.7 8.2 1109c0 0 6.3-193.2-165.3-188.8l-364.6 2.4"
     id="path4343" />
  <g
     id="g4347">
    <path
       fill="#fff"
       stroke="#000"
       d="M195.8 264.3c.2 8.4 3.1 10.8 7.5 10.6 5.2-.1 7.9-4.5 7.7-11.7-.2-7.2-2-9.7-7.4-9.5-5.6.2-8 4.5-7.8 10.6zm17 83-2-64c-12.2.4-15.1.5-14.9 7l1.8 60.2c15-.5 15.2-.5 15-3.2zm6.9-61.1 2 63.5c14.6-.4 14.9-.4 14.8-3l-1.5-51a8.8 8.8 0 0 1 5-1.7c3.7-.2 4.4 2 4.6 8.9l1.5 46.1c15-.5 15.4-.5 15.3-3.1l-1.4-48.1c-.4-13.4-6.3-17-19.7-16.7a60 60 0 0 0-20.6 5zm71.6-30.2.8 26a12.3 12.3 0 0 0-8-2.2c-10.3.3-17.9 11-17 38.3.9 28.2 11.3 31.2 22.6 30.9 8.6-.3 14.8-2.5 19.3-4.6l-3-95.3c-12.4.4-15 .4-14.7 7zm1.1 37 1.4 41.3a7 7 0 0 1-4.4 1.5c-3.5 0-5-4.3-5.6-20.1-.7-22 3.2-23.2 5.8-23.3 1 0 2 0 2.8.6zm23-32.4c.2 8.4 3.1 10.8 7.5 10.6 5.2-.2 7.9-4.5 7.6-11.7-.2-7.2-1.9-9.7-7.3-9.5-5.6.2-8 4.5-7.8 10.6zm17.2 83-2-64c-12.3.4-15.3.5-15 7l1.9 60.2c15-.5 15.2-.5 15-3.2zm6.8-59.6 2 62c15.3-.5 15.3-.5 15.2-3.2L355 294c1.7-1.5 4-2.3 5.7-2.3 1.3 0 3 0 5 .9 1-3.4 1.2-7 1.1-8.7-.1-4.6-2-6.6-9.1-6.4a33 33 0 0 0-18.4 6.6zm54.6 47c-6.3.2-8.3-3.4-9-12 6.7-.3 16.5-1 23-2.6a83.6 83.6 0 0 0 1.2-19c-.5-15.4-7.1-21.5-17.8-21.1-12.5.4-23.2 6.4-22.1 38.6.8 25.3 9.5 31.2 21.7 30.8 10.4-.4 18.8-3.6 18.6-9-.1-3-.6-7.2-1.5-9.9-4.6 2.4-9.2 4-14 4.2zm-4.1-41.7c3.3-.1 4.5 1.2 4.8 9.7.1 2.1 0 5.3-.4 7-2 1-6 1.3-9.7 1.5-.1-12.2 1.3-18 5.3-18.2zm24.8-37.3 3.1 91.4c15.2-.5 15-.5 15-3.1l-.9-25s1.5-1.5 3.6-2c5.1-1 6.8 5.6 7.2 15.8.1 4.3 0 9-.2 13.5 16.6-.6 16.8-.6 17-2.9.1-3 .2-6.1 0-9-.4-10.7-3.3-20-10.4-24.9 3-3.3 7.4-10.4 7-20.4-.1-5.2-2.3-11.2-11.4-11-5.6.3-10.5 2.2-14 4.3l-1.2-33.7c-12.2.4-15 .5-14.8 7zm24.8 39.6c.3 6.5-2.5 10.5-7.9 13.7l-.4-13.3c1.5-2.3 3.3-3.8 5.6-4 1.8 0 2.7 1.3 2.7 3.6zm29.4-3.9 1.2 36.5c.4 11.8 2.8 18.7 14.5 18.3 5.1-.2 12.1-1.3 12-7.6-.2-3-.8-5.4-1.3-7.2a15.2 15.2 0 0 1-6.8 2c-3.2 0-3.3-3.3-3.5-6.3l-1.2-36.3 8-.2c2.8-.1 2.9-1.3 2.5-12.8l-11 .4-.8-24c-12 .4-15 .5-14.8 5.2l.7 19.3-5 .2c-2.8 0-3 1.4-2.5 12.7z"
       transform="translate(0 -9.9)"
       id="path4345" />
  </g>
  <path
     fill="none"
     d="M108.8 448s183.8 9.6 329.6 88C600 622.7 655 839.1 655 839.1"
     id="path4349" />
</svg>
