<svg xmlns="http://www.w3.org/2000/svg" width="14.98" height="14.98"><path fill="#f68712" d="M0 7.49A7.49 7.49 0 0 1 7.49 0a7.49 7.49 0 0 1 7.49 7.49 7.49 7.49 0 0 1-7.49 7.49A7.49 7.49 0 0 1 0 7.49"/><path fill="#fff" d="M9.835 11.592a1.313 1.313 0 1 0 2.51-.758L9.354 2.539a1.969 1.969 0 0 0-3.725 0l-2.995 8.293a1.312 1.312 0 1 0 2.511.76l.315-1.125a.472.472 0 0 1 .457-.352h3.148a.472.472 0 0 1 .455.352z"/><path fill="#f68712" d="M6.527 8.31a.354.354 0 0 1-.34-.45L7.49 3.175 8.794 7.86a.355.355 0 0 1-.341.452Z"/></svg>
