<svg width="1847.588" height="3046.397" xmlns="http://www.w3.org/2000/svg"><path fill="#a5a8a7" d="m-230.83-373.047 2476.3 16.3v4236l-2468.6-20.6z"/><path fill="#db9f9d" d="M1637.374 3972.453h-373.6V1278.315h373.6z" style="stroke-width:1.0381"/><path fill="#db9f9d" d="M1520.035 1575.749H666.888v-349.53h853.147z" style="stroke-width:.565041"/><path fill="none" stroke="#fff" stroke-dasharray="75, 25" stroke-miterlimit="10" stroke-width="12.5" d="M-.83-283.747h1574.8M99.77 50.953h1574.8"/><path fill="none" stroke="#fff" stroke-width="12.5" d="M581.87 1597.153s1.094 89.368.057 239.694c-.738 106.904 2.03 256.413 5.243 423.306-17.4 307.7 322.3 416.5 318 787.9.2 152.9-2.8 820.3-2.8 820.3"/><path fill="none" stroke="#fff" stroke-dasharray="150, 150" stroke-miterlimit="10" stroke-width="12.5" d="M906.57 2752.953v-682.5"/><path fill="#fff" d="M900.37 1600.153h12.5v590.8h-12.5z"/><path fill="#fff" d="M575.755 1556.846h12.5v260.173h-12.5z" style="stroke-width:.663607"/><g transform="matrix(-1.13015 .00739 .00555 1 1586.614 -64.46)"><rect width="155.9" height="441.8" x="671.4" y="1687.2" fill="#89bd27" rx="28" transform="rotate(.2)"/><path fill="#8a8989" d="M793.8 1694a25 34.1.2 0 1 25 34.1l-1.3 365.2a25 34.1.2 0 1-25.1 34.1l-99.8-.3a25 34.1.2 0 1-25-34.2l1.3-365.3a25 34.1.2 0 1 25-34l99.9.3m0-8.2-99.8-.4a31 42.4.2 0 0-31.2 42.3l-1.2 365.2a31 42.4.2 0 0 31 42.5l99.8.4a31.1 42.4.2 0 0 31.2-42.3l1.1-365.2a31.1 42.4.2 0 0-30.9-42.5z"/><path fill="#060709" d="m784.9 2029 6.2 31c1 5.4-3 10.5-8.3 10.5l-79.4-.3a8.7 8.7 0 0 1-8.3-10.4l6.4-31.2c.8-4 4.1-6.7 8-6.7l67.4.2c3.9 0 7.1 2.8 8 6.8zm-107.5-113.1.1-47a6 8.8.2 0 1 6.1-8.7h3.6a2.4 3.5.2 0 1 2.4 3.6l-.2 57.4a2.4 3.5.2 0 1-2.4 3.5h-3.6a6 8.8.2 0 1-6-8.8zm133.5-115.2v-5.4a6 6.8.2 0 1 6-6.8h7.7a6 6.8.2 0 1 6 6.8 6 6.8.2 0 1-6 6.8H812a1.2 1.4.2 0 1-1.2-1.4zm-155.3-6a6 6.8.2 0 1 6-6.8h7.7a6 6.8.2 0 1 6 6.9v5.4a1.2 1.4.2 0 1-1.2 1.4h-12.5a6 6.8.2 0 1-6-6.9zm21.6 206.8.1-47a6 8.8.2 0 1 6-8.7h3.7a2.4 3.5.2 0 1 2.4 3.5l-.2 57.4a2.4 3.5.2 0 1-2.4 3.5h-3.6a6 8.8.2 0 1-6-8.8zm128.1-46.6-.4 47a6 8.8.6 0 1-6.2 8.6h-3.6a2.4 3.5.6 0 1-2.4-3.6l.6-57.4a2.4 3.5.6 0 1 2.5-3.4h3.6a6 8.8.6 0 1 6 8.8zm.9-85.6-.5 47a6 8.8.6 0 1-6.2 8.6H796a2.4 3.5.6 0 1-2.4-3.5l.6-57.4a2.4 3.5.6 0 1 2.5-3.5h3.6a6 8.8.6 0 1 6 8.8zm-7.5-60.3-8.6 34.5c-1 4.4-5 7.3-9.6 7.3l-76.1-.3a9.5 9.5 0 0 1-9.5-7l-9-34.6c-1.6-5.8 3.9-11.7 10.6-11.7l91.7.3c6.6 0 12 5.8 10.5 11.5z"/><rect width="17.9" height="36.2" x="-2112.1" y="689.6" fill="#9b4c17" rx="8.9" transform="rotate(-89.8)"/><g fill="#ff7f2a" transform="translate(-1.4 391.2)"><rect width="17.9" height="36.2" x="-1720.9" y="782" rx="8.9" transform="rotate(-89.8)"/><rect width="22" height="5" x="815.1" y="1712.3" rx="0" ry="2.5"/><rect width="20" height="5" x="-150.1" y="1883.6" rx="0" ry="2.5" transform="rotate(-30)"/><rect width="20" height="5" x="1564.3" y="-1086.6" rx="0" ry="2.5" transform="scale(1 -1) rotate(-30)"/></g><rect width="17.9" height="36.2" x="-2112.1" y="777.6" fill="#9b4c17" rx="8.9" transform="rotate(-89.8)"/><rect width="17.9" height="36.2" x="-1721" y="689.6" fill="#edeeac" rx="8.9" transform="rotate(-89.8)"/><rect width="17.9" height="36.2" x="-1720.9" y="782" fill="#ff7f2a" rx="8.9" transform="rotate(-89.8)"/><rect width="22" height="5" x="815.1" y="1712.3" fill="#ff7f2a" rx="0" ry="2.5"/><rect width="20" height="5" x="-150.1" y="1883.6" fill="#ff7f2a" rx="0" ry="2.5" transform="rotate(-30)"/><rect width="20" height="5" x="1564.3" y="-1086.6" fill="#ff7f2a" rx="0" ry="2.5" transform="scale(1 -1) rotate(-30)"/><rect width="17.9" height="36.2" x="-1721" y="774.8" fill="#edeeac" rx="8.9" transform="rotate(-89.8)"/></g><path fill="#fff" d="M1095.97 2562.445h-36.5s10.8-243.7 12.3-272.6h-20.2l25.6-181.1 27.9 181h-22.7zm-337.3-7s10.8-241 12.3-269.8c1.5-28.9-13.8-40.3-19.8-40.3-.6 7.1 0 81.2 0 81.2l-30.5-97.9 30.5-126.6.6 98.5s22 3.1 25.4 36.7c11.7 108.7 12.1 211.7 18 318.3z"/><g transform="translate(-165.558 361.517) scale(1.15838)"><circle cx="1317.8" cy="1436.6" r="19.3" fill="none" stroke="#fff" stroke-width="4.8"/><circle cx="1386.7" cy="1436.3" r="19.3" fill="none" stroke="#fff" stroke-width="4.8"/><path fill="#fff" fill-rule="evenodd" d="M1343.5 1389.5c-15.9.1-13.2-1.7-21.8 25.8-7 22-6.2 19.5-6.2 21 0 1.3 1 2.2 2.2 2.3 2.5-.3 1.4.3 10.2-26.9 32 33.7 20 28.3 37.1 29 22.6-.3 24.5 1.1 24.7-2.2 0-1.1-.5-1.8-16-36.3l1.5-4 5-.2-.1-4.3h-19c-1.7 2.3.6 2.3 9.1 4.2l-1.5 4.2h-38c2.6-8.8 1.2-8.3 12.7-8.3zm-13.8 17.3h37.1l-10.7 28.8zm41.6 1.7-10.5 27.7h23z"/></g><g transform="translate(-172.136 1279.553) scale(1.15838)"><circle cx="1317.8" cy="1436.6" r="19.3" fill="none" stroke="#fff" stroke-width="4.8"/><circle cx="1386.7" cy="1436.3" r="19.3" fill="none" stroke="#fff" stroke-width="4.8"/><path fill="#fff" fill-rule="evenodd" d="M1343.5 1389.5c-15.9.1-13.2-1.7-21.8 25.8-7 22-6.2 19.5-6.2 21 0 1.3 1 2.2 2.2 2.3 2.5-.3 1.4.3 10.2-26.9 32 33.7 20 28.3 37.1 29 22.6-.3 24.5 1.1 24.7-2.2 0-1.1-.5-1.8-16-36.3l1.5-4 5-.2-.1-4.3h-19c-1.7 2.3.6 2.3 9.1 4.2l-1.5 4.2h-38c2.6-8.8 1.2-8.3 12.7-8.3zm-13.8 17.3h37.1l-10.7 28.8zm41.6 1.7-10.5 27.7h23z"/></g><path fill="#fff" d="M1238.583 1556.853h25v1031.012h-25z" style="stroke-width:1.13482"/><path fill="#fff" d="M1238.573 3344.777h25v1158.834h-25z" style="stroke-width:1.20311"/><path fill="#fff" d="M1533.818 1226.22v50.548H668.262v-50.549z" style="stroke-width:1.47852"/><path fill="#fff" d="M1239.225 1556.853v50.549H576.61v-50.55z" style="stroke-width:1.29363"/><path fill="none" stroke="#fff" stroke-dasharray="75, 25" stroke-miterlimit="10" stroke-width="12.5" d="M.57 808.953h1574.9m-1474.2 334.7h1574.8"/><path fill="#ccd0ce" stroke="#e1e1e1" stroke-linecap="round" stroke-linejoin="round" stroke-miterlimit="10" stroke-width="15" d="M1534.97-824.947h500.8v4447.4h-500.8c12.75-1498.644 1.71-2984.947 0-4447.4zm-1294.5-211.4-9.1 947.2c2.2 191.2-145 291.9-420 286.4l-97.9-2-273.1 1.4c-18.5 0-7.6-10.5-7.6-23.5v-98.4c0-13-10.8-93.6 7.8-93.5l381.5-1.2s193.3 6.3 189-165.3l6.9-852.6m-537.3 1721.7 460.6-5.7c203.4 10.4 292 144.9 286.5 419.8-3 112 7.235 811.375 17.635 1154.175 62.456 628.526 260.571 624.254 300.149 807.35 73.32 339.198 11.239 667.63 27.116 669.075l-568 6c.7-851.7 6.4-1795.6 5.9-2647.3 0 0 6.3-193.2-165.3-188.8l-364.6 2.4"/><path fill="none" d="M111.17 706.253s183.8 9.6 329.6 88c161.6 86.7 216.6 303.1 216.6 303.1"/><path fill="none" stroke="#fff" stroke-dasharray="75, 25" stroke-miterlimit="10" stroke-width="25" d="M1251.076 3186.777v-630.3"/><path style="color:#000;opacity:.5;fill:#2df45c;fill-opacity:1;stroke:#000301;stroke-width:7;stroke-miterlimit:4;stroke-dasharray:none;stroke-opacity:1" d="M-271.143 239.616c-52.412-.046-107.517.88-165.48 2.63l2.869 94.956c457.019-13.81 708.848 28.503 859.625 165.607 150.777 137.104 217.842 386.685 277.846 813.149l.006.037.004.035c12.074 84.866 68.542 139.867 132.748 161.1 64.206 21.232 135.091 20.185 204.807 22.075 69.715 1.891 137.654 6.132 190.396 26.21 52.742 20.077 91.645 51.38 117.289 123.107 69.07 193.195 47.613 394.298 56.076 734.924 1.219 392.54-3.539 1022.025-3.539 1022.025l94.998.719s4.766-629.706 3.541-1023.313v-.52l-.012-.517c-8.384-335.806 16.419-547.056-61.607-765.3-33.978-95.039-100.233-152.23-172.945-179.91-72.713-27.68-150.526-30.461-221.62-32.39-71.093-1.927-136.076-3.591-177.554-17.308-41.48-13.717-60.514-28-68.522-84.283-60.598-430.649-126.148-704.766-308-870.127C330.653 287.823 95.744 239.94-271.143 239.616Z"/><g transform="rotate(-18.09 407.925 1272.35)"><path fill="none" stroke="#fbf6f3" stroke-miterlimit="10" stroke-width="4" d="M768.7 1467.1a7.6 7 0 0 0-15.1 0v30a19.3 17.8 0 0 0-4.5-.5h-30.4a18.5 17 0 0 0-7.5 1.4v-30.9a7.6 7 0 0 0-15.1 0v39.8a7.6 7 0 0 0 4 6v1a18.7 17.3 0 0 0 18.6 17.2h30.4a18.7 17.3 0 0 0 18.8-17.3 19.4 17.9 0 0 0-.4-3.1 7.6 7 0 0 0 1.3-3.9z"/><path fill="none" stroke="#f7eee8" stroke-miterlimit="10" stroke-width="1.3" d="M720.7 1467.7a9.3 8.5 0 0 0-9.3 8.5v14a9.2 8.5 0 0 0 18.4 0v-14a9.2 8.5 0 0 0-9.1-8.5zm24.8 10.8h-2.3a8 7.4 0 0 0-8 7.4v4.8a8 7.4 0 0 0 8 7.4h2.3a8 7.4 0 0 0 8-7.4v-4.8a8 7.4 0 0 0-8-7.4z"/><rect width="180" height="8.5" x="-1580.2" y="729.6" rx="3.2" transform="rotate(-90)"/><path fill="maroon" d="M768.7 1467.1a7.6 7 0 0 0-15.1 0v30a19.3 17.8 0 0 0-4.5-.5h-30.4a18.5 17 0 0 0-7.5 1.4v-30.9a7.6 7 0 0 0-15.1 0v39.8a7.6 7 0 0 0 4 6v1a18.7 17.3 0 0 0 18.6 17.2h30.4a18.7 17.3 0 0 0 18.8-17.3 19.4 17.9 0 0 0-.4-3.1 7.6 7 0 0 0 1.3-3.9z"/><path fill="#176892" d="M720.7 1467.7a9.3 8.5 0 0 0-9.3 8.5v14a9.2 8.5 0 0 0 18.4 0v-14a9.2 8.5 0 0 0-9.1-8.5zm24.8 10.8h-2.3a8 7.4 0 0 0-8 7.4v4.8a8 7.4 0 0 0 8 7.4h2.3a8 7.4 0 0 0 8-7.4v-4.8a8 7.4 0 0 0-8-7.4z"/><rect width="19.7" height="21.3" x="-1525.1" y="721.5" fill="#fefefe" rx="9.8" transform="rotate(-90)"/><path d="m727 1438.2-25.5 17.2a3.6 3.4 0 0 0 4.3 5.4l25.4-17.2a3.647 3.343 0 1 0-4.3-5.4zm37.5 19.7-23.3-18a3.683 3.376 0 1 0-4.7 5.2l23.2 17.9a3.642 3.338 0 0 0 4.7-5.1z"/></g><g transform="matrix(1.17143 0 0 1 -353.691 391.415)"><rect x="1148.301" y="1247.945" width="155.886" height="441.752" rx="28.048" fill="#89bd27"/><path d="M1276.139 1252.085a25.026 34.146 0 0 1 25.026 34.146v365.213a25.026 34.146 0 0 1-25.026 34.146h-99.802a25.014 34.13 0 0 1-25.014-34.146V1286.23a25.014 34.13 0 0 1 25.014-34.146h99.802m0-8.248h-99.802a31.095 42.427 0 0 0-31.059 42.394v365.213a31.095 42.427 0 0 0 31.06 42.393h99.8a31.107 42.443 0 0 0 31.071-42.393V1286.23a31.107 42.443 0 0 0-31.07-42.394z" fill="#8a8989"/><path d="m1268.304 1587.123 6.323 31.122c1.076 5.35-2.998 10.46-8.293 10.46h-79.418c-5.283 0-9.37-5.14-8.294-10.46l6.323-31.122c.81-3.99 4.099-6.798 7.967-6.798h67.377c3.88 0 7.157 2.809 8.015 6.798zM1160.44 1474.42v-46.9a6.045 8.76 0 0 1 6.044-8.76h3.627a2.418 3.504 0 0 1 2.418 3.504v57.411a2.418 3.504 0 0 1-2.418 3.504h-3.627a6.045 8.76 0 0 1-6.045-8.76zm133.108-115.591v-5.449a6.045 6.81 0 0 1 6.045-6.81h7.629a6.045 6.81 0 0 1 6.044 6.81 6.045 6.81 0 0 1-6.044 6.811h-12.465a1.209 1.362 0 0 1-1.21-1.362zm-155.282-5.489a6.045 6.81 0 0 1 6.045-6.811h7.629a6.045 6.81 0 0 1 6.045 6.81v5.449a1.209 1.362 0 0 1-1.21 1.362h-12.464a6.045 6.81 0 0 1-6.045-6.81zm22.234 206.662v-46.9a6.045 8.76 0 0 1 6.044-8.759h3.627a2.418 3.504 0 0 1 2.418 3.503v57.412a2.418 3.504 0 0 1-2.418 3.503h-3.627a6.045 8.76 0 0 1-6.045-8.76zm128.024-46.949-.332 46.898a6.045 8.76.407 0 1-6.107 8.716l-3.627-.026a2.418 3.504.407 0 1-2.393-3.52l.407-57.41a2.418 3.504.407 0 1 2.443-3.486l3.627.026a6.045 8.76.407 0 1 5.982 8.802zm.548-85.581-.333 46.899a6.045 8.76.407 0 1-6.107 8.716l-3.627-.026a2.418 3.504.407 0 1-2.393-3.52l.407-57.41a2.418 3.504.407 0 1 2.443-3.487l3.627.026a6.045 8.76.407 0 1 5.983 8.802zm-7.65-60.297-8.463 34.564c-1.052 4.313-4.92 7.259-9.587 7.259h-76.166c-4.558 0-8.354-2.815-9.466-6.995l-9.213-34.565c-1.547-5.794 3.942-11.752 10.627-11.752h91.726c6.564-.033 11.932 5.744 10.542 11.489z" fill="#060709"/><rect x="-1672.852" y="1166.557" width="17.858" height="36.197" rx="8.922" transform="rotate(-90)" fill="#9b4c17"/><rect x="-1672.852" y="1254.534" width="17.858" height="36.197" rx="8.922" transform="rotate(-90)" fill="#9b4c17"/><rect x="-1281.703" y="1166.544" width="17.858" height="36.197" rx="8.922" transform="rotate(-90)" fill="#edeeac"/><rect x="-1281.703" y="1251.741" width="17.858" height="36.197" rx="8.922" transform="rotate(-90)" fill="#edeeac"/></g><path fill="#fff" d="M666.929 1226.165h12.5v376.063h-12.5z" style="stroke-width:.797829"/></svg>
