<svg xmlns="http://www.w3.org/2000/svg" width="22.516" height="22.516"><path fill="#facc1c" stroke="#957218" stroke-width=".756" d="M12.814 1.998v.734c3.086.734 4.855 3.507 4.855 6.82 0 0-.193 4.094.346 5.395.538 1.3 1.423 1.218 1.812 2.158.138.332.104 1.079.104 1.079H2.46s-.034-.747.103-1.08c.39-.94 1.274-.857 1.813-2.157.539-1.301.345-5.396.345-5.396 0-3.323 1.759-6.085 4.856-6.819v-.734c0-.895.723-1.618 1.618-1.618.896 0 1.619.723 1.619 1.618zM9.026 19.981h4.317c.015 1.037-.655 2.158-2.148 2.158-1.3 0-2.169-.983-2.169-2.158z"/></svg>
