<svg xmlns="http://www.w3.org/2000/svg" width="25" height="25" viewBox="0 0 602.022 602.024"><path fill-rule="evenodd" d="M513.53 88.552c39.1 39.093 63.44 81.245 77.757 134.656 14.312 53.464 14.312 102.147 0 155.604-14.314 53.417-38.678 95.59-77.798 134.71-39.098 39.098-81.254 63.442-134.692 77.78-53.433 14.291-102.141 14.313-155.573-.026-53.417-14.317-95.568-38.656-134.667-77.755-39.12-39.12-63.484-81.292-77.817-134.73-14.319-53.416-14.319-102.146 0-155.556 14.333-53.432 38.672-95.59 77.776-134.683 39.115-39.12 81.296-63.49 134.703-77.807 53.437-14.333 102.145-14.313 155.584-.021 53.432 14.339 95.609 38.703 134.728 77.828zm-.353.35c-39.062-39.069-81.141-63.375-134.505-77.694-53.365-14.276-101.964-14.296-155.323.021-53.344 14.298-95.412 38.604-134.48 77.672C49.823 127.948 25.531 170 11.213 223.36c-14.292 53.339-14.292 101.957.006 155.296 14.317 53.365 38.63 95.443 77.698 134.51 39.042 39.042 81.099 63.329 134.432 77.626 53.364 14.317 101.958 14.292 155.323.025 53.364-14.317 95.416-38.604 134.464-77.645 39.067-39.068 63.375-81.145 77.667-134.49 14.296-53.385 14.296-101.958 0-155.338C576.516 170 552.224 127.943 513.177 88.9z"/><path fill="#fff" fill-rule="evenodd" d="M88.87 88.901c39.067-39.068 81.135-63.374 134.48-77.672 53.358-14.317 101.957-14.297 155.322-.021 53.364 14.319 95.443 38.625 134.505 77.693 39.052 39.042 63.339 81.099 77.626 134.443 14.296 53.38 14.296 101.959.004 155.344-14.296 53.339-38.604 95.416-77.671 134.484-39.048 39.041-81.1 63.328-134.459 77.645-53.365 14.27-101.964 14.292-155.328-.025-53.333-14.297-95.385-38.579-134.432-77.625C49.85 474.099 25.541 432.02 11.22 378.656c-14.298-53.339-14.298-101.957 0-155.301C25.53 170 49.823 127.948 88.869 88.9z"/><path fill="#154889" fill-rule="evenodd" d="M98.792 98.781c37.213-37.213 77.333-60.401 128.197-73.994 50.855-13.642 97.219-13.642 148.058-.027 50.854 13.595 91 36.803 128.234 74.043 37.219 37.213 60.355 77.338 73.97 128.166 13.618 50.886 13.618 97.203.004 148.083-13.619 50.833-36.782 90.98-73.995 128.193-37.239 37.234-77.359 60.422-128.213 74.015-50.839 13.62-97.203 13.62-148.063-.02-50.859-13.595-90.953-36.761-128.172-73.97-37.233-37.243-60.443-77.385-74.03-128.238-13.626-50.833-13.626-97.204 0-148.037 13.587-50.854 36.775-90.98 74.01-128.214z"/><path fill="#fff" d="M457.317 420.38c-37.15 9.584-75.046-12.76-84.634-49.91h71.604a8.8 8.8 0 0 0 3.53-.746c4.386-1.953 6.36-7.083 4.386-11.47l-32.036-71.722c.802-.256 1.604-.47 2.412-.683 37.134-9.59 75.03 12.744 84.634 49.896 9.584 37.15-12.76 75.047-49.896 84.63zm-53.066-126.87 26.64 59.605h-60.422c0-24.422 12.848-47.058 33.782-59.604zm-51.136 59.605h-17.37l43.416-115.776 17.99 40.229a86.814 86.814 0 0 0-44.036 75.547zm-35.574-.927-108.738-120.63h153.973zm-92.186 29.599c-15.839 34.953-56.995 50.426-91.948 34.604-34.938-15.84-50.428-57.011-34.59-91.948 13.095-28.896 44.115-45.25 75.35-39.73l-20.37 65.823a8.672 8.672 0 0 0 5.719 10.876c4.577 1.41 9.448-1.152 10.859-5.719l20.39-65.838c34.932 15.822 50.423 56.994 34.59 91.932zM522.5 326.203c-14.864-45.6-63.88-70.51-109.464-55.64l-25.197-56.375 6.521-17.37h19.541v-17.354H340.1a4.339 4.339 0 0 0-4.235 3.323c-.561 2.338.887 4.672 3.22 5.234l36.723 8.802-6.504 17.365H214.188l6.963-22.495a17.368 17.368 0 0 1 16.594-12.23h28.536v-17.37h-28.536c-15.229 0-28.682 9.907-33.177 24.459l-25.224 81.475c-40.475-8.22-81.13 13.213-97.224 51.244-18.693 44.16 1.973 95.12 46.13 113.808 44.162 18.686 95.114-1.96 113.807-46.115 18.688-44.161-1.958-95.12-46.136-113.808l6.907-22.301 102.65 113.896a17.34 17.34 0 0 0 12.897 5.718h36.5c.652 3.25 1.5 6.432 2.521 9.558 14.864 45.604 63.88 70.514 109.464 55.645 45.604-14.85 70.495-63.864 55.645-109.47"/></svg>