<svg width="128.728" height="134.839" xmlns="http://www.w3.org/2000/svg"><circle cx="-43.576" cy="24.919" r="9.386" style="stroke-width:.297955;fill:#fff;opacity:.8" transform="scale(-1 1) rotate(18.987)"/><path d="m21.183 44.667 11.06-22.662.008-.017c1.942-3.264 3.159-4.393 7.817-4.478l.012.001c1.237.044 2.366.522 3.631 1.184l.014.008c.386.233.698.5 1.023.755l.006.005L59.939 32.67l12.876-4.43a4.022 4.022 0 1 1 2.618 7.607l-15.214 5.235-.002-.004a4.017 4.017 0 0 1-3.948-.765L45.7 31.119l-7.306 14.97 13.851 2.728a6.7 6.7 0 0 1 5.122 4.59l.003-.002 8.725 25.357a5.363 5.363 0 0 1-10.143 3.49L48.924 61.83l-21.141-4.152c-7.32-1.36-9.347-7.291-6.6-13.01Z" style="stroke-width:.297955;fill:#fff;opacity:.8"/><path d="M85.657 40.836c13.304-4.577 27.8 2.496 32.378 15.8 4.578 13.305-2.497 27.8-15.8 32.378-13.305 4.578-27.8-2.496-32.378-15.8-4.578-13.304 2.496-27.8 15.8-32.378Zm14.396 41.84c9.803-3.374 15.016-14.055 11.643-23.858-3.374-9.803-14.055-15.015-23.858-11.642-9.803 3.373-15.015 14.054-11.642 23.857 3.373 9.803 14.054 15.015 23.857 11.642z" style="stroke-width:.297955;fill:#fff;opacity:.8"/><path d="M17.194 64.393c13.304-4.577 27.8 2.496 32.377 15.8 4.578 13.305-2.496 27.8-15.8 32.378-13.305 4.578-27.8-2.496-32.378-15.8-4.578-13.305 2.496-27.8 15.8-32.378Zm14.395 41.84c9.803-3.374 15.016-14.055 11.643-23.858-3.373-9.803-14.054-15.015-23.857-11.642C9.572 74.106 4.359 84.786 7.732 94.59c3.373 9.803 14.054 15.015 23.857 11.642Z" style="stroke:none;stroke-width:.498;stroke-miterlimit:4;stroke-dasharray:none;fill:#fff;opacity:.8"/><path style="fill:#fff;stroke:#fff;stroke-width:6.7;stroke-linecap:butt;stroke-linejoin:miter;stroke-miterlimit:4;stroke-dasharray:none;stroke-opacity:1;opacity:.8" d="M.026 131.489c3.285-.006 6.56-.369 9.833-.617 17.495-2.1 40.056-16.089 58.399-21.285 15.703-3.774 37.72-8.815 50.392-16.699 3.87-2.408 7.896-5.265 10.009-5.22"/></svg>
