<svg xmlns="http://www.w3.org/2000/svg" width="128.728" height="134.839"><circle cx="-43.576" cy="24.919" r="9.386" fill="#fff" stroke="#000" stroke-width=".298" opacity=".8" transform="scale(-1 1) rotate(18.987)"/><path fill="#fff" stroke="#000" stroke-width=".298" d="m21.183 44.667 11.06-22.662.008-.017c1.942-3.264 3.159-4.393 7.817-4.478l.012.001c1.237.044 2.366.522 3.631 1.184l.014.008c.386.233.698.5 1.023.755l.006.005L59.939 32.67l12.876-4.43a4.022 4.022 0 1 1 2.618 7.607l-15.214 5.235-.002-.004a4.017 4.017 0 0 1-3.948-.765L45.7 31.119l-7.306 14.97 13.851 2.728a6.7 6.7 0 0 1 5.122 4.59l.003-.002 8.725 25.357a5.363 5.363 0 0 1-10.143 3.49L48.924 61.83l-21.141-4.152c-7.32-1.36-9.347-7.291-6.6-13.01Z" opacity=".8"/><path fill="#fff" stroke="#000" stroke-width=".298" d="M85.657 40.836c13.304-4.577 27.8 2.496 32.378 15.8 4.578 13.305-2.497 27.8-15.8 32.378-13.305 4.578-27.8-2.496-32.378-15.8-4.578-13.304 2.496-27.8 15.8-32.378Zm14.396 41.84c9.803-3.374 15.016-14.055 11.643-23.858-3.374-9.803-14.055-15.015-23.858-11.642-9.803 3.373-15.015 14.054-11.642 23.857 3.373 9.803 14.054 15.015 23.857 11.642zM17.194 64.393c13.304-4.577 27.8 2.496 32.377 15.8 4.578 13.305-2.496 27.8-15.8 32.378-13.305 4.578-27.8-2.496-32.378-15.8-4.578-13.305 2.496-27.8 15.8-32.378Zm14.395 41.84c9.803-3.374 15.016-14.055 11.643-23.858-3.373-9.803-14.054-15.015-23.857-11.642C9.572 74.106 4.359 84.786 7.732 94.59c3.373 9.803 14.054 15.015 23.857 11.642Z" opacity=".8"/><path fill="#fff" stroke="#000" stroke-width=".298" d="M128.911 84.357c-2.61-.055-4.243 1.077-6.147 2.172-1.904 1.096-3.889 2.423-5.762 3.588-11.738 7.303-33.67 12.505-49.406 16.287l-.064.016-.065.017c-19.154 5.426-41.77 19.231-57.853 21.176-3.308.253-6.785.594-9.791.6l.012 6.701c3.527-.006 7.202-.385 10.398-.627l.074-.006.072-.01c18.899-2.268 41.38-16.414 58.897-21.38 15.664-3.764 37.69-8.639 51.265-17.085 1.997-1.242 3.96-2.547 5.565-3.47 1.605-.924 3.282-1.25 2.784-1.26z" color="#000" opacity=".8"/></svg>