<svg width="1151.252" height="1573.231" xmlns="http://www.w3.org/2000/svg"><rect width="1073.18" height="2639.111" x="41.779" y="-483.101" ry="2.829" fill="#a5a8a7"/><path d="M442.235-13.245h12.5v1572.142h-12.5z" fill="#fff"/><path d="m506.53-8.265.42 2128.01" fill="#3b3b3b" stroke="#c5c5c5" stroke-width="10.615" stroke-linecap="round" stroke-linejoin="round" stroke-dasharray="42.4587,42.4587"/><rect width="134.825" height="24.264" x="-387.608" y="1282.805" ry="12.132" transform="rotate(-33.88)" fill="#8a8989"/><rect x="-432.778" y="-1399.748" width="176.51" height="441.753" rx="31.759" transform="rotate(-179.838) skewX(-.046)" fill="#216778"/><path d="M282.95 1396.415a28.337 34.146.31 0 1-28.212-34.226l1.328-365.21a28.337 34.146.31 0 1 28.46-34.067l113.007.32a28.323 34.13.31 0 1 28.2 34.227l-1.329 365.212a28.323 34.13.31 0 1-28.448 34.065l-113.004-.32m-.03 8.248 113.005.32a35.209 42.427.31 0 0 35.323-42.294l1.328-365.21a35.209 42.427.31 0 0-35.015-42.493l-113.003-.32a35.222 42.443.31 0 0-35.336 42.292l-1.328 365.211a35.222 42.443.31 0 0 35.026 42.494z" fill="#8a8989"/><path d="m293.04 1061.404-7.046-31.142c-1.199-5.354 3.432-10.45 9.428-10.434l89.925.255c5.982.017 10.59 5.17 9.353 10.487l-7.273 31.102c-.93 3.987-4.665 6.784-9.045 6.772l-76.291-.216c-4.393-.013-8.094-2.832-9.05-6.824zM263.627 1289.615l-.02 5.45c-.015 3.76-3.09 6.8-6.87 6.79l-8.639-.024c-3.78-.012-6.831-3.07-6.817-6.83.014-3.76 3.088-6.8 6.867-6.79l14.114.04c.757 0 1.368.613 1.366 1.365zM415.007 1088.871l-.17 46.9a6.845 8.76.28 0 1-6.875 8.74l-4.107-.013a2.738 3.504.28 0 1-2.725-3.51l.208-57.412a2.738 3.504.28 0 1 2.752-3.495l4.105.011a6.845 8.76.28 0 1 6.813 8.78zm-145.131 46.538.547-46.897a6.845 8.76.9 0 1 6.947-8.697l4.106.038a2.738 3.504.9 0 1 2.696 3.528l-.669 57.408a2.738 3.504.9 0 1-2.778 3.478l-4.107-.038a6.845 8.76.9 0 1-6.742-8.82zm-.932 85.578.548-46.897a6.845 8.76.9 0 1 6.947-8.697l4.107.038a2.738 3.504.9 0 1 2.696 3.528l-.668 57.408a2.738 3.504.9 0 1-2.78 3.48l-4.107-.038a6.845 8.76.9 0 1-6.743-8.822z" fill="#060709"/><rect x="974.84" y="-412.106" width="17.858" height="40.986" rx="8.922" transform="rotate(90.208) skewX(.046)" fill="#793b12"/><rect x="974.84" y="-312.49" width="17.858" height="40.986" rx="8.922" transform="rotate(90.208) skewX(.046)" fill="#793b12"/><rect x="1365.989" y="-412.121" width="17.858" height="40.986" rx="8.922" transform="rotate(90.208) skewX(.046)" fill="#898b1c"/><rect x="1365.989" y="-315.653" width="17.858" height="40.986" rx="8.922" transform="rotate(90.208) skewX(.046)" fill="#898b1c"/><path d="M5.734-630.609h215.078l13.164 2024.69c4.067 167.766 223.898 57.758 224.925 177.29 3.626 421.88.445 1297.633.445 1297.633l-453.612-2.262zM928.038-525.23h215.078v3497.35H928.038Z" fill="#ccd0ce" stroke="#e1e1e1" stroke-width="15.631" stroke-linecap="round" stroke-linejoin="round" stroke-miterlimit="10"/><rect width="134.825" height="24.264" x="-387.145" y="1276.301" ry="12.132" transform="rotate(-33.88)" fill="#216778"/><path d="m494.264 1228.746-38.55 26.712a6.845 8.76 55.354 0 1-11.102-.633l-2.342-3.374a2.738 3.504 55.354 0 1 1.32-4.245l47.188-32.698a2.738 3.504 55.354 0 1 4.443.254l2.34 3.374a6.845 8.76 55.354 0 1-3.298 10.611zM437.655 1294.451c-3.128 2.089-7.367 1.236-9.47-1.907l-4.803-7.18c-2.1-3.143-1.268-7.383 1.86-9.471l4.532-3.026a1.367 1.367 0 0 1 1.894.382l7.846 11.731c2.1 3.143 1.269 7.383-1.86 9.472z" fill="#060709"/><path d="m583.968-8.265.42 2128.01" fill="#3b3b3b" stroke="#c5c5c5" stroke-width="10.615" stroke-linecap="round" stroke-linejoin="round" stroke-dasharray="42.4588,42.4588"/><g transform="rotate(180 1021.243 845.737)"><path d="M1531.955 990.245a7.587 7.003 0 0 0-15.16 0v29.966a19.257 17.777 0 0 0-4.48-.513h-30.4a18.504 17.081 0 0 0-7.48 1.44v-30.893a7.587 7.003 0 0 0-15.16 0v39.727a7.56 6.979 0 0 0 3.964 6.1v.854a18.702 17.265 0 0 0 18.716 17.265h30.4a18.702 17.265 0 0 0 18.714-17.265 19.39 17.899 0 0 0-.317-3.16 7.56 6.979 0 0 0 1.243-3.843z" fill="none" stroke="#432918" stroke-width="1.27" stroke-miterlimit="10"/><path d="M1483.871 990.83a9.252 8.54 0 0 0-9.252 8.468v13.946a9.186 8.48 0 0 0 18.359 0v-13.946a9.173 8.468 0 0 0-9.107-8.467zm24.835 10.786h-2.3a8.062 7.443 0 0 0-8.062 7.443v4.758a8.062 7.443 0 0 0 8.062 7.43h2.3a8.05 7.43 0 0 0 8.05-7.43v-4.758a8.062 7.443 0 0 0-8.05-7.443z" fill="none" stroke="#432918" stroke-width="1.27" stroke-miterlimit="10"/><rect x="-1103.279" y="1492.793" width="180" height="8.525" rx="3.172" transform="rotate(-90)" fill="#060709"/><path d="M1531.955 990.245a7.587 7.003 0 0 0-15.16 0v29.966a19.257 17.777 0 0 0-4.48-.513h-30.4a18.504 17.081 0 0 0-7.48 1.44v-30.893a7.587 7.003 0 0 0-15.16 0v39.727a7.56 6.979 0 0 0 3.964 6.1v.854a18.702 17.265 0 0 0 18.716 17.265h30.4a18.702 17.265 0 0 0 18.714-17.265 19.39 17.899 0 0 0-.317-3.16 7.56 6.979 0 0 0 1.243-3.843z" fill="#fc0"/><path d="M1483.871 990.83a9.252 8.54 0 0 0-9.252 8.468v13.946a9.186 8.48 0 0 0 18.359 0v-13.946a9.173 8.468 0 0 0-9.107-8.467zm24.835 10.786h-2.3a8.062 7.443 0 0 0-8.062 7.443v4.758a8.062 7.443 0 0 0 8.062 7.43h2.3a8.05 7.43 0 0 0 8.05-7.43v-4.758a8.062 7.443 0 0 0-8.05-7.443z" fill="#1e8dc7"/><rect x="-1048.261" y="1484.744" width="19.68" height="21.319" rx="9.834" transform="rotate(-90)" fill="#b04f1a"/><path d="m1490.202 961.316-25.496 17.204a3.635 3.355 0 0 0 4.283 5.417l25.43-17.216a3.627 3.348 0 1 0-4.283-5.405zm37.47 19.68-23.275-17.935a3.621 3.343 0 1 0-4.639 5.124l23.196 17.924a3.622 3.343 0 0 0 4.653-5.125z" fill="#060709"/></g><g transform="translate(-537.263 -250.649)"><path d="M1085.588 460.91a7.587 7.003 0 0 0 15.16 0v-29.966a19.257 17.777 0 0 0 4.48.513h30.4a18.504 17.081 0 0 0 7.48-1.44v30.893a7.587 7.003 0 0 0 15.16 0v-39.727a7.56 6.979 0 0 0-3.964-6.1v-.854a18.702 17.265 0 0 0-18.716-17.265h-30.4a18.702 17.265 0 0 0-18.714 17.265 19.39 17.899 0 0 0 .317 3.16 7.56 6.979 0 0 0-1.243 3.843z" fill="none" stroke="#432918" stroke-width="1.27" stroke-miterlimit="10"/><path d="M1133.672 460.325a9.252 8.54 0 0 0 9.252-8.468v-13.946a9.186 8.48 0 0 0-18.359 0v13.946a9.173 8.468 0 0 0 9.107 8.467zm-24.835-10.786h2.3a8.062 7.443 0 0 0 8.062-7.443v-4.758a8.062 7.443 0 0 0-8.062-7.43h-2.3a8.05 7.43 0 0 0-8.05 7.43v4.758a8.062 7.443 0 0 0 8.05 7.443z" fill="none" stroke="#432918" stroke-width="1.27" stroke-miterlimit="10"/><rect x="347.876" y="-1124.751" width="180" height="8.525" rx="3.172" transform="rotate(90)" fill="#060709"/><path d="M1085.588 460.91a7.587 7.003 0 0 0 15.16 0v-29.966a19.257 17.777 0 0 0 4.48.513h30.4a18.504 17.081 0 0 0 7.48-1.44v30.893a7.587 7.003 0 0 0 15.16 0v-39.727a7.56 6.979 0 0 0-3.964-6.1v-.854a18.702 17.265 0 0 0-18.716-17.265h-30.4a18.702 17.265 0 0 0-18.714 17.265 19.39 17.899 0 0 0 .317 3.16 7.56 6.979 0 0 0-1.243 3.843z" fill="#8aff8a"/><path d="M1133.672 460.325a9.252 8.54 0 0 0 9.252-8.468v-13.946a9.186 8.48 0 0 0-18.359 0v13.946a9.173 8.468 0 0 0 9.107 8.467zm-24.835-10.786h2.3a8.062 7.443 0 0 0 8.062-7.443v-4.758a8.062 7.443 0 0 0-8.062-7.43h-2.3a8.05 7.43 0 0 0-8.05 7.43v4.758a8.062 7.443 0 0 0 8.05 7.443z" fill="#28a0df"/><rect x="402.894" y="-1132.799" width="19.68" height="21.319" rx="9.834" transform="rotate(90)" fill="#e06c2d"/><path d="m1127.341 489.839 25.496-17.204a3.635 3.355 0 0 0-4.283-5.417l-25.43 17.216a3.627 3.348 0 1 0 4.283 5.405zm-37.47-19.68 23.275 17.935a3.621 3.343 0 1 0 4.64-5.124l-23.197-17.924a3.622 3.343 0 0 0-4.653 5.125z" fill="#060709"/></g><g transform="translate(-457.686 95.974)"><path d="M929.587 1034.77a7.587 7.003 0 0 0 15.16 0v-29.966a19.257 17.777 0 0 0 4.48.513h30.4a18.504 17.081 0 0 0 7.48-1.44v30.893a7.587 7.003 0 0 0 15.16 0v-39.727a7.56 6.979 0 0 0-3.964-6.1v-.854a18.702 17.265 0 0 0-18.716-17.265h-30.4a18.702 17.265 0 0 0-18.714 17.265 19.39 17.899 0 0 0 .317 3.16 7.56 6.979 0 0 0-1.243 3.843z" fill="none" stroke="#432918" stroke-width="1.27" stroke-miterlimit="10"/><path d="M977.671 1034.185a9.252 8.54 0 0 0 9.252-8.468v-13.946a9.186 8.48 0 0 0-18.359 0v13.946a9.173 8.468 0 0 0 9.107 8.467zm-24.835-10.786h2.3a8.062 7.443 0 0 0 8.062-7.443v-4.758a8.062 7.443 0 0 0-8.062-7.43h-2.3a8.05 7.43 0 0 0-8.05 7.43v4.758a8.062 7.443 0 0 0 8.05 7.443z" fill="none" stroke="#432918" stroke-width="1.27" stroke-miterlimit="10"/><rect x="921.736" y="-968.75" width="180" height="8.525" rx="3.172" transform="rotate(90)" fill="#060709"/><path d="M929.587 1034.77a7.587 7.003 0 0 0 15.16 0v-29.966a19.257 17.777 0 0 0 4.48.513h30.4a18.504 17.081 0 0 0 7.48-1.44v30.893a7.587 7.003 0 0 0 15.16 0v-39.727a7.56 6.979 0 0 0-3.964-6.1v-.854a18.702 17.265 0 0 0-18.716-17.265h-30.4a18.702 17.265 0 0 0-18.714 17.265 19.39 17.899 0 0 0 .317 3.16 7.56 6.979 0 0 0-1.243 3.843z" fill="maroon"/><path d="M977.671 1034.185a9.252 8.54 0 0 0 9.252-8.468v-13.946a9.186 8.48 0 0 0-18.359 0v13.946a9.173 8.468 0 0 0 9.107 8.467zm-24.835-10.786h2.3a8.062 7.443 0 0 0 8.062-7.443v-4.758a8.062 7.443 0 0 0-8.062-7.43h-2.3a8.05 7.43 0 0 0-8.05 7.43v4.758a8.062 7.443 0 0 0 8.05 7.443z" fill="#176892"/><rect x="976.754" y="-976.798" width="19.68" height="21.319" rx="9.834" transform="rotate(90)"/><path d="m971.34 1063.7 25.496-17.205a3.635 3.355 0 0 0-4.283-5.417l-25.43 17.216a3.627 3.348 0 1 0 4.283 5.405zm-37.47-19.68 23.275 17.934a3.621 3.343 0 1 0 4.64-5.124l-23.197-17.924a3.622 3.343 0 0 0-4.653 5.125z" fill="#060709"/></g><path d="m277.388 1281.31 9.708-34.538c1.206-4.31 5.597-7.243 10.881-7.228l86.242.244c5.161.015 9.449 2.842 10.693 7.026l10.307 34.594c1.73 5.8-4.507 11.74-12.076 11.718l-103.86-.295c-7.433.012-13.49-5.782-11.895-11.522z" fill="#060709"/><rect width="134.825" height="24.264" x="-121.655" y="887.752" ry="12.132" transform="rotate(-33.88)" fill="#8a8989"/><rect x="-431.619" y="-923.514" width="176.51" height="441.753" rx="31.759" transform="rotate(-179.838) skewX(-.046)" fill="#216778"/><path d="M283.523 920.182a28.337 34.146.31 0 1-28.212-34.226l1.328-365.211a28.337 34.146.31 0 1 28.46-34.066l113.006.32a28.323 34.13.31 0 1 28.2 34.227l-1.328 365.212a28.323 34.13.31 0 1-28.448 34.065l-113.005-.32m-.03 8.248 113.006.32a35.209 42.427.31 0 0 35.323-42.294l1.328-365.21a35.209 42.427.31 0 0-35.015-42.493l-113.004-.32a35.222 42.443.31 0 0-35.335 42.292l-1.329 365.21a35.222 42.443.31 0 0 35.027 42.495z" fill="#8a8989"/><path d="m293.613 585.17-7.046-31.141c-1.2-5.354 3.432-10.45 9.427-10.434l89.925.255c5.982.017 10.59 5.17 9.353 10.487L388 585.439c-.93 3.987-4.665 6.784-9.044 6.772l-76.291-.216c-4.394-.013-8.094-2.832-9.05-6.824zM264.2 813.382l-.021 5.45c-.014 3.76-3.089 6.8-6.869 6.79l-8.64-.024c-3.779-.012-6.83-3.07-6.817-6.83.014-3.76 3.089-6.8 6.868-6.79l14.114.04c.756 0 1.368.612 1.365 1.365zM415.58 612.638l-.17 46.9a6.845 8.76.28 0 1-6.875 8.74l-4.107-.013a2.738 3.504.28 0 1-2.726-3.51l.209-57.412a2.738 3.504.28 0 1 2.751-3.495l4.106.01a6.845 8.76.28 0 1 6.813 8.78zm-145.132 46.538.547-46.897a6.845 8.76.9 0 1 6.947-8.697l4.107.038a2.738 3.504.9 0 1 2.696 3.528l-.67 57.408a2.738 3.504.9 0 1-2.778 3.478l-4.107-.038a6.845 8.76.9 0 1-6.742-8.82zm-.931 85.578.548-46.897a6.845 8.76.9 0 1 6.946-8.697l4.107.038a2.738 3.504.9 0 1 2.696 3.528l-.668 57.408a2.738 3.504.9 0 1-2.78 3.48l-4.107-.038a6.845 8.76.9 0 1-6.742-8.822z" fill="#060709"/><rect x="498.607" y="-410.947" width="17.858" height="40.986" rx="8.922" transform="rotate(90.208) skewX(.046)" fill="#793b12"/><rect x="498.607" y="-311.331" width="17.858" height="40.986" rx="8.922" transform="rotate(90.208) skewX(.046)" fill="#793b12"/><rect x="889.756" y="-410.962" width="17.858" height="40.986" rx="8.922" transform="rotate(90.208) skewX(.046)" fill="#898b1c"/><rect x="889.756" y="-314.494" width="17.858" height="40.986" rx="8.922" transform="rotate(90.208) skewX(.046)" fill="#898b1c"/><rect width="134.825" height="24.264" x="-121.192" y="881.247" ry="12.132" transform="rotate(-33.88)" fill="#216778"/><path d="m494.836 752.513-38.55 26.712a6.845 8.76 55.354 0 1-11.102-.633l-2.341-3.374a2.738 3.504 55.354 0 1 1.319-4.245l47.189-32.698a2.738 3.504 55.354 0 1 4.442.253l2.341 3.374a6.845 8.76 55.354 0 1-3.298 10.612zM438.228 818.218c-3.128 2.089-7.368 1.235-9.47-1.907l-4.803-7.181c-2.101-3.142-1.268-7.382 1.86-9.47l4.531-3.026a1.367 1.367 0 0 1 1.894.382l7.846 11.731c2.101 3.143 1.27 7.383-1.86 9.471zM277.96 805.076l9.709-34.537c1.205-4.31 5.596-7.243 10.88-7.228l86.243.244c5.16.015 9.449 2.842 10.693 7.026l10.306 34.594c1.73 5.799-4.506 11.74-12.076 11.718l-103.86-.295c-7.432.012-13.49-5.782-11.895-11.522z" fill="#060709"/><rect width="134.825" height="24.264" x="138.57" y="503.418" ry="12.132" transform="rotate(-33.88)" fill="#8a8989"/><rect x="-431.724" y="-459.371" width="176.51" height="441.753" rx="31.759" transform="rotate(-179.838) skewX(-.046)" fill="#216778"/><path d="M285.317 456.042a28.337 34.146.31 0 1-28.213-34.226l1.328-365.211a28.337 34.146.31 0 1 28.46-34.066l113.007.32a28.323 34.13.31 0 1 28.2 34.227l-1.329 365.212a28.323 34.13.31 0 1-28.448 34.065l-113.004-.32m-.03 8.248 113.005.32a35.209 42.427.31 0 0 35.323-42.294l1.328-365.21a35.209 42.427.31 0 0-35.015-42.493l-113.003-.32a35.222 42.443.31 0 0-35.336 42.292l-1.328 365.211a35.222 42.443.31 0 0 35.026 42.494z" fill="#8a8989"/><path d="m295.407 121.031-7.047-31.142c-1.199-5.354 3.432-10.45 9.428-10.434l89.925.255c5.982.017 10.59 5.17 9.353 10.487l-7.273 31.102c-.93 3.987-4.665 6.784-9.045 6.772l-76.291-.216c-4.393-.013-8.094-2.832-9.05-6.824zM265.993 349.242l-.02 5.45c-.015 3.76-3.09 6.8-6.87 6.79l-8.639-.024c-3.78-.012-6.831-3.07-6.817-6.83.014-3.76 3.088-6.8 6.867-6.79l14.114.04c.757 0 1.368.612 1.366 1.365zM417.373 148.498l-.17 46.9a6.845 8.76.28 0 1-6.875 8.74l-4.107-.013a2.738 3.504.28 0 1-2.725-3.51l.208-57.412a2.738 3.504.28 0 1 2.752-3.495l4.105.011a6.845 8.76.28 0 1 6.814 8.78zm-145.131 46.538.547-46.897a6.845 8.76.9 0 1 6.947-8.697l4.106.038a2.738 3.504.9 0 1 2.696 3.528l-.669 57.408a2.738 3.504.9 0 1-2.778 3.478l-4.107-.038a6.845 8.76.9 0 1-6.742-8.82zm-.932 85.578.548-46.897a6.845 8.76.9 0 1 6.947-8.697l4.107.038a2.738 3.504.9 0 1 2.696 3.528l-.668 57.408a2.738 3.504.9 0 1-2.78 3.48l-4.107-.038a6.845 8.76.9 0 1-6.743-8.822z" fill="#060709"/><rect x="34.463" y="-411.053" width="17.858" height="40.986" rx="8.922" transform="rotate(90.208) skewX(.046)" fill="#793b12"/><rect x="34.463" y="-311.437" width="17.858" height="40.986" rx="8.922" transform="rotate(90.208) skewX(.046)" fill="#793b12"/><rect x="425.613" y="-411.068" width="17.858" height="40.986" rx="8.922" transform="rotate(90.208) skewX(.046)" fill="#898b1c"/><rect x="425.613" y="-314.599" width="17.858" height="40.986" rx="8.922" transform="rotate(90.208) skewX(.046)" fill="#898b1c"/><rect width="134.825" height="24.264" x="139.033" y="496.914" ry="12.132" transform="rotate(-33.88)" fill="#216778"/><path d="m496.63 288.373-38.55 26.712a6.845 8.76 55.354 0 1-11.102-.633l-2.342-3.374a2.738 3.504 55.354 0 1 1.32-4.245l47.188-32.698a2.738 3.504 55.354 0 1 4.443.253l2.34 3.374a6.845 8.76 55.354 0 1-3.298 10.612zM440.021 354.078c-3.128 2.089-7.367 1.235-9.47-1.907l-4.803-7.181c-2.1-3.142-1.268-7.382 1.86-9.47l4.532-3.026a1.367 1.367 0 0 1 1.894.382l7.846 11.731c2.1 3.143 1.269 7.383-1.86 9.471zM279.754 340.936l9.708-34.537c1.206-4.31 5.597-7.243 10.881-7.228l86.242.244c5.161.015 9.449 2.842 10.693 7.026l10.307 34.594c1.73 5.799-4.507 11.74-12.076 11.718l-103.86-.295c-7.433.012-13.49-5.782-11.895-11.522z" fill="#060709"/><g transform="matrix(-1.17143 -.00321 .00376 -1 1184.44 676.881)"><rect x="-416.821" y="-471.996" width="155.886" height="441.752" rx="28.048" transform="scale(-1)" fill="#89bd27"/><path d="M288.983 467.856a25.026 34.146 0 0 1-25.026-34.146V68.497a25.026 34.146 0 0 1 25.026-34.146h99.802A25.014 34.13 0 0 1 413.8 68.497v365.214a25.014 34.13 0 0 1-25.014 34.146h-99.802m0 8.248h99.802a31.095 42.427 0 0 0 31.06-42.394V68.498a31.095 42.427 0 0 0-31.06-42.393h-99.8a31.107 42.443 0 0 0-31.072 42.393v365.213a31.107 42.443 0 0 0 31.07 42.394z" fill="#8a8989"/><path d="m296.818 132.818-6.323-31.122c-1.076-5.35 2.998-10.46 8.293-10.46h79.418c5.283 0 9.37 5.14 8.294 10.46l-6.323 31.122c-.81 3.99-4.099 6.798-7.967 6.798h-67.377c-3.88 0-7.157-2.809-8.015-6.798zM404.682 245.521v46.9a6.045 8.76 0 0 1-6.044 8.76h-3.627a2.418 3.504 0 0 1-2.418-3.504v-57.411a2.418 3.504 0 0 1 2.418-3.504h3.627a6.045 8.76 0 0 1 6.045 8.76zM271.574 361.112v5.449a6.045 6.81 0 0 1-6.045 6.81H257.9a6.045 6.81 0 0 1-6.044-6.81 6.045 6.81 0 0 1 6.044-6.811h12.465a1.209 1.362 0 0 1 1.21 1.362zm155.282 5.489a6.045 6.81 0 0 1-6.045 6.811h-7.629a6.045 6.81 0 0 1-6.045-6.81v-5.449a1.209 1.362 0 0 1 1.21-1.362h12.464a6.045 6.81 0 0 1 6.045 6.81zM404.622 159.939v46.9a6.045 8.76 0 0 1-6.044 8.759h-3.627a2.418 3.504 0 0 1-2.418-3.503v-57.412a2.418 3.504 0 0 1 2.418-3.503h3.627a6.045 8.76 0 0 1 6.045 8.76zm-128.024 46.949.332-46.898a6.045 8.76.407 0 1 6.107-8.716l3.627.026a2.418 3.504.407 0 1 2.393 3.52l-.407 57.41a2.418 3.504.407 0 1-2.443 3.486l-3.627-.026a6.045 8.76.407 0 1-5.982-8.802zm-.548 85.581.333-46.899a6.045 8.76.407 0 1 6.107-8.716l3.627.026a2.418 3.504.407 0 1 2.393 3.52l-.407 57.41a2.418 3.504.407 0 1-2.443 3.487l-3.627-.026a6.045 8.76.407 0 1-5.983-8.802zM283.7 352.766l8.463-34.564c1.052-4.313 4.92-7.259 9.587-7.259h76.166c4.558 0 8.354 2.815 9.466 6.995l9.213 34.565c1.547 5.794-3.942 11.752-10.627 11.752h-91.726c-6.564.033-11.932-5.744-10.542-11.489z" fill="#060709"/><rect x="47.089" y="-398.565" width="17.858" height="36.197" rx="8.922" transform="rotate(90)" fill="#9b4c17"/><rect x="47.089" y="-310.588" width="17.858" height="36.197" rx="8.922" transform="rotate(90)" fill="#9b4c17"/><rect x="438.238" y="-398.578" width="17.858" height="36.197" rx="8.922" transform="rotate(90)" fill="#edeeac"/><rect x="438.238" y="-313.381" width="17.858" height="36.197" rx="8.922" transform="rotate(90)" fill="#edeeac"/></g></svg>
