<svg xmlns="http://www.w3.org/2000/svg" viewBox="0 0 9.366 9.366"><path d="M8.492 1.143H.872C.396 1.143 0 1.54 0 2.07v5.16c0 .502.397.926.873.926h7.62c.477 0 .874-.397.874-.926V2.043c-.027-.503-.397-.9-.874-.9zm.397 6.06c0 .237-.185.423-.397.423H.872c-.211 0-.396-.186-.396-.424V2.043c0-.238.185-.423.396-.423h7.62c.212 0 .397.185.397.423zm-.397-5.08c.106.105.106.264 0 .343l-2.99 3.122a1.182 1.182 0 0 1-1.693 0c-2.165-2.244 0 0-2.99-3.095-.105-.106-.105-.265 0-.344.106-.08.239-.106.345 0L4.127 5.27c.29.29.74.29 1.005 0l2.964-3.122c.158-.132.29-.132.396-.027z"/></svg>