<svg xmlns="http://www.w3.org/2000/svg" viewBox="0 0 586.83 368"><path fill="#8e8e8e" d="M573.61 159.63C517.226 63.948 412.07 0 292.26 0 172.4 0 67.26 63.994 10.91 159.63c-14.544 24.315-14.528 24.315 0 48.739 56.385 95.681 161.54 159.63 281.35 159.63 119.86 0 225-63.994 281.35-159.63 17.649-24.423 17.61-24.423 0-48.738zM291.7 325.62c-102.56 0-191.54-60.324-239.45-141.62 44.157-74.933 123.7-130.94 214.03-131.03 9.743 6.415 17.967 24.695 17.967 39.865 0 30.928-25.072 56-56 56s-56-25.072-56-56c-10.207 19.085-16 40.844-16 64 0 75.111 60.889 131.17 136 131.17s136-60.889 136-136c0-31.031-17.827-65.095-35.322-87.981 55.599 23.153 109.33 69.087 139.32 119.98-47.908 81.299-138 141.62-240.55 141.62z"/></svg>
