<svg height="959.981" width="602.021" xml:space="preserve" xmlns="http://www.w3.org/2000/svg"><path style="fill:#000;fill-opacity:1;fill-rule:evenodd;stroke:none" d="M410.824 410.777c31.278-31.277 50.75-64.996 62.203-107.726 11.453-42.77 11.453-81.715 0-124.484-11.449-42.731-30.941-76.469-62.238-107.766-31.277-31.277-65-50.754-107.75-62.223-42.746-11.433-81.715-11.449-124.461.02-42.734 11.453-76.453 30.926-107.73 62.203-31.297 31.297-50.789 65.035-62.258 107.785-11.453 42.731-11.453 81.715 0 124.445 11.469 42.746 30.941 76.469 62.223 107.746 31.292 31.297 65.035 50.79 107.761 62.243 42.75 11.468 81.719 11.453 124.469.019 42.746-11.472 76.484-30.961 107.781-62.262zm-.281-.281c-31.254 31.254-64.914 50.703-107.605 62.156-42.692 11.418-81.571 11.438-124.258-.019-42.676-11.438-76.332-30.883-107.586-62.137-31.235-31.238-50.668-64.879-62.121-107.566-11.434-42.672-11.434-81.567.004-124.238C20.43 136 39.879 102.34 71.133 71.086c31.234-31.234 64.879-50.664 107.547-62.101 42.691-11.454 81.566-11.434 124.258-.02 42.691 11.453 76.332 30.883 107.57 62.117 31.254 31.254 50.699 64.914 62.133 107.59 11.437 42.707 11.437 81.566 0 124.273-11.43 42.672-30.864 76.317-62.098 107.551z" transform="matrix(1.25 0 0 -1.25 0 602.022)"/><path style="fill:#fff;fill-opacity:1;fill-rule:evenodd;stroke:none" d="M71.094 410.496c31.254 31.254 64.91 50.699 107.586 62.137 42.687 11.457 81.566 11.437 124.258.019 42.691-11.457 76.351-30.902 107.605-62.156 31.238-31.234 50.668-64.879 62.098-107.551 11.437-42.707 11.437-81.57.004-124.277-11.438-42.672-30.883-76.332-62.137-107.586-31.238-31.234-64.879-50.664-107.567-62.117-42.691-11.418-81.57-11.434-124.261.02-42.668 11.437-76.309 30.863-107.547 62.101C39.879 102.34 20.434 136 8.977 178.692c-11.438 42.671-11.438 81.566 0 124.242 11.449 42.683 30.882 76.324 62.117 107.562z" transform="matrix(1.25 0 0 -1.25 0 602.022)"/><path style="fill:#154889;fill-opacity:1;fill-rule:evenodd;stroke:none" d="M79.035 402.594c29.77 29.769 61.867 48.32 102.555 59.195 40.683 10.914 77.777 10.914 118.445.02 40.684-10.875 72.801-29.442 102.59-59.231 29.773-29.773 48.281-61.871 59.176-102.535 10.894-40.707 10.894-77.762.004-118.465-10.899-40.668-29.426-72.785-59.196-102.554-29.793-29.789-61.89-48.34-102.574-59.215-40.668-10.895-77.762-10.895-118.449.019-40.684 10.875-72.762 29.407-102.535 59.176-29.789 29.793-48.356 61.906-59.227 102.59-10.898 40.668-10.898 77.762 0 118.43 10.871 40.683 29.422 72.781 59.211 102.57z" transform="matrix(1.25 0 0 -1.25 0 602.022)"/><path style="fill:#fff;fill-opacity:1;fill-rule:nonzero;stroke:none" d="M324.941 250.996c0 13.117-10.644 23.774-23.773 23.774-13.133 0-23.777-10.657-23.777-23.774 0-13.133 10.644-23.785 23.777-23.785 13.129 0 23.773 10.652 23.773 23.785zM209.48 390.231c0-15-12.171-27.172-27.171-27.172s-27.176 12.172-27.176 27.172c0 15.004 12.176 27.164 27.176 27.164 15 0 27.171-12.16 27.171-27.164zm-54.347-138.579 4.769 4.684a6.799 6.799 0 0 1 2.028 4.844v50.945a3.392 3.392 0 0 1-3.399 3.387c-1.867 0-3.398-1.52-3.398-3.387zm-40.75-78.761a137.4 137.4 0 0 0 32.523 70.133 47.577 47.577 0 0 0-12.148 31.746v27.16c0 26.262 21.285 47.551 47.551 47.551a47.55 47.55 0 0 0 42.171-25.594l28.227-54.215c4.078-7.863 2.633-17.461-3.605-23.75l28.046-23.531a37.343 37.343 0 0 1 34.286-7.317l5.023 1.446a13.614 13.614 0 0 0 14.211-4.446l34.551-41.988c5.875-7.137 4.965-17.672-2.063-23.68l-31.418 36.664 10.18-50.945-13.02-1.918 7.829-49.383c.738-4.636-2.442-8.98-7.067-9.718-4.512-.704-8.785 2.281-9.66 6.757l-9.633 49.59-11.008-1.629-5.023-53.906a8.485 8.485 0 0 0-16.918 1.274l6.77 116.675-48.36 45.727a17.009 17.009 0 0 0 .813 20.805l-30.11 57.851c-.523.981-1.75 1.383-2.742.86a2.044 2.044 0 0 1-1.105-1.809V261.18c0-1.82.726-3.559 2.027-4.844l6.031-5.934a137.346 137.346 0 0 0 39.488-77.511zm71.32-6.797h20.379V74.406a10.192 10.192 0 0 0-10.195-10.195c-5.617 0-10.184 4.563-10.184 10.195zm-27.172 0h20.379V94.781c0-5.629-4.566-10.195-10.183-10.195-5.633 0-10.196 4.566-10.196 10.195" transform="matrix(1.25 0 0 -1.25 0 602.022)"/><g><path style="fill:#fff;fill-opacity:1;fill-rule:nonzero;stroke:none" d="M31.996 359.774c-17.504 0-31.754-14.25-31.754-31.766V32C.242 14.492 14.492.242 31.996.242h416.008C465.52.242 479.77 14.492 479.77 32v296.008c0 17.516-14.25 31.766-31.766 31.766" transform="matrix(.89006 0 0 -.89006 85.723 959.98)"/><path style="fill:#000;fill-opacity:1;fill-rule:nonzero;stroke:none" d="M31.996.469C14.613.469.477 14.613.477 32v296.008c0 17.383 14.136 31.523 31.519 31.523h416.008c17.383 0 31.519-14.14 31.519-31.523V32c0-17.387-14.136-31.531-31.519-31.531zm416.008 359.535H31.996C14.328 360.004 0 345.676 0 328.008V32C0 14.328 14.328 0 31.996 0h416.008C465.672 0 480 14.328 480 32v296.008c0 17.668-14.328 31.996-31.996 31.996" transform="matrix(.89006 0 0 -.89006 85.723 959.98)"/><path style="fill:#000;fill-opacity:1;fill-rule:nonzero;stroke:none" d="M31.996 352.012c-13.25 0-23.992-10.746-23.992-24.004V32c0-13.25 10.742-24.004 23.992-24.004h416.008c13.25 0 24.004 10.754 24.004 24.004v296.008c0 13.258-10.754 24.004-24.004 24.004zm0-12.008h416.008c6.629 0 12.004-5.367 12.004-11.996V32c0-6.633-5.375-11.996-12.004-11.996H31.996C25.379 20.004 20 25.367 20 32v296.008c0 6.629 5.379 11.996 11.996 11.996z" transform="matrix(.89006 0 0 -.89006 85.723 959.98)"/><path style="fill:#000;fill-opacity:1;fill-rule:nonzero;stroke:none" d="M203.723 303.598c-8.727 0-16.45-5.676-19.032-14.024l-14.464-46.707c-23.207 4.707-46.508-7.586-55.75-29.394-10.707-25.328 1.136-54.543 26.453-65.262 25.328-10.73 54.539 1.109 65.258 26.438 10.718 25.328-1.122 54.539-26.45 65.257l3.965 12.782 58.859-65.289a9.985 9.985 0 0 1 7.407-3.309h20.918a52.635 52.635 0 0 1 1.449-5.465c8.531-26.144 36.629-40.434 62.773-31.894 26.145 8.519 40.43 36.613 31.903 62.757-8.52 26.145-36.614 40.438-62.758 31.914l-14.453 32.325 3.746 9.961h11.199v9.953H262.41c-1.14 0-2.156-.782-2.414-1.903a2.472 2.472 0 0 1 1.836-2.996l21.074-5.054-3.746-9.961h-88.953l4 12.902a9.957 9.957 0 0 0 9.516 7.012h16.375v9.957zm-16.598-39.828h88.309l-25.957-69.176zm97.703-3.321 10.317-23.062c-15.61-8.832-25.262-25.406-25.262-43.336h-9.957zm-124.254-26.554a39.3 39.3 0 0 0 6.688-.61l-11.676-37.754a4.981 4.981 0 0 1 3.285-6.23 4.974 4.974 0 0 1 6.215 3.285l11.691 37.754c20.043-9.086 28.934-32.684 19.848-52.715-9.074-20.043-32.687-28.934-52.73-19.848-20.036 9.075-28.938 32.688-19.848 52.735 6.574 14.496 21.015 23.488 36.527 23.383zm155.696-.133c18.453 1.601 36.117-9.906 41.601-28.356 6.262-21.093-5.754-43.281-26.844-49.535-21.093-6.262-43.273 5.75-49.535 26.844-.129.457-.269.91-.387 1.375h41.067c2.762 0 4.973 2.246 4.973 4.988 0 .699-.141 1.395-.426 2.028l-18.383 41.144a40.345 40.345 0 0 0 7.934 1.512zm-17.04-5.516 15.25-34.195h-34.64a39.86 39.86 0 0 0 19.39 34.195zM196.285 96.066v7.336h-9.5v6.868c0 3.48 1.695 5.546 5.27 5.546h4.23V124h-6.019c-8.934 0-13.071-6.394-13.071-13.262v-7.336h-5.457v-7.336h5.457v-39.5h9.59v39.5zM240.031 100.301c-3.289 3.289-6.769 4.512-11.379 4.512-5.359 0-10.254-2.352-12.699-5.735v5.172h-9.402V56.566h9.594v28.965c0 6.586 4.324 10.723 9.496 10.723 3.293 0 4.988-1.035 7.148-3.195zM285.695 77.633v4.23c0 13.547-7.429 22.95-20.222 22.95-12.227 0-20.219-8.934-20.219-24.36 0-18.152 9.496-24.453 21.441-24.453 8.371 0 12.981 2.539 17.871 7.43l-6.113 5.738c-3.387-3.387-6.207-4.891-11.57-4.891-7.805 0-12.133 5.172-12.133 13.356zm-9.5 6.676H254.75c.098 2.918.285 4.328 1.223 6.492 1.507 3.574 4.988 6.019 9.5 6.019 4.515 0 7.902-2.445 9.406-6.019.941-2.164 1.223-3.574 1.316-6.492zM308.273 113.656v10.157h-10.156v-10.157zm-.281-57.09v47.684h-9.594V56.566Z" transform="matrix(.89006 0 0 -.89006 85.723 959.98)"/></g></svg>
