<svg xmlns="http://www.w3.org/2000/svg" width="1934.7" height="1736.5"><defs><filter id="a" width="1.4" height="2.3" x="-.2" y="-.7" color-interpolation-filters="sRGB"><feGaussianBlur stdDeviation="13.8"/></filter><filter id="b" width="1.4" height="2.3" x="-.2" y="-.7" color-interpolation-filters="sRGB"><feGaussianBlur stdDeviation="13.8"/></filter><filter id="c" width="1.4" height="2.3" x="-.2" y="-.7" color-interpolation-filters="sRGB"><feGaussianBlur stdDeviation="13.8"/></filter></defs><rect width="10" height="1924.8" x="1689.1" y="-1934.3" ry="0" transform="rotate(90)"/><path fill="#a5a8a7" d="m1587.2 1609.1-1344.6-1.5V-193.5l1333 3z"/><g transform="translate(-166.5 -35.8)"><path fill="none" stroke="#432918" stroke-miterlimit="10" stroke-width="1.3" d="M1532 990.2a7.6 7 0 0 0-15.2 0v30a19.3 17.8 0 0 0-4.5-.5H1482a18.5 17 0 0 0-7.5 1.4v-30.9a7.6 7 0 0 0-15.1 0v39.8a7.6 7 0 0 0 4 6v1a18.7 17.3 0 0 0 18.7 17.2h30.4a18.7 17.3 0 0 0 18.7-17.3 19.4 17.9 0 0 0-.3-3.1 7.6 7 0 0 0 1.2-3.9z"/><path fill="none" stroke="#432918" stroke-miterlimit="10" stroke-width="1.3" d="M1483.9 990.8a9.3 8.5 0 0 0-9.3 8.5v14a9.2 8.5 0 0 0 18.4 0v-14a9.2 8.5 0 0 0-9.1-8.5zm24.8 10.8h-2.3a8 7.4 0 0 0-8 7.5v4.7a8 7.4 0 0 0 8 7.4h2.3a8 7.4 0 0 0 8-7.4v-4.7a8 7.4 0 0 0-8-7.5z"/><rect width="180" height="8.5" x="-1103.3" y="1492.8" fill="#060709" rx="3.2" transform="rotate(-90)"/><path fill="#fdd535" d="M1532 990.2a7.6 7 0 0 0-15.2 0v30a19.3 17.8 0 0 0-4.5-.5H1482a18.5 17 0 0 0-7.5 1.4v-30.9a7.6 7 0 0 0-15.1 0v39.8a7.6 7 0 0 0 4 6v1a18.7 17.3 0 0 0 18.7 17.2h30.4a18.7 17.3 0 0 0 18.7-17.3 19.4 17.9 0 0 0-.3-3.1 7.6 7 0 0 0 1.2-3.9z"/><path fill="#1e8dc7" d="M1483.9 990.8a9.3 8.5 0 0 0-9.3 8.5v14a9.2 8.5 0 0 0 18.4 0v-14a9.2 8.5 0 0 0-9.1-8.5zm24.8 10.8h-2.3a8 7.4 0 0 0-8 7.5v4.7a8 7.4 0 0 0 8 7.4h2.3a8 7.4 0 0 0 8-7.4v-4.7a8 7.4 0 0 0-8-7.5z"/><rect width="19.7" height="21.3" x="-1048.3" y="1484.7" fill="#b04f1a" rx="9.8" transform="rotate(-90)"/><path fill="#060709" d="m1490.2 961.3-25.5 17.2a3.6 3.4 0 0 0 4.3 5.4l25.4-17.2a3.6 3.3 0 1 0-4.3-5.4zm37.5 19.7-23.3-18a3.7 3.3 0 1 0-4.6 5.2l23.2 18a3.7 3.3 0 0 0 4.6-5.2z"/></g><g transform="matrix(1.17143 0 0 1 -394.8 -973)"><rect width="155.9" height="441.8" x="1148.3" y="1247.9" fill="#89bd27" rx="28"/><path fill="#8a8989" d="M1276.1 1252a25 34.1 0 0 1 25 34.2v365.2a25 34.1 0 0 1-25 34.2h-99.8a25 34.1 0 0 1-25-34.2v-365.2a25 34.1 0 0 1 25-34.1h99.8m0-8.3h-99.8a31 42.4 0 0 0-31 42.4v365.2a31 42.4 0 0 0 31 42.4h99.8a31.1 42.4 0 0 0 31.1-42.4v-365.2a31.1 42.4 0 0 0-31-42.4z"/><path fill="#060709" d="m1268.3 1587.1 6.3 31.1a8.7 8.7 0 0 1-8.3 10.5H1187a8.7 8.7 0 0 1-8.3-10.5l6.3-31c.9-4 4.1-6.9 8-6.9h67.4c3.9 0 7.1 2.8 8 6.8zm-107.9-112.7v-46.9a6 8.8 0 0 1 6-8.7h3.7a2.4 3.5 0 0 1 2.4 3.5v57.4a2.4 3.5 0 0 1-2.4 3.5h-3.6a6 8.8 0 0 1-6-8.8zm133.1-115.6v-5.4a6 6.8 0 0 1 6-6.8h7.7a6 6.8 0 0 1 6 6.8 6 6.8 0 0 1-6 6.8h-12.4a1.2 1.4 0 0 1-1.3-1.4zm-155.2-5.5a6 6.8 0 0 1 6-6.8h7.6a6 6.8 0 0 1 6 6.8v5.5a1.2 1.4 0 0 1-1.1 1.4h-12.5a6 6.8 0 0 1-6-6.9zm22.2 206.7v-46.9a6 8.8 0 0 1 6-8.8h3.7a2.4 3.5 0 0 1 2.4 3.5v57.5a2.4 3.5 0 0 1-2.4 3.5h-3.7a6 8.8 0 0 1-6-8.8zm128-47-.3 47a6 8.8.4 0 1-6.1 8.7h-3.6a2.4 3.5.4 0 1-2.4-3.6l.4-57.4a2.4 3.5.4 0 1 2.4-3.5h3.6a6 8.8.4 0 1 6 8.9zm.6-85.5-.4 46.9a6 8.8.4 0 1-6 8.7h-3.7a2.4 3.5.4 0 1-2.4-3.6l.4-57.4a2.4 3.5.4 0 1 2.5-3.5h3.6a6 8.8.4 0 1 6 8.9zm-7.7-60.3-8.4 34.5c-1 4.4-5 7.3-9.6 7.3h-76.2a9.5 9.5 0 0 1-9.5-7l-9.2-34.6c-1.5-5.8 4-11.7 10.7-11.7h91.7c6.5 0 12 5.7 10.5 11.5z"/><rect width="17.9" height="36.2" x="-1672.9" y="1166.6" fill="#9b4c17" rx="8.9" transform="rotate(-90)"/><rect width="17.9" height="36.2" x="-1672.9" y="1254.5" fill="#9b4c17" rx="8.9" transform="rotate(-90)"/><rect width="17.9" height="36.2" x="-1281.7" y="1166.5" fill="#edeeac" rx="8.9" transform="rotate(-90)"/><rect width="17.9" height="36.2" x="-1281.7" y="1251.7" fill="#edeeac" rx="8.9" transform="rotate(-90)"/></g><path fill="none" stroke="#fff" stroke-miterlimit="10" stroke-width="25" d="M1212-344.3v1989.7"/><path fill="#fff" d="M461.7-406.8h12.5v1572.3h-12.5z"/><path fill="none" stroke="#e1e1e1" stroke-linecap="round" stroke-linejoin="round" stroke-miterlimit="10" stroke-width="15.6" d="M242.1 1157.8H525l-2 442.4H236.5Z"/><path fill="#34993f" d="M234.4 1086.7h282.8l-2.2 520.6H220Z"/><g transform="rotate(180 1052.4 1215.8)"><path fill="none" stroke="#432918" stroke-miterlimit="10" stroke-width="1.3" d="M1532 990.2a7.6 7 0 0 0-15.2 0v30a19.3 17.8 0 0 0-4.5-.5H1482a18.5 17 0 0 0-7.5 1.4v-30.9a7.6 7 0 0 0-15.1 0v39.8a7.6 7 0 0 0 4 6v1a18.7 17.3 0 0 0 18.7 17.2h30.4a18.7 17.3 0 0 0 18.7-17.3 19.4 17.9 0 0 0-.3-3.1 7.6 7 0 0 0 1.2-3.9z"/><path fill="none" stroke="#432918" stroke-miterlimit="10" stroke-width="1.3" d="M1483.9 990.8a9.3 8.5 0 0 0-9.3 8.5v14a9.2 8.5 0 0 0 18.4 0v-14a9.2 8.5 0 0 0-9.1-8.5zm24.8 10.8h-2.3a8 7.4 0 0 0-8 7.5v4.7a8 7.4 0 0 0 8 7.4h2.3a8 7.4 0 0 0 8-7.4v-4.7a8 7.4 0 0 0-8-7.5z"/><rect width="180" height="8.5" x="-1103.3" y="1492.8" fill="#060709" rx="3.2" transform="rotate(-90)"/><path fill="#fdd535" d="M1532 990.2a7.6 7 0 0 0-15.2 0v30a19.3 17.8 0 0 0-4.5-.5H1482a18.5 17 0 0 0-7.5 1.4v-30.9a7.6 7 0 0 0-15.1 0v39.8a7.6 7 0 0 0 4 6v1a18.7 17.3 0 0 0 18.7 17.2h30.4a18.7 17.3 0 0 0 18.7-17.3 19.4 17.9 0 0 0-.3-3.1 7.6 7 0 0 0 1.2-3.9z"/><path fill="#1e8dc7" d="M1483.9 990.8a9.3 8.5 0 0 0-9.3 8.5v14a9.2 8.5 0 0 0 18.4 0v-14a9.2 8.5 0 0 0-9.1-8.5zm24.8 10.8h-2.3a8 7.4 0 0 0-8 7.5v4.7a8 7.4 0 0 0 8 7.4h2.3a8 7.4 0 0 0 8-7.4v-4.7a8 7.4 0 0 0-8-7.5z"/><rect width="19.7" height="21.3" x="-1048.3" y="1484.7" fill="#b04f1a" rx="9.8" transform="rotate(-90)"/><path fill="#060709" d="m1490.2 961.3-25.5 17.2a3.6 3.4 0 0 0 4.3 5.4l25.4-17.2a3.6 3.3 0 1 0-4.3-5.4zm37.5 19.7-23.3-18a3.7 3.3 0 1 0-4.6 5.2l23.2 18a3.7 3.3 0 0 0 4.6-5.2z"/></g><g transform="translate(-181.8 -913.3)"><path fill="none" stroke="#432918" stroke-miterlimit="10" stroke-width="1.3" d="M1532 990.2a7.6 7 0 0 0-15.2 0v30a19.3 17.8 0 0 0-4.5-.5H1482a18.5 17 0 0 0-7.5 1.4v-30.9a7.6 7 0 0 0-15.1 0v39.8a7.6 7 0 0 0 4 6v1a18.7 17.3 0 0 0 18.7 17.2h30.4a18.7 17.3 0 0 0 18.7-17.3 19.4 17.9 0 0 0-.3-3.1 7.6 7 0 0 0 1.2-3.9z"/><path fill="none" stroke="#432918" stroke-miterlimit="10" stroke-width="1.3" d="M1483.9 990.8a9.3 8.5 0 0 0-9.3 8.5v14a9.2 8.5 0 0 0 18.4 0v-14a9.2 8.5 0 0 0-9.1-8.5zm24.8 10.8h-2.3a8 7.4 0 0 0-8 7.5v4.7a8 7.4 0 0 0 8 7.4h2.3a8 7.4 0 0 0 8-7.4v-4.7a8 7.4 0 0 0-8-7.5z"/><rect width="180" height="8.5" x="-1103.3" y="1492.8" fill="#060709" rx="3.2" transform="rotate(-90)"/><path fill="#fdd535" d="M1532 990.2a7.6 7 0 0 0-15.2 0v30a19.3 17.8 0 0 0-4.5-.5H1482a18.5 17 0 0 0-7.5 1.4v-30.9a7.6 7 0 0 0-15.1 0v39.8a7.6 7 0 0 0 4 6v1a18.7 17.3 0 0 0 18.7 17.2h30.4a18.7 17.3 0 0 0 18.7-17.3 19.4 17.9 0 0 0-.3-3.1 7.6 7 0 0 0 1.2-3.9z"/><path fill="#1e8dc7" d="M1483.9 990.8a9.3 8.5 0 0 0-9.3 8.5v14a9.2 8.5 0 0 0 18.4 0v-14a9.2 8.5 0 0 0-9.1-8.5zm24.8 10.8h-2.3a8 7.4 0 0 0-8 7.5v4.7a8 7.4 0 0 0 8 7.4h2.3a8 7.4 0 0 0 8-7.4v-4.7a8 7.4 0 0 0-8-7.5z"/><rect width="19.7" height="21.3" x="-1048.3" y="1484.7" fill="#b04f1a" rx="9.8" transform="rotate(-90)"/><path fill="#060709" d="m1490.2 961.3-25.5 17.2a3.6 3.4 0 0 0 4.3 5.4l25.4-17.2a3.6 3.3 0 1 0-4.3-5.4zm37.5 19.7-23.3-18a3.7 3.3 0 1 0-4.6 5.2l23.2 18a3.7 3.3 0 0 0 4.6-5.2z"/></g><path fill="#ccd0ce" stroke="#e1e1e1" stroke-linecap="round" stroke-linejoin="round" stroke-miterlimit="10" stroke-width="15.6" d="m7.5-253.1 235.1.7 3.7 945.9c4.1 167.7 275.3 65 276.3 184.7 1.4 152.3 2.3 134 2.3 340.6 0 125.6-279.8 20.2-280 164.5-2.3 182.3-2.7 174.4-2.3 217H7.5Z"/><path fill="none" stroke="#fff" stroke-dasharray="109.7 109.7" stroke-width="13.7" d="M676.8-1068.7v2676.8"/><g transform="matrix(1.1323 0 0 1 -11.9 -580.2)"><rect width="155.9" height="441.8" x="-409.2" y="-1313" fill="#216778" rx="28" transform="rotate(-179.8)"/><path fill="#8a8989" d="M277.2 1309.8a25 34.1.2 0 1-25-34.3l1.3-365.2a25 34.1.2 0 1 25-34l99.9.3a25 34.1.2 0 1 24.9 34.2L402 1276a25 34.1.2 0 1-25.1 34l-99.8-.2m0 8.2 99.8.3a31 42.4.2 0 0 31.2-42.3l1.1-365.2a31 42.4.2 0 0-30.9-42.5l-99.8-.3a31.1 42.4.2 0 0-31.2 42.3l-1.2 365.2a31.1 42.4.2 0 0 31 42.5z"/><path fill="#060709" d="m286.1 974.7-6.2-31c-1-5.4 3-10.5 8.3-10.5l79.4.2c5.3 0 9.4 5.2 8.3 10.5l-6.4 31.1c-.9 4-4.2 6.8-8 6.8l-67.4-.2a8.3 8.3 0 0 1-8-6.9zm107.5 113.1-.1 46.9a6 8.8.2 0 1-6.1 8.7h-3.6a2.4 3.5.2 0 1-2.4-3.5l.1-57.4a2.4 3.5.2 0 1 2.5-3.5h3.6a6 8.8.2 0 1 6 8.8zM260.1 1203v5.4a6 6.8.2 0 1-6 6.8h-7.7a6 6.8.2 0 1-6-6.9 6 6.8.2 0 1 6-6.7H259a1.2 1.4.2 0 1 1.2 1.4zm155.3 6a6 6.8.2 0 1-6 6.7h-7.7a6 6.8.2 0 1-6-6.8v-5.5a1.2 1.4.2 0 1 1.2-1.3h12.5a6 6.8.2 0 1 6 6.8zm-21.6-206.8-.1 47a6 8.8.2 0 1-6.1 8.7H384a2.4 3.5.2 0 1-2.4-3.6l.2-57.4a2.4 3.5.2 0 1 2.4-3.5h3.6a6 8.8.2 0 1 6 8.8zm-128.2 46.6.5-47a6 8.8.6 0 1 6.2-8.6h3.6a2.4 3.5.6 0 1 2.4 3.5l-.6 57.4a2.4 3.5.6 0 1-2.5 3.5h-3.6a6 8.8.6 0 1-6-8.8zm-.8 85.5.5-46.9a6 8.8.6 0 1 6.1-8.7h3.7a2.4 3.5.6 0 1 2.4 3.6l-.6 57.4a2.4 3.5.6 0 1-2.5 3.5h-3.6a6 8.8.6 0 1-6-8.9zm7.5 60.4 8.6-34.6c1-4.3 4.9-7.2 9.6-7.2l76.1.2c4.6 0 8.4 2.9 9.5 7l9 34.7c1.6 5.8-3.9 11.7-10.6 11.7l-91.7-.3c-6.6 0-12-5.8-10.5-11.5z"/><rect width="17.9" height="36.2" x="888.1" y="-391" fill="#793b12" rx="8.9" transform="rotate(90.2)"/><rect width="17.9" height="36.2" x="888.1" y="-303" fill="#793b12" rx="8.9" transform="rotate(90.2)"/><rect width="17.9" height="36.2" x="1279.2" y="-391" fill="#898b1c" rx="8.9" transform="rotate(90.2)"/><rect width="17.9" height="36.2" x="1279.2" y="-305.8" fill="#898b1c" rx="8.9" transform="rotate(90.2)"/></g><g transform="matrix(1.1323 0 0 1 -19.5 -1049.7)"><rect width="155.9" height="441.8" x="-409.2" y="-1313" fill="#216778" rx="28" transform="rotate(-179.8)"/><path fill="#8a8989" d="M277.2 1309.8a25 34.1.2 0 1-25-34.3l1.3-365.2a25 34.1.2 0 1 25-34l99.9.3a25 34.1.2 0 1 24.9 34.2L402 1276a25 34.1.2 0 1-25.1 34l-99.8-.2m0 8.2 99.8.3a31 42.4.2 0 0 31.2-42.3l1.1-365.2a31 42.4.2 0 0-30.9-42.5l-99.8-.3a31.1 42.4.2 0 0-31.2 42.3l-1.2 365.2a31.1 42.4.2 0 0 31 42.5z"/><path fill="#060709" d="m286.1 974.7-6.2-31c-1-5.4 3-10.5 8.3-10.5l79.4.2c5.3 0 9.4 5.2 8.3 10.5l-6.4 31.1c-.9 4-4.2 6.8-8 6.8l-67.4-.2a8.3 8.3 0 0 1-8-6.9zm107.5 113.1-.1 46.9a6 8.8.2 0 1-6.1 8.7h-3.6a2.4 3.5.2 0 1-2.4-3.5l.1-57.4a2.4 3.5.2 0 1 2.5-3.5h3.6a6 8.8.2 0 1 6 8.8zM260.1 1203v5.4a6 6.8.2 0 1-6 6.8h-7.7a6 6.8.2 0 1-6-6.9 6 6.8.2 0 1 6-6.7H259a1.2 1.4.2 0 1 1.2 1.4zm155.3 6a6 6.8.2 0 1-6 6.7h-7.7a6 6.8.2 0 1-6-6.8v-5.5a1.2 1.4.2 0 1 1.2-1.3h12.5a6 6.8.2 0 1 6 6.8zm-21.6-206.8-.1 47a6 8.8.2 0 1-6.1 8.7H384a2.4 3.5.2 0 1-2.4-3.6l.2-57.4a2.4 3.5.2 0 1 2.4-3.5h3.6a6 8.8.2 0 1 6 8.8zm-128.2 46.6.5-47a6 8.8.6 0 1 6.2-8.6h3.6a2.4 3.5.6 0 1 2.4 3.5l-.6 57.4a2.4 3.5.6 0 1-2.5 3.5h-3.6a6 8.8.6 0 1-6-8.8zm-.8 85.5.5-46.9a6 8.8.6 0 1 6.1-8.7h3.7a2.4 3.5.6 0 1 2.4 3.6l-.6 57.4a2.4 3.5.6 0 1-2.5 3.5h-3.6a6 8.8.6 0 1-6-8.9zm7.5 60.4 8.6-34.6c1-4.3 4.9-7.2 9.6-7.2l76.1.2c4.6 0 8.4 2.9 9.5 7l9 34.7c1.6 5.8-3.9 11.7-10.6 11.7l-91.7-.3c-6.6 0-12-5.8-10.5-11.5z"/><rect width="17.9" height="36.2" x="888.1" y="-391" fill="#793b12" rx="8.9" transform="rotate(90.2)"/><rect width="17.9" height="36.2" x="888.1" y="-303" fill="#793b12" rx="8.9" transform="rotate(90.2)"/><rect width="17.9" height="36.2" x="1279.2" y="-391" fill="#898b1c" rx="8.9" transform="rotate(90.2)"/><rect width="17.9" height="36.2" x="1279.2" y="-305.8" fill="#898b1c" rx="8.9" transform="rotate(90.2)"/></g><g transform="matrix(-1.0196 0 0 -1 1167.5 1789.8)"><path fill="#060709" d="M520.4 1043v-66a3 2.8 0 0 1 3-2.8h4.3a7.3 7 0 0 1 7.4 7v57.5a7.3 7 0 0 1-7.4 7.1h-4.4a3 2.8 0 0 1-3-2.8zm-1.5 16.2v66a3 2.8 0 0 0 3 2.8h4.3c4 0 7.4-3.2 8.8-7v-57.6c-1.4-3.9-4.7-7-8.8-7h-4.4a3 2.8 0 0 0-3 2.8zm1.5 383.7v-66a3 2.8 0 0 1 3-2.8h4.3a7.3 7 0 0 1 7.4 7.1v57.5a7.3 7 0 0 1-7.4 7h-4.4a3 2.8 0 0 1-3-2.8zm0 82.2v-66a3 2.8 0 0 1 2.9-2.8h4.4a7.3 7 0 0 1 7.3 7.1v57.5a7.3 7 0 0 1-7.3 7h-4.4a3 2.8 0 0 1-3-2.8z"/><path fill="#9c9b9b" d="M332 858.7a18.4 17.7 0 0 1-18.3-17.6v-91a34.1 32.8 0 0 1 34-32.9H469a34.1 32.8 0 0 1 34 32.8v91.1a18.4 17.7 0 0 1-18.3 17.7z"/><path fill="#8a8989" d="M469 720.7a30.4 29.3 0 0 1 30.4 29.3v91.1a14.7 14.1 0 0 1-14.7 14.1H332.1a14.7 14.1 0 0 1-14.7-14.1v-91a30.4 29.3 0 0 1 30.4-29.4H469m0-7H347.8A37.8 36.4 0 0 0 310 750v91.1a22 21.2 0 0 0 22 21.2h152.7a22 21.2 0 0 0 22-21.2v-91a37.8 36.4 0 0 0-37.7-36.4Z"/><path fill="#bdbdbd" d="M499.4 768.8V843c0 6.7-4.9 12.1-10.9 12.1H328.3c-6 0-10.9-5.4-10.9-12.1v-74.4c0-13.8 10-25 22.5-25h137c12.4 0 22.5 11.2 22.5 25z"/><rect width="189.4" height="84.8" x="313.7" y="858.8" fill="#bdbdbd" rx="18.4"/><path fill="#8a8989" d="M484.7 862.3a14.7 14.1 0 0 1 14.7 14.2v49.4a14.7 14.1 0 0 1-14.7 14.1H332.1a14.7 14.1 0 0 1-14.7-14.1v-49.4a14.7 14.1 0 0 1 14.7-14.2h152.6m0-7H332.1a22 21.2 0 0 0-22 21.2v49.4a22 21.2 0 0 0 22 21.2h152.6a22 21.2 0 0 0 22-21.2v-49.4a22 21.2 0 0 0-22-21.3z"/><path fill="#060709" d="M321.2 920v-37.8a7.3 7 0 0 1 7.3-7h4.4a3 2.8 0 0 1 3 2.8v46.3a3 2.8 0 0 1-3 2.8h-4.4a7.3 7 0 0 1-7.3-7zM280 1038.8v-57.5a7.3 7 0 0 1 7.3-7h4.4a3 2.8 0 0 1 3 2.8v66a3 2.8 0 0 1-3 2.8h-4.4a7.3 7 0 0 1-7.3-7zm0 82.2v-57.5a7.3 7 0 0 1 7.3-7h4.4a3 2.8 0 0 1 3 2.8v66a3 2.8 0 0 1-3 2.8h-4.4a7.3 7 0 0 1-7.3-7zm0 317.8v-57.5a7.3 7 0 0 1 7.3-7h4.4a3 2.8 0 0 1 3 2.8v66a3 2.8 0 0 1-3 2.8h-4.4a7.3 7 0 0 1-7.3-7.1zm0 82.2v-57.5a7.3 7 0 0 1 7.3-7h4.4a3 2.8 0 0 1 3 2.7v66a3 2.8 0 0 1-3 2.8h-4.4a7.3 7 0 0 1-7.3-7zm214-638.5V920a7.3 7 0 0 1-7.4 7h-4.4a3 2.8 0 0 1-3-2.7v-46a3 2.8 0 0 1 3-2.8h4.4a7.3 7 0 0 1 7.4 7zm-4-28.7V851a3.7 3.5 0 0 1 3.7-3.5h16.6a3.7 3.5 0 0 1 3.7 3.5 3.7 3.5 0 0 1-3.7 3.6H491a.7.7 0 0 1-.8-.7zm-164.8-10.9v2.9a62 59.8 0 0 0-.7 9l-19.5-.5c-2-8.5-3.7-10-3.6-12a3.7 3.6 0 0 1 3.8-3.5l16.5.4a3.7 3.6 0 0 1 3.5 3.7zM485 819.3l-3.2 30c-.5 4.2-5.8 7.3-13.2 7.3h-121c-7.2 0-12.5-2.9-13-7.1l-4.1-30c-.6-4.4 8.1-8.8 17-8.8h120.8c8.6 0 17.1 4.2 16.7 8.6z"/><rect width="18.5" height="44" x="-1563.4" y="317.4" fill="#9b4c17" rx="9.3" transform="rotate(-90)"/><rect width="18.5" height="44" x="-1563.4" y="457.4" fill="#9b4c17" rx="9.3" transform="rotate(-90)"/><rect width="18.5" height="44" x="-743.6" y="330.5" fill="#edeeac" rx="5.7" transform="rotate(-90)"/><rect width="18.5" height="44" x="-743.6" y="442.8" fill="#edeeac" rx="5.7" transform="rotate(-90)"/><path fill="#1d1d1b" d="M317.3 752.7c-1.6-16.2 12.8-30.3 28.8-33.3a1990 1990 0 0 1 108.8-.5l15.4.5h.5c15.8 3 30.2 17 28.6 33.2-1.1-14.8-14.7-26.4-29.6-28.3a1964.7 1964.7 0 0 1-108 .5l-15.4-.4h.4c-14.8 2-28.4 13.5-29.5 28.4z"/><path fill="#f2f2f2" d="M490.5 847.6v-8.3a3.7 3.5 0 0 1 3.7-3.6h16.6a3.7 3.5 0 0 1 3.7 3.6v5.5a3.7 3.5 0 0 1-3.7 3.5h-19.6a.7.7 0 0 1-.7-.7zm-164.8-5v5c0 .7-.4 1.3-.8 1.2l-19.5-.9c-2 0-3.7-3-3.6-6.5 0-3.5 1.7-6.3 3.8-6.2l16.5.8c2 .1 3.7 3 3.6 6.5z"/><rect width="228.3" height="607.7" x="294.2" y="945.4" fill="#bdbdbd" rx="18.4"/><path fill="#8a8989" d="M504.2 949.9a14.7 18 0 0 1 14.7 18v562.6a14.7 18 0 0 1-14.7 18H312.6a14.7 18 0 0 1-14.7-18V968a14.7 18 0 0 1 14.7-18.1h191.6m0-9H312.6a22 27 0 0 0-22 27v562.6a22 27 0 0 0 22 27h191.6a22 27 0 0 0 22-27V968a22 27 0 0 0-22-27.1z"/></g><rect width="10" height="89.5" x="1.1" y="1646.9" ry="0"/><rect width="10" height="89.5" x="518" y="1646.9" ry="0"/><rect width="10" height="89.5" x="1409.4" y="1646.9" ry="0"/><rect width="10" height="89.5" x="1924.7" y="1646.9" ry="0"/><rect style="mix-blend-mode:normal" width="263.8" height="81.6" x="823.4" y="1812.5" fill="#f8f8f8" stroke="#fff" stroke-linejoin="round" stroke-width="40" filter="url(#a)" ry="0" transform="matrix(1.1906 0 0 .56341 -173.1 646.6)"/><path d="M851.4 1651.5c-1.8 0-1.8 1.9-1.8 1.9v63.4h8.7c1.9 0 1.7-1.8 1.7-1.8v-28.8h9.5c1.8 0 1.8-1.7 1.8-9.5H860v-16.3h12c1.8 0 1.8-.5 1.8-9zm24.9 23.7c0 1.5.3 4 1.4 6 3.1-1 7.8-1.9 11.2-1.9 3 0 4 1 4 3.5v6.4a12.4 12.4 0 0 0-6-1.4c-5.5 0-10.7 2.6-10.7 15.4 0 13 6.3 14.6 13.2 14.6a27 27 0 0 0 13.4-3c.5-7 .5-19 .5-29.8v-4.4c0-8.4-3.2-11.4-11.7-11.4-7.5 0-12.6 1.7-14 2.7-.8.7-1.3 2.2-1.3 3.3zm16.6 21c0 4 0 10-.2 12-.6.7-1.7 1-2.5 1-2.4 0-3-1.8-3-6.3 0-6 1.2-7.4 3.2-7.4a4 4 0 0 1 2.5.7zm16-43.4v64c10.5 0 10.5 0 10.5-1.8v-35a6.6 6.6 0 0 1 3.6-1.2c2.8 0 3 3 3 5.7v32.3c10.2 0 10.8 0 10.8-1.8v-33.7c0-8-1.4-12-8.6-12-3 0-6.7 1-8.8 3.2v-24.3c-8.6 0-10.5 0-10.5 4.6zm33.7 20.6v43.4c10.6 0 10.6 0 10.6-1.8l.1-34.3c1.3-1 3-1.5 4-1.5s2.2.1 3.5.8a21 21 0 0 0 1-6.1c0-3.2-1.2-4.7-6.2-4.7a23 23 0 0 0-13 4.2zm23.4-20.5v62c2 1.7 6 2.9 11 2.9 8 0 18-3.1 18-29.6 0-14-3.2-19-10.6-19-3.2 0-6 1-8 2.7v-23.7c-8.7 0-10.4 0-10.4 4.7zm10.5 55v-28c1-1 2-1.3 3-1.3 2.4 0 3.6 2.9 3.6 11.4 0 15.8-2.8 18.6-4.6 18.6a3 3 0 0 1-2-.7zm22.4-32.7c0 1.5.3 4 1.4 6 3-1 7.7-1.9 11.2-1.9 2.9 0 3.9 1 3.9 3.5v6.4a12.4 12.4 0 0 0-6-1.4c-5.5 0-10.7 2.6-10.7 15.4 0 13 6.3 14.6 13.3 14.6a27 27 0 0 0 13.4-3c.5-7 .5-19 .5-29.8v-4.4c0-8.4-3.2-11.4-11.8-11.4-7.5 0-12.6 1.7-14 2.7-.7.7-1.2 2.2-1.2 3.3zm16.5 21c0 4 0 10-.2 12-.5.7-1.7 1-2.5 1-2.3 0-3-1.8-3-6.3 0-6 1.2-7.4 3.3-7.4a4 4 0 0 1 2.4.7zm16.1-43.4v64c10.4 0 10.4 0 10.4-1.8v-35a6.6 6.6 0 0 1 3.7-1.2c2.8 0 3 3 3 5.7v32.3c10.1 0 10.8 0 10.8-1.8v-33.7c0-8-1.4-12-8.6-12a13 13 0 0 0-8.9 3.2v-24.3c-8.6 0-10.4 0-10.4 4.6zm33.7 19.5v44.5c10.2 0 10.4 0 10.4-1.8v-35.7c1-.7 2.3-1.1 3.6-1.1 2.6 0 3 1.5 3 6.3v32.3c10.6 0 10.9 0 10.9-1.8v-33.7c0-9.4-4-12-13.5-12a42 42 0 0 0-14.4 3z"/><rect style="mix-blend-mode:normal" width="263.8" height="81.6" x="823.4" y="1812.5" fill="#f8f8f8" stroke="#fff" stroke-linejoin="round" stroke-width="40" filter="url(#b)" ry="0" transform="matrix(1.494 0 0 .44792 -1162.2 862.6)"/><path d="M123.6 1654.9v21.7c0 6.3.3 12.5 1.3 20.3-1.3-6-3.3-14-5.4-19.3l-9.7-24.6h-8.3c-1.4 0-2 .6-2 1.9v63.4c10.4 0 10.5 0 10.5-1.8v-22.4c0-5.9-.5-14-1.3-21.3 1.3 6.4 3.5 15.3 5.5 20.5l10 25h8c1.3 0 2-.7 2-1.8V1653c-10.3 0-10.5 0-10.5 1.9zm32.2 54.2c-4.5 0-5.8-2.6-6.1-8.6 4.7 0 11.6-.4 16.2-1.3.9-3.6 1.3-8.8 1.3-13.2 0-10.9-4.5-15.3-12-15.3-8.8 0-16.4 4-16.4 26.6 0 17.7 6 22 14.5 22 7.2 0 13.2-2 13.2-5.8 0-2.2-.3-5.1-.8-7a22.7 22.7 0 0 1-10 2.6zm-2-29.3c2.3 0 3.2 1 3.2 7 0 1.4-.1 3.6-.5 4.8-1.4.6-4.3.8-6.8.8.2-8.5 1.3-12.6 4-12.6zm18.5-25.3v62c2 1.7 6 2.8 11 2.8 8 0 18-3.1 18-29.6 0-14-3.2-19-10.6-19-3.3 0-6 1-8 2.8v-23.8c-8.7 0-10.4 0-10.4 4.7zm10.4 54.9v-28c1-1 2-1.3 3-1.3 2.5 0 3.7 2.9 3.7 11.5 0 15.7-2.8 18.5-4.6 18.5a3 3 0 0 1-2-.7zm39.2-.3c-4.4 0-5.7-2.6-6-8.6 4.6 0 11.6-.4 16-1.3 1-3.6 1.4-8.8 1.4-13.2 0-10.9-4.4-15.3-12-15.3-8.7 0-16.3 4-16.3 26.6 0 17.7 6 22 14.4 22 7.3 0 13.3-2 13.3-5.8 0-2.2-.3-5.1-1-7a22.7 22.7 0 0 1-9.8 2.6zm-2-29.3c2.4 0 3.3 1 3.3 7 0 1.4-.1 3.6-.5 4.8-1.4.6-4.3.8-6.8.8.2-8.5 1.3-12.6 4-12.6zm18.4-6v44.5c10.2 0 10.4 0 10.4-1.8v-35.7c1-.7 2.4-1 3.6-1 2.6 0 3 1.4 3 6.3v32.2c10.6 0 10.9 0 10.9-1.8v-33.7c0-9.3-4-12-13.5-12a42 42 0 0 0-14.4 3zm52.6-24.3c-6.3 0-15.5 2.4-15.5 16.9v5.3h-3c-2.6 0-2.6.5-2.6 8.7h5.6v38h8.6c1.9 0 1.9-2 1.9-2v-36h3.4c1.8 0 2-.6 2-8.7h-5.4v-7.4c0-5.2 3-6.4 5.8-6.4.7 0 1.7 0 2.8.3v60.1h8.6c1.8 0 1.8-1.8 1.8-1.8v-63.1a27 27 0 0 0-14-4zm20.8 10.3c0 3.7 1.3 5.7 5.7 5.7 3.6 0 5.7-2.5 5.7-5.7 0-3.4-1.4-5.8-5.7-5.8-3.6 0-5.7 2.7-5.7 5.8zm13.6 0c0 3.7 1.2 5.7 5.6 5.7 3.6 0 5.7-2.5 5.7-5.7 0-3.4-1.4-5.8-5.7-5.8-3.6 0-5.6 2.7-5.6 5.8zm-15.2 17c0 1.4.2 3.8 1.4 6 3-1.1 7.7-2 11.2-2 2.8 0 3.9 1 3.9 3.5v6.4a12.4 12.4 0 0 0-6-1.4c-5.5 0-10.7 2.6-10.7 15.4 0 13 6.3 14.6 13.2 14.6a27 27 0 0 0 13.5-3c.4-7 .4-19 .4-29.8v-4.4c0-8.4-3.1-11.4-11.7-11.4-7.5 0-12.6 1.7-14 2.8-.8.6-1.2 2.1-1.2 3.2zm16.5 21c0 3.8 0 10-.2 12-.6.6-1.7.9-2.5.9-2.4 0-3-1.8-3-6.3 0-6 1.2-7.4 3.2-7.4a4 4 0 0 1 2.5.7zm39.2-22.3c0-3-3.2-4.8-7.8-4.8-7.7 0-16.6 3-16.6 25.3 0 19.4 4.2 23.3 13.8 23.3 6 0 10.2-2 10.2-5 0-1.6-.3-3.2-.8-5.6-1.5.8-4 1.3-6 1.3-5 0-6.3-3.4-6.3-14.1 0-14.2 3.3-16 6.7-16 2 0 4.3.6 5.8 1.2.8-2.2 1-4.2 1-5.6zm4-21.2v64c10.4 0 10.4 0 10.4-1.8v-35a6.6 6.6 0 0 1 3.7-1.1c2.8 0 3 2.9 3 5.7v32.2c10 0 10.8 0 10.8-1.8v-33.7c0-8-1.4-12-8.6-12-3 0-6.7 1-9 3.2v-24.3c-8.4 0-10.3 0-10.3 4.6zm49.4 54.8c-4.4 0-5.7-2.6-6-8.6 4.6 0 11.6-.4 16-1.3 1-3.6 1.4-8.8 1.4-13.2 0-10.9-4.4-15.3-12-15.3-8.7 0-16.3 4-16.3 26.6 0 17.7 6 22 14.4 22 7.3 0 13.3-2 13.3-5.8 0-2.2-.3-5.1-1-7a22.7 22.7 0 0 1-9.8 2.6zm-2-29.3c2.4 0 3.3 1 3.3 7 0 1.4-.1 3.6-.5 4.8-1.4.6-4.3.8-6.8.8.2-8.5 1.3-12.6 4-12.6z"/><path fill="none" stroke="#e1e1e1" stroke-linecap="round" stroke-linejoin="round" stroke-miterlimit="10" stroke-width="15" d="M1691.7-242.3h-282.8l2 1844.4h286.4z"/><path fill="#34993f" d="M1697.8-256H1415l2.2 1865.1h295z"/><path fill="#ccd0ce" stroke="#e1e1e1" stroke-linecap="round" stroke-linejoin="round" stroke-miterlimit="10" stroke-width="15.6" d="m1926.3-251.2-235 .7-3.8 945.9c-4 167.7-275.3 65-276.3 184.7-1.4 152.3-2.3 134-2.3 340.6 0 125.6 279.8 20.2 280.1 164.5 2.2 182.2 2.6 174.3 2.2 216.9h235.1z"/><rect style="mix-blend-mode:normal" width="263.8" height="81.6" x="823.4" y="1812.5" fill="#f8f8f8" stroke="#fff" stroke-linejoin="round" stroke-width="40" filter="url(#c)" ry="0" transform="matrix(1.494 0 0 .44792 243.6 862.1)"/><path d="M1531 1654.4v21.7c0 6.3.2 12.5 1.2 20.3-1.3-6-3.3-14-5.4-19.3l-9.7-24.6h-8.3c-1.4 0-2 .6-2 1.9v63.4c10.4 0 10.5 0 10.5-1.8v-22.4c0-5.9-.5-14-1.3-21.3 1.3 6.4 3.5 15.3 5.5 20.5l10 25h8c1.3 0 2-.7 2-1.8v-63.5c-10.3 0-10.5 0-10.5 1.9zm32.1 54.2c-4.5 0-5.8-2.6-6-8.6 4.6 0 11.5-.4 16.1-1.3 1-3.6 1.3-8.8 1.3-13.2 0-10.9-4.5-15.3-12-15.3-8.8 0-16.4 4-16.4 26.6 0 17.7 6 22 14.5 22 7.2 0 13.2-2 13.2-5.8 0-2.2-.3-5.1-.8-7a22.7 22.7 0 0 1-10 2.6zm-2-29.3c2.3 0 3.2 1 3.2 7 0 1.4 0 3.6-.5 4.8-1.4.6-4.3.8-6.8.8.2-8.5 1.3-12.6 4.1-12.6zm18.5-25.3v62c2 1.7 6 2.8 11 2.8 8 0 18-3.1 18-29.6 0-14-3.2-19-10.6-19-3.3 0-6 1-8 2.8v-23.8c-8.7 0-10.4 0-10.4 4.7zm10.4 54.9v-28c1-1 2.1-1.3 3.1-1.3 2.4 0 3.6 2.9 3.6 11.5 0 15.7-2.8 18.5-4.6 18.5a3 3 0 0 1-2-.7zm39.2-.3c-4.4 0-5.7-2.6-6-8.6 4.6 0 11.6-.4 16.1-1.3 1-3.6 1.3-8.8 1.3-13.2 0-10.9-4.4-15.3-12-15.3-8.7 0-16.3 4-16.3 26.6 0 17.7 6 22 14.4 22 7.3 0 13.3-2 13.3-5.8 0-2.2-.3-5.1-.9-7a22.7 22.7 0 0 1-9.9 2.6zm-2-29.3c2.4 0 3.3 1 3.3 7 0 1.4 0 3.6-.5 4.8-1.4.6-4.3.8-6.8.8.2-8.5 1.3-12.6 4-12.6zm18.4-6v44.5c10.2 0 10.4 0 10.4-1.8v-35.7c1-.7 2.4-1 3.6-1 2.6 0 3 1.4 3 6.3v32.2c10.6 0 11 0 11-1.8v-33.7c0-9.3-4-12-13.6-12a42 42 0 0 0-14.4 3zm52.6-24.3c-6.3 0-15.5 2.4-15.5 16.9v5.3h-3c-2.6 0-2.6.5-2.6 8.7h5.6v38h8.6c2 0 2-2 2-2v-36h3.3c1.8 0 2-.6 2-8.7h-5.4v-7.4c0-5.2 3-6.4 5.8-6.4.7 0 1.7 0 2.8.3v60.1h8.6c1.8 0 1.8-1.8 1.8-1.8v-63.1a27 27 0 0 0-14-4zm20.8 10.3c0 3.7 1.3 5.7 5.7 5.7 3.6 0 5.7-2.5 5.7-5.7 0-3.4-1.4-5.8-5.7-5.8-3.6 0-5.7 2.7-5.7 5.8zm13.6 0c0 3.7 1.2 5.7 5.6 5.7 3.6 0 5.7-2.5 5.7-5.7 0-3.4-1.4-5.8-5.7-5.8-3.6 0-5.6 2.7-5.6 5.8zm-15.2 17c0 1.4.2 3.8 1.4 6 3-1.1 7.7-2 11.2-2 2.8 0 4 1 4 3.5v6.4a12.4 12.4 0 0 0-6-1.4c-5.6 0-10.8 2.6-10.8 15.4 0 13 6.3 14.6 13.2 14.6a27 27 0 0 0 13.5-3c.4-7 .4-19 .4-29.8v-4.4c0-8.4-3-11.4-11.7-11.4-7.5 0-12.6 1.7-14 2.8-.8.6-1.2 2.1-1.2 3.2zm16.5 21c0 3.8 0 10-.2 12-.6.6-1.7.9-2.5.9-2.4 0-3-1.8-3-6.3 0-6 1.2-7.4 3.2-7.4a4 4 0 0 1 2.5.7zm39.2-22.3c0-3-3.2-4.8-7.8-4.8-7.7 0-16.6 3-16.6 25.3 0 19.4 4.2 23.3 13.8 23.3 6 0 10.2-2 10.2-5 0-1.6-.3-3.2-.8-5.6-1.5.8-4 1.3-6 1.3-5 0-6.3-3.4-6.3-14.1 0-14.2 3.3-16 6.7-16 2 0 4.3.6 5.8 1.2.8-2.2 1-4.2 1-5.6zm4-21.2v64c10.4 0 10.4 0 10.4-1.8v-35a6.6 6.6 0 0 1 3.7-1.1c2.8 0 3 2.9 3 5.7v32.2c10.1 0 10.8 0 10.8-1.8v-33.7c0-8-1.4-12-8.6-12-3 0-6.7 1-8.9 3.2v-24.3c-8.5 0-10.4 0-10.4 4.6zm49.4 54.8c-4.4 0-5.7-2.6-6-8.6 4.6 0 11.6-.4 16.1-1.3 1-3.6 1.3-8.8 1.3-13.2 0-10.9-4.4-15.3-12-15.3-8.7 0-16.3 4-16.3 26.6 0 17.7 6 22 14.4 22 7.3 0 13.3-2 13.3-5.8 0-2.2-.3-5.1-.9-7a22.7 22.7 0 0 1-9.9 2.6zm-2-29.3c2.4 0 3.3 1 3.3 7 0 1.4 0 3.6-.5 4.8-1.4.6-4.3.8-6.8.8.2-8.5 1.3-12.6 4-12.6z"/></svg>