<svg xmlns="http://www.w3.org/2000/svg" width="602.021" height="959.981" xml:space="preserve"><path fill-rule="evenodd" d="M513.53 88.55c39.097 39.097 63.438 81.246 77.754 134.658 14.316 53.463 14.316 102.144 0 155.605-14.312 53.414-38.677 95.587-77.798 134.708-39.096 39.096-81.25 63.442-134.687 77.779-53.433 14.29-102.144 14.31-155.577-.025-53.417-14.317-95.566-38.658-134.662-77.754C49.439 474.4 25.074 432.227 10.737 378.79c-14.316-53.414-14.316-102.144 0-155.557 14.337-53.432 38.677-95.586 77.78-134.682 39.114-39.121 81.293-63.488 134.7-77.804 53.438-14.335 102.15-14.316 155.587-.024 53.432 14.34 95.605 38.702 134.726 77.828zm-.351.352c-39.068-39.067-81.143-63.379-134.507-77.695C325.307-3.065 276.71-3.09 223.35 11.231c-53.345 14.297-95.415 38.604-134.483 77.671-39.043 39.048-63.335 81.099-77.65 134.458-14.293 53.34-14.293 101.958.004 155.297 14.317 53.365 38.628 95.44 77.695 134.508 39.043 39.042 81.099 63.33 134.434 77.626 53.364 14.317 101.958 14.292 155.322.025 53.364-14.316 95.415-38.604 134.463-77.646 39.068-39.068 63.374-81.143 77.666-134.488 14.296-53.384 14.296-101.957 0-155.341-14.287-53.34-38.58-95.396-77.622-134.439z"/><path fill="#fff" fill-rule="evenodd" d="M88.867 88.902c39.068-39.067 81.138-63.374 134.483-77.671 53.359-14.321 101.957-14.296 155.322-.024 53.364 14.321 95.44 38.628 134.507 77.695 39.047 39.043 63.335 81.099 77.622 134.439 14.296 53.384 14.296 101.962.005 155.346-14.297 53.34-38.604 95.415-77.671 134.482-39.047 39.043-81.099 63.33-134.459 77.647-53.364 14.272-101.962 14.292-155.326-.025-53.335-14.297-95.386-38.579-134.434-77.627-39.067-39.067-63.373-81.142-77.695-134.507-14.297-53.339-14.297-101.957 0-155.302C25.532 170 49.824 127.95 88.867 88.902z"/><path fill="#154889" fill-rule="evenodd" d="M98.794 98.78c37.212-37.212 77.333-60.4 128.194-73.994 50.853-13.643 97.22-13.643 148.056-.025C425.899 38.355 466.045 61.563 503.28 98.8c37.216 37.216 60.351 77.338 73.97 128.168 13.618 50.884 13.618 97.203.005 148.082-13.623 50.835-36.782 90.98-73.995 128.192-37.241 37.236-77.362 60.425-128.217 74.019-50.835 13.619-97.203 13.619-148.061-.024-50.855-13.594-90.953-36.759-128.17-73.97C61.579 466.026 38.37 425.885 24.78 375.03c-13.622-50.835-13.622-97.203 0-148.038 13.589-50.854 36.778-90.976 74.014-128.212z"/><path fill="#fff" d="M406.176 288.277c0-16.396-13.305-29.717-29.716-29.717-16.416 0-29.721 13.32-29.721 29.717 0 16.416 13.305 29.731 29.721 29.731 16.411 0 29.716-13.315 29.716-29.731zM261.85 114.233c0 18.75-15.214 33.965-33.964 33.965s-33.97-15.215-33.97-33.965c0-18.755 15.22-33.955 33.97-33.955s33.964 15.2 33.964 33.955zm-67.934 173.224 5.961-5.855a8.499 8.499 0 0 0 2.535-6.055v-63.681a4.24 4.24 0 0 0-4.248-4.234c-2.334 0-4.248 1.9-4.248 4.234zm-50.937 98.451a171.75 171.75 0 0 1 40.653-87.666 59.471 59.471 0 0 1-15.185-39.682v-33.95c0-32.828 26.607-59.44 59.44-59.44a59.438 59.438 0 0 1 52.713 31.993l35.284 67.769c5.097 9.829 3.291 21.826-4.507 29.688l35.058 29.413a46.679 46.679 0 0 0 42.857 9.147l6.28-1.808a17.018 17.018 0 0 1 17.763 5.558l43.189 52.485c7.343 8.92 6.206 22.09-2.579 29.6l-39.273-45.83 12.725 63.68-16.275 2.398 9.787 61.729c.922 5.795-3.053 11.225-8.834 12.148-5.64.88-10.981-2.852-12.075-8.447l-12.041-61.987-13.76 2.036-6.279 67.383a10.606 10.606 0 0 1-21.148-1.593l8.463-145.844-60.45-57.158a21.261 21.261 0 0 1 1.016-26.007l-37.637-72.313c-.654-1.227-2.188-1.73-3.428-1.075a2.555 2.555 0 0 0-1.381 2.26v65.152c0 2.275.907 4.449 2.534 6.055l7.538 7.418a171.683 171.683 0 0 1 49.36 96.888zm89.15 8.497h25.473v114.61a12.74 12.74 0 0 1-12.743 12.743c-7.022 0-12.73-5.703-12.73-12.743zm-33.965 0h25.473v89.14c0 7.037-5.707 12.745-12.728 12.745-7.042 0-12.745-5.708-12.745-12.744M114.201 639.76c-15.58 0-28.263 12.683-28.263 28.273v263.465c0 15.583 12.684 28.267 28.263 28.267h370.272c15.59 0 28.274-12.684 28.274-28.267V668.033c0-15.59-12.683-28.273-28.274-28.273"/><path d="M114.201 959.563c-15.472 0-28.053-12.59-28.053-28.065V668.033c0-15.472 12.581-28.057 28.053-28.057h370.272c15.472 0 28.054 12.585 28.054 28.057v263.465c0 15.476-12.582 28.065-28.054 28.065zm370.272-320.008H114.201c-15.725 0-28.478 12.753-28.478 28.478v263.465c0 15.73 12.753 28.482 28.478 28.482h370.272c15.726 0 28.479-12.753 28.479-28.482V668.033c0-15.725-12.753-28.478-28.479-28.478"/><path d="M114.201 646.668c-11.793 0-21.354 9.565-21.354 21.365v263.465c0 11.793 9.561 21.365 21.354 21.365h370.272c11.794 0 21.365-9.572 21.365-21.365V668.033c0-11.8-9.571-21.365-21.365-21.365zm0 10.688h370.272c5.9 0 10.685 4.777 10.685 10.677v263.465c0 5.904-4.784 10.677-10.685 10.677H114.201c-5.89 0-10.677-4.773-10.677-10.677V668.033c0-5.9 4.788-10.677 10.677-10.677z"/><path d="M267.049 689.76a17.726 17.726 0 0 0-16.94 12.482l-12.874 41.572c-20.655-4.19-41.395 6.752-49.62 26.162-9.53 22.544 1.01 48.547 23.544 58.087 22.544 9.55 48.543-.987 58.084-23.531 9.54-22.544-.999-48.543-23.542-58.083l3.529-11.376 52.388 58.11a8.887 8.887 0 0 0 6.592 2.946h18.619a46.848 46.848 0 0 0 1.29 4.864c7.592 23.27 32.601 35.989 55.871 28.388 23.27-7.583 35.985-32.588 28.396-55.858-7.584-23.27-32.589-35.992-55.859-28.405l-12.864-28.771 3.334-8.866h9.968v-8.86h-37.681a2.203 2.203 0 0 0-2.149 1.695 2.2 2.2 0 0 0 1.634 2.666l18.757 4.499-3.334 8.866H255.02l3.56-11.484a8.862 8.862 0 0 1 8.47-6.241h14.574v-8.862zm-14.774 35.449h78.6l-23.103 61.57zm86.962 2.956 9.183 20.526c-13.894 7.861-22.485 22.613-22.485 38.572h-8.862zm-110.594 23.634a34.98 34.98 0 0 1 5.953.543l-10.392 33.604a4.433 4.433 0 0 0 2.924 5.545 4.427 4.427 0 0 0 5.531-2.924l10.406-33.603c17.84 8.087 25.753 29.09 17.666 46.92-8.076 17.839-29.093 25.752-46.933 17.665-17.833-8.077-25.756-29.094-17.666-46.937 5.852-12.903 18.705-20.906 32.511-20.813zm138.58.119c16.424-1.425 32.146 8.817 37.027 25.238 5.573 18.774-5.122 38.523-23.893 44.09-18.774 5.573-38.516-5.118-44.09-23.893-.114-.407-.239-.81-.344-1.224h36.552c2.459 0 4.427-2 4.427-4.44 0-.622-.126-1.241-.38-1.805l-16.361-36.62a35.91 35.91 0 0 1 7.061-1.346zm-15.167 4.91 13.573 30.435h-30.832a35.478 35.478 0 0 1 17.259-30.436zm-91.628 117.647v-6.529h-8.455v-6.113c0-3.097 1.509-4.936 4.69-4.936h3.765v-7.284h-5.357c-7.952 0-11.634 5.69-11.634 11.804v6.529h-4.857v6.53h4.857v35.157h8.536v-35.158zm38.937-3.769c-2.927-2.927-6.025-4.016-10.128-4.016-4.77 0-9.127 2.094-11.303 5.105v-4.604h-8.368v42.442h8.539v-25.78c0-5.863 3.849-9.545 8.452-9.545 2.931 0 4.44.921 6.362 2.844zm40.644 20.176v-3.765c0-12.058-6.613-20.427-18-20.427-10.882 0-17.995 7.952-17.995 21.682 0 16.156 8.452 21.765 19.084 21.765 7.45 0 11.553-2.26 15.906-6.614l-5.441-5.107c-3.015 3.015-5.525 4.354-10.298 4.354-6.947 0-10.8-4.604-10.8-11.888zm-8.456-5.942h-19.087c.087-2.597.253-3.852 1.088-5.778 1.342-3.181 4.44-5.358 8.456-5.358 4.019 0 7.033 2.177 8.372 5.358.837 1.926 1.088 3.18 1.171 5.778zm28.551-26.12v-9.041h-9.039v9.04zm-.25 50.813V867.19h-8.539v42.442Z"/></svg>