<svg xmlns="http://www.w3.org/2000/svg" xmlns:svg="http://www.w3.org/2000/svg" id="svg22" width="16" height="16" version="1" viewBox="0 0 12 12"><metadata id="metadata28"/><path id="path2" fill="#333" d="M0 .003h12.008V12H0z"/><g aria-label="v" style="font-weight:400;font-size:.287px;line-height:1.25;font-family:'Yanone Kaffeesatz';letter-spacing:0;word-spacing:0;stroke-width:.007" id="text6" transform="translate(0.34322022)"><path d="m 0.228,3.745 1.105,5.486 c 0.078,0.364 0.234,0.65 0.611,0.65 0.273,0 0.754,-0.013 1.053,-0.065 l 1.3,-6.5 c -1.495,0 -1.495,0 -1.534,0.286 L 2.581,5.188 C 2.451,6.306 2.334,8.295 2.334,8.295 H 2.308 c 0,0 -0.117,-1.989 -0.26,-3.107 L 1.814,3.316 c -1.664,0 -1.677,0 -1.586,0.429 z" style="font-weight:700;font-size:13px;font-family:'Yanone Kaffeesatz';fill:#fff" id="path835"/></g><g aria-label="h" style="font-weight:400;font-size:.287px;line-height:1.25;font-family:'Yanone Kaffeesatz';letter-spacing:0;word-spacing:0;stroke-width:.007" id="text10" transform="translate(-0.1906779)"><path d="M 7.843,0.94699977 V 9.8649998 c 1.456,0 1.456,0 1.456,-0.26 v -4.875 c 0.182,-0.117 0.351,-0.156 0.507,-0.156 0.39,0 0.416,0.403 0.416,0.793 v 4.498 c 1.417,0 1.508,0 1.508,-0.26 v -4.693 c 0,-1.105 -0.195,-1.677 -1.196,-1.677 -0.429,0 -0.936,0.156 -1.235,0.455 V 0.30999977 c -1.196,0 -1.456,0 -1.456,0.637 z" style="font-weight:700;font-size:13px;font-family:'Yanone Kaffeesatz';fill:#fff" id="path838"/></g><g id="g20" transform="matrix(0.9519,0,0,0.9519,-0.214,0.34118643)"><circle id="circle12" cx="6.17" cy="9.089" r="2.808" style="fill:#e30513;stroke:#fff;stroke-width:.048"/><g id="g18" style="fill:#fff"><path id="path14" d="M 6.097,6.71 C 6.09,6.717 6.085,6.737 6.085,6.755 c 0,0.032 0,0.032 -0.049,0.032 -0.064,0 -0.072,0.012 -0.068,0.102 L 5.971,6.961 6.028,6.964 6.085,6.967 V 7 c 0,0.03 -0.004,0.034 -0.042,0.046 A 0.47,0.47 0 0 0 5.75,7.281 0.267,0.267 0 0 0 5.713,7.434 c 0,0.073 -0.003,0.08 -0.022,0.08 a 0.05,0.05 0 0 0 -0.032,0.011 0.49,0.49 0 0 0 0,0.215 C 5.666,7.747 5.69,7.752 5.714,7.752 H 5.757 V 9.143 H 5.648 V 7.871 H 4.823 V 9.143 H 4.748 c -0.111,0 -0.114,0.004 -0.114,0.18 0,0.125 0.002,0.14 0.02,0.158 0.02,0.02 0.032,0.02 1.508,0.02 1.43,0 1.491,0 1.506,-0.018 0.014,-0.015 0.017,-0.042 0.017,-0.159 0,-0.172 -0.005,-0.18 -0.1,-0.18 H 7.526 V 7.87 H 6.701 V 9.142 H 6.581 V 7.752 H 6.63 c 0.025,0 0.052,-0.005 0.06,-0.012 A 0.49,0.49 0 0 0 6.69,7.525 0.047,0.047 0 0 0 6.66,7.513 C 6.645,7.513 6.642,7.504 6.642,7.454 A 0.426,0.426 0 0 0 6.344,7.06 C 6.267,7.032 6.264,7.03 6.264,7 c 0,-0.033 0,-0.033 0.053,-0.036 L 6.368,6.961 6.371,6.883 c 0.003,-0.09 0,-0.096 -0.064,-0.096 H 6.264 V 6.75 C 6.264,6.724 6.259,6.709 6.248,6.705 A 0.327,0.327 0 0 0 6.097,6.711 Z"/><path id="path16" d="M 5.142,7.33 C 5.11,7.374 5.109,7.374 5.05,7.374 c -0.032,0 -0.058,0.004 -0.058,0.009 0,0.005 0.004,0.032 0.011,0.059 0.011,0.048 0.01,0.05 -0.024,0.098 L 4.943,7.589 4.995,7.615 C 5.045,7.639 5.048,7.642 5.06,7.696 L 5.072,7.751 5.127,7.727 5.182,7.702 5.23,7.727 5.279,7.752 5.289,7.714 A 0.267,0.267 0 0 0 5.299,7.66 c 0,-0.01 0.02,-0.028 0.056,-0.045 L 5.41,7.587 5.373,7.539 C 5.338,7.493 5.337,7.49 5.348,7.449 5.368,7.375 5.366,7.374 5.302,7.374 5.245,7.374 5.243,7.373 5.21,7.329 L 5.175,7.284 A 0.587,0.587 0 0 0 5.142,7.329 Z m 1.998,0 C 7.108,7.374 7.107,7.374 7.048,7.374 c -0.032,0 -0.059,0.004 -0.059,0.009 0,0.005 0.005,0.032 0.012,0.059 0.011,0.048 0.01,0.05 -0.024,0.098 L 6.941,7.589 6.993,7.615 c 0.05,0.024 0.053,0.027 0.065,0.081 L 7.07,7.751 7.125,7.727 7.18,7.702 7.228,7.727 7.277,7.752 7.287,7.714 A 0.267,0.267 0 0 0 7.297,7.66 c 0,-0.01 0.02,-0.028 0.056,-0.045 L 7.408,7.587 7.371,7.539 C 7.336,7.493 7.335,7.49 7.346,7.449 7.366,7.375 7.364,7.374 7.3,7.374 7.243,7.374 7.24,7.373 7.208,7.329 L 7.173,7.284 A 0.587,0.587 0 0 0 7.14,7.329 Z m -2.485,2.993 c -0.096,0.382 -0.175,0.7 -0.178,0.706 -0.003,0.01 0.133,0.013 0.663,0.013 H 5.807 V 10.79 c 0,-0.283 0.01,-0.368 0.058,-0.469 a 0.445,0.445 0 0 1 0.175,-0.192 0.278,0.278 0 0 1 0.239,0 0.428,0.428 0 0 1 0.2,0.253 c 0.027,0.077 0.027,0.082 0.031,0.369 l 0.004,0.29 h 0.681 c 0.541,0 0.68,-0.002 0.677,-0.012 C 7.869,11.023 7.79,10.705 7.694,10.323 L 7.521,9.63 H 4.827 Z"/></g></g></svg>