<svg xmlns="http://www.w3.org/2000/svg" viewBox="0 0 847.159 743.623" width="25" height="25">
   <path d="M170.467 439.831q25.812 0 39.048 42.358 26.474 79.42 37.725 79.42 8.604 0 17.87-13.236 185.977-297.828 344.157-481.82Q650.301 18.9 739.65 18.9q21.179 0 28.46 3.971 7.28 3.971 7.28 9.928 0 9.266-21.841 36.401-255.47 307.094-473.878 648.604-15.223 23.827-62.213 23.827-47.653 0-56.257-3.972-22.502-9.927-52.947-101.261-34.416-101.262-34.416-127.074 0-27.797 46.329-53.609 28.46-15.884 50.3-15.884z" aria-label="✓" style="fill:#008000;fill-rule:nonzero;stroke:#ffffff;stroke-width:33.8864;stroke-linecap:butt;stroke-linejoin:round;stroke-miterlimit:4.1;stroke-dasharray:none;stroke-opacity:0.89999998;paint-order:stroke fill markers" font-weight="400" font-size="1355.45" font-family="sans-serif" letter-spacing="0" word-spacing="0" fill="green" stroke="#fff" stroke-width="33.886" stroke-linejoin="round" stroke-miterlimit="4.1" stroke-opacity=".9" paint-order="stroke fill markers" />
</svg>
