<svg viewBox="0 0 747.26 747.26" xmlns="http://www.w3.org/2000/svg"><path d="M746.121 487.12q-10 32-29 69h-104q-24 33-57 57v104q-37 19-69 29l-73-74q-19 3-41 3-20 0-40-3l-74 74q-32-10-68-29v-104q-32-23-58-57h-103q-20-36-29-69l74-73q-3-19-3-41 0-20 3-40l-74-74q9-32 29-68h103q25-33 58-58v-103q36-20 68-29l74 74q20-3 40-3 22 0 41 3l73-74q33 9 69 29v103q34 26 57 58h104q19 36 29 68l-74 74q3 20 3 40 0 22-3 41zm-373 135q102 0 175-75 74-76 74-174 0-100-75-174-74-75-174-75-99 0-174 75t-75 174q0 100 75 175 75 74 174 74zm0-161q-35 0-61-26-26-27-26-62 0-36 26-61 26-26 61-26 36 0 62 26 26 25 26 61 0 35-27 62-26 26-61 26z" fill="#fff"/></svg>
