<svg xmlns="http://www.w3.org/2000/svg" xmlns:xlink="http://www.w3.org/1999/xlink" width="1603.46838" height="1167.28475" viewBox="0 0 424.25101 308.84409"><defs><path id="a" fill="#8a8989" d="M277.2 1309.8a25 34.1.2 0 1-25-34.3l1.3-365.2a25 34.1.2 0 1 25-34l99.9.3a25 34.1.2 0 1 24.9 34.2L402 1276a25 34.1.2 0 1-25.1 34l-99.8-.2m0 8.2 99.8.3a31 42.4.2 0 0 31.2-42.3l1.1-365.2a31 42.4.2 0 0-30.9-42.5l-99.8-.3a31.1 42.4.2 0 0-31.2 42.3l-1.2 365.2a31.1 42.4.2 0 0 31 42.5z"/><path id="b" fill="#060709" d="m286.1 974.7-6.2-31c-1-5.4 3-10.5 8.3-10.5l79.4.2c5.3 0 9.4 5.2 8.3 10.5l-6.4 31.1c-.9 4-4.2 6.8-8 6.8l-67.4-.2a8.3 8.3 0 0 1-8-6.9zm107.5 113.1-.1 46.9a6 8.8.2 0 1-6.1 8.7h-3.6a2.4 3.5.2 0 1-2.4-3.5l.1-57.4a2.4 3.5.2 0 1 2.5-3.5h3.6a6 8.8.2 0 1 6 8.8zM260.1 1203v5.4a6 6.8.2 0 1-6 6.8h-7.7a6 6.8.2 0 1-6-6.9 6 6.8.2 0 1 6-6.7H259a1.2 1.4.2 0 1 1.2 1.4zm155.3 6a6 6.8.2 0 1-6 6.7h-7.7a6 6.8.2 0 1-6-6.8v-5.5a1.2 1.4.2 0 1 1.2-1.3h12.5a6 6.8.2 0 1 6 6.8zm-21.6-206.8-.1 47a6 8.8.2 0 1-6.1 8.7H384a2.4 3.5.2 0 1-2.4-3.6l.2-57.4a2.4 3.5.2 0 1 2.4-3.5h3.6a6 8.8.2 0 1 6 8.8zm-128.2 46.6.5-47a6 8.8.6 0 1 6.2-8.6h3.6a2.4 3.5.6 0 1 2.4 3.5l-.6 57.4a2.4 3.5.6 0 1-2.5 3.5h-3.6a6 8.8.6 0 1-6-8.8zm-.8 85.5.5-46.9a6 8.8.6 0 1 6.1-8.7h3.7a2.4 3.5.6 0 1 2.4 3.6l-.6 57.4a2.4 3.5.6 0 1-2.5 3.5h-3.6a6 8.8.6 0 1-6-8.9zm7.5 60.4 8.6-34.6c1-4.3 4.9-7.2 9.6-7.2l76.1.2c4.6 0 8.4 2.9 9.5 7l9 34.7c1.6 5.8-3.9 11.7-10.6 11.7l-91.7-.3c-6.6 0-12-5.8-10.5-11.5z"/></defs><path fill="#a5a8a7" d="m414.57537 317.01553-355.75874-.39687v-476.54104l352.68957.79375z"/><g transform="matrix(.31 0 0 .265 -133.60721 -302.05644)"><rect width="155.89999" height="441.79999" x="1148.3" y="1247.9" fill="#89bd27" rx="28"/><path fill="#8a8989" d="M1276.1 1252a25 34.1 0 0 1 25 34.2v365.2a25 34.1 0 0 1-25 34.2h-99.8a25 34.1 0 0 1-25-34.2v-365.2a25 34.1 0 0 1 25-34.1h99.8m0-8.3h-99.8a31 42.4 0 0 0-31 42.4v365.2a31 42.4 0 0 0 31 42.4h99.8a31.1 42.4 0 0 0 31.1-42.4v-365.2a31.1 42.4 0 0 0-31-42.4z"/><path fill="#060709" d="m1268.3 1587.1 6.3 31.1a8.7 8.7 0 0 1-8.3 10.5H1187a8.7 8.7 0 0 1-8.3-10.5l6.3-31c.9-4 4.1-6.9 8-6.9h67.4c3.9 0 7.1 2.8 8 6.8zm-107.9-112.7v-46.9a6 8.8 0 0 1 6-8.7h3.7a2.4 3.5 0 0 1 2.4 3.5v57.4a2.4 3.5 0 0 1-2.4 3.5h-3.6a6 8.8 0 0 1-6-8.8zm133.1-115.6v-5.4a6 6.8 0 0 1 6-6.8h7.7a6 6.8 0 0 1 6 6.8 6 6.8 0 0 1-6 6.8h-12.4a1.2 1.4 0 0 1-1.3-1.4zm-155.2-5.5a6 6.8 0 0 1 6-6.8h7.6a6 6.8 0 0 1 6 6.8v5.5a1.2 1.4 0 0 1-1.1 1.4h-12.5a6 6.8 0 0 1-6-6.9zm22.2 206.7v-46.9a6 8.8 0 0 1 6-8.8h3.7a2.4 3.5 0 0 1 2.4 3.5v57.5a2.4 3.5 0 0 1-2.4 3.5h-3.7a6 8.8 0 0 1-6-8.8zm128-47-.3 47a6 8.8.4 0 1-6.1 8.7h-3.6a2.4 3.5.4 0 1-2.4-3.6l.4-57.4a2.4 3.5.4 0 1 2.4-3.5h3.6a6 8.8.4 0 1 6 8.9zm.6-85.5-.4 46.9a6 8.8.4 0 1-6 8.7h-3.7a2.4 3.5.4 0 1-2.4-3.6l.4-57.4a2.4 3.5.4 0 1 2.5-3.5h3.6a6 8.8.4 0 1 6 8.9zm-7.7-60.3-8.4 34.5c-1 4.4-5 7.3-9.6 7.3h-76.2a9.5 9.5 0 0 1-9.5-7l-9.2-34.6c-1.5-5.8 4-11.7 10.7-11.7h91.7c6.5 0 12 5.7 10.5 11.5z"/><rect width="17.9" height="36.2" x="-1672.9" y="1166.6" fill="#9b4c17" rx="8.9" transform="rotate(-90)"/><rect width="17.9" height="36.2" x="-1672.9" y="1254.5" fill="#9b4c17" rx="8.9" transform="rotate(-90)"/><rect width="17.9" height="36.2" x="-1281.7" y="1166.5" fill="#edeeac" rx="8.9" transform="rotate(-90)"/><rect width="17.9" height="36.2" x="-1281.7" y="1251.7" fill="#edeeac" rx="8.9" transform="rotate(-90)"/></g><path fill="#fff" d="M116.78683-216.358h3.3073v416.00437h-3.3073zm181.89073 395.1552h3.30729v416.00437h-3.30729z"/><path fill="none" stroke="#e1e1e1" stroke-linecap="round" stroke-linejoin="round" stroke-miterlimit="10" stroke-width="4.1275" d="M58.68433 197.60907h74.85063l-.52917 117.05167H57.20267Z"/><path fill="#34993f" d="M56.64704 178.7972h74.82417l-.58209 137.74208H52.83705Z"/><g transform="rotate(180 283.95623 245.78059) scale(.265)"><path fill="none" stroke="#432918" stroke-miterlimit="10" stroke-width="1.3" d="M1532 990.2a7.6 7 0 0 0-15.2 0v30a19.3 17.8 0 0 0-4.5-.5H1482a18.5 17 0 0 0-7.5 1.4v-30.9a7.6 7 0 0 0-15.1 0v39.8a7.6 7 0 0 0 4 6v1a18.7 17.3 0 0 0 18.7 17.2h30.4a18.7 17.3 0 0 0 18.7-17.3 19.4 17.9 0 0 0-.3-3.1 7.6 7 0 0 0 1.2-3.9z"/><path fill="none" stroke="#432918" stroke-miterlimit="10" stroke-width="1.3" d="M1483.9 990.8a9.3 8.5 0 0 0-9.3 8.5v14a9.2 8.5 0 0 0 18.4 0v-14a9.2 8.5 0 0 0-9.1-8.5zm24.8 10.8h-2.3a8 7.4 0 0 0-8 7.5v4.7a8 7.4 0 0 0 8 7.4h2.3a8 7.4 0 0 0 8-7.4v-4.7a8 7.4 0 0 0-8-7.5z"/><rect width="180" height="8.5" x="-1103.3" y="1492.8" fill="#060709" rx="3.2" transform="rotate(-90)"/><path fill="#fdd535" d="M1532 990.2a7.6 7 0 0 0-15.2 0v30a19.3 17.8 0 0 0-4.5-.5H1482a18.5 17 0 0 0-7.5 1.4v-30.9a7.6 7 0 0 0-15.1 0v39.8a7.6 7 0 0 0 4 6v1a18.7 17.3 0 0 0 18.7 17.2h30.4a18.7 17.3 0 0 0 18.7-17.3 19.4 17.9 0 0 0-.3-3.1 7.6 7 0 0 0 1.2-3.9z"/><path fill="#1e8dc7" d="M1483.9 990.8a9.3 8.5 0 0 0-9.3 8.5v14a9.2 8.5 0 0 0 18.4 0v-14a9.2 8.5 0 0 0-9.1-8.5zm24.8 10.8h-2.3a8 7.4 0 0 0-8 7.5v4.7a8 7.4 0 0 0 8 7.4h2.3a8 7.4 0 0 0 8-7.4v-4.7a8 7.4 0 0 0-8-7.5z"/><rect width="19.7" height="21.3" x="-1048.3" y="1484.7" fill="#b04f1a" rx="9.8" transform="rotate(-90)"/><path fill="#060709" d="m1490.2 961.3-25.5 17.2a3.6 3.4 0 0 0 4.3 5.4l25.4-17.2a3.64667 3.34278 0 1 0-4.3-5.4zm37.5 19.7-23.3-18a3.71323 3.3118 0 1 0-4.6 5.2l23.2 18a3.71323 3.3118 0 0 0 4.6-5.2z"/></g><path fill="#ccd0ce" stroke="#e1e1e1" stroke-linecap="round" stroke-linejoin="round" stroke-miterlimit="10" stroke-width="4.1275" d="m-3.38692-175.69155 62.20355.18521.97895 250.26937c1.0848 44.37063 72.8398 17.19792 73.10438 48.86854.37041 40.29605.60854 35.45417.60854 90.11709 0 33.23166-74.03042 5.34458-74.08333 43.52395-.60854 48.23355-.71438 46.14334-.60854 57.41459H-3.38692z"/><g transform="matrix(.3 0 0 .265 -8.51983 -262.23675)"><rect width="155.89999" height="441.79999" x="-409.20001" y="-1313" fill="#216778" rx="28" transform="rotate(-179.8)"/><use xlink:href="#a"/><use xlink:href="#b"/><rect width="17.9" height="36.2" x="888.09998" y="-391" fill="#793b12" rx="8.9" transform="rotate(90.2)"/><rect width="17.9" height="36.2" x="888.09998" y="-303" fill="#793b12" rx="8.9" transform="rotate(90.2)"/><rect width="17.9" height="36.2" x="1279.2" y="-391" fill="#898b1c" rx="8.9" transform="rotate(90.2)"/><rect width="17.9" height="36.2" x="1279.2" y="-305.79999" fill="#898b1c" rx="8.9" transform="rotate(90.2)"/></g><g transform="matrix(-.3 0 0 -.265 428.47698 594.00817)"><rect width="155.89999" height="441.79999" x="-409.20001" y="-1313" fill="#216778" rx="28" transform="rotate(-179.8)"/><use xlink:href="#a"/><use xlink:href="#b"/><rect width="17.9" height="36.2" x="888.09998" y="-391" fill="#793b12" rx="8.9" transform="rotate(90.2)"/><rect width="17.9" height="36.2" x="888.09998" y="-303" fill="#793b12" rx="8.9" transform="rotate(90.2)"/><rect width="17.9" height="36.2" x="1279.2" y="-391" fill="#898b1c" rx="8.9" transform="rotate(90.2)"/><rect width="17.9" height="36.2" x="1279.2" y="-305.79999" fill="#898b1c" rx="8.9" transform="rotate(90.2)"/></g><path fill="#34993f" d="M365.74937-176.45884H290.9252l.58209 336.20604h78.05208z"/><path fill="none" stroke="#e1e1e1" stroke-linecap="round" stroke-linejoin="round" stroke-miterlimit="10" stroke-width="3.96875" d="M364.13541-296.12989h-74.82417l.52917 487.99742h75.77667z"/><path fill="#ccd0ce" stroke="#e1e1e1" stroke-linecap="round" stroke-linejoin="round" stroke-miterlimit="10" stroke-width="4.1275" d="m426.20666-175.18884-62.17708.18521-1.00542 250.26937c-1.05833 44.37063-72.83979 17.19792-73.10437 48.86854-.37042 40.29604-.37171 40.1179-.60855 90.11708-.15741 33.2313 74.03042 5.34459 74.10979 43.52396.58209 48.20709.68792 46.11688.58209 57.38813h62.20354z"/><path fill="#fff" d="M117.9105 126.86942h13.2349v13.2349h-13.2349z" paint-order="stroke markers fill"/><path fill="none" stroke="#bdbdbd" stroke-width=".41108" d="m117.92203 130.03067 13.22781-.006m-13.21983 3.34463 13.22782-.006m-13.22782 3.13704 13.22782-.006m-13.21983 3.34463 13.22781-.006"/><path fill="#fff" d="M117.9105 140.10431h13.2349v13.2349h-13.2349z" paint-order="stroke markers fill"/><path fill="none" stroke="#bdbdbd" stroke-width=".41108" d="m117.92203 143.26556 13.22781-.006m-13.21983 3.34464 13.22782-.006m-13.22782 3.13703 13.22782-.006m-13.21983 3.34463 13.22781-.006"/><path fill="#fff" d="M117.9242 153.39902h13.2349v13.2349h-13.2349z" paint-order="stroke markers fill"/><path fill="none" stroke="#bdbdbd" stroke-width=".41108" d="m117.93573 156.56027 13.22781-.006m-13.21983 3.34463 13.22782-.006m-13.22782 3.13704 13.22782-.006m-13.21983 3.34463 13.22781-.006"/><path fill="#fff" d="M131.19675 170.71709v13.2349h-13.2349v-13.2349z" paint-order="stroke markers fill"/><path fill="none" stroke="#bdbdbd" stroke-width=".41108" d="m128.0355 170.72861.006 13.22782m-3.34463-13.21983.006 13.22781m-3.13704-13.22781.006 13.22781m-3.34463-13.21983.006 13.22781"/><path fill="#fff" d="M131.20238 183.93074v13.2349h-13.2349v-13.2349z" paint-order="stroke markers fill"/><path fill="none" stroke="#bdbdbd" stroke-width=".41108" d="m128.04113 183.94227.006 13.22781m-3.34463-13.21983.006 13.22782m-3.13704-13.22782.006 13.22782m-3.34463-13.21983.006 13.22781"/><path fill="#fff" d="M131.20902 197.16624v13.2349h-13.2349v-13.2349z" paint-order="stroke markers fill"/><path fill="none" stroke="#bdbdbd" stroke-width=".41108" d="m128.04777 197.17777.006 13.22781m-3.34463-13.21983.006 13.22781m-3.13704-13.22781.006 13.22781m-3.34463-13.21983.006 13.22782"/><path fill="#fff" d="M105.82017 133.48687v13.2349h-13.2349v-13.2349z" paint-order="stroke markers fill"/><path fill="none" stroke="#bdbdbd" stroke-linecap="round" stroke-linejoin="round" stroke-width=".25903" d="M94.09768 137.41085s.07713.34197.89935.28812c.45111-.0189.57626-.31432.57626-.31432m-1.23695-2.8843s.07713.34344.89935.29105c.45111-.0218.57626-.3158.57626-.3158m1.00598 4.67932s.07713.34197.89934.28813c.45111-.0189.57626-.31432.57626-.31432m-1.23694-2.88431s.07713.34344.89934.29105c.45111-.0218.57627-.3158.57627-.3158m1.64268 1.19118s.07713.34197.89934.28812c.45112-.0189.57627-.31432.57627-.31432m-1.23695-2.8843s.07713.34344.89935.29105c.4511-.0218.57626-.3158.57626-.3158m1.00597 4.67932s.07713.34197.89935.28813c.45111-.0189.57626-.31432.57626-.31432m-1.23694-2.88431s.07713.34344.89934.29105c.45111-.0218.57626-.3158.57626-.3158m-10.51171 7.62881s.07713.34197.89935.28813c.45111-.0189.57626-.31432.57626-.31432m-1.23695-2.88431s.07713.34344.89935.29105c.45111-.0218.57626-.3158.57626-.3158m1.00598 4.67932s.07713.34197.89934.28813c.45111-.0189.57626-.31432.57626-.31432m-1.23694-2.88431s.07713.34344.89934.29105c.45111-.0218.57627-.3158.57627-.3158m1.64268 1.19118s.07713.34197.89934.28813c.45112-.0189.57627-.31432.57627-.31432m-1.23695-2.88431s.07713.34344.89935.29105c.4511-.0218.57626-.3158.57626-.3158m1.00597 4.67932s.07713.34197.89935.28813c.45111-.0189.57626-.31432.57626-.31432m-1.23694-2.88431s.07713.34344.89934.29105c.45111-.0218.57626-.3158.57626-.3158"/><path fill="#fff" d="M93.64285 133.48687v13.2349h-13.2349v-13.2349z" paint-order="stroke markers fill"/><path fill="none" stroke="#bdbdbd" stroke-linecap="round" stroke-linejoin="round" stroke-width=".25903" d="M81.92036 137.41085s.07713.34197.89935.28812c.45111-.0189.57626-.31432.57626-.31432m-1.23695-2.8843s.07713.34344.89935.29105c.45111-.0218.57626-.3158.57626-.3158m1.00597 4.67932s.07714.34197.89935.28813c.45111-.0189.57627-.31432.57627-.31432m-1.23695-2.88431s.07713.34344.89934.29105c.45112-.0218.57627-.3158.57627-.3158m1.64268 1.19118s.07713.34197.89934.28812c.45112-.0189.57627-.31432.57627-.31432m-1.23695-2.8843s.07713.34344.89935.29105c.4511-.0218.57626-.3158.57626-.3158m1.00597 4.67932s.07713.34197.89935.28813c.45111-.0189.57626-.31432.57626-.31432m-1.23694-2.88431s.07713.34344.89934.29105c.45111-.0218.57626-.3158.57626-.3158m-10.51171 7.62881s.07713.34197.89935.28813c.45111-.0189.57626-.31432.57626-.31432m-1.23695-2.88431s.07713.34344.89935.29105c.45111-.0218.57626-.3158.57626-.3158m1.00597 4.67932s.07714.34197.89935.28813c.45111-.0189.57627-.31432.57627-.31432m-1.23695-2.88431s.07713.34344.89934.29105c.45112-.0218.57627-.3158.57627-.3158m1.64268 1.19118s.07713.34197.89934.28813c.45112-.0189.57627-.31432.57627-.31432m-1.23695-2.88431s.07713.34344.89935.29105c.4511-.0218.57626-.3158.57626-.3158m1.00597 4.67932s.07713.34197.89935.28813c.45111-.0189.57626-.31432.57626-.31432m-1.23694-2.88431s.07713.34344.89934.29105c.45111-.0218.57626-.3158.57626-.3158"/><path fill="#fff" d="M81.56023 133.48687v13.2349h-13.2349v-13.2349z" paint-order="stroke markers fill"/><path fill="none" stroke="#bdbdbd" stroke-linecap="round" stroke-linejoin="round" stroke-width=".25903" d="M69.83774 137.41085s.07713.34197.89934.28812c.45111-.0189.57627-.31432.57627-.31432m-1.23695-2.8843s.07713.34344.89934.29105c.45112-.0218.57627-.3158.57627-.3158m1.00597 4.67932s.07713.34197.89935.28813c.4511-.0189.57626-.31432.57626-.31432m-1.23695-2.88431s.07713.34344.89935.29105c.45111-.0218.57626-.3158.57626-.3158m1.64268 1.19118s.07714.34197.89935.28812c.45111-.0189.57626-.31432.57626-.31432m-1.23694-2.8843s.07713.34344.89934.29105c.45111-.0218.57627-.3158.57627-.3158m1.00597 4.67932s.07713.34197.89934.28813c.45112-.0189.57627-.31432.57627-.31432m-1.23695-2.88431s.07713.34344.89934.29105c.45112-.0218.57627-.3158.57627-.3158m-10.51171 7.62881s.07713.34197.89934.28813c.45111-.0189.57627-.31432.57627-.31432m-1.23695-2.88431s.07713.34344.89934.29105c.45112-.0218.57627-.3158.57627-.3158m1.00597 4.67932s.07713.34197.89935.28813c.4511-.0189.57626-.31432.57626-.31432m-1.23695-2.88431s.07713.34344.89935.29105c.45111-.0218.57626-.3158.57626-.3158m1.64268 1.19118s.07714.34197.89935.28813c.45111-.0189.57626-.31432.57626-.31432m-1.23694-2.88431s.07713.34344.89934.29105c.45111-.0218.57627-.3158.57627-.3158m1.00597 4.67932s.07713.34197.89934.28813c.45112-.0189.57627-.31432.57627-.31432m-1.23695-2.88431s.07713.34344.89934.29105c.45112-.0218.57627-.3158.57627-.3158"/><path fill="#fff" d="M69.3829 133.48687v13.2349H56.148v-13.2349z" paint-order="stroke markers fill"/><path fill="none" stroke="#bdbdbd" stroke-linecap="round" stroke-linejoin="round" stroke-width=".25903" d="M57.66042 137.41085s.07713.34197.89934.28812c.45112-.0189.57627-.31432.57627-.31432m-1.23695-2.8843s.07713.34344.89934.29105c.45112-.0218.57627-.3158.57627-.3158m1.00597 4.67932s.07713.34197.89935.28813c.4511-.0189.57626-.31432.57626-.31432m-1.23695-2.88431s.07713.34344.89935.29105c.45111-.0218.57626-.3158.57626-.3158m1.64269 1.19118s.07713.34197.89934.28812c.45111-.0189.57626-.31432.57626-.31432m-1.23694-2.8843s.07713.34344.89934.29105c.45111-.0218.57627-.3158.57627-.3158m1.00597 4.67932s.07713.34197.89934.28813c.45112-.0189.57627-.31432.57627-.31432m-1.23695-2.88431s.07713.34344.89934.29105c.45112-.0218.57627-.3158.57627-.3158m-10.51171 7.62881s.07713.34197.89934.28813c.45112-.0189.57627-.31432.57627-.31432m-1.23695-2.88431s.07713.34344.89934.29105c.45112-.0218.57627-.3158.57627-.3158m1.00597 4.67932s.07713.34197.89935.28813c.4511-.0189.57626-.31432.57626-.31432m-1.23695-2.88431s.07713.34344.89935.29105c.45111-.0218.57626-.3158.57626-.3158m1.64269 1.19118s.07713.34197.89934.28813c.45111-.0189.57626-.31432.57626-.31432m-1.23694-2.88431s.07713.34344.89934.29105c.45111-.0218.57627-.3158.57627-.3158m1.00597 4.67932s.07713.34197.89934.28813c.45112-.0189.57627-.31432.57627-.31432m-1.23695-2.88431s.07713.34344.89934.29105c.45112-.0218.57627-.3158.57627-.3158"/><path fill="#fff" d="M57.36901 133.48687v13.2349h-13.2349v-13.2349z" paint-order="stroke markers fill"/><path fill="none" stroke="#bdbdbd" stroke-linecap="round" stroke-linejoin="round" stroke-width=".25903" d="M45.64653 137.41085s.07713.34197.89934.28812c.45111-.0189.57627-.31432.57627-.31432m-1.23695-2.8843s.07713.34344.89934.29105c.45112-.0218.57627-.3158.57627-.3158m1.00597 4.67932s.07713.34197.89934.28813c.45112-.0189.57627-.31432.57627-.31432m-1.23695-2.88431s.07713.34344.89935.29105c.4511-.0218.57626-.3158.57626-.3158m1.64268 1.19118s.07713.34197.89935.28812c.45111-.0189.57626-.31432.57626-.31432m-1.23695-2.8843s.07714.34344.89935.29105c.45111-.0218.57626-.3158.57626-.3158m1.00598 4.67932s.07713.34197.89934.28813c.45112-.0189.57627-.31432.57627-.31432m-1.23695-2.88431s.07713.34344.89934.29105c.45112-.0218.57627-.3158.57627-.3158m-10.51171 7.62881s.07713.34197.89934.28813c.45111-.0189.57627-.31432.57627-.31432m-1.23695-2.88431s.07713.34344.89934.29105c.45112-.0218.57627-.3158.57627-.3158m1.00597 4.67932s.07713.34197.89934.28813c.45112-.0189.57627-.31432.57627-.31432m-1.23695-2.88431s.07713.34344.89935.29105c.4511-.0218.57626-.3158.57626-.3158m1.64268 1.19118s.07713.34197.89935.28813c.45111-.0189.57626-.31432.57626-.31432m-1.23695-2.88431s.07714.34344.89935.29105c.45111-.0218.57626-.3158.57626-.3158m1.00598 4.67932s.07713.34197.89934.28813c.45112-.0189.57627-.31432.57627-.31432m-1.23695-2.88431s.07713.34344.89934.29105c.45112-.0218.57627-.3158.57627-.3158"/><path fill="#fff" d="M45.1917 133.48687v13.2349H31.9568v-13.2349z" paint-order="stroke markers fill"/><path fill="none" stroke="#bdbdbd" stroke-linecap="round" stroke-linejoin="round" stroke-width=".25903" d="M33.4692 137.41085s.07714.34197.89935.28812c.45111-.0189.57627-.31432.57627-.31432m-1.23695-2.8843s.07713.34344.89934.29105c.45112-.0218.57627-.3158.57627-.3158m1.00597 4.67932s.07713.34197.89935.28813c.4511-.0189.57626-.31432.57626-.31432m-1.23695-2.88431s.07713.34344.89935.29105c.4511-.0218.57626-.3158.57626-.3158m1.64268 1.19118s.07713.34197.89935.28812c.45111-.0189.57626-.31432.57626-.31432m-1.23694-2.8843s.07713.34344.89934.29105c.45111-.0218.57626-.3158.57626-.3158m1.00598 4.67932s.07713.34197.89934.28813c.45112-.0189.57627-.31432.57627-.31432m-1.23695-2.88431s.07713.34344.89934.29105c.45112-.0218.57627-.3158.57627-.3158m-10.51172 7.62881s.07714.34197.89935.28813c.45111-.0189.57627-.31432.57627-.31432m-1.23695-2.88431s.07713.34344.89934.29105c.45112-.0218.57627-.3158.57627-.3158m1.00597 4.67932s.07713.34197.89935.28813c.4511-.0189.57626-.31432.57626-.31432m-1.23695-2.88431s.07713.34344.89935.29105c.4511-.0218.57626-.3158.57626-.3158m1.64268 1.19118s.07713.34197.89935.28813c.45111-.0189.57626-.31432.57626-.31432m-1.23694-2.88431s.07713.34344.89934.29105c.45111-.0218.57626-.3158.57626-.3158m1.00598 4.67932s.07713.34197.89934.28813c.45112-.0189.57627-.31432.57627-.31432m-1.23695-2.88431s.07713.34344.89934.29105c.45112-.0218.57627-.3158.57627-.3158"/><path fill="#fff" d="M33.10907 133.48687v13.2349h-13.2349v-13.2349z" paint-order="stroke markers fill"/><path fill="none" stroke="#bdbdbd" stroke-linecap="round" stroke-linejoin="round" stroke-width=".25903" d="M21.38658 137.41085s.07713.34197.89935.28812c.45111-.0189.57626-.31432.57626-.31432m-1.23695-2.8843s.07713.34344.89935.29105c.45111-.0218.57626-.3158.57626-.3158m1.00598 4.67932s.07713.34197.89934.28813c.45111-.0189.57627-.31432.57627-.31432m-1.23695-2.88431s.07713.34344.89934.29105c.45112-.0218.57627-.3158.57627-.3158m1.64268 1.19118s.07713.34197.89934.28812c.45112-.0189.57627-.31432.57627-.31432m-1.23695-2.8843s.07713.34344.89935.29105c.4511-.0218.57626-.3158.57626-.3158m1.00597 4.67932s.07713.34197.89935.28813c.45111-.0189.57626-.31432.57626-.31432m-1.23694-2.88431s.07713.34344.89934.29105c.45111-.0218.57626-.3158.57626-.3158m-10.51171 7.62881s.07713.34197.89935.28813c.45111-.0189.57626-.31432.57626-.31432m-1.23695-2.88431s.07713.34344.89935.29105c.45111-.0218.57626-.3158.57626-.3158m1.00598 4.67932s.07713.34197.89934.28813c.45111-.0189.57627-.31432.57627-.31432m-1.23695-2.88431s.07713.34344.89934.29105c.45112-.0218.57627-.3158.57627-.3158m1.64268 1.19118s.07713.34197.89934.28813c.45112-.0189.57627-.31432.57627-.31432m-1.23695-2.88431s.07713.34344.89935.29105c.4511-.0218.57626-.3158.57626-.3158m1.00597 4.67932s.07713.34197.89935.28813c.45111-.0189.57626-.31432.57626-.31432m-1.23694-2.88431s.07713.34344.89934.29105c.45111-.0218.57626-.3158.57626-.3158"/><path fill="#fff" d="M20.93175 133.48687v13.2349H7.69685v-13.2349z" paint-order="stroke markers fill"/><path fill="none" stroke="#bdbdbd" stroke-linecap="round" stroke-linejoin="round" stroke-width=".25903" d="M9.20926 137.41085s.07713.34197.89935.28812c.45111-.0189.57626-.31432.57626-.31432m-1.23695-2.8843s.07713.34344.89935.29105c.45111-.0218.57626-.3158.57626-.3158m1.00597 4.67932s.07714.34197.89935.28813c.45111-.0189.57627-.31432.57627-.31432m-1.23695-2.88431s.07713.34344.89934.29105c.45112-.0218.57627-.3158.57627-.3158m1.64268 1.19118s.07713.34197.89934.28812c.45112-.0189.57627-.31432.57627-.31432m-1.23695-2.8843s.07713.34344.89935.29105c.4511-.0218.57626-.3158.57626-.3158m1.00597 4.67932s.07713.34197.89935.28813c.45111-.0189.57626-.31432.57626-.31432m-1.23694-2.88431s.07713.34344.89934.29105c.45111-.0218.57626-.3158.57626-.3158m-10.51171 7.62881s.07713.34197.89935.28813c.45111-.0189.57626-.31432.57626-.31432m-1.23695-2.88431s.07713.34344.89935.29105c.45111-.0218.57626-.3158.57626-.3158m1.00597 4.67932s.07714.34197.89935.28813c.45111-.0189.57627-.31432.57627-.31432m-1.23695-2.88431s.07713.34344.89934.29105c.45112-.0218.57627-.3158.57627-.3158m1.64268 1.19118s.07713.34197.89934.28813c.45112-.0189.57627-.31432.57627-.31432m-1.23695-2.88431s.07713.34344.89935.29105c.4511-.0218.57626-.3158.57626-.3158m1.00597 4.67932s.07713.34197.89935.28813c.45111-.0189.57626-.31432.57626-.31432m-1.23694-2.88431s.07713.34344.89934.29105c.45111-.0218.57626-.3158.57626-.3158"/><path fill="#fff" d="M8.86197 133.48687v13.2349h-13.2349v-13.2349z" paint-order="stroke markers fill"/><path fill="none" stroke="#bdbdbd" stroke-linecap="round" stroke-linejoin="round" stroke-width=".25903" d="M-2.86052 137.41085s.07713.34197.89935.28812c.45111-.0189.57626-.31432.57626-.31432m-1.23695-2.8843s.07713.34344.89935.29105c.45111-.0218.57626-.3158.57626-.3158m1.00598 4.67932s.07713.34197.89934.28813c.45111-.0189.57627-.31432.57627-.31432m-1.23695-2.88431s.07713.34344.89934.29105c.45112-.0218.57627-.3158.57627-.3158m1.64268 1.19118s.07713.34197.89934.28812c.45112-.0189.57627-.31432.57627-.31432m-1.23695-2.8843s.07713.34344.89935.29105c.4511-.0218.57626-.3158.57626-.3158m1.00597 4.67932s.07713.34197.89935.28813c.45111-.0189.57626-.31432.57626-.31432m-1.23694-2.88431s.07713.34344.89934.29105c.45111-.0218.57626-.3158.57626-.3158m-10.51171 7.62881s.07713.34197.89935.28813c.45111-.0189.57626-.31432.57626-.31432m-1.23695-2.88431s.07713.34344.89935.29105c.45111-.0218.57626-.3158.57626-.3158m1.00598 4.67932s.07713.34197.89934.28813c.45111-.0189.57627-.31432.57627-.31432m-1.23695-2.88431s.07713.34344.89934.29105c.45112-.0218.57627-.3158.57627-.3158m1.64268 1.19118s.07713.34197.89934.28813c.45112-.0189.57627-.31432.57627-.31432m-1.23695-2.88431s.07713.34344.89935.29105c.4511-.0218.57626-.3158.57626-.3158m1.00597 4.67932s.07713.34197.89935.28813c.45111-.0189.57626-.31432.57626-.31432m-1.23694-2.88431s.07713.34344.89934.29105c.45111-.0218.57626-.3158.57626-.3158"/><path fill="#fff" d="M291.70784 126.42449h13.2349v13.2349h-13.2349z" paint-order="stroke markers fill"/><path fill="none" stroke="#bdbdbd" stroke-width=".41108" d="m291.71937 129.58574 13.22781-.006m-13.21983 3.34463 13.22782-.006m-13.22782 3.13703 13.22782-.006m-13.21983 3.34464 13.22781-.006"/><path fill="#fff" d="M291.70784 139.65938h13.2349v13.2349h-13.2349z" paint-order="stroke markers fill"/><path fill="none" stroke="#bdbdbd" stroke-width=".41108" d="m291.71937 142.82063 13.22781-.006m-13.21983 3.34463 13.22782-.006m-13.22782 3.13704 13.22782-.006m-13.21983 3.34463 13.22781-.006"/><path fill="#fff" d="M291.72154 152.95409h13.2349v13.2349h-13.2349z" paint-order="stroke markers fill"/><path fill="none" stroke="#bdbdbd" stroke-width=".41108" d="m291.73307 156.11534 13.22781-.006m-13.21983 3.34463 13.22782-.006m-13.22782 3.13704 13.22782-.006m-13.21983 3.34463 13.22781-.006"/><path fill="#fff" d="M291.45226 209.9767v-13.2349h13.2349v13.2349z" paint-order="stroke markers fill"/><path fill="none" stroke="#bdbdbd" stroke-width=".41108" d="m294.6135 209.96517-.006-13.22782m3.34464 13.21983-.006-13.22781m3.13704 13.22781-.006-13.22781m3.34462 13.21983-.006-13.22781"/><path fill="#fff" d="M291.44663 196.76304v-13.2349h13.2349v13.2349z" paint-order="stroke markers fill"/><path fill="none" stroke="#bdbdbd" stroke-width=".41108" d="m294.60788 196.75151-.006-13.22781m3.34462 13.21983-.006-13.22782m3.13705 13.22782-.006-13.22782m3.34463 13.21983-.006-13.22781"/><path fill="#fff" d="M291.43999 183.52754v-13.2349h13.2349v13.2349z" paint-order="stroke markers fill"/><path fill="none" stroke="#bdbdbd" stroke-width=".41108" d="m294.60124 183.51601-.006-13.22781m3.34463 13.21983-.006-13.22781m3.13704 13.22781-.006-13.22781m3.34463 13.21983-.006-13.22782"/><path fill="#fff" d="M424.65592 133.94757v13.2349h-13.2349v-13.2349z" paint-order="stroke markers fill"/><path fill="none" stroke="#bdbdbd" stroke-linecap="round" stroke-linejoin="round" stroke-width=".25903" d="M412.93343 137.87155s.07713.34197.89935.28812c.45111-.0189.57626-.31432.57626-.31432m-1.23695-2.8843s.07713.34344.89935.29105c.45111-.0218.57626-.3158.57626-.3158m1.00598 4.67932s.07713.34197.89934.28813c.45111-.0189.57626-.31432.57626-.31432m-1.23694-2.88431s.07713.34344.89934.29105c.45111-.0218.57627-.3158.57627-.3158m1.64268 1.19118s.07713.34197.89934.28812c.45112-.0189.57627-.31432.57627-.31432m-1.23695-2.8843s.07713.34344.89934.29105c.45112-.0218.57627-.3158.57627-.3158m1.00597 4.67932s.07713.34197.89935.28813c.45111-.0189.57626-.31432.57626-.31432m-1.23695-2.88431s.07713.34344.89935.29105c.45111-.0218.57626-.3158.57626-.3158m-10.51171 7.62881s.07713.34197.89935.28813c.45111-.0189.57626-.31432.57626-.31432m-1.23695-2.88431s.07713.34344.89935.29105c.45111-.0218.57626-.3158.57626-.3158m1.00598 4.67932s.07713.34197.89934.28813c.45111-.0189.57626-.31432.57626-.31432m-1.23694-2.88431s.07713.34344.89934.29105c.45111-.0218.57627-.3158.57627-.3158m1.64268 1.19118s.07713.34197.89934.28813c.45112-.0189.57627-.31432.57627-.31432m-1.23695-2.88431s.07713.34344.89934.29105c.45112-.0218.57627-.3158.57627-.3158m1.00597 4.67932s.07713.34197.89935.28813c.45111-.0189.57626-.31432.57626-.31432m-1.23695-2.88431s.07713.34344.89935.29105c.45111-.0218.57626-.3158.57626-.3158"/><path fill="#fff" d="M412.4786 133.94757v13.2349h-13.2349v-13.2349z" paint-order="stroke markers fill"/><path fill="none" stroke="#bdbdbd" stroke-linecap="round" stroke-linejoin="round" stroke-width=".25903" d="M400.75611 137.87155s.07713.34197.89935.28812c.45111-.0189.57626-.31432.57626-.31432m-1.23695-2.8843s.07713.34344.89935.29105c.45111-.0218.57626-.3158.57626-.3158m1.00598 4.67932s.07713.34197.89934.28813c.45111-.0189.57626-.31432.57626-.31432m-1.23694-2.88431s.07713.34344.89934.29105c.45111-.0218.57627-.3158.57627-.3158m1.64268 1.19118s.07713.34197.89934.28812c.45112-.0189.57627-.31432.57627-.31432m-1.23695-2.8843s.07713.34344.89934.29105c.45112-.0218.57627-.3158.57627-.3158m1.00597 4.67932s.07713.34197.89935.28813c.45111-.0189.57626-.31432.57626-.31432m-1.23695-2.88431s.07713.34344.89935.29105c.45111-.0218.57626-.3158.57626-.3158m-10.51171 7.62881s.07713.34197.89935.28813c.45111-.0189.57626-.31432.57626-.31432m-1.23695-2.88431s.07713.34344.89935.29105c.45111-.0218.57626-.3158.57626-.3158m1.00598 4.67932s.07713.34197.89934.28813c.45111-.0189.57626-.31432.57626-.31432m-1.23694-2.88431s.07713.34344.89934.29105c.45111-.0218.57627-.3158.57627-.3158m1.64268 1.19118s.07713.34197.89934.28813c.45112-.0189.57627-.31432.57627-.31432m-1.23695-2.88431s.07713.34344.89934.29105c.45112-.0218.57627-.3158.57627-.3158m1.00597 4.67932s.07713.34197.89935.28813c.45111-.0189.57626-.31432.57626-.31432m-1.23695-2.88431s.07713.34344.89935.29105c.45111-.0218.57626-.3158.57626-.3158"/><path fill="#fff" d="M400.39598 133.94757v13.2349h-13.2349v-13.2349z" paint-order="stroke markers fill"/><path fill="none" stroke="#bdbdbd" stroke-linecap="round" stroke-linejoin="round" stroke-width=".25903" d="M388.67349 137.87155s.07713.34197.89934.28812c.45111-.0189.57627-.31432.57627-.31432m-1.23695-2.8843s.07713.34344.89934.29105c.45112-.0218.57627-.3158.57627-.3158m1.00597 4.67932s.07713.34197.89935.28813c.4511-.0189.57626-.31432.57626-.31432m-1.23695-2.88431s.07713.34344.89935.29105c.45111-.0218.57626-.3158.57626-.3158m1.64269 1.19118s.07713.34197.89934.28812c.45111-.0189.57626-.31432.57626-.31432m-1.23694-2.8843s.07713.34344.89934.29105c.45111-.0218.57627-.3158.57627-.3158m1.00597 4.67932s.07713.34197.89934.28813c.45112-.0189.57627-.31432.57627-.31432m-1.23695-2.88431s.07713.34344.89934.29105c.45112-.0218.57627-.3158.57627-.3158m-10.51171 7.62881s.07713.34197.89934.28813c.45111-.0189.57627-.31432.57627-.31432m-1.23695-2.88431s.07713.34344.89934.29105c.45112-.0218.57627-.3158.57627-.3158m1.00597 4.67932s.07713.34197.89935.28813c.4511-.0189.57626-.31432.57626-.31432m-1.23695-2.88431s.07713.34344.89935.29105c.45111-.0218.57626-.3158.57626-.3158m1.64269 1.19118s.07713.34197.89934.28813c.45111-.0189.57626-.31432.57626-.31432m-1.23694-2.88431s.07713.34344.89934.29105c.45111-.0218.57627-.3158.57627-.3158m1.00597 4.67932s.07713.34197.89934.28813c.45112-.0189.57627-.31432.57627-.31432m-1.23695-2.88431s.07713.34344.89934.29105c.45112-.0218.57627-.3158.57627-.3158"/><path fill="#fff" d="M388.21866 133.94757v13.2349h-13.2349v-13.2349z" paint-order="stroke markers fill"/><path fill="none" stroke="#bdbdbd" stroke-linecap="round" stroke-linejoin="round" stroke-width=".25903" d="M376.49617 137.87155s.07713.34197.89934.28812c.45111-.0189.57627-.31432.57627-.31432m-1.23695-2.8843s.07713.34344.89934.29105c.45112-.0218.57627-.3158.57627-.3158m1.00597 4.67932s.07713.34197.89935.28813c.4511-.0189.57626-.31432.57626-.31432m-1.23695-2.88431s.07713.34344.89935.29105c.45111-.0218.57626-.3158.57626-.3158m1.64269 1.19118s.07713.34197.89934.28812c.45111-.0189.57626-.31432.57626-.31432m-1.23694-2.8843s.07713.34344.89934.29105c.45111-.0218.57627-.3158.57627-.3158m1.00596 4.67932s.07714.34197.89935.28813c.45112-.0189.57627-.31432.57627-.31432m-1.23695-2.88431s.07713.34344.89934.29105c.45112-.0218.57627-.3158.57627-.3158m-10.51171 7.62881s.07713.34197.89934.28813c.45111-.0189.57627-.31432.57627-.31432m-1.23695-2.88431s.07713.34344.89934.29105c.45112-.0218.57627-.3158.57627-.3158m1.00597 4.67932s.07713.34197.89935.28813c.4511-.0189.57626-.31432.57626-.31432m-1.23695-2.88431s.07713.34344.89935.29105c.45111-.0218.57626-.3158.57626-.3158m1.64269 1.19118s.07713.34197.89934.28813c.45111-.0189.57626-.31432.57626-.31432m-1.23694-2.88431s.07713.34344.89934.29105c.45111-.0218.57627-.3158.57627-.3158m1.00596 4.67932s.07714.34197.89935.28813c.45112-.0189.57627-.31432.57627-.31432m-1.23695-2.88431s.07713.34344.89934.29105c.45112-.0218.57627-.3158.57627-.3158"/><path fill="#fff" d="M376.20476 133.94757v13.2349h-13.2349v-13.2349z" paint-order="stroke markers fill"/><path fill="none" stroke="#bdbdbd" stroke-linecap="round" stroke-linejoin="round" stroke-width=".25903" d="M364.48228 137.87155s.07713.34197.89934.28812c.45111-.0189.57626-.31432.57626-.31432m-1.23694-2.8843s.07713.34344.89934.29105c.45111-.0218.57627-.3158.57627-.3158m1.00597 4.67932s.07713.34197.89934.28813c.45112-.0189.57627-.31432.57627-.31432m-1.23695-2.88431s.07713.34344.89935.29105c.4511-.0218.57626-.3158.57626-.3158m1.64268 1.19118s.07713.34197.89935.28812c.45111-.0189.57626-.31432.57626-.31432m-1.23695-2.8843s.07713.34344.89935.29105c.45111-.0218.57626-.3158.57626-.3158m1.00598 4.67932s.07713.34197.89934.28813c.45111-.0189.57627-.31432.57627-.31432m-1.23695-2.88431s.07713.34344.89934.29105c.45112-.0218.57627-.3158.57627-.3158m-10.51171 7.62881s.07713.34197.89934.28813c.45111-.0189.57626-.31432.57626-.31432m-1.23694-2.88431s.07713.34344.89934.29105c.45111-.0218.57627-.3158.57627-.3158m1.00597 4.67932s.07713.34197.89934.28813c.45112-.0189.57627-.31432.57627-.31432m-1.23695-2.88431s.07713.34344.89935.29105c.4511-.0218.57626-.3158.57626-.3158m1.64268 1.19118s.07713.34197.89935.28813c.45111-.0189.57626-.31432.57626-.31432m-1.23695-2.88431s.07713.34344.89935.29105c.45111-.0218.57626-.3158.57626-.3158m1.00598 4.67932s.07713.34197.89934.28813c.45111-.0189.57627-.31432.57627-.31432m-1.23695-2.88431s.07713.34344.89934.29105c.45112-.0218.57627-.3158.57627-.3158"/><path fill="#fff" d="M364.02744 133.94757v13.2349h-13.2349v-13.2349z" paint-order="stroke markers fill"/><path fill="none" stroke="#bdbdbd" stroke-linecap="round" stroke-linejoin="round" stroke-width=".25903" d="M352.30496 137.87155s.07713.34197.89934.28812c.45111-.0189.57626-.31432.57626-.31432m-1.23694-2.8843s.07713.34344.89934.29105c.45111-.0218.57627-.3158.57627-.3158m1.00597 4.67932s.07713.34197.89935.28813c.4511-.0189.57626-.31432.57626-.31432m-1.23695-2.88431s.07713.34344.89935.29105c.4511-.0218.57626-.3158.57626-.3158m1.64268 1.19118s.07713.34197.89935.28812c.45111-.0189.57626-.31432.57626-.31432m-1.23695-2.8843s.07713.34344.89935.29105c.45111-.0218.57626-.3158.57626-.3158m1.00598 4.67932s.07713.34197.89934.28813c.45111-.0189.57627-.31432.57627-.31432m-1.23695-2.88431s.07713.34344.89934.29105c.45112-.0218.57627-.3158.57627-.3158m-10.51171 7.62881s.07713.34197.89934.28813c.45111-.0189.57626-.31432.57626-.31432m-1.23694-2.88431s.07713.34344.89934.29105c.45111-.0218.57627-.3158.57627-.3158m1.00597 4.67932s.07713.34197.89935.28813c.4511-.0189.57626-.31432.57626-.31432m-1.23695-2.88431s.07713.34344.89935.29105c.4511-.0218.57626-.3158.57626-.3158m1.64268 1.19118s.07713.34197.89935.28813c.45111-.0189.57626-.31432.57626-.31432m-1.23695-2.88431s.07713.34344.89935.29105c.45111-.0218.57626-.3158.57626-.3158m1.00598 4.67932s.07713.34197.89934.28813c.45111-.0189.57627-.31432.57627-.31432m-1.23695-2.88431s.07713.34344.89934.29105c.45112-.0218.57627-.3158.57627-.3158"/><path fill="#fff" d="M351.94482 133.94757v13.2349h-13.2349v-13.2349z" paint-order="stroke markers fill"/><path fill="none" stroke="#bdbdbd" stroke-linecap="round" stroke-linejoin="round" stroke-width=".25903" d="M340.22233 137.87155s.07713.34197.89935.28812c.45111-.0189.57626-.31432.57626-.31432m-1.23695-2.8843s.07713.34344.89935.29105c.45111-.0218.57626-.3158.57626-.3158m1.00598 4.67932s.07713.34197.89934.28813c.45111-.0189.57626-.31432.57626-.31432m-1.23694-2.88431s.07713.34344.89934.29105c.45111-.0218.57627-.3158.57627-.3158m1.64268 1.19118s.07713.34197.89934.28812c.45112-.0189.57627-.31432.57627-.31432m-1.23695-2.8843s.07713.34344.89934.29105c.45112-.0218.57627-.3158.57627-.3158m1.00597 4.67932s.07713.34197.89935.28813c.45111-.0189.57626-.31432.57626-.31432m-1.23695-2.88431s.07713.34344.89935.29105c.45111-.0218.57626-.3158.57626-.3158m-10.51171 7.62881s.07713.34197.89935.28813c.45111-.0189.57626-.31432.57626-.31432m-1.23695-2.88431s.07713.34344.89935.29105c.45111-.0218.57626-.3158.57626-.3158m1.00598 4.67932s.07713.34197.89934.28813c.45111-.0189.57626-.31432.57626-.31432m-1.23694-2.88431s.07713.34344.89934.29105c.45111-.0218.57627-.3158.57627-.3158m1.64268 1.19118s.07713.34197.89934.28813c.45112-.0189.57627-.31432.57627-.31432m-1.23695-2.88431s.07713.34344.89934.29105c.45112-.0218.57627-.3158.57627-.3158m1.00597 4.67932s.07713.34197.89935.28813c.45111-.0189.57626-.31432.57626-.31432m-1.23695-2.88431s.07713.34344.89935.29105c.45111-.0218.57626-.3158.57626-.3158"/><path fill="#fff" d="M339.7675 133.94757v13.2349h-13.2349v-13.2349z" paint-order="stroke markers fill"/><path fill="none" stroke="#bdbdbd" stroke-linecap="round" stroke-linejoin="round" stroke-width=".25903" d="M328.04501 137.87155s.07713.34197.89935.28812c.45111-.0189.57626-.31432.57626-.31432m-1.23695-2.8843s.07713.34344.89935.29105c.45111-.0218.57626-.3158.57626-.3158m1.00598 4.67932s.07713.34197.89934.28813c.45111-.0189.57626-.31432.57626-.31432m-1.23694-2.88431s.07713.34344.89934.29105c.45111-.0218.57627-.3158.57627-.3158m1.64268 1.19118s.07713.34197.89934.28812c.45112-.0189.57627-.31432.57627-.31432m-1.23695-2.8843s.07713.34344.89934.29105c.45112-.0218.57627-.3158.57627-.3158m1.00597 4.67932s.07713.34197.89935.28813c.45111-.0189.57626-.31432.57626-.31432m-1.23695-2.88431s.07713.34344.89935.29105c.45111-.0218.57626-.3158.57626-.3158m-10.51171 7.62881s.07713.34197.89935.28813c.45111-.0189.57626-.31432.57626-.31432m-1.23695-2.88431s.07713.34344.89935.29105c.45111-.0218.57626-.3158.57626-.3158m1.00598 4.67932s.07713.34197.89934.28813c.45111-.0189.57626-.31432.57626-.31432m-1.23694-2.88431s.07713.34344.89934.29105c.45111-.0218.57627-.3158.57627-.3158m1.64268 1.19118s.07713.34197.89934.28813c.45112-.0189.57627-.31432.57627-.31432m-1.23695-2.88431s.07713.34344.89934.29105c.45112-.0218.57627-.3158.57627-.3158m1.00597 4.67932s.07713.34197.89935.28813c.45111-.0189.57626-.31432.57626-.31432m-1.23695-2.88431s.07713.34344.89935.29105c.45111-.0218.57626-.3158.57626-.3158"/><path fill="#fff" d="M327.69772 133.94757v13.2349h-13.2349v-13.2349z" paint-order="stroke markers fill"/><path fill="none" stroke="#bdbdbd" stroke-linecap="round" stroke-linejoin="round" stroke-width=".25903" d="M315.97523 137.87155s.07713.34197.89935.28812c.45111-.0189.57626-.31432.57626-.31432m-1.23695-2.8843s.07713.34344.89935.29105c.45111-.0218.57626-.3158.57626-.3158m1.00598 4.67932s.07713.34197.89934.28813c.45111-.0189.57626-.31432.57626-.31432m-1.23694-2.88431s.07713.34344.89934.29105c.45111-.0218.57627-.3158.57627-.3158m1.64268 1.19118s.07713.34197.89934.28812c.45112-.0189.57627-.31432.57627-.31432m-1.23695-2.8843s.07713.34344.89934.29105c.45112-.0218.57627-.3158.57627-.3158m1.00597 4.67932s.07713.34197.89935.28813c.45111-.0189.57626-.31432.57626-.31432m-1.23695-2.88431s.07713.34344.89935.29105c.45111-.0218.57626-.3158.57626-.3158m-10.51171 7.62881s.07713.34197.89935.28813c.45111-.0189.57626-.31432.57626-.31432m-1.23695-2.88431s.07713.34344.89935.29105c.45111-.0218.57626-.3158.57626-.3158m1.00598 4.67932s.07713.34197.89934.28813c.45111-.0189.57626-.31432.57626-.31432m-1.23694-2.88431s.07713.34344.89934.29105c.45111-.0218.57627-.3158.57627-.3158m1.64268 1.19118s.07713.34197.89934.28813c.45112-.0189.57627-.31432.57627-.31432m-1.23695-2.88431s.07713.34344.89934.29105c.45112-.0218.57627-.3158.57627-.3158m1.00597 4.67932s.07713.34197.89935.28813c.45111-.0189.57626-.31432.57626-.31432m-1.23695-2.88431s.07713.34344.89935.29105c.45111-.0218.57626-.3158.57626-.3158"/></svg>
