<svg xmlns="http://www.w3.org/2000/svg" viewBox="0 0 692.259 143.155"><path fill="#333" d="M0 0h692.26v143.155H0z"/><g transform="translate(308.785 26.203) scale(7.842)"><circle cx="6.17" cy="9.089" r="2.808" fill="#e30513" stroke="#fff" stroke-width=".048"/><g fill="#fff"><path d="M6.097 6.71c-.007.007-.012.027-.012.045 0 .032 0 .032-.049.032-.064 0-.072.012-.068.102l.003.072.057.003.057.003V7c0 .03-.004.034-.042.046a.47.47 0 0 0-.293.235.267.267 0 0 0-.037.153c0 .073-.003.08-.022.08a.05.05 0 0 0-.032.011.49.49 0 0 0 0 .215c.007.007.031.012.055.012h.043v1.391h-.109V7.871h-.825v1.272h-.075c-.111 0-.114.004-.114.18 0 .125.002.14.02.158.02.02.032.02 1.508.02 1.43 0 1.491 0 1.506-.018.014-.015.017-.042.017-.159 0-.172-.005-.18-.1-.18h-.059V7.87h-.825v1.272h-.12v-1.39h.049c.025 0 .052-.005.06-.012a.49.49 0 0 0 0-.215.047.047 0 0 0-.03-.012c-.015 0-.018-.009-.018-.059a.426.426 0 0 0-.298-.394c-.077-.028-.08-.03-.08-.06 0-.033 0-.033.053-.036l.051-.003.003-.078c.003-.09 0-.096-.064-.096h-.043V6.75c0-.026-.005-.041-.016-.045a.327.327 0 0 0-.151.006Z"/><path d="M5.142 7.33c-.032.044-.033.044-.092.044-.032 0-.058.004-.058.009 0 .005.004.032.011.059.011.048.01.05-.024.098l-.036.049.052.026c.05.024.053.027.065.081l.012.055.055-.024.055-.025.048.025.049.025.01-.038a.267.267 0 0 0 .01-.054c0-.01.02-.028.056-.045l.055-.028-.037-.048c-.035-.046-.036-.049-.025-.09.02-.074.018-.075-.046-.075-.057 0-.059-.001-.092-.045l-.035-.045a.587.587 0 0 0-.033.045Zm1.998 0c-.032.044-.033.044-.092.044-.032 0-.059.004-.059.009 0 .005.005.032.012.059.011.048.01.05-.024.098l-.036.049.052.026c.05.024.053.027.065.081l.012.055.055-.024.055-.025.048.025.049.025.01-.038a.267.267 0 0 0 .01-.054c0-.01.02-.028.056-.045l.055-.028-.037-.048c-.035-.046-.036-.049-.025-.09.02-.074.018-.075-.046-.075-.057 0-.06-.001-.092-.045l-.035-.045a.587.587 0 0 0-.033.045Zm-2.485 2.993c-.096.382-.175.7-.178.706-.003.01.133.013.663.013h.667v-.252c0-.283.01-.368.058-.469a.445.445 0 0 1 .175-.192.278.278 0 0 1 .239 0 .428.428 0 0 1 .2.253c.027.077.027.082.031.369l.004.29h.681c.541 0 .68-.002.677-.012-.003-.006-.082-.324-.178-.706l-.173-.693H4.827Z"/></g></g><path fill="#fff" d="M43.486 105.338c1.714 0 5.144-.107 6.966-.429l11.79-53.803c-9.86 0-9.86 0-10.182 2.037l-2.465 14.469c-1.822 10.61-3.43 26.687-3.43 26.687h-.214s-1.608-16.077-3.537-26.58L39.52 51.106c-10.932 0-11.146 0-10.503 3.001l10.289 45.872c.75 3.108 1.822 5.359 4.18 5.359zm38.369.429c8.145 0 14.897-2.465 14.897-6.11 0-2.036-.214-4.822-.857-6.644-3.537 2.036-7.717 3.215-11.897 3.215-6.109 0-8.574-3.001-9.002-12.861 5.358-.107 14.79-.429 21.113-1.715.965-3.966 1.394-9.432 1.394-14.362 0-11.79-4.823-17.255-13.719-17.255-9.646 0-18.97 4.072-18.97 30.545 0 20.792 7.073 25.187 17.04 25.187zm.75-47.158c4.073 0 5.252 2.25 5.359 9.646 0 1.929-.107 4.394-.536 6.216-2.894.965-8.574 1.072-12.432 1.072.643-12.969 3.536-16.934 7.61-16.934zm21.971 46.086c9.753 0 9.753 0 9.753-1.93V25.921c-7.93 0-9.753 0-9.753 4.394zm33.761 1.072c11.575 0 17.684-8.039 17.684-28.188 0-21.757-5.359-27.544-16.72-27.544-11.253 0-17.79 8.252-17.79 27.866 0 24.007 5.68 27.866 16.826 27.866zm.322-8.253c-4.18 0-6.538-2.143-6.538-19.506 0-16.291 2.786-19.72 6.86-19.72 4.393 0 6.323 2.786 6.323 19.398 0 16.613-2.894 19.828-6.645 19.828zm24.329 7.181c9.86 0 9.967 0 9.967-1.93V61.611c1.93-1.5 4.287-2.251 6.324-2.251 1.607 0 3.215.322 4.715 1.179.858-2.144 1.072-4.501 1.072-5.68 0-3.216-1.822-4.823-7.395-4.823-5.466 0-10.61 2.036-14.683 4.823zm40.727 1.072c11.575 0 17.684-8.039 17.684-28.188 0-21.757-5.359-27.544-16.72-27.544-11.253 0-17.79 8.252-17.79 27.866 0 24.007 5.68 27.866 16.826 27.866zm.322-8.253c-4.18 0-6.538-2.143-6.538-19.506 0-16.291 2.786-19.72 6.86-19.72 4.393 0 6.323 2.786 6.323 19.398 0 16.613-2.894 19.828-6.645 19.828zm40.191 8.253c6.002 0 12.111-1.715 16.077-3.966V51.106c-9.86 0-9.754 0-9.754 1.93v42.549c-1.929 1.286-4.501 1.715-6.216 1.715-4.93 0-6.002-2.251-6.002-8.039V51.106c-10.182 0-10.074 0-10.074 1.93v35.475c0 11.361 3.215 17.256 15.969 17.256zm39.548 0c4.18 0 9.432-.75 9.432-5.145 0-1.929-.429-3.43-.643-4.716-2.144.965-3.751 1.5-6.11 1.5-3.429 0-3.429-3.536-3.429-7.394V59.466h8.36c1.822 0 1.929-.857 1.929-8.36h-10.289V31.815c-7.931 0-9.753 0-9.753 3.215v16.076h-4.93c-2.037 0-2.144.858-2.144 8.36h7.074v30.653c0 9.539 1.286 15.648 10.503 15.648zm29.688 0c8.146 0 14.898-2.465 14.898-6.11 0-2.036-.214-4.822-.858-6.644-3.536 2.036-7.716 3.215-11.896 3.215-6.11 0-8.574-3.001-9.003-12.861 5.359-.107 14.79-.429 21.114-1.715.964-3.966 1.393-9.432 1.393-14.362 0-11.79-4.823-17.255-13.719-17.255-9.645 0-18.97 4.072-18.97 30.545 0 20.792 7.074 25.187 17.041 25.187zm.75-47.158c4.073 0 5.252 2.25 5.36 9.646 0 1.929-.108 4.394-.536 6.216-2.894.965-8.575 1.072-12.433 1.072.643-12.969 3.537-16.934 7.61-16.934zm73.037 46.087c9.753 0 9.753 0 9.753-1.93V61.503c2.251-1.822 4.823-2.465 6.752-2.465 4.716 0 5.36 3.644 5.36 7.931v37.727c9.538 0 10.074 0 10.074-1.93v-38.69c0-9.11-1.822-14.04-10.718-14.04-3.965 0-8.467 1.286-11.468 4.072V25.921c-8.038 0-9.753 0-9.753 4.394zm53.803 1.072c6.752 0 11.897-1.715 15.112-3.537.429-8.146.536-21.329.536-33.654v-5.466c0-9.646-3.966-13.076-13.29-13.076-8.36 0-14.576 1.822-16.29 3.001-.858.643-1.287 2.037-1.287 3.216 0 1.393.322 3.537 1.393 5.573 3.216-1.286 8.789-2.358 13.719-2.358 3.966 0 6.002 1.286 6.002 5.573v8.146c-2.144-1.18-5.466-1.5-7.61-1.5-6.859 0-13.611 2.786-13.611 17.683 0 14.79 7.395 16.398 15.326 16.398zm.75-8.146c-3.644 0-5.787-1.608-5.787-8.574 0-8.467 2.894-10.075 6.645-10.075 1.286 0 3.108.215 4.287.965 0 5.359-.107 12.968-.322 16.184-.857.857-2.893 1.5-4.823 1.5zm23.044 7.074c9.431 0 9.753 0 9.753-1.93V60.111c2.036-1.072 4.18-1.608 6.216-1.608 4.18 0 4.501 1.5 4.501 6.217v39.977c9.86 0 9.753 0 9.753-1.93V60.325c2.037-1.178 4.073-1.714 6.217-1.714 3.75 0 4.501 1.822 4.501 6.43v39.656c9.432 0 9.753 0 9.753-1.93V64.933c0-9.539-1.179-14.898-12.004-14.898-4.287 0-9.324 1.18-12.968 3.109-2.036-2.037-5.144-3.109-9.432-3.109-6.001 0-11.789 1.5-16.29 3.537zm71.915 1.072c9.003 0 20.685-3.645 20.685-34.404 0-15.863-4.18-21.329-12.754-21.329-4.608 0-8.038 1.394-10.717 3.537V25.921c-8.039 0-9.753 0-9.753 4.501v72.13c2.465 1.93 6.859 3.216 12.54 3.216zm1.394-8.575c-2.037 0-3.323-.536-4.18-1.286V61.289c1.822-1.715 3.965-2.465 6.216-2.465 4.18 0 6.323 3.537 6.323 14.469 0 20.685-5.144 23.9-8.36 23.9zm42.334 8.575c6.002 0 12.111-1.715 16.077-3.966V51.107c-9.86 0-9.753 0-9.753 1.93v42.549c-1.93 1.286-4.502 1.715-6.216 1.715-4.93 0-6.002-2.251-6.002-8.039V51.107c-10.182 0-10.075 0-10.075 1.93v35.475c0 11.36 3.215 17.256 15.97 17.256zm24.758-1.072c9.86 0 9.968 0 9.968-1.93V61.612c1.929-1.5 4.287-2.251 6.323-2.251 1.608 0 3.215.321 4.716 1.179.857-2.144 1.072-4.502 1.072-5.68 0-3.216-1.822-4.824-7.395-4.824-5.466 0-10.611 2.037-14.684 4.823zm41.478-16.506c12.432 0 17.363-6.966 17.363-18.327 0-4.93-1.287-8.574-3.537-11.039 1.286.322 2.358.429 3.322.429 1.93 0 3.216-1.072 3.216-3.644 0-2.144-.536-3.752-.965-4.716h-12.968c-1.822-.536-3.752-.858-5.252-.858-10.718 0-17.899 5.145-17.899 19.721 0 6.86 1.715 12.647 6.538 15.862-4.287 3.43-6.645 6.752-6.752 9.753-.107 2.894 2.25 4.716 6.323 5.895-4.608 3.108-7.93 7.61-7.93 12.647 0 5.573 2.786 11.79 17.255 11.79 14.362 0 20.47-8.253 20.47-17.9 0-8.466-5.465-11.467-14.147-12.753-6.538-.965-11.575-1.18-11.575-3.001 0-1.286 1.18-2.894 2.358-4.18a25.51 25.51 0 0 0 4.18.321zm.536-7.395c-5.68 0-6.967-3.75-6.967-11.36 0-9.11 3.108-12.326 7.288-12.326 4.502 0 6.645 2.787 6.645 10.29 0 9.538-2.143 13.396-6.966 13.396zm-9.003 30.76c0-3.322 2.465-6.752 5.252-9.003h.321c10.075.75 12.218 2.144 12.218 6.538 0 3.43-2.786 7.717-9.646 7.717-6.537 0-8.145-2.037-8.145-5.252z"/></svg>
