<svg xmlns="http://www.w3.org/2000/svg" viewBox="0 0 532 724"><path fill="#fff" d="M427 658q12-14 12-32v-63q0-19-12-37-11-18-27-33t-32-32-28-43q-11-26-11-58 0-34 17-64 17-31 38-49t38-43 17-49V98q0-20-15-35-14-15-35-15H139q-21 0-36 15-14 15-14 35v57q0 20 12 40 13 19 30 36 18 16 35 34 18 17 30 42 13 25 13 53 0 32-13 58-12 26-30 43-17 17-35 32-17 15-30 33-12 18-12 37v68q1 2 1 5 0 2 1 5l2 4q1 2 2 5l2 4q2 2 3 4l163-161zM54 48H0V0h532v48h-58q6 11 9 24 4 12 4 26v57q0 29-17 57-17 27-38 46-21 18-38 46-17 27-17 56 0 24 11 45 12 20 28 36t32 33q16 16 27 39 12 23 12 50v63q0 27-14 50h59v48H0v-48h54q-13-23-13-50v-63q0-28 18-55 19-27 42-46t41-46q19-28 19-56 0-24-13-45-12-22-30-39-17-18-35-35-17-17-30-39-12-23-12-47V98q0-27 13-50z"/></svg>