<svg xmlns="http://www.w3.org/2000/svg" width="963.936" height="648.432" viewBox="0 0 255.042 171.563"><path fill="#999" d="M206.86 125.44v-2.876l-96.13-43.14V82.3zm-48.064 24.447v-2.877l-96.13-43.14v2.876z"/><path fill="gray" d="m14.603 128.316 96.129 43.141 48.064-21.57-96.13-43.14z"/><path fill="#ececec" d="m110.732 79.423 96.129 43.141 48.064-21.57-96.13-43.14z"/><path fill="#ececec" stroke="#cfcfcf" stroke-width=".116" d="m126.753 72.233 96.13 43.141m-80.108-50.33 96.129 43.14m-80.108-50.33 96.13 43.14"/><path fill="#ececec" stroke="#cfcfcf" stroke-width=".117" d="m254.926 100.994-48.066 21.57m32.044-28.76-48.065 21.57m32.043-28.76-48.064 21.57m32.043-28.76-48.065 21.57m32.043-28.76-48.063 21.57m32.042-28.76-48.065 21.57m32.043-28.76-48.064 21.57"/><path fill="#e9afaf" d="m62.667 103.87 96.13 43.14 48.063-21.57-96.13-43.14z"/><path fill="#faa" stroke="#d58c8c" stroke-width=".117" d="m118.674 85.838-48.065 21.57m56.144-17.918-48.065 21.57M110.73 82.3l-48.064 21.57m72.029-10.842-48.065 21.57m56.144-17.918L94.71 118.25m32.043-28.76-48.064 21.57m72.028-10.842-48.065 21.57m56.144-17.918-48.065 21.57m32.043-28.76L94.71 118.25m72.029-10.842-48.065 21.57m56.144-17.918-48.065 21.57m32.043-28.76-48.064 21.57m72.028-10.842-48.065 21.57m56.144-17.918-48.065 21.57m32.043-28.76-48.064 21.57m72.029-10.842-48.065 21.57m56.144-17.918-48.065 21.57m32.043-28.76-48.064 21.57m-80.108-35.95 96.13 43.14M78.689 96.68l96.129 43.14M70.573 100.376l96.129 43.14M78.688 96.68l96.13 43.14M94.71 89.49l96.129 43.14M86.594 93.185l96.129 43.14M94.71 89.49l96.13 43.14M110.732 82.3l96.129 43.14M102.616 85.995l96.129 43.14"/><path fill="#fff" d="M160.878 72.983c-.807-.49-2.1-.562-2.883-.16-.783.401-.762 1.126.045 1.616.81.49 2.1.563 2.884.161.784-.402.763-1.125-.046-1.617zm-15.465-1.67c.924.56.947 1.387.052 1.847-.896.458-2.372.377-3.296-.184-.924-.56-.946-1.388-.05-1.847.895-.459 2.37-.377 3.294.184zm5.29 6.843-.004-.32a.585.325 5.356 0 0-.177-.245l-3.137-1.904a.292.162 5.36 0 0-.412-.022c-.111.057-.11.16.006.23zm2.419 4.19a11.819 6.574 5.361 0 1-2.378-3.616 4.093 2.276 5.36 0 1-2.68-.815L146.39 76.9c-1.617-.982-1.658-2.429-.09-3.233a4.09 2.275 5.362 0 1 4.093-.334l5.023 1.163c.728.17 1.233.572 1.248.998l3.123.021a3.212 1.787 5.36 0 0 2.496-.776l.21-.207a1.171.652 5.36 0 1 1.123-.27l4.648.514c.79.086 1.385.508 1.335.948l-4.133-.41 3.745 1.593-.66.47 3.509 1.606c.33.151.408.41.177.58-.226.164-.665.184-.993.043l-3.628-1.558-.557.398 3.02 2.168a.73.406 5.365 0 1-1.088.47l-6.781-4.569-5.703-.229a1.463.814 5.36 0 1-1.232-.802l-5.36-1.24c-.092-.02-.19.001-.217.051a.176.098 5.393 0 0 .046.1l3.21 1.95a.774.602 0 0 0 .419.118l.725.038a11.814 6.571 5.36 0 1 7.13 1.69zm4.675-1.928 1.216-.623 5.646 3.427a.876.488 5.358 0 1 .02.693c-.335.171-.89.141-1.236-.07zm-1.622.832 1.216-.624 4.392 2.666c.347.21.355.52.02.692-.336.172-.89.142-1.236-.069"/><ellipse cx="-68.269" cy="183.339" fill="none" stroke="#fff" stroke-width="1.28" rx="4.871" ry="4.842" transform="matrix(.91321 -.40749 .902 .43172 0 0)"/><ellipse cx="-50.88" cy="183.263" fill="none" stroke="#fff" stroke-width="1.28" rx="4.871" ry="4.842" transform="matrix(.91321 -.40749 .902 .43172 0 0)"/><path fill="#fff" fill-rule="evenodd" d="M98.296 99.226c-3.642 1.646-3.427 1.174.813 5.036 3.365 3.103 2.984 2.75 3.323 2.912.294.14.729.135 1.028.024.508-.29.39-.112-3.736-3.963 15 .36 11.013 1.008 15.112-.675 5.14-2.357 5.896-2.4 5.195-2.778-.25-.119-.523-.144-11.902-2.286l-.56-.588 1.108-.536-.996-.455-4.38 1.954c.13.424.66.187 3.049-.482l.604.61-8.757 3.908c-1.392-1.22-1.602-1.022 1.048-2.205zm.734 3.293 8.55-3.815 4.05 4.22zm9.972-4.094 3.848 4.08 5.3-2.365z"/><path fill="#fff" d="M51.97 130.39c-.245-.155-.39-.345-.426-.538l-.052-.299a2.521 1.96 0 0 0-.24-.622l-1.765-2.878c-.178-.29-.02-.596.395-.78l10.514-4.644c.42-.185 1.02-.213 1.533-.07l5.092 1.407c.36.1.738.178 1.126.231l.554.078c.359.05.689.16.932.312l2.454 1.533c.52.325.472.797-.111 1.054l-15.56 6.872c-.58.256-1.475.2-1.994-.125zm.487-1.828 13.67-6.037-4.427-1.223a.775.602 0 0 0-.612.03l-10.006 4.418c-.167.074-.225.2-.16.312zm4.339 3.72 2.523-1.114 2.075 1.297c.312.195.283.477-.064.631l-1.262.557c-.347.153-.884.12-1.197-.074zm13.037-5.757 2.523-1.115 2.075 1.296c.313.196.285.478-.064.632l-1.261.557c-.35.154-.885.121-1.197-.075z"/><path fill="none" stroke="#b3b2b2" stroke-width=".234" d="m110.732 171.457 144.193-64.71v-5.753l-48.064 21.57v2.876l-48.065 21.57v2.877"/><path fill="none" stroke="#b3b2b2" stroke-width=".116" d="M174.818 139.82v2.877m-8.26.747v2.876m24.28-13.69v2.876m-8.175.773v2.876"/><path fill="none" stroke="#b3b2b2" stroke-width=".234" d="M206.86 125.44v2.876"/><path fill="none" stroke="#b3b2b2" stroke-width=".116" d="M198.672 129.115v2.876m24.21-16.617v5.752m16.022-12.942v5.752"/><path fill="none" stroke="#7a7a7a" stroke-width=".233" d="m110.732 79.423 96.129 43.141M62.667 103.87l96.13 43.14"/><rect width="79.855" height="7.575" x=".47" y="46.069" fill="gray" stroke="#b3b2b2" stroke-width=".94" paint-order="stroke markers fill" ry="0"/><rect width="79.388" height="7.578" x="80.324" y="42.364" fill="#f8afaf" stroke="#b3b2b2" stroke-width=".938" paint-order="stroke markers fill" ry="0"/><rect width="79.855" height="7.575" x="167.756" y="38.494" fill="#ececec" stroke="#b3b2b2" stroke-width=".94" paint-order="stroke markers fill" ry="0"/><rect width="11.398" height="7.693" x="42.306" y="-84.172" fill="#b0b0b0" stroke="#b3b2b2" stroke-width=".822" paint-order="stroke markers fill" ry="0" transform="rotate(90)"/><rect width="11.559" height="7.688" x="38.438" y="-167.82" fill="#b0b0b0" stroke="#b3b2b2" stroke-width=".828" paint-order="stroke markers fill" ry="0" transform="rotate(90)"/><path fill="#595959" d="M216.434 16.456c0-1.297-1.12-2.35-2.5-2.35-1.381 0-2.5 1.053-2.5 2.35 0 1.3 1.119 2.353 2.5 2.353 1.38 0 2.5-1.054 2.5-2.353zM204.29 2.686c0 1.484-1.28 2.687-2.857 2.687-1.578 0-2.858-1.203-2.858-2.687 0-1.484 1.28-2.686 2.858-2.686 1.577 0 2.857 1.202 2.857 2.686zm-5.715 13.705.501-.463a.653.653 0 0 0 .214-.479v-5.038c0-.186-.16-.336-.358-.335-.196 0-.357.15-.357.335zm-4.286 7.79c.411-2.572 1.598-4.98 3.42-6.936a4.55 4.55 0 0 1-1.277-3.14V11.42c0-2.597 2.239-4.703 5.001-4.703 1.864 0 3.574.976 4.435 2.531l2.968 5.362a1.927 1.927 0 0 1-.379 2.35l2.95 2.326a4.117 4.117 0 0 0 3.605.724l.529-.143a1.483 1.483 0 0 1 1.494.44l3.634 4.152c.617.706.522 1.748-.217 2.342l-3.304-3.626 1.07 5.039-1.37.19.824 4.883c.078.459-.257.889-.743.962-.474.07-.924-.226-1.016-.669l-1.013-4.904-1.158.161-.528 5.331c-.046.455-.47.792-.955.758-.485-.035-.851-.427-.824-.884l.712-11.539-5.086-4.522a1.604 1.604 0 0 1 .085-2.058l-3.166-5.721a.222.222 0 0 0-.288-.085.2.2 0 0 0-.116.179v5.154c0 .18.076.352.213.48l.634.586c2.23 2.065 3.688 4.755 4.153 7.666zm7.5.672h2.144v9.068c0 .557-.48 1.008-1.072 1.008-.59 0-1.071-.45-1.071-1.008zm-2.857 0h2.143v7.053c0 .557-.48 1.008-1.07 1.008-.593 0-1.073-.451-1.073-1.008M49.79 19.382c.747 0 1.424.444 1.722 1.13l2.971 6.829c.21.482.476.938.792 1.359l.45.6c.293.391.45.866.45 1.353v4.884c0 1.038-.84 1.879-1.877 1.879h-27.8a1.878 1.878 0 0 1-1.878-1.88v-4.883c0-.487.157-.962.449-1.353l.453-.6c.314-.421.58-.877.79-1.36l2.97-6.828a1.878 1.878 0 0 1 1.724-1.13zm-.454 1.879H31.46a.75.75 0 0 0-.689.452l-2.583 5.934h24.42l-2.583-5.934a.752.752 0 0 0-.69-.452zm4.962 16.906V42.3c0 .622-.505 1.126-1.127 1.126h-2.254a1.127 1.127 0 0 1-1.128-1.126v-4.133zm-23.292 0V42.3c0 .622-.505 1.126-1.127 1.126h-2.254a1.127 1.127 0 0 1-1.128-1.126v-4.133zm83.948-22.324a2.91 2.91 0 0 0-2.78 2.048l-2.112 6.822a7.273 7.273 0 1 0 1.389.432l.579-1.866 8.596 9.535c.276.307.67.483 1.082.483h3.055a7.27 7.27 0 0 0 9.38 5.456 7.27 7.27 0 0 0 4.66-9.165 7.27 7.27 0 0 0-9.166-4.661l-2.111-4.721.547-1.455h1.636v-1.454h-6.184a.362.362 0 0 0-.352.278.36.36 0 0 0 .268.438l3.078.738-.547 1.455H112.98l.584-1.885a1.454 1.454 0 0 1 1.39-1.024h2.392v-1.454zm-2.424 5.817h12.897l-3.79 10.103zm14.27.485 1.506 3.368a7.275 7.275 0 0 0-3.69 6.33h-1.454zm-18.148 3.878c.327.002.654.032.977.09l-1.706 5.513a.727.727 0 0 0 1.388.43l1.707-5.514a5.817 5.817 0 1 1-4.803 10.598 5.819 5.819 0 0 1 2.437-11.117zm22.74.02a5.819 5.819 0 1 1-5.08 7.456c-.018-.067-.039-.133-.056-.2h5.998a.727.727 0 0 0 .663-1.026l-2.684-6.009a5.89 5.89 0 0 1 1.158-.22zm-2.49.806 2.228 4.994h-5.06a5.822 5.822 0 0 1 2.833-4.994z"/></svg>