<svg xmlns="http://www.w3.org/2000/svg" width="987.705" height="664.601" viewBox="0 0 261.331 175.843"><path fill="gray" d="m12.891 133.723 96.13 41.922 48.063-20.96-96.127-41.923z"/><path fill="#fafafa" d="m205.115 128.137 8.036-3.378-96.22-42.03-7.98 3.5z"/><path fill="none" stroke="#bdbdbd" stroke-linecap="round" stroke-linejoin="round" stroke-width=".178" d="M201.18 125.242s.053.236.618.2c.31-.015.396-.217.396-.217m2.17 1.412s.053.236.618.2c.31-.015.396-.217.396-.217m-10.676-4.173s.052.236.617.2c.31-.015.396-.217.396-.217m2.17 1.412s.053.236.618.2c.31-.014.396-.217.396-.217m-7.469-2.777s.053.235.617.198c.31-.013.397-.216.397-.216m-7.285-2.775s.053.236.617.2c.31-.015.396-.217.396-.217m2.171 1.412s.052.236.617.2c.31-.015.396-.217.396-.217m-10.676-4.173s.053.236.618.2c.31-.015.396-.217.396-.217m2.17 1.412s.053.236.617.2c.31-.014.396-.217.396-.217m-7.468-2.777s.052.235.617.198c.31-.013.396-.216.396-.216m-7.364-2.773s.053.236.617.2c.31-.015.397-.217.397-.217m2.17 1.413s.053.235.617.198c.31-.013.396-.216.396-.216m-10.676-4.172s.053.235.618.198c.31-.013.396-.216.396-.216m2.17 1.413s.053.235.618.198c.31-.013.396-.216.396-.216m-7.47-2.777s.053.236.618.2c.31-.015.396-.217.396-.217m-7.284-2.776s.052.236.617.2c.31-.014.396-.217.396-.217m2.17 1.413s.053.235.618.198c.31-.013.396-.216.396-.216m-10.677-4.172s.054.235.618.198c.31-.013.396-.216.396-.216m2.171 1.413s.052.235.617.198c.31-.013.396-.216.396-.216m-7.468-2.777s.052.236.617.2c.31-.015.396-.217.396-.217m-7.285-2.775s.053.235.618.198c.31-.013.396-.216.396-.216m2.17 1.413s.053.235.617.198c.31-.013.396-.216.396-.216m-10.675-4.172s.052.235.617.198c.31-.013.396-.216.396-.216m2.17 1.413s.053.236.618.2c.31-.015.396-.218.396-.218m-7.469-2.777s.053.236.617.2c.31-.015.396-.217.396-.217m-7.284-2.775s.052.235.617.198c.31-.013.396-.216.396-.216m2.17 1.413s.053.235.618.198c.31-.013.396-.216.396-.216m-10.676-4.172s.053.235.617.198c.31-.013.396-.216.396-.216m2.171 1.413s.052.236.617.2c.31-.015.396-.217.396-.217m-7.469-2.778s.053.236.618.2c.31-.015.396-.217.396-.217m95.5 39.946s.052.236.616.2c.31-.015.396-.217.396-.217m-4.242-1.39s.053.236.618.2c.31-.014.396-.217.396-.217m-4.24-1.37s.052.235.617.198c.31-.013.396-.216.396-.216m-4.1-1.38s.052.236.617.2c.31-.015.396-.217.396-.217m-4.243-1.39s.053.236.618.2c.31-.014.396-.217.396-.217m-4.264-1.37s.053.235.618.198c.31-.014.396-.216.396-.216m-4.242-1.39s.052.237.617.2c.31-.014.396-.217.396-.217m-4.24-1.37s.053.235.618.198c.31-.013.396-.216.396-.216m-4.18-1.378s.052.236.617.2c.31-.015.396-.217.396-.217m-4.242-1.389s.052.236.617.2c.31-.015.396-.217.396-.217m-4.263-1.37s.052.234.617.197c.31-.013.396-.216.396-.216m-4.242-1.389s.053.236.617.2c.31-.015.396-.217.396-.217m-4.24-1.37s.053.235.618.197c.31-.013.396-.216.396-.216m-4.1-1.38s.052.236.616.2c.31-.015.397-.217.397-.217m-4.243-1.389s.053.236.618.2c.31-.015.396-.217.396-.217m-4.264-1.37s.053.234.618.197c.31-.013.396-.216.396-.216m-4.243-1.389s.053.236.618.2c.31-.015.396-.217.396-.217m-4.24-1.37s.053.235.617.198c.31-.014.396-.217.396-.217m-4.1-1.38s.052.236.617.2c.31-.014.396-.217.396-.217m-4.242-1.389s.052.236.617.2c.31-.015.396-.217.396-.217m-4.263-1.37s.052.234.617.197c.31-.013.396-.216.396-.216m-4.242-1.389s.053.236.617.2c.31-.015.396-.217.396-.217m-4.24-1.37s.053.235.618.198c.31-.014.396-.216.396-.216m-4.1-1.38s.052.235.616.198c.31-.013.397-.216.397-.216M130.82 92.5s.053.236.618.2c.31-.015.396-.217.396-.217m-4.264-1.37s.053.234.618.197c.31-.013.396-.216.396-.216m-4.243-1.389s.053.236.618.2c.31-.015.396-.217.396-.217m-4.24-1.37s.053.235.617.198c.31-.014.396-.216.396-.216m-4.24-1.37s.053.234.618.197c.31-.013.396-.215.396-.215"/><path fill="none" stroke="#bdbdbd" stroke-linecap="round" stroke-linejoin="round" stroke-width=".178" d="M117.884 86.916s.053.235.618.198c.31-.013.396-.216.396-.216m-4.24-1.37s.052.235.617.198c.31-.014.396-.216.396-.216m93.47 38.75s.053.234.618.197c.31-.013.396-.216.396-.216m-4.243-1.39s.053.236.618.2c.31-.014.396-.216.396-.216m-4.264-1.37s.053.235.618.197c.31-.013.396-.216.396-.216m-4.242-1.39s.052.236.617.2c.31-.014.396-.216.396-.216m-4.24-1.37s.053.235.618.197c.31-.013.396-.215.396-.215m-4.1-1.38s.051.235.616.198c.31-.013.396-.216.396-.216m-4.242-1.39s.053.236.617.2c.31-.014.396-.216.396-.216m-4.263-1.37s.053.235.617.197c.31-.013.397-.215.397-.215m-4.243-1.39s.053.235.618.198c.31-.013.396-.215.396-.215m-4.24-1.37s.052.235.617.197c.31-.013.396-.215.396-.215m-4.18-1.378s.053.236.617.2c.31-.015.397-.217.397-.217m-4.242-1.39s.052.236.617.2c.31-.014.396-.217.396-.217m-4.263-1.37s.052.235.617.198c.31-.014.396-.216.396-.216m-4.243-1.39s.053.236.618.2c.31-.014.396-.217.396-.217m-4.24-1.37s.053.235.617.198c.31-.014.396-.216.396-.216m-4.1-1.38s.052.236.617.2c.31-.015.396-.217.396-.217m-4.242-1.39s.052.236.617.2c.31-.014.396-.217.396-.217m-4.263-1.37s.052.235.617.198c.31-.014.396-.216.396-.216m-4.242-1.39s.053.236.617.2c.31-.014.396-.217.396-.217m-4.24-1.37s.053.235.618.198c.31-.014.396-.216.396-.216m-4.1-1.38s.052.236.616.2c.31-.015.397-.217.397-.217m-4.243-1.39s.053.236.618.2c.31-.014.396-.217.396-.217m-4.264-1.37s.053.235.618.198c.31-.014.396-.216.396-.216m-4.243-1.39s.053.236.618.2c.31-.014.396-.217.396-.217m-4.24-1.37s.053.235.617.198c.31-.013.396-.216.396-.216m-4.1-1.38s.052.236.617.2c.31-.015.396-.217.396-.217m-4.242-1.39s.052.236.617.2c.31-.014.396-.217.396-.217m-4.263-1.37s.053.235.617.198c.31-.014.396-.216.396-.216m-4.242-1.39s.053.237.617.2c.31-.014.397-.217.397-.217m-4.24-1.37s.052.235.617.198c.31-.013.396-.216.396-.216"/><path fill="none" stroke="#b3b2b2" stroke-width=".115" d="M229.081 117.664v5.59m-23.932 4.88v5.59"/><path fill="#ececec" d="m117.07 82.871 96.128 41.922 48.064-20.961-96.129-41.922z"/><path fill="#ececec" stroke="#cfcfcf" stroke-width=".115" d="m133.043 75.85 96.13 41.922m-80.108-48.909 96.13 41.922m16.044-7.005-48.065 20.96M198.74 75.033l-48.063 20.96"/><path fill="#faa" stroke="#d58c8c" stroke-width=".115" d="m125.041 93.2-48.064 20.96m64.086-13.974L93 121.146m64.085-13.973-48.064 20.96m64.086-13.972-48.065 20.96m64.086-13.973-48.064 20.96m64.086-13.973-48.065 20.96m-96.128-41.922 96.128 41.921m-80.107-48.908 96.13 41.922M93 93.198l96.128 41.923m-80.107-48.91 96.13 41.923"/><g transform="matrix(1 0 0 .75535 54.547 51.277)"><path fill="#e9afaf" d="m6.409 74 96.128 55.5 48.065-27.75-96.129-55.5z"/><path fill="#faa" stroke="#d58c8c" stroke-width=".132" d="m62.415 50.802-48.064 27.75M54.473 46.25 6.409 74m72.028-13.948-48.065 27.75M70.494 55.5 22.43 83.25m72.028-13.948-48.064 27.75M86.516 64.75 38.452 92.5m72.028-13.948-48.065 27.75M102.537 74l-48.064 27.75m72.028-13.948-48.064 27.75m40.122-32.302L70.494 111m72.029-13.948-48.065 27.75M134.58 92.5l-48.064 27.75M14.314 69.504l96.129 55.5M22.43 64.75l96.129 55.5M30.335 60.254l96.13 55.5M38.452 55.5 134.58 111M46.357 51.004l96.129 55.5"/><circle cx="-47.688" cy="103.497" r="5.129" fill="none" stroke="#fff" stroke-width="1.276" transform="matrix(.86728 -.49783 .85152 .52433 0 0)"/><circle cx="-29.378" cy="103.417" r="5.129" fill="none" stroke="#fff" stroke-width="1.276" transform="matrix(.86728 -.49783 .85152 .52433 0 0)"/><path fill="#fff" fill-rule="evenodd" d="M42.036 68.044c-3.642 2.117-3.427 1.51.814 6.479 3.365 3.991 2.983 3.537 3.323 3.746.294.181.728.174 1.027.03.509-.373.39-.144-3.736-5.098 15 .462 11.013 1.297 15.113-.867 5.14-3.032 5.895-3.088 5.194-3.575-.249-.153-.522-.184-11.901-2.94l-.56-.756 1.108-.69-.997-.586-4.378 2.514c.128.545.658.24 3.047-.619l.605.784-8.758 5.027c-1.392-1.57-1.601-1.315 1.049-2.837zm.734 4.236 8.55-4.908 4.051 5.428zm9.972-5.266 3.848 5.248 5.301-3.042z"/></g><path fill="#fff" d="M49.501 133.286c-.244-.149-.39-.334-.426-.52l-.05-.292a2.521 1.904 0 0 0-.24-.604l-1.767-2.798c-.178-.28-.02-.578.396-.757l10.513-4.513c.42-.18 1.02-.207 1.532-.07l5.093 1.37a9.1 9.1 0 0 0 1.125.225l.555.074c.358.05.688.156.932.304l2.453 1.49c.52.315.472.774-.11 1.024l-15.56 6.678c-.58.25-1.475.195-1.994-.12zm.488-1.775 13.67-5.866-4.427-1.188a.775.585 0 0 0-.613.027l-10.005 4.295c-.168.071-.225.194-.16.303zm4.338 3.616 2.523-1.084 2.075 1.26c.313.19.284.465-.064.614l-1.26.541c-.349.15-.886.118-1.198-.07zm13.037-5.596 2.523-1.083 2.076 1.26c.312.19.284.464-.064.614l-1.262.54c-.348.15-.884.118-1.197-.07z"/><path fill="#999" d="M157.084 154.684v-5.59l-96.127-41.92v5.59z"/><path fill="none" stroke="#7a7a7a" stroke-width=".317" d="m60.956 107.173 96.128 41.921"/><path fill="none" stroke="#b3b2b2" stroke-width=".115" d="M245.13 110.702v5.59m-48.196 15.494v5.59m-7.807-2.255v5.59m-16.02 1.397v5.59m-8.202-1.985v5.59m15.944-12.584v5.59"/><path fill="#ececec" stroke="#cfcfcf" stroke-width=".115" d="m116.987 82.775 96.13 41.922"/><path fill="none" stroke="#b3b2b2" stroke-width=".23" d="m109.041 175.737 152.167-66.58.007-5.36-48.064 20.962-56.067 24.335v5.59"/><path fill="none" stroke="#b3b2b2" stroke-width=".115" d="M213.037 124.753v5.59"/><path fill="#ececec" stroke="#cfcfcf" stroke-width=".23" d="m165.086 61.876 96.13 41.922"/><path fill="#ececec" stroke="#cfcfcf" stroke-width=".115" d="m181.108 68.863-48.065 20.96m32.043-27.946-48.064 20.96m128.172 13.974-48.065 20.96m32.043-27.947-48.064 20.96m32.043-27.947-48.065 20.96"/><path fill="#fff" d="M167.168 76.58c-.807-.477-2.099-.548-2.883-.158-.783.391-.762 1.095.045 1.572.81.475 2.1.546 2.884.156.784-.39.763-1.094-.046-1.57zm-15.465-1.625c.924.545.947 1.35.052 1.795-.896.446-2.372.367-3.296-.179-.924-.544-.946-1.348-.05-1.794.895-.446 2.37-.367 3.294.18zm5.29 6.65-.004-.312a.585.316 5.08 0 0-.177-.236l-3.137-1.85a.292.158 5.084 0 0-.412-.022c-.11.055-.109.155.006.223zm2.42 4.073a11.816 6.39 5.084 0 1-2.379-3.515 4.092 2.213 5.084 0 1-2.68-.79l-1.673-.988c-1.617-.954-1.658-2.36-.09-3.14a4.09 2.211 5.085 0 1 4.093-.326l5.023 1.13c.728.164 1.233.556 1.248.97l3.123.02a3.211 1.737 5.082 0 0 2.496-.754l.211-.202a1.171.633 5.083 0 1 1.122-.26l4.648.498c.79.084 1.385.494 1.335.921l-4.133-.398 3.745 1.548-.659.457 3.508 1.56c.33.147.408.4.177.564-.226.16-.665.178-.993.041l-3.628-1.514-.557.387 3.02 2.107a.73.394 5.088 0 1-1.088.456l-6.78-4.439-5.704-.223a1.463.791 5.083 0 1-1.232-.78l-5.36-1.206c-.092-.02-.19.003-.217.051a.176.095 5.116 0 0 .046.098l3.21 1.894a.774.585 0 0 0 .42.116l.724.036a11.81 6.387 5.084 0 1 7.13 1.641zm4.674-1.874 1.216-.606 5.646 3.33a.876.474 5.08 0 1 .02.673c-.335.167-.89.138-1.236-.068zm-1.622.808 1.216-.607 4.392 2.591c.347.204.355.506.02.673-.336.167-.89.138-1.236-.067"/><rect width="79.855" height="7.575" x=".47" y="46.07" fill="gray" stroke="#b3b2b2" stroke-width=".94" paint-order="stroke markers fill" ry="0"/><rect width="87.403" height="7.534" x="80.346" y="38.515" fill="#f8afaf" stroke="#b3b2b2" stroke-width=".981" paint-order="stroke markers fill" ry="0"/><rect width="79.855" height="7.575" x="167.756" y="38.495" fill="#ececec" stroke="#b3b2b2" stroke-width=".94" paint-order="stroke markers fill" ry="0"/><rect width="15.15" height="7.575" x="38.495" y="-84.113" fill="#b0b0b0" stroke="#b3b2b2" stroke-width=".94" paint-order="stroke markers fill" ry="0" transform="rotate(90)"/><rect width="7.575" height="7.575" x="38.495" y="-167.756" fill="#f5f5f5" paint-order="stroke markers fill" ry="0" transform="rotate(90)"/><rect width="2.199" height="1.008" x="37.624" y="-161.708" fill="#f5f5f5" paint-order="stroke markers fill" ry=".504" transform="rotate(90)"/><rect width="2.199" height="1.008" x="37.624" y="-167.192" fill="#f5f5f5" paint-order="stroke markers fill" ry=".504" transform="rotate(90)"/><rect width="2.199" height="1.008" x="37.624" y="-164.416" fill="#f5f5f5" paint-order="stroke markers fill" ry=".504" transform="rotate(90)"/><path fill="#595959" d="M216.434 16.457c0-1.297-1.12-2.351-2.5-2.351-1.382 0-2.501 1.053-2.501 2.35 0 1.3 1.12 2.353 2.5 2.353 1.381 0 2.5-1.053 2.5-2.352zM204.29 2.687c0 1.483-1.28 2.687-2.857 2.687-1.578 0-2.858-1.204-2.858-2.687 0-1.484 1.28-2.687 2.858-2.687 1.577 0 2.857 1.203 2.857 2.687zm-5.715 13.705.501-.463a.653.653 0 0 0 .214-.48v-5.038c0-.185-.16-.335-.358-.335-.196 0-.357.15-.357.335zm-4.286 7.79c.411-2.573 1.598-4.98 3.42-6.937a4.55 4.55 0 0 1-1.277-3.14V11.42c0-2.597 2.239-4.702 5-4.702 1.865 0 3.575.976 4.436 2.53l2.968 5.363a1.927 1.927 0 0 1-.379 2.349l2.95 2.327c.999.79 2.35 1.06 3.605.724l.528-.144a1.483 1.483 0 0 1 1.495.44l3.633 4.153c.618.706.523 1.748-.217 2.342l-3.304-3.626 1.07 5.038-1.368.19.823 4.884c.078.458-.257.888-.743.961-.475.07-.924-.226-1.016-.668l-1.013-4.905-1.158.161-.528 5.332c-.046.455-.47.791-.955.757-.485-.034-.851-.427-.824-.883l.712-11.54-5.086-4.522a1.604 1.604 0 0 1 .085-2.057l-3.166-5.722a.222.222 0 0 0-.288-.085.2.2 0 0 0-.116.18v5.154c0 .18.076.352.213.479l.634.587c2.23 2.065 3.688 4.755 4.152 7.666zm7.5.672h2.144v9.067c0 .557-.48 1.009-1.072 1.009-.591 0-1.071-.451-1.071-1.009zm-2.857 0h2.143v7.052c0 .557-.48 1.009-1.07 1.009-.593 0-1.073-.452-1.073-1.009M49.79 19.383c.747 0 1.424.443 1.722 1.13l2.971 6.828c.21.483.476.938.792 1.36l.45.6c.293.39.45.865.45 1.353v4.883c0 1.038-.84 1.88-1.877 1.88H26.497a1.878 1.878 0 0 1-1.877-1.88v-4.883c0-.488.157-.962.449-1.353l.453-.6c.314-.422.58-.877.79-1.36l2.97-6.829a1.878 1.878 0 0 1 1.724-1.13zm-.455 1.878H31.46a.75.75 0 0 0-.689.453l-2.583 5.934h24.42l-2.584-5.934a.752.752 0 0 0-.689-.453zm4.963 16.907V42.3c0 .622-.505 1.125-1.127 1.125h-2.254a1.127 1.127 0 0 1-1.128-1.125v-4.133zm-23.292 0V42.3c0 .622-.505 1.125-1.127 1.125h-2.254a1.127 1.127 0 0 1-1.128-1.125v-4.133zm83.948-27.087a2.91 2.91 0 0 0-2.78 2.048l-2.112 6.822a7.273 7.273 0 1 0 1.389.432l.579-1.866 8.596 9.535c.276.307.67.483 1.082.483h3.055a7.27 7.27 0 0 0 9.38 5.456 7.27 7.27 0 0 0 4.66-9.165 7.27 7.27 0 0 0-9.166-4.661l-2.111-4.721.547-1.455h1.635v-1.454h-6.183a.362.362 0 0 0-.352.278.36.36 0 0 0 .268.438l3.078.738-.547 1.455H112.98l.584-1.885a1.454 1.454 0 0 1 1.39-1.024h2.392v-1.454zm-2.424 5.817h12.897l-3.79 10.103zm14.27.485 1.506 3.368a7.275 7.275 0 0 0-3.69 6.33h-1.454zm-18.148 3.878c.327.002.654.032.977.09l-1.706 5.513a.727.727 0 0 0 1.388.43l1.707-5.514a5.817 5.817 0 1 1-4.803 10.598 5.819 5.819 0 0 1 2.437-11.117zm22.74.02a5.819 5.819 0 1 1-5.08 7.456c-.018-.067-.04-.133-.057-.201h5.998a.727.727 0 0 0 .664-1.025l-2.684-6.009a5.89 5.89 0 0 1 1.158-.22zm-2.49.806 2.228 4.994h-5.06a5.822 5.822 0 0 1 2.833-4.994z"/></svg>