<svg xmlns="http://www.w3.org/2000/svg" width="931.174" height="430" viewBox="0 0 246.373 113.771"><g transform="matrix(1 0 0 .75786 -34.927 -96.486)"><path fill="#fff" d="m177.003 250.262 8.036-4.474-96.22-55.643-7.979 4.634z"/><path fill="gray" d="m34.927 221.454 96.13 55.5 48.063-27.75-96.129-55.5z"/><path fill="#ececec" d="m136.975 155.138 96.129 55.5 48.064-27.75-96.13-55.5z"/><path fill="#ececec" stroke="#cfcfcf" stroke-width=".132" d="m152.996 145.888 96.13 55.5m-80.108-64.75 96.129 55.5m-80.108-64.75 96.13 55.5M281.169 182.888l-48.066 27.75m32.044-37-48.065 27.75m32.043-37-48.064 27.75m32.043-37-48.065 27.75m32.043-37-48.063 27.75m32.042-37-48.065 27.75m32.043-37-48.064 27.75"/><path fill="#e9afaf" d="m88.91 190.288 96.129 55.5 48.063-27.75-96.13-55.5z"/><path fill="#fff" d="M187.12 146.853c-.806-.63-2.098-.724-2.882-.207-.783.517-.762 1.45.045 2.08.81.63 2.1.724 2.884.207.784-.517.763-1.448-.046-2.08zm-15.464-2.15c.924.722.947 1.786.052 2.377-.896.59-2.372.485-3.296-.237-.924-.72-.946-1.785-.05-2.376.895-.59 2.37-.485 3.294.237zm5.29 8.804-.004-.413a.587.417 9.651 0 0-.177-.313l-3.137-2.45a.293.208 9.651 0 0-.412-.028c-.111.073-.109.206.006.296zm2.419 5.392a11.866 8.423 9.651 0 1-2.378-4.653 4.109 2.917 9.651 0 1-2.68-1.048l-1.673-1.306c-1.617-1.263-1.658-3.125-.09-4.159a4.107 2.915 9.651 0 1 4.093-.43l5.023 1.496c.728.218 1.233.736 1.248 1.284l3.123.027a3.225 2.29 9.651 0 0 2.496-.998l.21-.267a1.176.835 9.651 0 1 1.123-.346l4.648.66c.79.111 1.385.654 1.335 1.22l-4.133-.527 3.745 2.05-.66.604 3.509 2.066c.33.194.408.528.177.746-.226.211-.665.236-.993.055l-3.628-2.005-.557.512 3.02 2.79a.733.52 9.651 0 1-1.088.604l-6.781-5.877-5.703-.295a1.469 1.043 9.651 0 1-1.232-1.032l-5.36-1.597c-.092-.026-.19.003-.217.067a.177.125 9.651 0 0 .046.13l3.21 2.507a.774.774 0 0 0 .419.153l.725.048a11.861 8.42 9.651 0 1 7.13 2.173zm4.675-2.48 1.216-.803 5.646 4.41a.88.625 9.651 0 1 .02.89c-.335.221-.89.182-1.236-.09zm-1.622 1.07 1.216-.804 4.392 3.43c.347.27.355.67.02.89-.336.222-.89.183-1.236-.088"/><circle cx="-107.551" cy="261.354" r="5.129" fill="none" stroke="#fff" stroke-width="1.276" transform="matrix(.86726 -.49785 .85152 .52432 0 0)"/><circle cx="-89.242" cy="261.274" r="5.129" fill="none" stroke="#fff" stroke-width="1.276" transform="matrix(.86726 -.49785 .85152 .52432 0 0)"/><path fill="#fff" fill-rule="evenodd" d="M124.539 180.614c-3.642 2.118-3.427 1.51.813 6.48 3.365 3.99 2.984 3.536 3.323 3.745.294.181.729.175 1.028.03.508-.373.39-.144-3.736-5.098 15 .462 11.013 1.297 15.112-.867 5.14-3.032 5.896-3.089 5.195-3.575-.249-.153-.523-.184-11.902-2.94l-.559-.756 1.107-.69-.996-.586-4.379 2.514c.129.545.659.241 3.048-.619l.604.784-8.757 5.027c-1.392-1.57-1.602-1.315 1.048-2.836zm.734 4.236 8.55-4.908 4.05 5.428zm9.972-5.266 3.848 5.248 5.3-3.043z"/><path fill="#fff" d="M73.764 223.86c-.245-.197-.39-.442-.426-.69l-.052-.384a2.521 2.521 0 0 0-.24-.8l-1.765-3.703c-.178-.373-.02-.767.395-1.003l10.514-5.974c.42-.238 1.02-.275 1.533-.092l5.092 1.812c.36.128.738.228 1.126.297l.554.1c.359.064.689.206.932.4l2.454 1.974c.52.418.472 1.025-.111 1.356l-15.56 8.84c-.58.33-1.475.257-1.994-.16zm.487-2.35 13.67-7.765-4.427-1.574a.775.775 0 0 0-.612.037l-10.006 5.685c-.167.096-.225.257-.16.402zm4.339 4.786 2.523-1.432 2.075 1.667c.312.251.283.614-.064.812l-1.262.717c-.347.197-.884.155-1.197-.096zm13.037-7.406 2.523-1.434 2.075 1.668c.313.25.285.614-.064.812l-1.261.717c-.35.198-.885.156-1.197-.096z"/><path fill="none" stroke="#b3b2b2" stroke-width=".265" d="m131.056 276.953 150.112-86.665v-7.4l-48.064 27.75-.001 7.4"/><path fill="none" stroke="#b3b2b2" stroke-width=".132" d="M249.125 201.388v7.4m16.022-16.65v7.4"/><path fill="none" stroke="#7a7a7a" stroke-width=".265" d="m136.975 155.138 96.129 55.5"/><path fill="#999" d="M233.103 218.038v-7.4l-96.129-55.5v7.4z"/></g></svg>