<svg width="939.049" height="430" viewBox="0 0 248.457 113.771" xmlns="http://www.w3.org/2000/svg"><path d="m0 71.962 96.129 41.922 48.064-20.961-96.127-41.922Z" fill="gray"/><path d="m192.224 66.376 8.036-3.378-96.22-42.03-7.98 3.5z" fill="#fafafa"/><path d="M188.289 63.481s.053.236.618.199c.31-.014.396-.216.396-.216m2.17 1.412s.053.236.618.199c.31-.014.396-.216.396-.216m-10.676-4.173s.052.236.617.199c.31-.014.396-.216.396-.216m2.17 1.412s.053.236.618.2c.31-.014.396-.217.396-.217m-7.469-2.777s.053.235.617.198c.31-.013.397-.216.397-.216m-7.285-2.775s.053.236.617.199c.31-.014.396-.216.396-.216m2.171 1.412s.052.236.617.199c.31-.014.396-.216.396-.216m-10.676-4.173s.053.236.618.199c.31-.014.396-.216.396-.216m2.17 1.412s.053.236.617.2c.31-.014.396-.217.396-.217m-7.468-2.777s.052.235.617.198c.31-.013.396-.216.396-.216m-7.364-2.773s.053.236.617.2c.31-.015.397-.217.397-.217m2.17 1.413s.053.235.617.198c.31-.013.396-.216.396-.216m-10.676-4.172s.053.235.618.198c.31-.013.396-.216.396-.216m2.17 1.413s.053.235.618.198c.31-.013.396-.216.396-.216m-7.47-2.777s.053.236.618.199c.31-.014.396-.216.396-.216m-7.284-2.776s.052.236.617.2c.31-.014.396-.217.396-.217m2.17 1.413s.053.235.618.198c.31-.013.396-.216.396-.216m-10.677-4.172s.054.235.618.198c.31-.013.396-.216.396-.216m2.171 1.413s.052.235.617.198c.31-.013.396-.216.396-.216m-7.468-2.777s.052.236.617.199c.31-.014.396-.216.396-.216m-7.285-2.775s.053.235.618.198c.31-.013.396-.216.396-.216m2.17 1.413s.053.235.617.198c.31-.013.396-.216.396-.216m-10.675-4.172s.052.235.617.198c.31-.013.396-.216.396-.216m2.17 1.413s.053.236.618.199c.31-.014.396-.217.396-.217m-7.469-2.777s.053.236.617.199c.31-.014.396-.216.396-.216m-7.284-2.775s.052.235.617.198c.31-.013.396-.216.396-.216m2.17 1.413s.053.235.618.198c.31-.013.396-.216.396-.216m-10.676-4.172s.053.235.617.198c.31-.013.396-.216.396-.216m2.171 1.413s.052.236.617.199c.31-.014.396-.216.396-.216m-7.469-2.778s.053.236.618.199c.31-.014.396-.216.396-.216m95.499 39.946s.053.236.617.199c.31-.014.396-.216.396-.216m-4.242-1.39s.053.236.618.2c.31-.014.396-.217.396-.217m-4.24-1.37s.052.235.617.198c.31-.013.396-.216.396-.216m-4.101-1.38s.053.236.618.199c.31-.014.396-.216.396-.216m-4.243-1.39s.053.236.618.2c.31-.014.396-.217.396-.217m-4.264-1.37s.053.235.618.198c.31-.014.396-.216.396-.216m-4.242-1.39s.052.237.617.2c.31-.014.396-.217.396-.217m-4.24-1.37s.053.235.618.198c.31-.013.396-.216.396-.216m-4.181-1.378s.053.236.618.2c.31-.015.396-.217.396-.217m-4.242-1.389s.052.236.617.199c.31-.014.396-.216.396-.216m-4.263-1.371s.052.235.617.198c.31-.013.396-.216.396-.216m-4.242-1.389s.053.236.617.199c.31-.014.396-.216.396-.216m-4.24-1.371s.053.236.618.198c.31-.013.396-.216.396-.216m-4.101-1.38s.053.236.617.2c.31-.015.397-.217.397-.217m-4.243-1.389s.053.236.618.199c.31-.014.396-.216.396-.216m-4.264-1.371s.053.235.618.198c.31-.013.396-.216.396-.216m-4.243-1.389s.053.236.618.199c.31-.014.396-.216.396-.216m-4.24-1.371s.053.236.617.199c.31-.014.396-.217.396-.217m-4.1-1.38s.052.236.617.2c.31-.014.396-.217.396-.217m-4.242-1.389s.052.236.617.199c.31-.014.396-.216.396-.216m-4.263-1.371s.052.235.617.198c.31-.013.396-.216.396-.216m-4.242-1.389s.053.236.617.199c.31-.014.396-.216.396-.216m-4.24-1.371s.053.236.618.199c.31-.014.396-.216.396-.216m-4.101-1.38s.053.235.617.198c.31-.013.397-.216.397-.216m-4.243-1.389s.053.236.618.199c.31-.014.396-.216.396-.216m-4.264-1.371s.053.235.618.198c.31-.013.396-.216.396-.216m-4.243-1.389s.053.236.618.199c.31-.014.396-.216.396-.216m-4.24-1.371s.053.236.617.199c.31-.014.396-.216.396-.216m-4.24-1.37s.053.234.618.197c.31-.013.396-.215.396-.215" fill="none" stroke="#bdbdbd" stroke-width=".178" stroke-linecap="round" stroke-linejoin="round"/><path d="M104.993 25.155s.053.235.618.198c.31-.013.396-.216.396-.216m-4.241-1.37s.053.235.618.198c.31-.014.396-.216.396-.216m93.47 38.749s.053.235.618.198c.31-.013.396-.216.396-.216m-4.243-1.39s.053.236.618.2c.31-.014.396-.216.396-.216m-4.264-1.371s.053.236.618.198c.31-.013.396-.216.396-.216m-4.242-1.39s.052.236.617.2c.31-.014.396-.216.396-.216m-4.24-1.37s.053.235.618.197c.31-.013.396-.215.396-.215m-4.101-1.38s.052.235.617.198c.31-.013.396-.216.396-.216M177 54.103s.053.236.617.2c.31-.014.396-.216.396-.216m-4.263-1.371s.053.236.617.198c.31-.013.397-.215.397-.215m-4.243-1.39s.053.235.618.198c.31-.013.396-.215.396-.215m-4.24-1.37s.052.235.617.197c.31-.013.396-.215.396-.215m-4.18-1.378s.053.236.617.199c.31-.014.397-.216.397-.216m-4.242-1.39s.052.236.617.2c.31-.014.396-.217.396-.217m-4.263-1.37s.052.235.617.198c.31-.014.396-.216.396-.216m-4.243-1.39s.053.236.618.2c.31-.014.396-.217.396-.217m-4.24-1.37s.053.235.617.198c.31-.014.396-.216.396-.216m-4.1-1.38s.052.236.617.199c.31-.014.396-.216.396-.216m-4.242-1.39s.052.236.617.2c.31-.014.396-.217.396-.217m-4.263-1.37s.052.235.617.198c.31-.014.396-.216.396-.216m-4.242-1.39s.053.236.617.2c.31-.014.396-.217.396-.217m-4.24-1.37s.053.235.618.198c.31-.014.396-.216.396-.216m-4.101-1.38s.053.236.617.199c.31-.014.397-.216.397-.216m-4.243-1.39s.053.236.618.2c.31-.014.396-.217.396-.217m-4.264-1.37s.053.235.618.198c.31-.014.396-.216.396-.216m-4.243-1.39s.053.236.618.2c.31-.014.396-.217.396-.217m-4.241-1.37s.054.235.618.198c.31-.013.396-.216.396-.216m-4.1-1.38s.052.236.617.199c.31-.014.396-.216.396-.216m-4.242-1.39s.052.236.617.2c.31-.014.396-.217.396-.217m-4.263-1.37s.053.235.617.198c.31-.014.396-.216.396-.216m-4.242-1.39s.053.237.617.2c.31-.014.397-.217.397-.217m-4.24-1.37s.052.235.617.198c.31-.013.396-.216.396-.216" fill="none" stroke="#bdbdbd" stroke-width=".178" stroke-linecap="round" stroke-linejoin="round"/><path d="M216.19 55.903v5.59m-23.932 4.88v5.59" fill="none" stroke="#b3b2b2" stroke-width=".115"/><path d="m104.131 21.076 96.129 41.922 48.064-20.961L152.195.115Z" fill="#ececec"/><path d="m120.152 14.089 96.13 41.922M136.174 7.102l96.129 41.922M248.348 42.019l-48.065 20.96m-14.434-49.707-48.063 20.96" fill="#ececec" stroke="#cfcfcf" stroke-width=".115"/><path d="m112.15 31.438-48.064 20.96m64.086-13.973-48.064 20.96m64.085-13.973-48.064 20.96M160.215 52.4 112.15 73.36m64.086-13.973-48.064 20.96m64.086-13.973-48.065 20.96M48.065 45.412l96.128 41.921M64.086 38.425l96.129 41.922m-80.107-48.91 96.128 41.923M96.129 24.45l96.129 41.923" fill="#faa" stroke="#d58c8c" stroke-width=".115"/><g transform="matrix(1 0 0 .75535 41.656 -10.484)"><path d="m6.409 74 96.128 55.5 48.065-27.75-96.129-55.5z" fill="#e9afaf"/><path d="m62.415 50.802-48.064 27.75M54.473 46.25 6.409 74m72.028-13.948-48.065 27.75M70.494 55.5 22.43 83.25m72.028-13.948-48.064 27.75M86.516 64.75 38.452 92.5m72.028-13.948-48.065 27.75M102.537 74l-48.064 27.75m72.028-13.948-48.064 27.75m40.122-32.302L70.494 111m72.029-13.948-48.065 27.75M134.58 92.5l-48.064 27.75M14.314 69.504l96.129 55.5M22.43 64.75l96.129 55.5M30.335 60.254l96.13 55.5M38.452 55.5 134.58 111M46.357 51.004l96.129 55.5" fill="#faa" stroke="#d58c8c" stroke-width=".132"/><circle cx="-47.688" cy="103.497" r="5.129" fill="none" stroke="#fff" stroke-width="1.276" transform="matrix(.86728 -.49783 .85152 .52433 0 0)"/><circle cx="-29.378" cy="103.417" r="5.129" fill="none" stroke="#fff" stroke-width="1.276" transform="matrix(.86728 -.49783 .85152 .52433 0 0)"/><path fill="#fff" fill-rule="evenodd" d="M42.036 68.044c-3.642 2.117-3.427 1.51.814 6.479 3.365 3.991 2.983 3.537 3.323 3.746.294.181.728.174 1.027.03.509-.373.39-.144-3.736-5.098 15 .462 11.013 1.297 15.113-.867 5.14-3.032 5.895-3.088 5.194-3.575-.249-.153-.522-.184-11.901-2.94l-.56-.756 1.108-.69-.997-.586-4.378 2.514c.128.545.658.24 3.047-.619l.605.784-8.758 5.027c-1.392-1.57-1.601-1.315 1.049-2.837zm.734 4.236 8.55-4.908 4.051 5.428zm9.972-5.266 3.848 5.248 5.301-3.042z"/></g><path d="M36.61 71.525c-.244-.149-.39-.334-.426-.521l-.051-.291a2.521 1.904 0 0 0-.24-.604l-1.766-2.798c-.178-.281-.02-.578.396-.757l10.513-4.513c.42-.18 1.019-.207 1.532-.07l5.093 1.37a9.1 9.1 0 0 0 1.125.225l.555.074c.358.049.688.156.932.304l2.453 1.49c.52.315.472.774-.11 1.024l-15.56 6.678c-.58.25-1.475.195-1.994-.12zm.488-1.775 13.67-5.866-4.427-1.188a.775.585 0 0 0-.613.027l-10.005 4.295c-.168.071-.225.194-.16.303zm4.338 3.616 2.523-1.084 2.075 1.26c.313.19.284.465-.064.614l-1.261.541c-.348.15-.885.118-1.197-.071zm13.037-5.596 2.523-1.083 2.076 1.26c.312.19.284.464-.064.614l-1.262.54c-.348.15-.884.118-1.197-.071z" fill="#fff"/><path d="M144.193 92.923v-5.59L48.066 45.412v5.59z" fill="#999"/><path d="m48.065 45.412 96.128 41.921" fill="none" stroke="#7a7a7a" stroke-width=".317"/><path d="M232.239 48.941v5.59m-48.196 15.494v5.59m-7.807-2.255v5.59m-16.021 1.397v5.59m-8.201-1.985v5.59m15.944-12.584v5.59" fill="none" stroke="#b3b2b2" stroke-width=".115"/><path d="m104.096 21.014 96.13 41.922" fill="#ececec" stroke="#cfcfcf" stroke-width=".115"/><path d="m96.15 113.976 152.167-66.58.007-5.36-48.064 20.962-56.067 24.335v5.59" fill="none" stroke="#b3b2b2" stroke-width=".23"/><path d="M200.146 62.992v5.59" fill="none" stroke="#b3b2b2" stroke-width=".115"/><path d="m152.195.115 96.13 41.922" fill="#ececec" stroke="#cfcfcf" stroke-width=".23"/><path d="m168.217 7.102-48.065 20.96M152.195.116l-48.064 20.96M232.303 35.05l-48.065 20.96m32.043-27.947-48.064 20.96m32.043-27.947-48.065 20.96" fill="#ececec" stroke="#cfcfcf" stroke-width=".115"/><path d="M154.277 14.818c-.807-.476-2.099-.547-2.883-.157-.783.391-.762 1.095.045 1.572.81.475 2.1.546 2.884.156.784-.39.763-1.094-.046-1.571zm-15.465-1.624c.924.545.947 1.349.052 1.795-.896.446-2.372.367-3.296-.179-.924-.544-.946-1.348-.05-1.794.895-.446 2.37-.367 3.294.179zm5.29 6.65-.004-.312a.585.316 5.08 0 0-.177-.236l-3.137-1.851a.292.158 5.084 0 0-.412-.021c-.111.055-.109.155.006.223zm2.419 4.073a11.816 6.39 5.084 0 1-2.378-3.515 4.092 2.213 5.084 0 1-2.68-.791l-1.673-.987c-1.617-.954-1.658-2.36-.09-3.141a4.09 2.211 5.085 0 1 4.093-.325l5.023 1.13c.728.164 1.233.556 1.248.97l3.123.02a3.211 1.737 5.082 0 0 2.496-.754l.211-.202a1.171.633 5.083 0 1 1.122-.26l4.648.498c.79.084 1.385.494 1.335.921l-4.133-.398 3.745 1.548-.659.457 3.508 1.56c.33.147.408.4.177.564-.226.16-.665.178-.993.041l-3.628-1.514-.557.387 3.02 2.107a.73.394 5.088 0 1-1.088.456l-6.781-4.439-5.703-.223a1.463.791 5.083 0 1-1.232-.78l-5.36-1.206c-.092-.02-.19.003-.217.051a.176.095 5.116 0 0 .046.098l3.21 1.894a.774.585 0 0 0 .419.116l.725.036a11.81 6.387 5.084 0 1 7.13 1.641zm4.675-1.874 1.216-.606 5.646 3.33a.876.474 5.08 0 1 .02.673c-.335.167-.89.138-1.236-.068zm-1.622.808 1.216-.607 4.392 2.591c.347.204.355.506.02.673-.336.167-.89.138-1.236-.067" fill="#fff"/></svg>
