<svg xmlns="http://www.w3.org/2000/svg" width="953.381" height="676.815" viewBox="0 0 252.25 179.074"><g transform="matrix(1 0 0 .76965 -29.05 -32.93)"><path fill="#ececec" d="m136.975 155.138 96.129 55.5 48.064-27.75-96.13-55.5z"/><path fill="#ececec" stroke="#cfcfcf" stroke-width=".132" d="m152.996 145.888 96.13 55.5m-80.108-64.75 96.129 55.5m-80.108-64.75 96.13 55.5m0 0-48.066 27.75m32.044-37-48.065 27.75m32.043-37-48.064 27.75m32.043-37-48.065 27.75m32.043-37-48.063 27.75m32.042-37-48.065 27.75m32.043-37-48.064 27.75"/><path fill="#e9afaf" d="m88.91 190.288 96.129 55.5 48.063-27.75-96.13-55.5z"/><path fill="#fff" d="M187.12 146.853c-.806-.63-2.098-.724-2.882-.207-.783.517-.762 1.45.045 2.08.81.63 2.1.724 2.884.207.784-.517.763-1.448-.046-2.08zm-15.464-2.15c.924.722.947 1.786.052 2.377-.896.59-2.372.485-3.296-.237-.924-.72-.946-1.785-.05-2.376.895-.59 2.37-.485 3.294.237zm5.29 8.804-.004-.413a.587.417 9.651 0 0-.177-.313l-3.137-2.45a.293.208 9.651 0 0-.412-.028c-.111.073-.109.206.006.296zm2.419 5.392a11.866 8.423 9.651 0 1-2.378-4.653 4.109 2.917 9.651 0 1-2.68-1.048l-1.673-1.306c-1.617-1.263-1.658-3.125-.09-4.159a4.107 2.915 9.651 0 1 4.093-.43l5.023 1.496c.728.218 1.233.736 1.248 1.284l3.123.027a3.225 2.29 9.651 0 0 2.496-.998l.21-.267a1.176.835 9.651 0 1 1.123-.346l4.648.66c.79.111 1.385.654 1.335 1.22l-4.133-.527 3.745 2.05-.66.604 3.509 2.066c.33.194.408.528.177.746-.226.211-.665.236-.993.055l-3.628-2.005-.557.512 3.02 2.79a.733.52 9.651 0 1-1.088.604l-6.781-5.877-5.703-.295a1.469 1.043 9.651 0 1-1.232-1.032l-5.36-1.597c-.092-.026-.19.003-.217.067a.177.125 9.651 0 0 .046.13l3.21 2.507a.774.774 0 0 0 .419.153l.725.048a11.861 8.42 9.651 0 1 7.13 2.173zm4.675-2.48 1.216-.803 5.646 4.41a.88.625 9.651 0 1 .02.89c-.335.221-.89.182-1.236-.09zm-1.622 1.07 1.216-.804 4.392 3.43c.347.27.355.67.02.89-.336.222-.89.183-1.236-.088"/><circle cx="-107.551" cy="261.354" r="5.129" fill="none" stroke="#fff" stroke-width="1.276" transform="matrix(.86726 -.49785 .85152 .52432 0 0)"/><circle cx="-89.242" cy="261.274" r="5.129" fill="none" stroke="#fff" stroke-width="1.276" transform="matrix(.86726 -.49785 .85152 .52432 0 0)"/><path fill="#fff" fill-rule="evenodd" d="M124.539 180.614c-3.642 2.118-3.427 1.51.813 6.48 3.365 3.99 2.984 3.536 3.323 3.745.294.181.729.175 1.028.03.508-.373.39-.144-3.736-5.098 15 .462 11.013 1.297 15.112-.867 5.14-3.032 5.896-3.089 5.195-3.575-.249-.153-.523-.184-11.902-2.94l-.559-.756 1.107-.69-.996-.586-4.379 2.514c.129.545.659.241 3.048-.619l.604.784-8.757 5.027c-1.392-1.57-1.602-1.315 1.048-2.836zm.734 4.236 8.55-4.908 4.05 5.428zm9.972-5.266 3.848 5.248 5.3-3.043z"/><path fill="none" stroke="#b3b2b2" stroke-width=".132" d="M249.125 201.388v7.4m16.022-16.65v7.4"/><path fill="none" stroke="#7a7a7a" stroke-width=".265" d="m136.975 155.138 96.129 55.5"/><path fill="gray" d="m37.392 219.84 96.13 55.5 48.063-27.75-96.129-55.5z"/><path fill="#fff" d="M76.229 222.246c-.245-.197-.39-.442-.426-.69l-.052-.384a2.521 2.521 0 0 0-.24-.8l-1.765-3.703c-.178-.373-.02-.767.395-1.003l10.514-5.974c.42-.238 1.02-.275 1.533-.092l5.092 1.812c.36.128.738.228 1.126.297l.554.1c.359.064.689.206.932.4l2.454 1.974c.52.418.472 1.025-.111 1.356l-15.56 8.84c-.58.33-1.475.257-1.994-.16zm.487-2.35 13.67-7.765-4.427-1.574a.775.775 0 0 0-.612.037l-10.006 5.685c-.167.096-.225.257-.16.402zm4.339 4.786 2.523-1.432 2.075 1.667c.312.251.283.614-.064.812l-1.262.717c-.347.197-.884.155-1.197-.096zm13.037-7.406 2.523-1.434 2.075 1.668c.313.25.285.614-.064.812l-1.261.717c-.35.198-.885.156-1.197-.096z"/><path fill="#999" fill-opacity=".569" d="M184.757 245.85v-7.4l-96.129-55.5v7.4z"/><path fill="#ececec" d="m85.457 184.69 96.129 55.5 3.19-1.769-96.13-55.5z"/><path fill="#999" d="M181.586 247.59v-7.4l-96.13-55.5v7.4zm51.517-29.552v-7.4l-96.129-55.5v7.4z"/><path fill="none" stroke="#b3b2b2" stroke-width=".265" d="m133.522 275.34 147.646-85.052v-7.4l-48.064 27.75-.001 7.4"/></g><rect width="79.855" height="7.575" x=".47" y="46.07" fill="gray" stroke="#b3b2b2" stroke-width=".94" paint-order="stroke markers fill" ry="0"/><rect width="79.388" height="7.578" x="80.324" y="46.068" fill="#f8afaf" stroke="#b3b2b2" stroke-width=".938" paint-order="stroke markers fill" ry="0"/><rect width="79.855" height="7.575" x="167.756" y="38.495" fill="#ececec" stroke="#b3b2b2" stroke-width=".94" paint-order="stroke markers fill" ry="0"/><rect width="15.15" height="7.575" x="38.495" y="-84.113" fill="#b0b0b0" stroke="#b3b2b2" stroke-width=".94" paint-order="stroke markers fill" ry="0" transform="rotate(90)"/><rect width="15.15" height="7.575" x="38.494" y="-167.763" fill="#b0b0b0" stroke="#b3b2b2" stroke-width=".94" paint-order="stroke markers fill" ry="0" transform="rotate(90)"/><path fill="#595959" d="M216.434 16.457c0-1.298-1.12-2.352-2.5-2.352s-2.5 1.054-2.5 2.352c0 1.299 1.12 2.352 2.5 2.352s2.5-1.053 2.5-2.352zm-12.142-13.77c0 1.483-1.28 2.687-2.858 2.687-1.577 0-2.858-1.204-2.858-2.688 0-1.484 1.28-2.686 2.858-2.686s2.858 1.202 2.858 2.686zm-5.716 13.705.502-.463a.653.653 0 0 0 .213-.48v-5.038c0-.185-.16-.335-.357-.335-.197 0-.358.15-.358.335zm-4.285 7.79c.41-2.573 1.598-4.98 3.42-6.937a4.55 4.55 0 0 1-1.277-3.14V11.42c0-2.597 2.238-4.703 5-4.703 1.865 0 3.574.976 4.435 2.532l2.969 5.362a1.927 1.927 0 0 1-.38 2.349l2.95 2.327c1 .79 2.35 1.06 3.606.723l.528-.143a1.483 1.483 0 0 1 1.495.44l3.633 4.153c.618.705.522 1.747-.217 2.342l-3.304-3.626 1.07 5.038-1.369.19.824 4.884c.077.458-.257.888-.744.96-.474.07-.923-.225-1.015-.667l-1.013-4.905-1.158.161-.528 5.332c-.047.455-.471.791-.956.757-.484-.034-.85-.427-.824-.883l.712-11.54-5.085-4.522a1.604 1.604 0 0 1 .085-2.058l-3.166-5.72a.222.222 0 0 0-.289-.086.2.2 0 0 0-.116.179v5.155c0 .18.077.352.213.479l.634.587c2.231 2.064 3.689 4.755 4.153 7.666zm7.5.672h2.143v9.067c0 .557-.48 1.009-1.072 1.009-.59 0-1.07-.452-1.07-1.009zm-2.857 0h2.143v7.052c0 .557-.48 1.009-1.071 1.009-.592 0-1.072-.452-1.072-1.009M49.79 19.383c.747 0 1.424.443 1.722 1.13l2.972 6.828c.21.483.475.938.791 1.36l.45.6c.294.39.45.865.45 1.353v4.883c0 1.038-.84 1.88-1.877 1.88h-27.8a1.878 1.878 0 0 1-1.878-1.88v-4.883c0-.488.157-.963.45-1.353l.452-.6c.314-.422.58-.877.79-1.36l2.97-6.829a1.878 1.878 0 0 1 1.724-1.13zm-.454 1.878H31.46a.75.75 0 0 0-.689.453l-2.583 5.934h24.42l-2.583-5.934a.752.752 0 0 0-.69-.453zm4.962 16.907V42.3c0 .621-.505 1.125-1.127 1.125h-2.254a1.127 1.127 0 0 1-1.128-1.125v-4.133zm-23.292 0V42.3c0 .621-.505 1.125-1.127 1.125h-2.254a1.127 1.127 0 0 1-1.128-1.125v-4.133zm83.948-18.62a2.91 2.91 0 0 0-2.78 2.048l-2.112 6.821a7.273 7.273 0 1 0 1.39.433l.578-1.867 8.597 9.536c.276.307.669.482 1.081.483h3.056a7.27 7.27 0 0 0 9.38 5.456 7.27 7.27 0 0 0 4.66-9.165 7.27 7.27 0 0 0-9.167-4.662l-2.11-4.72.546-1.456h1.636v-1.453h-6.183a.362.362 0 0 0-.353.278.36.36 0 0 0 .268.437l3.078.738-.547 1.455H112.98l.585-1.884a1.454 1.454 0 0 1 1.39-1.024h2.39v-1.454Zm-2.424 5.817h12.898l-3.791 10.103zm14.27.485 1.507 3.368a7.275 7.275 0 0 0-3.69 6.33h-1.454zm-18.148 3.878c.328.002.654.031.977.089l-1.705 5.514a.727.727 0 0 0 1.387.43l1.708-5.514a5.817 5.817 0 1 1-4.803 10.598 5.819 5.819 0 0 1 2.436-11.117zm22.74.02a5.819 5.819 0 1 1-5.08 7.456c-.017-.067-.039-.134-.056-.201h5.998a.727.727 0 0 0 .664-1.025l-2.685-6.01a5.89 5.89 0 0 1 1.159-.22zm-2.489.805 2.227 4.995h-5.059a5.822 5.822 0 0 1 2.832-4.995z"/></svg>