<svg width="908.744" height="429.973" viewBox="0 0 240.439 113.763" xmlns="http://www.w3.org/2000/svg"><path style="fill:#999;fill-opacity:1;stroke:none;stroke-width:.233638;stroke-linecap:butt;stroke-linejoin:miter;stroke-miterlimit:4;stroke-dasharray:none;stroke-opacity:1" d="M192.258 67.64v-2.876l-96.13-43.14v2.875zm-48.065 24.447V89.21L48.064 46.07v2.876z"/><path style="fill:gray;stroke:none;stroke-width:.233638;stroke-linecap:butt;stroke-linejoin:miter;stroke-miterlimit:4;stroke-dasharray:none;stroke-opacity:1" d="m0 70.516 96.129 43.141 48.064-21.57-96.129-43.141Z"/><path style="fill:#ececec;stroke:none;stroke-width:.233638;stroke-linecap:butt;stroke-linejoin:miter;stroke-miterlimit:4;stroke-dasharray:none;stroke-opacity:1" d="m96.129 21.623 96.129 43.141 48.064-21.57L144.193.053Z"/><path style="fill:#ececec;stroke:#cfcfcf;stroke-width:.116378;stroke-linecap:butt;stroke-linejoin:miter;stroke-miterlimit:4;stroke-dasharray:none;stroke-opacity:1" d="m112.15 14.433 96.13 43.141m-80.108-50.33 96.129 43.14M144.193.053l96.13 43.14"/><path style="fill:#ececec;stroke:#cfcfcf;stroke-width:.116634px;stroke-linecap:butt;stroke-linejoin:miter;stroke-opacity:1" d="m240.323 43.194-48.066 21.57m32.044-28.76-48.065 21.57m32.043-28.76-48.064 21.57m32.043-28.76-48.065 21.57m32.043-28.76-48.063 21.57m32.042-28.76-48.065 21.57M144.193.053l-48.064 21.57"/><path style="fill:#e9afaf;stroke:none;stroke-width:.233638;stroke-linecap:butt;stroke-linejoin:miter;stroke-miterlimit:4;stroke-dasharray:none;stroke-opacity:1" d="m48.064 46.07 96.13 43.14 48.063-21.57-96.13-43.14Z"/><path style="fill:#faa;stroke:#d58c8c;stroke-width:.116634px;stroke-linecap:butt;stroke-linejoin:miter;stroke-opacity:1" d="m104.071 28.038-48.065 21.57M112.15 31.69 64.085 53.26M96.128 24.5 48.064 46.07m72.029-10.842-48.065 21.57m56.144-17.918L80.107 60.45m32.043-28.76L64.086 53.26m72.028-10.842-48.065 21.57m56.144-17.918L96.128 67.64m32.043-28.76L80.107 60.45m72.029-10.842-48.065 21.57m56.144-17.918L112.15 74.83m32.043-28.76L96.129 67.64m72.028-10.842-48.065 21.57m56.144-17.918-48.065 21.57m32.043-28.76L112.15 74.83m72.029-10.842-48.065 21.57m56.144-17.918-48.065 21.57m32.043-28.76-48.064 21.57M48.064 46.07l96.13 43.14M64.086 38.88l96.129 43.14M55.97 42.576l96.129 43.14M64.085 38.88l96.13 43.14M80.107 31.69l96.129 43.14M71.991 35.385l96.129 43.14M80.107 31.69l96.13 43.14M96.129 24.5l96.129 43.14M88.013 28.195l96.129 43.14"/><path style="fill:#fff;fill-opacity:1;fill-rule:nonzero;stroke:none;stroke-width:.0641518" d="M146.275 15.183c-.807-.49-2.099-.562-2.883-.16-.783.401-.762 1.126.045 1.616.81.49 2.1.563 2.884.161.784-.402.763-1.125-.046-1.617zm-15.465-1.67c.924.56.947 1.387.052 1.847-.896.458-2.372.377-3.296-.184-.924-.56-.946-1.388-.05-1.847.895-.459 2.37-.377 3.294.184zm5.29 6.843-.004-.321a.585.325 5.356 0 0-.177-.244l-3.137-1.904a.292.162 5.36 0 0-.412-.022c-.111.057-.109.16.006.23zm2.419 4.19a11.819 6.574 5.361 0 1-2.378-3.616 4.093 2.276 5.36 0 1-2.68-.815l-1.673-1.015c-1.617-.982-1.658-2.429-.09-3.233a4.09 2.275 5.362 0 1 4.093-.334l5.023 1.163c.728.17 1.233.572 1.248.998l3.123.021a3.212 1.787 5.36 0 0 2.496-.776l.211-.207a1.171.652 5.36 0 1 1.122-.27l4.648.514c.79.086 1.385.508 1.335.948l-4.133-.41 3.745 1.593-.659.47 3.508 1.606c.33.151.408.41.177.58-.226.164-.665.184-.993.043l-3.628-1.558-.557.398 3.02 2.168a.73.406 5.365 0 1-1.088.47l-6.781-4.569-5.703-.229a1.463.814 5.36 0 1-1.232-.802l-5.36-1.241c-.092-.02-.19.002-.217.052a.176.098 5.393 0 0 .046.1l3.21 1.95a.774.602 0 0 0 .419.118l.725.038a11.814 6.571 5.36 0 1 7.13 1.689zm4.675-1.928 1.216-.623 5.646 3.427a.876.488 5.358 0 1 .02.693c-.335.171-.89.141-1.236-.07zm-1.622.832 1.216-.624 4.392 2.666c.347.21.355.52.02.692-.336.172-.89.142-1.236-.069"/><ellipse cx="-8.107" cy="106.241" fill="none" stroke="#fff" stroke-width="1.28" transform="matrix(.91321 -.40749 .902 .43172 0 0)" rx="4.871" ry="4.842"/><ellipse cx="9.282" cy="106.166" fill="none" stroke="#fff" stroke-width="1.28" transform="matrix(.91321 -.40749 .902 .43172 0 0)" rx="4.871" ry="4.842"/><path fill="#fff" fill-rule="evenodd" d="M83.693 41.426c-3.642 1.646-3.427 1.174.813 5.036 3.365 3.103 2.984 2.75 3.323 2.912.294.14.729.135 1.028.024.508-.29.39-.112-3.736-3.963 15 .359 11.013 1.008 15.112-.675 5.14-2.357 5.896-2.4 5.195-2.778-.249-.119-.523-.144-11.902-2.286l-.559-.588 1.107-.536-.996-.455-4.379 1.954c.129.424.659.187 3.048-.482l.604.61-8.757 3.908c-1.392-1.22-1.602-1.022 1.048-2.205zm.734 3.293 8.55-3.815 4.05 4.22zm9.972-4.094 3.848 4.08 5.3-2.365z" style="stroke-width:.219615"/><path d="M37.367 72.589c-.245-.154-.39-.344-.426-.537l-.052-.299a2.521 1.96 0 0 0-.239-.622l-1.766-2.878c-.178-.29-.02-.596.395-.78l10.514-4.644c.42-.185 1.02-.213 1.533-.071l5.092 1.408c.36.1.738.178 1.126.231l.554.078c.359.05.689.16.932.312l2.454 1.533c.52.325.472.797-.111 1.054l-15.56 6.872c-.58.256-1.475.2-1.994-.125zm.487-1.827 13.67-6.037-4.427-1.223a.775.602 0 0 0-.612.029L36.479 67.95c-.167.074-.225.2-.159.312zm4.339 3.72 2.523-1.114 2.075 1.297c.312.195.283.477-.064.631l-1.262.557c-.347.153-.884.12-1.197-.074zm13.037-5.757 2.523-1.115 2.075 1.296c.313.196.285.478-.064.632l-1.261.557c-.349.154-.885.121-1.197-.075z" style="fill:#fff;stroke-width:.111229"/><path style="fill:none;fill-opacity:1;stroke:#b3b2b2;stroke-width:.233638;stroke-linecap:butt;stroke-linejoin:miter;stroke-miterlimit:4;stroke-dasharray:none;stroke-opacity:1" d="m96.129 113.657 144.193-64.711v-5.752l-48.064 21.57v2.876l-48.065 21.57v2.877"/><path style="fill:none;stroke:#b3b2b2;stroke-width:.116378;stroke-linecap:butt;stroke-linejoin:miter;stroke-miterlimit:4;stroke-dasharray:none;stroke-opacity:1" d="M160.215 82.02v2.877m-8.259.747v2.876m24.28-13.69v2.876m-8.176.773v2.876"/><path style="fill:none;stroke:#b3b2b2;stroke-width:.233638;stroke-linecap:butt;stroke-linejoin:miter;stroke-miterlimit:4;stroke-dasharray:none;stroke-opacity:1" d="M192.258 67.64v2.876"/><path style="fill:none;stroke:#b3b2b2;stroke-width:.116402;stroke-linecap:butt;stroke-linejoin:miter;stroke-miterlimit:4;stroke-dasharray:none;stroke-opacity:1" d="M184.069 71.315v2.876"/><path style="fill:none;stroke:#b3b2b2;stroke-width:.116378;stroke-linecap:butt;stroke-linejoin:miter;stroke-miterlimit:4;stroke-dasharray:none;stroke-opacity:1" d="M208.279 57.574v5.752m16.022-12.942v5.752"/><path style="fill:none;stroke:#7a7a7a;stroke-width:.233271px;stroke-linecap:butt;stroke-linejoin:miter;stroke-opacity:1" d="m96.129 21.623 96.129 43.141M48.064 46.07l96.13 43.14"/></svg>
