<svg xmlns="http://www.w3.org/2000/svg" width="285" height="318"><path d="M.396-1.187v284.666c0 19.319 14.837 34.873 33.265 34.873h217.406c18.428 0 33.265-15.554 33.265-34.873V-1.187H33.661z" fill="#009f33"/><path d="M106.09 57.953a195.755 204.974 10.588 00-16.914.73 195.755 204.974 10.588 00-28.947 4.84A195.755 204.974 10.588 00.396 89.678v76.894a138.36 144.876 10.588 0192.68-48.093 138.36 144.876 10.588 01127.33 66.118 138.36 144.876 10.588 019.057 133.755h21.603c18.429 0 33.266-15.554 33.266-34.873V182.953a195.755 204.974 10.588 00-15.01-30.723A195.755 204.974 10.588 00106.09 57.953z" fill="#0d5229"/><path d="M85.744 217.79V59.232L59.178 79.087V50.843l26.566-19.576h26.566V217.79zm98.435 0V59.232l-26.567 19.855V50.843l26.567-19.576h26.566V217.79z" stroke-width="1.748" fill="#fff"/><path d="M40.031 290.776H23.404v-5.152l10.363-20.14q.702-1.405.702-2.869v-2.927q0-1.17-.82-1.99-.819-.82-1.99-.82-1.054 0-1.932.761-.82.703-.82 1.815v3.454h-5.62v-2.81q0-2.283 1.698-5.503 1.756-3.22 6.967-3.22 3.279 0 5.679 2.517 2.4 2.518 2.4 5.796v3.571q0 1.23-.35 2.4-.294 1.172-.938 2.401l-8.782 17.154h10.07zm4.567 0v-5.562h5.562v5.562zm32.054-4.098q-1.288 2.108-3.395 3.279-2.108 1.17-4.626 1.17-2.224 0-4.274-1.053-2.049-1.054-3.22-2.576-1.112-1.581-1.522-3.103-.351-1.581-.351-3.572V261.27q0-1.58.293-2.869.35-1.346 2.166-4.157 1.815-2.868 7.084-2.868 2.342 0 4.391 1.112 2.05 1.112 3.103 2.752 1.054 1.58 1.347 2.985.35 1.406.35 3.045v1.64h-5.503v-1.64q0-.995-.117-1.522-.058-.586-.878-1.698-.761-1.113-2.752-1.113-2.283 0-3.044 1.23-.703 1.17-.82 1.756-.117.586-.117 1.347v19.554q0 1.113.059 1.698.117.527.878 1.757.82 1.23 2.986 1.23 2.342 0 2.927-1.23.644-1.23.761-1.815.117-.586.117-1.64v-6.85h-4.508v-4.859H78v11.71q0 2.458-.293 3.57-.293 1.055-1.054 2.284zm19.203-24.121v5.737q-.41-.117-.82-.175-.409-.059-.76-.059-2.752 0-4.216 1.874-1.463 1.873-1.463 4.508v16.334h-5.62v-27.868h5.62v2.986q1.463-1.815 3.571-2.576 2.166-.761 3.688-.761zm14.695 28.219v-2.81q-.995 1.522-2.224 2.342-1.171.82-2.869.82-1.698 0-3.22-.937-1.464-.937-2.05-2.108-.585-1.23-.702-1.99-.058-.761-.058-2.225v-20.96h5.62v20.199q.059.644.644 1.522.644.878 2.166.878.762 0 1.406-.41.644-.41.878-.936.293-.586.351-1.23.059-.644.059-1.17v-18.853h5.62v27.868zm.118-33.078v-6.5h4.86v6.5zm-10.539 0v-6.5h4.86v6.5zm36.826 7.728q.468.702.644 1.698.176.995.176 1.99v21.662h-5.62v-19.613q0-3.103-2.752-3.103-1.23 0-1.991.937-.761.937-.761 2.166v19.613h-5.62v-27.868h5.62v2.693q1.873-3.044 5.21-3.044 3.396 0 5.094 2.869zm13.583 20.023q1.23 0 1.99-.761.761-.762.937-1.991h5.562v.644q0 1.288-.585 2.576-.527 1.288-2.284 3.279-1.756 1.932-5.503 1.932-2.4 0-4.45-1.288-1.99-1.288-2.751-2.81-.761-1.581-.996-2.81-.175-1.289-.175-2.518v-10.597q0-3.455 2.459-5.972 2.517-2.576 5.971-2.576 3.572 0 5.914 2.517 2.4 2.46 2.4 6.03v7.729h-11.124v4.157q0 .878.82 1.698.878.76 1.815.76zm.117-17.389q-1.113 0-1.932.761-.82.761-.82 2.694v2.751h5.504v-2.751q0-1.523-.644-2.46-.644-.995-2.108-.995zm25.643-5.503v5.737q-.41-.117-.82-.175-.41-.059-.76-.059-2.752 0-4.216 1.874-1.464 1.873-1.464 4.508v16.334h-5.62v-27.868h5.62v2.986q1.464-1.815 3.572-2.576 2.166-.761 3.688-.761zm11.358 28.219v-39.05h9.777q3.865 0 6.5 2.693 2.634 2.693 2.634 6.557v3.63q0 5.386-4.567 8.255l5.913 17.915H202l-5.27-16.744h-3.512v16.744zm12.412-22.891q.527-.644.703-1.464.234-.82.234-1.815v-3.63q0-1.815-.996-2.927-.995-1.113-2.81-1.113h-3.98v12.178h3.922q1.756 0 2.927-1.23zm11.182 22.891v-27.868h5.62v27.868zm0-33.547v-5.503h5.62v5.503zm26.405 8.197q.468.702.644 1.698.175.995.175 1.99v21.662h-5.62v-19.613q0-3.103-2.752-3.103-1.23 0-1.99.937-.761.937-.761 2.166v19.613h-5.62v-27.868h5.62v2.693q1.873-3.044 5.21-3.044 3.396 0 5.094 2.869zm20.842 33.02q-1.17 1.756-2.986 2.752-1.814 1.054-3.864 1.054-3.571 0-6.147-2.46-2.518-2.4-2.518-6.03h5.621q0 1.171.761 1.99.761.82 1.99.82 1.757 0 2.577-1.58.234-.586.234-1.874v-5.21q-.82 1.405-2.225 2.341-1.405.879-2.986.879-1.698 0-3.161-.879-1.405-.936-2.05-2.107-.585-1.171-.702-1.874-.058-.702-.058-2.166v-15.456q0-1.054.234-1.932.292-.878 1.463-2.518 1.23-1.698 4.216-1.698 1.58 0 2.927.82 1.347.761 2.342 2.166v-2.576h5.62v30.21q0 1.64-.292 2.869-.235 1.288-.996 2.459zm-4.859-29.332q-.878-1.17-2.283-1.17-1.64 0-2.167.994-.468.937-.527 1.464-.058.469-.058.995v10.597q0 .82.058 1.347.118.468.703 1.288.586.82 2.108.82 1.815 0 2.225-.996.41-1.054.41-1.58 0-.527.058-.879v-10.597q0-.82-.117-1.288-.059-.468-.41-.995z" stroke-width="2.741" fill="#fff"/></svg>
