<svg xmlns="http://www.w3.org/2000/svg" xmlns:xlink="http://www.w3.org/1999/xlink" width="19.142" height="19.142" viewBox="0 0 5.065 5.065"><defs><linearGradient id="a"><stop offset="0" stop-color="#1c1c7d"/><stop offset="1" stop-color="#4979f2"/></linearGradient><linearGradient id="b" x1="70.328" x2="124.948" y1="82.483" y2="82.483" gradientTransform="matrix(.064 0 0 .05116 -41.863 -48.073)" gradientUnits="userSpaceOnUse" xlink:href="#a"/></defs><g transform="translate(-33.867 -41.77)"><path fill="url(#b)" d="M-38.931-45.936h5.065v4.166h-5.065z" transform="scale(-1)"/><circle cx="36.395" cy="43.862" r="1.991" fill="#d14a1f"/><path fill="#f9f9f9" d="M33.867 45.936h5.065v.899h-5.065z"/><path fill="#0d3aac" d="M33.994 46.143h.136l.14.388.14-.388h.136l-.195.526h-.162Zm.621 0h.367v.102h-.23v.098h.216v.103h-.217v.12h.239v.103h-.375zm.494 0h.136v.424h.238v.102h-.374zm.675.089q-.062 0-.096.045-.034.046-.034.13 0 .083.034.128.034.046.096.046.063 0 .097-.046.034-.045.034-.128 0-.084-.034-.13-.034-.045-.097-.045zm0-.099q.127 0 .2.073.071.073.071.2 0 .128-.072.201-.072.073-.199.073-.126 0-.199-.073-.072-.073-.072-.2 0-.128.072-.201.073-.073.2-.073zm.566.243q.043 0 .062-.016.018-.015.018-.052 0-.036-.018-.051-.019-.016-.061-.016h-.057v.135zm-.056.094v.2h-.136v-.527h.207q.104 0 .153.035.048.035.048.11 0 .052-.025.086-.025.033-.076.05.028.006.05.028.022.022.045.068l.073.15h-.144l-.065-.131q-.019-.04-.04-.054-.019-.015-.052-.015zm.661-.238q-.062 0-.097.045-.034.046-.034.13 0 .083.034.128.035.046.097.046t.096-.046q.035-.045.035-.128 0-.084-.035-.13-.034-.045-.096-.045zm0-.099q.127 0 .199.073.072.073.072.2 0 .128-.072.201-.072.073-.2.073-.126 0-.198-.073-.072-.073-.072-.2 0-.128.072-.201.072-.073.199-.073zm.373.01h.136v.315q0 .066.021.094.022.028.07.028.049 0 .07-.028.021-.028.021-.094v-.315h.136v.315q0 .112-.056.167-.056.055-.17.055-.116 0-.172-.055-.056-.055-.056-.167zm.524 0h.485v.102h-.174v.424h-.136v-.424h-.175zm.556 0h.366v.102h-.23v.098h.216v.103h-.216v.12h.238v.103h-.374z"/><path fill="#fff" stroke="#000" stroke-linecap="round" stroke-linejoin="round" stroke-width=".1" d="M35.587 45.472q-.176 0-.262-.081-.081-.086-.081-.248 0-.105.052-.195.053-.09.143-.186l.895-.943q.2-.214.286-.38.09-.168.09-.334 0-.21-.137-.32-.134-.109-.39-.109-.139 0-.287.043-.143.038-.3.129-.104.057-.195.042-.086-.019-.148-.08-.061-.067-.08-.158-.02-.09.019-.18.038-.091.142-.153.21-.129.458-.19.247-.067.49-.067.376 0 .634.114.257.11.39.324.133.214.133.524 0 .2-.062.39-.061.19-.195.386-.128.19-.343.41l-.833.847v-.19h1.29q.153 0 .23.076.08.076.08.224 0 .147-.08.228-.077.077-.23.077z" paint-order="markers stroke fill"/></g></svg>