<svg width="19.142" height="19.142" viewBox="0 0 5.065 5.065" xmlns:xlink="http://www.w3.org/1999/xlink" xmlns="http://www.w3.org/2000/svg"><defs><linearGradient id="a"><stop offset="0" stop-color="#1c1c7d"/><stop offset="1" stop-color="#4979f2"/></linearGradient><linearGradient xlink:href="#a" id="b" x1="70.328" y1="82.483" x2="124.948" y2="82.483" gradientUnits="userSpaceOnUse" gradientTransform="matrix(.064 0 0 .05116 -41.863 -48.073)"/></defs><g transform="translate(-33.867 -41.77)"><path transform="scale(-1)" fill="url(#b)" d="M-38.931-45.936h5.065v4.166h-5.065z"/><circle cx="36.395" cy="43.862" r="1.991" fill="#d14a1f"/><path fill="#f9f9f9" d="M33.867 45.936h5.065v.899h-5.065z"/><path d="M33.994 46.143h.136l.14.388.14-.388h.136l-.195.526h-.162Zm.621 0h.367v.102h-.23v.098h.216v.103h-.217v.12h.239v.103h-.375zm.494 0h.136v.424h.238v.102h-.374zm.675.089q-.062 0-.096.045-.034.046-.034.13 0 .083.034.128.034.046.096.046.063 0 .097-.046.034-.045.034-.128 0-.084-.034-.13-.034-.045-.097-.045zm0-.099q.127 0 .2.073.071.073.071.2 0 .128-.072.201-.072.073-.199.073-.126 0-.199-.073-.072-.073-.072-.2 0-.128.072-.201.073-.073.2-.073zm.566.243q.043 0 .062-.016.018-.015.018-.052 0-.036-.018-.051-.019-.016-.061-.016h-.057v.135zm-.056.094v.2h-.136v-.527h.207q.104 0 .153.035.048.035.048.11 0 .052-.025.086-.025.033-.076.05.028.006.05.028.022.022.045.068l.073.15h-.144l-.065-.131q-.019-.04-.04-.054-.019-.015-.052-.015zm.661-.238q-.062 0-.097.045-.034.046-.034.13 0 .083.034.128.035.046.097.046t.096-.046q.035-.045.035-.128 0-.084-.035-.13-.034-.045-.096-.045zm0-.099q.127 0 .199.073.072.073.072.2 0 .128-.072.201-.072.073-.2.073-.126 0-.198-.073-.072-.073-.072-.2 0-.128.072-.201.072-.073.199-.073zm.373.01h.136v.315q0 .066.021.094.022.028.07.028.049 0 .07-.028.021-.028.021-.094v-.315h.136v.315q0 .112-.056.167-.056.055-.17.055-.116 0-.172-.055-.056-.055-.056-.167zm.524 0h.485v.102h-.174v.424h-.136v-.424h-.175zm.556 0h.366v.102h-.23v.098h.216v.103h-.216v.12h.238v.103h-.374z" fill="#0d3aac"/><path d="M36.394 45.57q-.252 0-.514-.056-.257-.062-.448-.172-.124-.066-.171-.157-.043-.095-.034-.186.015-.09.077-.157.062-.071.157-.09.1-.02.219.038.186.09.352.128.167.038.334.038.19 0 .319-.047.128-.053.195-.148t.067-.238q0-.2-.138-.3-.139-.1-.405-.1h-.281q-.157 0-.243-.076-.081-.081-.081-.22 0-.142.08-.218.087-.081.244-.081h.21q.161 0 .27-.048.115-.052.177-.143.067-.09.067-.224 0-.19-.134-.29-.128-.1-.376-.1-.152 0-.3.038-.148.033-.319.124-.105.052-.195.033-.09-.019-.153-.086-.057-.066-.076-.152-.014-.09.024-.181.043-.09.152-.148.205-.119.443-.18.243-.063.49-.063.363 0 .62.11t.395.314q.138.2.138.486 0 .195-.076.357-.076.162-.214.277-.134.11-.329.157v-.062q.338.057.529.28.19.225.19.563 0 .3-.152.524-.152.219-.438.338-.281.119-.672.119z" fill="#fff" stroke="#000" stroke-width=".1" stroke-linecap="round" stroke-linejoin="round" paint-order="markers stroke fill"/></g></svg>
