<svg xmlns="http://www.w3.org/2000/svg" viewBox="0 0 437 431"><defs><clipPath id="a" clipPathUnits="userSpaceOnUse"><path fill="#ff0" stroke-width="8.4" d="M250 93h171v300H250Zm99 112 8-11c27-37 64-91 64-121a70 70 0 0 0-79-73c-38 2-68 34-66 73 0 36 54 109 67 126z"/></clipPath></defs><path fill="none" stroke="#000" stroke-width="35" d="m33 154 100-35c8-3 16-6 16 3l-1 212c0 9-7 18-15 21L33 390c-8 3-15-2-15-10V175c0-9 7-18 15-21z"/><path fill="none" stroke="#000" stroke-width="35" d="m289 138 99-27c8-3 15 3 15 12v204c0 9-7 18-15 20l-99 27c-19 4-29 1-15-11V158c0-9 7-18 15-20z" clip-path="url(#a)" transform="translate(6 38)"/><path fill="none" stroke="#000" stroke-width="35" d="m264 173-102-54c-14-6-35-4-14 7v206c0 9 7 19 15 24l101 54c19 9 20-2 13-12l1-201c0-9-6-19-14-24z"/><path stroke="#040404" stroke-width="21.3" d="m347 236-6-8c-14-18-74-99-74-138a77 77 0 0 1 73-79h7a77 77 0 0 1 79 72v7c0 34-40 92-70 134zm0-211a61 61 0 0 0-65 65c0 28 41 91 64 122 20-27 66-90 66-122a61 61 0 0 0-65-65Z"/><ellipse cx="346.9" cy="90.7" fill="none" stroke="#040404" stroke-width="24.1" rx="25.3" ry="25.9"/></svg>