<svg xmlns="http://www.w3.org/2000/svg" xmlns:xlink="http://www.w3.org/1999/xlink" width="88" height="23" fill-rule="evenodd"><defs><path id="a" d="M11.5 2.25a9.25 9.25 0 1 1 0 18.5 9.25 9.25 0 0 1 0-18.5zM7 15.98c-.05-.33-.83-5.8 2.23-8.87a4.4 4.4 0 0 1 3.13-1.28c1.27 0 2.49.51 3.39 1.42.91.9 1.42 2.12 1.42 3.39a4.4 4.4 0 0 1-1.28 3.13C12.72 16.93 7 16 7 16v-.02zm8.3-5.48-2 .8-.8 2-.8-2-2-.8 2-.8.8-2 .8 2 2 .8z"/><path id="b" d="M50.63 8c.13 0 .23.1.23.23V9c.7-.76 1.7-1.18 2.73-1.18 2.17 0 3.95 1.85 3.95 4.17s-1.77 4.19-3.94 4.19A3.77 3.77 0 0 1 50.86 15v3.77c0 .13-.1.23-.23.23h-1.4a.23.23 0 0 1-.23-.23V8.23c0-.12.1-.23.23-.23h1.4zm-3.86.01.01-.01c.13 0 .22.1.22.22v7.55c0 .12-.1.23-.23.23h-1.4a.23.23 0 0 1-.23-.23V15a3.7 3.7 0 0 1-2.73 1.19c-2.17 0-3.94-1.87-3.94-4.19 0-2.32 1.77-4.19 3.94-4.19 1.03 0 2.02.43 2.73 1.18v-.75c0-.12.1-.23.23-.23h1.4zm26.38-.19a4.24 4.24 0 0 0-4.16 3.29 4.07 4.07 0 0 0 0 1.77 4.23 4.23 0 0 0 4.17 3.3 4.22 4.22 0 0 0 4.26-4.19 4.2 4.2 0 0 0-4.27-4.17zM60.63 5c.13 0 .23.1.23.23v3.76c.7-.76 1.7-1.18 2.73-1.18a4 4 0 0 1 3.84 3.28c.13.59.13 1.2 0 1.8a4 4 0 0 1-3.84 3.29A3.77 3.77 0 0 1 60.86 15v.77c0 .12-.1.23-.23.23h-1.4a.23.23 0 0 1-.23-.23V5.23c0-.12.1-.23.23-.23h1.4zm-34 11h-1.4a.23.23 0 0 1-.23-.23V8.22c.01-.13.1-.22.23-.22h1.4c.13 0 .22.11.23.22v.68c.5-.68 1.3-1.09 2.16-1.1h.03c1.09 0 2.09.6 2.6 1.55a2.73 2.73 0 0 1 2.44-1.56c1.62 0 2.93 1.25 2.9 2.78l.03 5.2c0 .13-.1.23-.23.23h-1.41a.23.23 0 0 1-.23-.23v-4.59c0-.98-.74-1.71-1.62-1.71-.8 0-1.46.7-1.59 1.62l.01 4.68c0 .13-.11.23-.23.23h-1.41a.23.23 0 0 1-.23-.23v-4.59c0-.98-.74-1.71-1.62-1.71-.85 0-1.54.79-1.6 1.8v4.5c0 .13-.1.23-.23.23zm53.62 0h-1.61a.27.27 0 0 1-.12-.03c-.1-.06-.13-.19-.06-.28l2.43-3.71-2.4-3.65a.21.21 0 0 1-.02-.12.2.2 0 0 1 .2-.21h1.61c.13 0 .24.06.3.17L82 10.54l1.4-2.37a.34.34 0 0 1 .3-.17h1.6l.12.03c.1.06.13.19.06.28l-2.37 3.65 2.43 3.7.01.13a.2.2 0 0 1-.2.21h-1.61a.33.33 0 0 1-.3-.17L82 13.41l-1.44 2.42a.34.34 0 0 1-.3.17zm-7.12-1.49A2.47 2.47 0 0 1 70.7 12a2.47 2.47 0 0 1 2.42-2.52 2.47 2.47 0 0 1 2.42 2.51 2.48 2.48 0 0 1-2.42 2.52zm-19.87 0a2.48 2.48 0 0 1-2.42-2.48v-.07a2.47 2.47 0 0 1 2.4-2.49 2.47 2.47 0 0 1 2.41 2.51 2.47 2.47 0 0 1-2.39 2.53zm-8.11-2.48c-.01 1.37-1.09 2.47-2.41 2.47s-2.42-1.12-2.42-2.51a2.47 2.47 0 0 1 2.4-2.52 2.46 2.46 0 0 1 2.41 2.48l.02.08zm18.12 2.47a2.47 2.47 0 0 1-2.41-2.48v-.06c.02-1.38 1.09-2.48 2.41-2.48s2.42 1.12 2.42 2.51a2.47 2.47 0 0 1-2.42 2.51z"/></defs><mask id="c"><rect width="100%" height="100%" fill="#fff"/><use xlink:href="#a"/><use xlink:href="#b"/></mask><g stroke="#000" stroke-width="3" opacity=".3"><circle cx="11.5" cy="11.5" r="9.25" mask="url(#c)"/><use mask="url(#c)" xlink:href="#b"/></g><g fill="#fff" opacity=".9"><use xlink:href="#a"/><use xlink:href="#b"/></g></svg>