<svg width="1916.791" height="1859.969" xmlns="http://www.w3.org/2000/svg"><rect width="1073.18" height="1959.742" x="431.464" y="-31.467" ry="2.101" fill="#a5a8a7"/><g transform="translate(-395.512 -130.38)"><path d="M1531.955 990.245a7.587 7.003 0 0 0-15.16 0v29.966a19.257 17.777 0 0 0-4.48-.513h-30.4a18.504 17.081 0 0 0-7.48 1.44v-30.893a7.587 7.003 0 0 0-15.16 0v39.727a7.56 6.979 0 0 0 3.964 6.1v.854a18.702 17.265 0 0 0 18.716 17.265h30.4a18.702 17.265 0 0 0 18.714-17.265 19.39 17.899 0 0 0-.317-3.16 7.56 6.979 0 0 0 1.243-3.843z" fill="none" stroke="#432918" stroke-width="1.27" stroke-miterlimit="10"/><path d="M1483.871 990.83a9.252 8.54 0 0 0-9.252 8.468v13.946a9.186 8.48 0 0 0 18.359 0v-13.946a9.173 8.468 0 0 0-9.107-8.467zm24.835 10.786h-2.3a8.062 7.443 0 0 0-8.062 7.443v4.758a8.062 7.443 0 0 0 8.062 7.43h2.3a8.05 7.43 0 0 0 8.05-7.43v-4.758a8.062 7.443 0 0 0-8.05-7.443z" fill="none" stroke="#432918" stroke-width="1.27" stroke-miterlimit="10"/><rect x="-1103.279" y="1492.793" width="180" height="8.525" rx="3.172" transform="rotate(-90)" fill="#060709"/><path d="M1531.955 990.245a7.587 7.003 0 0 0-15.16 0v29.966a19.257 17.777 0 0 0-4.48-.513h-30.4a18.504 17.081 0 0 0-7.48 1.44v-30.893a7.587 7.003 0 0 0-15.16 0v39.727a7.56 6.979 0 0 0 3.964 6.1v.854a18.702 17.265 0 0 0 18.716 17.265h30.4a18.702 17.265 0 0 0 18.714-17.265 19.39 17.899 0 0 0-.317-3.16 7.56 6.979 0 0 0 1.243-3.843z" fill="#fdd535"/><path d="M1483.871 990.83a9.252 8.54 0 0 0-9.252 8.468v13.946a9.186 8.48 0 0 0 18.359 0v-13.946a9.173 8.468 0 0 0-9.107-8.467zm24.835 10.786h-2.3a8.062 7.443 0 0 0-8.062 7.443v4.758a8.062 7.443 0 0 0 8.062 7.43h2.3a8.05 7.43 0 0 0 8.05-7.43v-4.758a8.062 7.443 0 0 0-8.05-7.443z" fill="#1e8dc7"/><rect x="-1048.261" y="1484.744" width="19.68" height="21.319" rx="9.834" transform="rotate(-90)" fill="#b04f1a"/><path d="m1490.202 961.316-25.496 17.204a3.635 3.355 0 0 0 4.283 5.417l25.43-17.216a3.627 3.348 0 1 0-4.283-5.405zm37.47 19.68-23.275-17.935a3.621 3.343 0 1 0-4.639 5.124l23.196 17.924a3.622 3.343 0 0 0 4.653-5.125z" fill="#060709"/></g><g transform="matrix(1.1323 0 0 1 358.768 -141.08)"><rect x="-409.238" y="-1313.003" width="155.886" height="441.752" rx="28.048" transform="rotate(-179.816)" fill="#216778"/><path d="M277.195 1309.76a25.026 34.146.184 0 1-24.916-34.226l1.173-365.211a25.026 34.146.184 0 1 25.135-34.066l99.802.32a25.014 34.13.184 0 1 24.905 34.227l-1.173 365.212a25.014 34.13.184 0 1-25.124 34.065l-99.801-.32m-.026 8.248 99.801.32a31.095 42.427.184 0 0 31.196-42.294l1.173-365.21a31.095 42.427.184 0 0-30.924-42.493l-99.8-.32a31.107 42.443.184 0 0-31.207 42.292l-1.173 365.211a31.107 42.443.184 0 0 30.934 42.494z" fill="#8a8989"/><path d="m286.106 974.749-6.223-31.142c-1.059-5.354 3.031-10.45 8.326-10.434l79.418.255c5.283.017 9.353 5.17 8.26 10.487l-6.423 31.102c-.822 3.987-4.12 6.784-7.988 6.772l-67.377-.216c-3.88-.013-7.148-2.832-7.993-6.824zM393.607 1087.798l-.15 46.9a6.045 8.76.184 0 1-6.072 8.74l-3.627-.012a2.418 3.504.184 0 1-2.407-3.512l.184-57.41a2.418 3.504.184 0 1 2.43-3.497l3.627.012a6.045 8.76.184 0 1 6.016 8.78zM260.129 1202.96l-.018 5.45a6.045 6.81.184 0 1-6.066 6.79l-7.63-.024a6.045 6.81.184 0 1-6.021-6.83 6.045 6.81.184 0 1 6.065-6.79l12.465.04a1.209 1.362.184 0 1 1.206 1.365zm155.263 5.988a6.045 6.81.184 0 1-6.066 6.792l-7.63-.024a6.045 6.81.184 0 1-6.022-6.83l.017-5.449a1.209 1.362.184 0 1 1.214-1.358l12.464.04a6.045 6.81.184 0 1 6.023 6.83zM393.822 1002.216l-.15 46.9a6.045 8.76.184 0 1-6.072 8.74l-3.627-.013a2.418 3.504.184 0 1-2.407-3.51l.184-57.412a2.418 3.504.184 0 1 2.43-3.495l3.626.011a6.045 8.76.184 0 1 6.017 8.78zm-128.174 46.538.483-46.897a6.045 8.76.591 0 1 6.135-8.697l3.627.038a2.418 3.504.591 0 1 2.381 3.528l-.591 57.408a2.418 3.504.591 0 1-2.454 3.478l-3.627-.038a6.045 8.76.591 0 1-5.954-8.82zm-.823 85.578.484-46.897a6.045 8.76.591 0 1 6.135-8.697l3.627.038a2.418 3.504.591 0 1 2.381 3.528l-.59 57.408a2.418 3.504.591 0 1-2.455 3.48l-3.627-.038a6.045 8.76.591 0 1-5.955-8.822zM272.282 1194.654l8.574-34.537c1.065-4.31 4.943-7.243 9.61-7.228l76.165.244c4.558.015 8.345 2.842 9.444 7.026l9.102 34.594c1.528 5.799-3.98 11.74-10.665 11.718l-91.725-.295c-6.564.012-11.914-5.782-10.505-11.522z" fill="#060709"/><rect x="888.096" y="-390.982" width="17.858" height="36.197" rx="8.922" transform="rotate(90.184)" fill="#793b12"/><rect x="888.096" y="-303.005" width="17.858" height="36.197" rx="8.922" transform="rotate(90.184)" fill="#793b12"/><rect x="1279.245" y="-390.995" width="17.858" height="36.197" rx="8.922" transform="rotate(90.184)" fill="#898b1c"/><rect x="1279.245" y="-305.798" width="17.858" height="36.197" rx="8.922" transform="rotate(90.184)" fill="#898b1c"/></g><g transform="matrix(1.1323 0 0 1 359.809 -624.234)"><rect x="-409.238" y="-1313.003" width="155.886" height="441.752" rx="28.048" transform="rotate(-179.816)" fill="#216778"/><path d="M277.195 1309.76a25.026 34.146.184 0 1-24.916-34.226l1.173-365.211a25.026 34.146.184 0 1 25.135-34.066l99.802.32a25.014 34.13.184 0 1 24.905 34.227l-1.173 365.212a25.014 34.13.184 0 1-25.124 34.065l-99.801-.32m-.026 8.248 99.801.32a31.095 42.427.184 0 0 31.196-42.294l1.173-365.21a31.095 42.427.184 0 0-30.924-42.493l-99.8-.32a31.107 42.443.184 0 0-31.207 42.292l-1.173 365.211a31.107 42.443.184 0 0 30.934 42.494z" fill="#8a8989"/><path d="m286.106 974.749-6.223-31.142c-1.059-5.354 3.031-10.45 8.326-10.434l79.418.255c5.283.017 9.353 5.17 8.26 10.487l-6.423 31.102c-.822 3.987-4.12 6.784-7.988 6.772l-67.377-.216c-3.88-.013-7.148-2.832-7.993-6.824zM393.607 1087.798l-.15 46.9a6.045 8.76.184 0 1-6.072 8.74l-3.627-.012a2.418 3.504.184 0 1-2.407-3.512l.184-57.41a2.418 3.504.184 0 1 2.43-3.497l3.627.012a6.045 8.76.184 0 1 6.016 8.78zM260.129 1202.96l-.018 5.45a6.045 6.81.184 0 1-6.066 6.79l-7.63-.024a6.045 6.81.184 0 1-6.021-6.83 6.045 6.81.184 0 1 6.065-6.79l12.465.04a1.209 1.362.184 0 1 1.206 1.365zm155.263 5.988a6.045 6.81.184 0 1-6.066 6.792l-7.63-.024a6.045 6.81.184 0 1-6.022-6.83l.017-5.449a1.209 1.362.184 0 1 1.214-1.358l12.464.04a6.045 6.81.184 0 1 6.023 6.83zM393.822 1002.216l-.15 46.9a6.045 8.76.184 0 1-6.072 8.74l-3.627-.013a2.418 3.504.184 0 1-2.407-3.51l.184-57.412a2.418 3.504.184 0 1 2.43-3.495l3.626.011a6.045 8.76.184 0 1 6.017 8.78zm-128.174 46.538.483-46.897a6.045 8.76.591 0 1 6.135-8.697l3.627.038a2.418 3.504.591 0 1 2.381 3.528l-.591 57.408a2.418 3.504.591 0 1-2.454 3.478l-3.627-.038a6.045 8.76.591 0 1-5.954-8.82zm-.823 85.578.484-46.897a6.045 8.76.591 0 1 6.135-8.697l3.627.038a2.418 3.504.591 0 1 2.381 3.528l-.59 57.408a2.418 3.504.591 0 1-2.455 3.48l-3.627-.038a6.045 8.76.591 0 1-5.955-8.822zM272.282 1194.654l8.574-34.537c1.065-4.31 4.943-7.243 9.61-7.228l76.165.244c4.558.015 8.345 2.842 9.444 7.026l9.102 34.594c1.528 5.799-3.98 11.74-10.665 11.718l-91.725-.295c-6.564.012-11.914-5.782-10.505-11.522z" fill="#060709"/><rect x="888.096" y="-390.982" width="17.858" height="36.197" rx="8.922" transform="rotate(90.184)" fill="#793b12"/><rect x="888.096" y="-303.005" width="17.858" height="36.197" rx="8.922" transform="rotate(90.184)" fill="#793b12"/><rect x="1279.245" y="-390.995" width="17.858" height="36.197" rx="8.922" transform="rotate(90.184)" fill="#898b1c"/><rect x="1279.245" y="-305.798" width="17.858" height="36.197" rx="8.922" transform="rotate(90.184)" fill="#898b1c"/></g><g transform="matrix(1.1323 0 0 1 365.617 -1105.79)"><rect x="-409.238" y="-1313.003" width="155.886" height="441.752" rx="28.048" transform="rotate(-179.816)" fill="#216778"/><path d="M277.195 1309.76a25.026 34.146.184 0 1-24.916-34.226l1.173-365.211a25.026 34.146.184 0 1 25.135-34.066l99.802.32a25.014 34.13.184 0 1 24.905 34.227l-1.173 365.212a25.014 34.13.184 0 1-25.124 34.065l-99.801-.32m-.026 8.248 99.801.32a31.095 42.427.184 0 0 31.196-42.294l1.173-365.21a31.095 42.427.184 0 0-30.924-42.493l-99.8-.32a31.107 42.443.184 0 0-31.207 42.292l-1.173 365.211a31.107 42.443.184 0 0 30.934 42.494z" fill="#8a8989"/><path d="m286.106 974.749-6.223-31.142c-1.059-5.354 3.031-10.45 8.326-10.434l79.418.255c5.283.017 9.353 5.17 8.26 10.487l-6.423 31.102c-.822 3.987-4.12 6.784-7.988 6.772l-67.377-.216c-3.88-.013-7.148-2.832-7.993-6.824zM393.607 1087.798l-.15 46.9a6.045 8.76.184 0 1-6.072 8.74l-3.627-.012a2.418 3.504.184 0 1-2.407-3.512l.184-57.41a2.418 3.504.184 0 1 2.43-3.497l3.627.012a6.045 8.76.184 0 1 6.016 8.78zM260.129 1202.96l-.018 5.45a6.045 6.81.184 0 1-6.066 6.79l-7.63-.024a6.045 6.81.184 0 1-6.021-6.83 6.045 6.81.184 0 1 6.065-6.79l12.465.04a1.209 1.362.184 0 1 1.206 1.365zm155.263 5.988a6.045 6.81.184 0 1-6.066 6.792l-7.63-.024a6.045 6.81.184 0 1-6.022-6.83l.017-5.449a1.209 1.362.184 0 1 1.214-1.358l12.464.04a6.045 6.81.184 0 1 6.023 6.83zM393.822 1002.216l-.15 46.9a6.045 8.76.184 0 1-6.072 8.74l-3.627-.013a2.418 3.504.184 0 1-2.407-3.51l.184-57.412a2.418 3.504.184 0 1 2.43-3.495l3.626.011a6.045 8.76.184 0 1 6.017 8.78zm-128.174 46.538.483-46.897a6.045 8.76.591 0 1 6.135-8.697l3.627.038a2.418 3.504.591 0 1 2.381 3.528l-.591 57.408a2.418 3.504.591 0 1-2.454 3.478l-3.627-.038a6.045 8.76.591 0 1-5.954-8.82zm-.823 85.578.484-46.897a6.045 8.76.591 0 1 6.135-8.697l3.627.038a2.418 3.504.591 0 1 2.381 3.528l-.59 57.408a2.418 3.504.591 0 1-2.455 3.48l-3.627-.038a6.045 8.76.591 0 1-5.955-8.822zM272.282 1194.654l8.574-34.537c1.065-4.31 4.943-7.243 9.61-7.228l76.165.244c4.558.015 8.345 2.842 9.444 7.026l9.102 34.594c1.528 5.799-3.98 11.74-10.665 11.718l-91.725-.295c-6.564.012-11.914-5.782-10.505-11.522z" fill="#060709"/><rect x="888.096" y="-390.982" width="17.858" height="36.197" rx="8.922" transform="rotate(90.184)" fill="#793b12"/><rect x="888.096" y="-303.005" width="17.858" height="36.197" rx="8.922" transform="rotate(90.184)" fill="#793b12"/><rect x="1279.245" y="-390.995" width="17.858" height="36.197" rx="8.922" transform="rotate(90.184)" fill="#898b1c"/><rect x="1279.245" y="-305.798" width="17.858" height="36.197" rx="8.922" transform="rotate(90.184)" fill="#898b1c"/></g><g transform="translate(-277.564 -131.072)"><path d="M1531.955 990.245a7.587 7.003 0 0 0-15.16 0v29.966a19.257 17.777 0 0 0-4.48-.513h-30.4a18.504 17.081 0 0 0-7.48 1.44v-30.893a7.587 7.003 0 0 0-15.16 0v39.727a7.56 6.979 0 0 0 3.964 6.1v.854a18.702 17.265 0 0 0 18.716 17.265h30.4a18.702 17.265 0 0 0 18.714-17.265 19.39 17.899 0 0 0-.317-3.16 7.56 6.979 0 0 0 1.243-3.843z" fill="none" stroke="#432918" stroke-width="1.27" stroke-miterlimit="10"/><path d="M1483.871 990.83a9.252 8.54 0 0 0-9.252 8.468v13.946a9.186 8.48 0 0 0 18.359 0v-13.946a9.173 8.468 0 0 0-9.107-8.467zm24.835 10.786h-2.3a8.062 7.443 0 0 0-8.062 7.443v4.758a8.062 7.443 0 0 0 8.062 7.43h2.3a8.05 7.43 0 0 0 8.05-7.43v-4.758a8.062 7.443 0 0 0-8.05-7.443z" fill="none" stroke="#432918" stroke-width="1.27" stroke-miterlimit="10"/><rect x="-1103.279" y="1492.793" width="180" height="8.525" rx="3.172" transform="rotate(-90)" fill="#060709"/><path d="M1531.955 990.245a7.587 7.003 0 0 0-15.16 0v29.966a19.257 17.777 0 0 0-4.48-.513h-30.4a18.504 17.081 0 0 0-7.48 1.44v-30.893a7.587 7.003 0 0 0-15.16 0v39.727a7.56 6.979 0 0 0 3.964 6.1v.854a18.702 17.265 0 0 0 18.716 17.265h30.4a18.702 17.265 0 0 0 18.714-17.265 19.39 17.899 0 0 0-.317-3.16 7.56 6.979 0 0 0 1.243-3.843z" fill="#fdd535"/><path d="M1483.871 990.83a9.252 8.54 0 0 0-9.252 8.468v13.946a9.186 8.48 0 0 0 18.359 0v-13.946a9.173 8.468 0 0 0-9.107-8.467zm24.835 10.786h-2.3a8.062 7.443 0 0 0-8.062 7.443v4.758a8.062 7.443 0 0 0 8.062 7.43h2.3a8.05 7.43 0 0 0 8.05-7.43v-4.758a8.062 7.443 0 0 0-8.05-7.443z" fill="#1e8dc7"/><rect x="-1048.261" y="1484.744" width="19.68" height="21.319" rx="9.834" transform="rotate(-90)" fill="#b04f1a"/><path d="m1490.202 961.316-25.496 17.204a3.635 3.355 0 0 0 4.283 5.417l25.43-17.216a3.627 3.348 0 1 0-4.283-5.405zm37.47 19.68-23.275-17.935a3.621 3.343 0 1 0-4.639 5.124l23.196 17.924a3.622 3.343 0 0 0 4.653-5.125z" fill="#060709"/></g><path d="M831.92-240.98h12.5v1572.142h-12.5z" fill="#fff"/><path d="M395.419-858.344h215.078l13.164 2024.69c4.067 167.766 223.898 57.758 224.925 177.29 3.626 421.879.445 1297.633.445 1297.633l-453.612-2.262z" fill="#ccd0ce" stroke="#e1e1e1" stroke-width="15.631" stroke-linecap="round" stroke-linejoin="round" stroke-miterlimit="10"/><g transform="matrix(-1.17143 -.00321 .00376 -1 1582.663 1829.058)"><rect x="-416.821" y="-471.996" width="155.886" height="441.752" rx="28.048" transform="scale(-1)" fill="#89bd27"/><path d="M288.983 467.856a25.026 34.146 0 0 1-25.026-34.146V68.497a25.026 34.146 0 0 1 25.026-34.146h99.802A25.014 34.13 0 0 1 413.8 68.497v365.214a25.014 34.13 0 0 1-25.014 34.146h-99.802m0 8.248h99.802a31.095 42.427 0 0 0 31.06-42.394V68.498a31.095 42.427 0 0 0-31.06-42.393h-99.8a31.107 42.443 0 0 0-31.072 42.393v365.213a31.107 42.443 0 0 0 31.07 42.394z" fill="#8a8989"/><path d="m296.818 132.818-6.323-31.122c-1.076-5.35 2.998-10.46 8.293-10.46h79.418c5.283 0 9.37 5.14 8.294 10.46l-6.323 31.122c-.81 3.99-4.099 6.798-7.967 6.798h-67.377c-3.88 0-7.157-2.809-8.015-6.798zM404.682 245.521v46.9a6.045 8.76 0 0 1-6.044 8.76h-3.627a2.418 3.504 0 0 1-2.418-3.504v-57.411a2.418 3.504 0 0 1 2.418-3.504h3.627a6.045 8.76 0 0 1 6.045 8.76zM271.574 361.112v5.449a6.045 6.81 0 0 1-6.045 6.81H257.9a6.045 6.81 0 0 1-6.044-6.81 6.045 6.81 0 0 1 6.044-6.811h12.465a1.209 1.362 0 0 1 1.21 1.362zm155.282 5.489a6.045 6.81 0 0 1-6.045 6.811h-7.629a6.045 6.81 0 0 1-6.045-6.81v-5.449a1.209 1.362 0 0 1 1.21-1.362h12.464a6.045 6.81 0 0 1 6.045 6.81zM404.622 159.939v46.9a6.045 8.76 0 0 1-6.044 8.759h-3.627a2.418 3.504 0 0 1-2.418-3.503v-57.412a2.418 3.504 0 0 1 2.418-3.503h3.627a6.045 8.76 0 0 1 6.045 8.76zm-128.024 46.949.332-46.898a6.045 8.76.407 0 1 6.107-8.716l3.627.026a2.418 3.504.407 0 1 2.393 3.52l-.407 57.41a2.418 3.504.407 0 1-2.443 3.486l-3.627-.026a6.045 8.76.407 0 1-5.982-8.802zm-.548 85.581.333-46.899a6.045 8.76.407 0 1 6.107-8.716l3.627.026a2.418 3.504.407 0 1 2.393 3.52l-.407 57.41a2.418 3.504.407 0 1-2.443 3.487l-3.627-.026a6.045 8.76.407 0 1-5.983-8.802zM283.7 352.766l8.463-34.564c1.052-4.313 4.92-7.259 9.587-7.259h76.166c4.558 0 8.354 2.815 9.466 6.995l9.213 34.565c1.547 5.794-3.942 11.752-10.627 11.752h-91.726c-6.564.033-11.932-5.744-10.542-11.489z" fill="#060709"/><rect x="47.089" y="-398.565" width="17.858" height="36.197" rx="8.922" transform="rotate(90)" fill="#9b4c17"/><rect x="47.089" y="-310.588" width="17.858" height="36.197" rx="8.922" transform="rotate(90)" fill="#9b4c17"/><rect x="438.238" y="-398.578" width="17.858" height="36.197" rx="8.922" transform="rotate(90)" fill="#edeeac"/><rect x="438.238" y="-313.381" width="17.858" height="36.197" rx="8.922" transform="rotate(90)" fill="#edeeac"/></g><path d="M1317.723-752.966h215.078v3497.352h-215.078z" fill="#ccd0ce" stroke="#e1e1e1" stroke-width="15.631" stroke-linecap="round" stroke-linejoin="round" stroke-miterlimit="10"/><g transform="translate(-357.056 -801.12)"><path d="M1531.955 990.245a7.587 7.003 0 0 0-15.16 0v29.966a19.257 17.777 0 0 0-4.48-.513h-30.4a18.504 17.081 0 0 0-7.48 1.44v-30.893a7.587 7.003 0 0 0-15.16 0v39.727a7.56 6.979 0 0 0 3.964 6.1v.854a18.702 17.265 0 0 0 18.716 17.265h30.4a18.702 17.265 0 0 0 18.714-17.265 19.39 17.899 0 0 0-.317-3.16 7.56 6.979 0 0 0 1.243-3.843z" fill="none" stroke="#432918" stroke-width="1.27" stroke-miterlimit="10"/><path d="M1483.871 990.83a9.252 8.54 0 0 0-9.252 8.468v13.946a9.186 8.48 0 0 0 18.359 0v-13.946a9.173 8.468 0 0 0-9.107-8.467zm24.835 10.786h-2.3a8.062 7.443 0 0 0-8.062 7.443v4.758a8.062 7.443 0 0 0 8.062 7.43h2.3a8.05 7.43 0 0 0 8.05-7.43v-4.758a8.062 7.443 0 0 0-8.05-7.443z" fill="none" stroke="#432918" stroke-width="1.27" stroke-miterlimit="10"/><rect x="-1103.279" y="1492.793" width="180" height="8.525" rx="3.172" transform="rotate(-90)" fill="#060709"/><path d="M1531.955 990.245a7.587 7.003 0 0 0-15.16 0v29.966a19.257 17.777 0 0 0-4.48-.513h-30.4a18.504 17.081 0 0 0-7.48 1.44v-30.893a7.587 7.003 0 0 0-15.16 0v39.727a7.56 6.979 0 0 0 3.964 6.1v.854a18.702 17.265 0 0 0 18.716 17.265h30.4a18.702 17.265 0 0 0 18.714-17.265 19.39 17.899 0 0 0-.317-3.16 7.56 6.979 0 0 0 1.243-3.843z" fill="#fdd535"/><path d="M1483.871 990.83a9.252 8.54 0 0 0-9.252 8.468v13.946a9.186 8.48 0 0 0 18.359 0v-13.946a9.173 8.468 0 0 0-9.107-8.467zm24.835 10.786h-2.3a8.062 7.443 0 0 0-8.062 7.443v4.758a8.062 7.443 0 0 0 8.062 7.43h2.3a8.05 7.43 0 0 0 8.05-7.43v-4.758a8.062 7.443 0 0 0-8.05-7.443z" fill="#1e8dc7"/><rect x="-1048.261" y="1484.744" width="19.68" height="21.319" rx="9.834" transform="rotate(-90)" fill="#b04f1a"/><path d="m1490.202 961.316-25.496 17.204a3.635 3.355 0 0 0 4.283 5.417l25.43-17.216a3.627 3.348 0 1 0-4.283-5.405zm37.47 19.68-23.275-17.935a3.621 3.343 0 1 0-4.639 5.124l23.196 17.924a3.622 3.343 0 0 0 4.653-5.125z" fill="#060709"/></g></svg>
