<svg xmlns="http://www.w3.org/2000/svg" xmlns:xlink="http://www.w3.org/1999/xlink" width="1427.0578" height="1013.27626" viewBox="0 0 377.57571 268.09601"><defs><path id="a" fill="none" stroke="#432918" stroke-miterlimit="10" stroke-width="1.3" d="M1532 990.2a7.6 7 0 0 0-15.2 0v30a19.3 17.8 0 0 0-4.5-.5H1482a18.5 17 0 0 0-7.5 1.4v-30.9a7.6 7 0 0 0-15.1 0v39.8a7.6 7 0 0 0 4 6v1a18.7 17.3 0 0 0 18.7 17.2h30.4a18.7 17.3 0 0 0 18.7-17.3 19.4 17.9 0 0 0-.3-3.1 7.6 7 0 0 0 1.2-3.9z"/><path id="b" fill="none" stroke="#432918" stroke-miterlimit="10" stroke-width="1.3" d="M1483.9 990.8a9.3 8.5 0 0 0-9.3 8.5v14a9.2 8.5 0 0 0 18.4 0v-14a9.2 8.5 0 0 0-9.1-8.5zm24.8 10.8h-2.3a8 7.4 0 0 0-8 7.5v4.7a8 7.4 0 0 0 8 7.4h2.3a8 7.4 0 0 0 8-7.4v-4.7a8 7.4 0 0 0-8-7.5z"/><path id="c" fill="#fdd535" d="M1532 990.2a7.6 7 0 0 0-15.2 0v30a19.3 17.8 0 0 0-4.5-.5H1482a18.5 17 0 0 0-7.5 1.4v-30.9a7.6 7 0 0 0-15.1 0v39.8a7.6 7 0 0 0 4 6v1a18.7 17.3 0 0 0 18.7 17.2h30.4a18.7 17.3 0 0 0 18.7-17.3 19.4 17.9 0 0 0-.3-3.1 7.6 7 0 0 0 1.2-3.9z"/><path id="d" fill="#1e8dc7" d="M1483.9 990.8a9.3 8.5 0 0 0-9.3 8.5v14a9.2 8.5 0 0 0 18.4 0v-14a9.2 8.5 0 0 0-9.1-8.5zm24.8 10.8h-2.3a8 7.4 0 0 0-8 7.5v4.7a8 7.4 0 0 0 8 7.4h2.3a8 7.4 0 0 0 8-7.4v-4.7a8 7.4 0 0 0-8-7.5z"/><path id="e" fill="#060709" d="m1490.2 961.3-25.5 17.2a3.6 3.4 0 0 0 4.3 5.4l25.4-17.2a3.64667 3.34278 0 1 0-4.3-5.4zm37.5 19.7-23.3-18a3.71323 3.3118 0 1 0-4.6 5.2l23.2 18a3.71323 3.3118 0 0 0 4.6-5.2z"/></defs><g transform="translate(68.98612 35.91014)"><path fill="#a5a8a7" d="m300.3771 343.29746-355.75874-.39687v-476.54104l352.68957.79375z"/><g transform="matrix(.31 0 0 .265 -178.75434 -331.214)"><rect width="155.89999" height="441.79999" x="1148.3" y="1247.9" fill="#89bd27" rx="28"/><path fill="#8a8989" d="M1276.1 1252a25 34.1 0 0 1 25 34.2v365.2a25 34.1 0 0 1-25 34.2h-99.8a25 34.1 0 0 1-25-34.2v-365.2a25 34.1 0 0 1 25-34.1h99.8m0-8.3h-99.8a31 42.4 0 0 0-31 42.4v365.2a31 42.4 0 0 0 31 42.4h99.8a31.1 42.4 0 0 0 31.1-42.4v-365.2a31.1 42.4 0 0 0-31-42.4z"/><path fill="#060709" d="m1268.3 1587.1 6.3 31.1a8.7 8.7 0 0 1-8.3 10.5H1187a8.7 8.7 0 0 1-8.3-10.5l6.3-31c.9-4 4.1-6.9 8-6.9h67.4c3.9 0 7.1 2.8 8 6.8zm-107.9-112.7v-46.9a6 8.8 0 0 1 6-8.7h3.7a2.4 3.5 0 0 1 2.4 3.5v57.4a2.4 3.5 0 0 1-2.4 3.5h-3.6a6 8.8 0 0 1-6-8.8zm133.1-115.6v-5.4a6 6.8 0 0 1 6-6.8h7.7a6 6.8 0 0 1 6 6.8 6 6.8 0 0 1-6 6.8h-12.4a1.2 1.4 0 0 1-1.3-1.4zm-155.2-5.5a6 6.8 0 0 1 6-6.8h7.6a6 6.8 0 0 1 6 6.8v5.5a1.2 1.4 0 0 1-1.1 1.4h-12.5a6 6.8 0 0 1-6-6.9zm22.2 206.7v-46.9a6 8.8 0 0 1 6-8.8h3.7a2.4 3.5 0 0 1 2.4 3.5v57.5a2.4 3.5 0 0 1-2.4 3.5h-3.7a6 8.8 0 0 1-6-8.8zm128-47-.3 47a6 8.8.4 0 1-6.1 8.7h-3.6a2.4 3.5.4 0 1-2.4-3.6l.4-57.4a2.4 3.5.4 0 1 2.4-3.5h3.6a6 8.8.4 0 1 6 8.9zm.6-85.5-.4 46.9a6 8.8.4 0 1-6 8.7h-3.7a2.4 3.5.4 0 1-2.4-3.6l.4-57.4a2.4 3.5.4 0 1 2.5-3.5h3.6a6 8.8.4 0 1 6 8.9zm-7.7-60.3-8.4 34.5c-1 4.4-5 7.3-9.6 7.3h-76.2a9.5 9.5 0 0 1-9.5-7l-9.2-34.6c-1.5-5.8 4-11.7 10.7-11.7h91.7c6.5 0 12 5.7 10.5 11.5z"/><rect width="17.9" height="36.2" x="-1672.9" y="1166.6" fill="#9b4c17" rx="8.9" transform="rotate(-90)"/><rect width="17.9" height="36.2" x="-1672.9" y="1254.5" fill="#9b4c17" rx="8.9" transform="rotate(-90)"/><rect width="17.9" height="36.2" x="-1281.7" y="1166.5" fill="#edeeac" rx="8.9" transform="rotate(-90)"/><rect width="17.9" height="36.2" x="-1281.7" y="1251.7" fill="#edeeac" rx="8.9" transform="rotate(-90)"/></g><g transform="rotate(180 210.95786 181.35341) scale(.265)"><use xlink:href="#a" stroke-miterlimit="10" stroke-width="1.3"/><use xlink:href="#b" stroke-miterlimit="10" stroke-width="1.3"/><rect width="180" height="8.5" x="-1103.3" y="1492.8" fill="#060709" rx="3.2" transform="rotate(-90)"/><use xlink:href="#c"/><use xlink:href="#d"/><rect width="19.7" height="21.3" x="-1048.3" y="1484.7" fill="#b04f1a" rx="9.8" transform="rotate(-90)"/><use xlink:href="#e"/></g><g transform="matrix(.265 0 0 .265 -201.16502 -86.85731)"><use xlink:href="#a" stroke-miterlimit="10" stroke-width="1.3"/><use xlink:href="#b" stroke-miterlimit="10" stroke-width="1.3"/><rect width="180" height="8.5" x="-1103.3" y="1492.8" fill="#060709" rx="3.2" transform="rotate(-90)"/><use xlink:href="#c"/><use xlink:href="#d"/><rect width="19.7" height="21.3" x="-1048.3" y="1484.7" fill="#b04f1a" rx="9.8" transform="rotate(-90)"/><use xlink:href="#e"/></g><g transform="rotate(180 228.471 182.56387) scale(.265)"><use xlink:href="#a" stroke-miterlimit="10" stroke-width="1.3"/><use xlink:href="#b" stroke-miterlimit="10" stroke-width="1.3"/><rect width="180" height="8.5" x="-1103.3" y="1492.8" fill="#060709" rx="3.2" transform="rotate(-90)"/><use xlink:href="#c"/><use xlink:href="#d"/><rect width="19.7" height="21.3" x="-1048.3" y="1484.7" fill="#b04f1a" rx="9.8" transform="rotate(-90)"/><use xlink:href="#e"/></g><path fill="#ccd0ce" stroke="#e1e1e1" stroke-linecap="round" stroke-linejoin="round" stroke-miterlimit="10" stroke-width="4.58076" d="m-68.00825-134.81056 76.66753.18505c-2.60275 340.04417-1.66746 339.25257 0 489.74096h-76.66753Z"/><path fill="#ccd0ce" stroke="#e1e1e1" stroke-linecap="round" stroke-linejoin="round" stroke-miterlimit="10" stroke-width="4.42702" d="m240.60663-131.42694 71.60283.1851c-2.43081 340.15052-1.55731 339.35868 0 489.89413h-71.60283z"/><path fill="#fff" d="M-18.33181 80.25292v13.2349h-13.2349v-13.2349z" paint-order="stroke markers fill"/><path fill="none" stroke="#bdbdbd" stroke-linecap="round" stroke-linejoin="round" stroke-width=".25903" d="M-30.0543 84.1769s.07713.34197.89935.28812c.45111-.0189.57626-.31432.57626-.31432m-1.23695-2.8843s.07713.34344.89935.29105c.45111-.0218.57626-.3158.57626-.3158m1.00598 4.67932s.07713.34197.89934.28813c.45111-.0189.57626-.31432.57626-.31432m-1.23694-2.88431s.07713.34344.89934.29105c.45111-.0218.57627-.3158.57627-.3158m1.64268 1.19118s.07713.34197.89934.28812c.45112-.0189.57627-.31432.57627-.31432m-1.23695-2.8843s.07713.34344.89934.29105c.45112-.0218.57627-.3158.57627-.3158m1.00597 4.67932s.07713.34197.89935.28813c.45111-.0189.57626-.31432.57626-.31432m-1.23695-2.88431s.07713.34344.89935.29105c.45111-.0218.57626-.3158.57626-.3158m-10.51171 7.62881s.07713.34197.89935.28813c.45111-.0189.57626-.31432.57626-.31432m-1.23695-2.88431s.07713.34344.89935.29105c.45111-.0218.57626-.3158.57626-.3158m1.00598 4.67932s.07713.34197.89934.28813c.45111-.0189.57626-.31432.57626-.31432m-1.23694-2.88431s.07713.34344.89934.29105c.45111-.0218.57627-.3158.57627-.3158m1.64268 1.19118s.07713.34197.89934.28813c.45112-.0189.57627-.31432.57627-.31432m-1.23695-2.88431s.07713.34344.89934.29105c.45112-.0218.57627-.3158.57627-.3158m1.00597 4.67932s.07713.34197.89935.28813c.45111-.0189.57626-.31432.57626-.31432m-1.23695-2.88431s.07713.34344.89935.29105c.45111-.0218.57626-.3158.57626-.3158"/><path fill="#fff" d="M-30.50913 80.25292v13.2349h-13.2349v-13.2349z" paint-order="stroke markers fill"/><path fill="none" stroke="#bdbdbd" stroke-linecap="round" stroke-linejoin="round" stroke-width=".25903" d="M-42.23162 84.1769s.07713.34197.89935.28812c.45111-.0189.57626-.31432.57626-.31432m-1.23695-2.8843s.07713.34344.89935.29105c.45111-.0218.57626-.3158.57626-.3158m1.00598 4.67932s.07713.34197.89934.28813c.45111-.0189.57627-.31432.57627-.31432m-1.23695-2.88431s.07713.34344.89934.29105c.45112-.0218.57627-.3158.57627-.3158m1.64268 1.19118s.07713.34197.89934.28812c.45112-.0189.57627-.31432.57627-.31432m-1.23695-2.8843s.07713.34344.89935.29105c.4511-.0218.57626-.3158.57626-.3158m1.00597 4.67932s.07713.34197.89935.28813c.45111-.0189.57626-.31432.57626-.31432m-1.23694-2.88431s.07713.34344.89934.29105c.45111-.0218.57626-.3158.57626-.3158m-10.51171 7.62881s.07713.34197.89935.28813c.45111-.0189.57626-.31432.57626-.31432m-1.23695-2.88431s.07713.34344.89935.29105c.45111-.0218.57626-.3158.57626-.3158m1.00598 4.67932s.07713.34197.89934.28813c.45111-.0189.57627-.31432.57627-.31432m-1.23695-2.88431s.07713.34344.89934.29105c.45112-.0218.57627-.3158.57627-.3158m1.64268 1.19118s.07713.34197.89934.28813c.45112-.0189.57627-.31432.57627-.31432m-1.23695-2.88431s.07713.34344.89935.29105c.4511-.0218.57626-.3158.57626-.3158m1.00597 4.67932s.07713.34197.89935.28813c.45111-.0189.57626-.31432.57626-.31432m-1.23694-2.88431s.07713.34344.89934.29105c.45111-.0218.57626-.3158.57626-.3158"/><path fill="#fff" d="M-42.59175 80.25292v13.2349h-13.2349v-13.2349z" paint-order="stroke markers fill"/><path fill="none" stroke="#bdbdbd" stroke-linecap="round" stroke-linejoin="round" stroke-width=".25903" d="M-54.31424 84.1769s.07713.34197.89934.28812c.45112-.0189.57627-.31432.57627-.31432m-1.23695-2.8843s.07713.34344.89934.29105c.45112-.0218.57627-.3158.57627-.3158m1.00597 4.67932s.07713.34197.89935.28813c.4511-.0189.57626-.31432.57626-.31432m-1.23695-2.88431s.07713.34344.89935.29105c.45111-.0218.57626-.3158.57626-.3158m1.64269 1.19118s.07713.34197.89934.28812c.45111-.0189.57626-.31432.57626-.31432m-1.23694-2.8843s.07713.34344.89934.29105c.45111-.0218.57627-.3158.57627-.3158m1.00597 4.67932s.07713.34197.89934.28813c.45112-.0189.57627-.31432.57627-.31432m-1.23695-2.88431s.07713.34344.89934.29105c.45112-.0218.57627-.3158.57627-.3158m-10.51171 7.62881s.07713.34197.89934.28813c.45112-.0189.57627-.31432.57627-.31432m-1.23695-2.88431s.07713.34344.89934.29105c.45112-.0218.57627-.3158.57627-.3158m1.00597 4.67932s.07713.34197.89935.28813c.4511-.0189.57626-.31432.57626-.31432m-1.23695-2.88431s.07713.34344.89935.29105c.45111-.0218.57626-.3158.57626-.3158m1.64269 1.19118s.07713.34197.89934.28813c.45111-.0189.57626-.31432.57626-.31432m-1.23694-2.88431s.07713.34344.89934.29105c.45111-.0218.57627-.3158.57627-.3158m1.00597 4.67932s.07713.34197.89934.28813c.45112-.0189.57627-.31432.57627-.31432m-1.23695-2.88431s.07713.34344.89934.29105c.45112-.0218.57627-.3158.57627-.3158"/><path fill="#fff" d="M-54.76907 80.25292v13.2349h-13.2349v-13.2349z" paint-order="stroke markers fill"/><path fill="none" stroke="#bdbdbd" stroke-linecap="round" stroke-linejoin="round" stroke-width=".25903" d="M-66.49156 84.1769s.07713.34197.89934.28812c.45112-.0189.57627-.31432.57627-.31432m-1.23695-2.8843s.07713.34344.89934.29105c.45112-.0218.57627-.3158.57627-.3158m1.00597 4.67932s.07713.34197.89935.28813c.4511-.0189.57626-.31432.57626-.31432m-1.23695-2.88431s.07713.34344.89935.29105c.45111-.0218.57626-.3158.57626-.3158m1.64269 1.19118s.07713.34197.89934.28812c.45111-.0189.57626-.31432.57626-.31432m-1.23694-2.8843s.07713.34344.89934.29105c.45111-.0218.57627-.3158.57627-.3158m1.00597 4.67932s.07713.34197.89934.28813c.45112-.0189.57627-.31432.57627-.31432m-1.23695-2.88431s.07713.34344.89934.29105c.45112-.0218.57627-.3158.57627-.3158m-10.51171 7.62881s.07713.34197.89934.28813c.45112-.0189.57627-.31432.57627-.31432m-1.23695-2.88431s.07713.34344.89934.29105c.45112-.0218.57627-.3158.57627-.3158m1.00597 4.67932s.07713.34197.89935.28813c.4511-.0189.57626-.31432.57626-.31432m-1.23695-2.88431s.07713.34344.89935.29105c.45111-.0218.57626-.3158.57626-.3158m1.64269 1.19118s.07713.34197.89934.28813c.45111-.0189.57626-.31432.57626-.31432m-1.23694-2.88431s.07713.34344.89934.29105c.45111-.0218.57627-.3158.57627-.3158m1.00597 4.67932s.07713.34197.89934.28813c.45112-.0189.57627-.31432.57627-.31432m-1.23695-2.88431s.07713.34344.89934.29105c.45112-.0218.57627-.3158.57627-.3158"/><path fill="#fff" d="M316.4905 80.25633v13.2349h-13.2349v-13.2349z" paint-order="stroke markers fill"/><path fill="none" stroke="#bdbdbd" stroke-linecap="round" stroke-linejoin="round" stroke-width=".25903" d="M304.76801 84.1803s.07713.34198.89935.28813c.45111-.0189.57626-.31432.57626-.31432m-1.23695-2.8843s.07713.34344.89935.29105c.45111-.0218.57626-.3158.57626-.3158m1.00598 4.67932s.07713.34197.89934.28813c.45111-.0189.57626-.31432.57626-.31432m-1.23694-2.88431s.07713.34344.89934.29105c.45111-.0218.57627-.3158.57627-.3158m1.64268 1.19117s.07713.34198.89934.28813c.45112-.0189.57627-.31432.57627-.31432m-1.23695-2.8843s.07713.34344.89934.29105c.45112-.0218.57627-.3158.57627-.3158m1.00597 4.67932s.07713.34197.89935.28813c.45111-.0189.57626-.31432.57626-.31432m-1.23695-2.88431s.07713.34344.89935.29105c.45111-.0218.57626-.3158.57626-.3158m-10.51171 7.62881s.07713.34197.89935.28813c.45111-.0189.57626-.31432.57626-.31432m-1.23695-2.88431s.07713.34344.89935.29105c.45111-.0218.57626-.3158.57626-.3158m1.00598 4.67931s.07713.34198.89934.28814c.45111-.0189.57626-.31432.57626-.31432m-1.23694-2.88431s.07713.34344.89934.29105c.45111-.0218.57627-.3158.57627-.3158m1.64268 1.19118s.07713.34197.89934.28813c.45112-.0189.57627-.31432.57627-.31432m-1.23695-2.88431s.07713.34344.89934.29105c.45112-.0218.57627-.3158.57627-.3158m1.00597 4.67931s.07713.34198.89935.28814c.45111-.0189.57626-.31432.57626-.31432m-1.23695-2.88431s.07713.34344.89935.29105c.45111-.0218.57626-.3158.57626-.3158"/><path fill="#fff" d="M304.31318 80.25633v13.2349h-13.2349v-13.2349z" paint-order="stroke markers fill"/><path fill="none" stroke="#bdbdbd" stroke-linecap="round" stroke-linejoin="round" stroke-width=".25903" d="M292.5907 84.1803s.07712.34198.89934.28813c.45111-.0189.57626-.31432.57626-.31432m-1.23695-2.8843s.07713.34344.89935.29105c.45111-.0218.57626-.3158.57626-.3158m1.00598 4.67932s.07713.34197.89934.28813c.45111-.0189.57626-.31432.57626-.31432m-1.23694-2.88431s.07713.34344.89934.29105c.45111-.0218.57627-.3158.57627-.3158m1.64268 1.19117s.07713.34198.89934.28813c.45112-.0189.57627-.31432.57627-.31432m-1.23695-2.8843s.07713.34344.89934.29105c.45112-.0218.57627-.3158.57627-.3158m1.00597 4.67932s.07713.34197.89935.28813c.45111-.0189.57626-.31432.57626-.31432m-1.23695-2.88431s.07713.34344.89935.29105c.45111-.0218.57626-.3158.57626-.3158m-10.5117 7.62881s.07712.34197.89934.28813c.45111-.0189.57626-.31432.57626-.31432m-1.23695-2.88431s.07713.34344.89935.29105c.45111-.0218.57626-.3158.57626-.3158m1.00598 4.67931s.07713.34198.89934.28814c.45111-.0189.57626-.31432.57626-.31432m-1.23694-2.88431s.07713.34344.89934.29105c.45111-.0218.57627-.3158.57627-.3158m1.64268 1.19118s.07713.34197.89934.28813c.45112-.0189.57627-.31432.57627-.31432m-1.23695-2.88431s.07713.34344.89934.29105c.45112-.0218.57627-.3158.57627-.3158m1.00597 4.67931s.07713.34198.89935.28814c.45111-.0189.57626-.31432.57626-.31432m-1.23695-2.88431s.07713.34344.89935.29105c.45111-.0218.57626-.3158.57626-.3158"/><path fill="#fff" d="M292.23056 80.25633v13.2349h-13.2349v-13.2349z" paint-order="stroke markers fill"/><path fill="none" stroke="#bdbdbd" stroke-linecap="round" stroke-linejoin="round" stroke-width=".25903" d="M280.50807 84.1803s.07713.34198.89934.28813c.45111-.0189.57627-.31432.57627-.31432m-1.23695-2.8843s.07713.34344.89934.29105c.45112-.0218.57627-.3158.57627-.3158m1.00597 4.67932s.07713.34197.89935.28813c.4511-.0189.57626-.31432.57626-.31432m-1.23695-2.88431s.07713.34344.89935.29105c.45111-.0218.57626-.3158.57626-.3158m1.64268 1.19117s.07713.34198.89935.28813c.45111-.0189.57626-.31432.57626-.31432m-1.23694-2.8843s.07713.34344.89934.29105c.45111-.0218.57626-.3158.57626-.3158m1.00597 4.67932s.07714.34197.89935.28813c.45112-.0189.57627-.31432.57627-.31432m-1.23695-2.88431s.07713.34344.89934.29105c.45112-.0218.57627-.3158.57627-.3158m-10.51171 7.62881s.07713.34197.89934.28813c.45111-.0189.57627-.31432.57627-.31432m-1.23695-2.88431s.07713.34344.89934.29105c.45112-.0218.57627-.3158.57627-.3158m1.00597 4.67931s.07713.34198.89935.28814c.4511-.0189.57626-.31432.57626-.31432m-1.23695-2.88431s.07713.34344.89935.29105c.45111-.0218.57626-.3158.57626-.3158m1.64268 1.19118s.07713.34197.89935.28813c.45111-.0189.57626-.31432.57626-.31432m-1.23694-2.88431s.07713.34344.89934.29105c.45111-.0218.57626-.3158.57626-.3158m1.00597 4.67931s.07714.34198.89935.28814c.45112-.0189.57627-.31432.57627-.31432m-1.23695-2.88431s.07713.34344.89934.29105c.45112-.0218.57627-.3158.57627-.3158"/><path fill="#fff" d="M280.05324 80.25633v13.2349h-13.2349v-13.2349z" paint-order="stroke markers fill"/><path fill="none" stroke="#bdbdbd" stroke-linecap="round" stroke-linejoin="round" stroke-width=".25903" d="M268.33075 84.1803s.07713.34198.89934.28813c.45111-.0189.57627-.31432.57627-.31432m-1.23695-2.8843s.07713.34344.89934.29105c.45112-.0218.57627-.3158.57627-.3158m1.00598 4.67932s.07712.34197.89934.28813c.4511-.0189.57626-.31432.57626-.31432m-1.23695-2.88431s.07713.34344.89935.29105c.45111-.0218.57626-.3158.57626-.3158m1.64268 1.19117s.07713.34198.89935.28813c.45111-.0189.57626-.31432.57626-.31432m-1.23694-2.8843s.07713.34344.89934.29105c.45111-.0218.57626-.3158.57626-.3158m1.00598 4.67932s.07713.34197.89934.28813c.45112-.0189.57627-.31432.57627-.31432m-1.23695-2.88431s.07713.34344.89934.29105c.45112-.0218.57627-.3158.57627-.3158m-10.51171 7.62881s.07713.34197.89934.28813c.45111-.0189.57627-.31432.57627-.31432m-1.23695-2.88431s.07713.34344.89934.29105c.45112-.0218.57627-.3158.57627-.3158M271.051 92.362s.07712.34198.89934.28814c.4511-.0189.57626-.31432.57626-.31432m-1.23695-2.88431s.07713.34344.89935.29105c.45111-.0218.57626-.3158.57626-.3158m1.64268 1.19118s.07713.34197.89935.28813c.45111-.0189.57626-.31432.57626-.31432m-1.23694-2.88431s.07713.34344.89934.29105c.45111-.0218.57626-.3158.57626-.3158m1.00598 4.67931s.07713.34198.89934.28814c.45112-.0189.57627-.31432.57627-.31432m-1.23695-2.88431s.07713.34344.89934.29105c.45112-.0218.57627-.3158.57627-.3158"/><rect width="69.58999" height="124.85294" x="88.66524" y="46.61297" fill="#ccd0ce" stroke="#e1e1e1" stroke-width="6.9" paint-order="stroke markers fill" ry="16.63049"/><path fill="#fff" d="M144.74516 67.40765h13.2349v13.2349h-13.2349z" paint-order="stroke markers fill"/><path fill="none" stroke="#bdbdbd" stroke-width=".41108" d="m144.75669 70.5689 13.22781-.006m-13.21983 3.34463 13.22782-.006m-13.22782 3.13704 13.22782-.006m-13.21983 3.34463 13.22781-.006"/><path fill="#fff" d="M144.74516 80.64254h13.2349v13.2349h-13.2349z" paint-order="stroke markers fill"/><path fill="none" stroke="#bdbdbd" stroke-width=".41108" d="m144.75669 83.8038 13.22781-.006m-13.21983 3.34462 13.22782-.006m-13.22782 3.13704 13.22782-.006m-13.21983 3.34464 13.22781-.006"/><path fill="#fff" d="M144.75886 93.93725h13.2349v13.2349h-13.2349z" paint-order="stroke markers fill"/><path fill="none" stroke="#bdbdbd" stroke-width=".41108" d="m144.77039 97.0985 13.22781-.006m-13.21983 3.34463 13.22782-.006m-13.22782 3.13704 13.22782-.006m-13.21983 3.34463 13.22781-.006"/><path fill="#fff" d="M158.2717 111.25532v13.2349h-13.2349v-13.2349z" paint-order="stroke markers fill"/><path fill="none" stroke="#bdbdbd" stroke-width=".41108" d="m155.11045 111.26684.006 13.22782m-3.34463-13.21983.006 13.22781m-3.13704-13.22781.006 13.22781m-3.34463-13.21983.006 13.22781"/><path fill="#fff" d="M158.27733 124.46897v13.2349h-13.2349v-13.2349z" paint-order="stroke markers fill"/><path fill="none" stroke="#bdbdbd" stroke-width=".41108" d="m155.11608 124.4805.006 13.22781m-3.34463-13.21983.006 13.22782m-3.13704-13.22782.006 13.22782m-3.34463-13.21983.006 13.22781"/><path fill="#fff" d="M158.28397 137.70447v13.2349h-13.2349v-13.2349z" paint-order="stroke markers fill"/><path fill="none" stroke="#bdbdbd" stroke-width=".41108" d="m155.12272 137.716.006 13.22781m-3.34462-13.21983.006 13.22781m-3.13705-13.22781.006 13.22781m-3.34463-13.21983.006 13.22782"/><path fill="#fff" d="M-7.5957 67.34713H5.6392v13.2349H-7.5957z" paint-order="stroke markers fill"/><path fill="none" stroke="#bdbdbd" stroke-width=".41108" d="m-7.58417 70.50838 13.22781-.006M-7.57619 73.847l13.22782-.006m-13.22782 3.13705 13.22782-.006M-7.5682 80.31668l13.22781-.006"/><path fill="#fff" d="M-7.5957 80.58202H5.6392v13.2349H-7.5957z" paint-order="stroke markers fill"/><path fill="none" stroke="#bdbdbd" stroke-width=".41108" d="m-7.58417 83.74327 13.22781-.006M-7.57619 87.0819l13.22782-.006m-13.22782 3.13704 13.22782-.006M-7.5682 93.55157l13.22781-.006"/><path fill="#fff" d="M-7.582 93.87673H5.6529v13.2349H-7.582z" paint-order="stroke markers fill"/><path fill="none" stroke="#bdbdbd" stroke-width=".41108" d="m-7.57047 97.03798 13.22781-.006m-13.21983 3.34463 13.22782-.006m-13.22782 3.13704 13.22782-.006m-13.21983 3.34463 13.22781-.006"/><path fill="#fff" d="M5.69055 111.1948v13.2349h-13.2349v-13.2349z" paint-order="stroke markers fill"/><path fill="none" stroke="#bdbdbd" stroke-width=".41108" d="m2.5293 111.20632.006 13.22782M-.80933 111.2143l.006 13.22782m-3.13704-13.22782.006 13.22782M-7.279 111.22229l.006 13.22781"/><path fill="#fff" d="M5.69618 124.40845v13.2349h-13.2349v-13.2349z" paint-order="stroke markers fill"/><path fill="none" stroke="#bdbdbd" stroke-width=".41108" d="m2.53493 124.41998.006 13.22781M-.8037 124.42796l.006 13.22782m-3.13704-13.22782.006 13.22782m-3.34463-13.21983.006 13.22781"/><path fill="#fff" d="M5.70282 137.64395v13.2349h-13.2349v-13.2349z" paint-order="stroke markers fill"/><path fill="none" stroke="#bdbdbd" stroke-width=".41108" d="m2.54157 137.65548.006 13.22781m-3.34463-13.21983.006 13.22781m-3.13704-13.22781.006 13.22781m-3.34463-13.21983.006 13.22782"/><path fill="#fff" d="M88.48527 67.40219h13.2349v13.2349h-13.2349z" paint-order="stroke markers fill"/><path fill="none" stroke="#bdbdbd" stroke-width=".41108" d="m88.4968 70.56344 13.22781-.006m-13.21983 3.34463 13.22782-.006M88.50478 77.0331l13.22782-.006m-13.21983 3.34464 13.22781-.006"/><path fill="#fff" d="M88.48527 80.63708h13.2349v13.2349h-13.2349z" paint-order="stroke markers fill"/><path fill="none" stroke="#bdbdbd" stroke-width=".41108" d="m88.4968 83.79833 13.22781-.006m-13.21983 3.34463 13.22782-.006M88.50478 90.268l13.22782-.006m-13.21983 3.34463 13.22781-.006"/><path fill="#fff" d="M88.49897 93.93179h13.2349v13.2349h-13.2349z" paint-order="stroke markers fill"/><path fill="none" stroke="#bdbdbd" stroke-width=".41108" d="m88.5105 97.09304 13.22781-.006m-13.21983 3.34463 13.22782-.006m-13.22782 3.13704 13.22782-.006m-13.21983 3.34463 13.22781-.006"/><path fill="#fff" d="M101.78957 77.26576h42.9344v9.41939h-42.9344z" paint-order="stroke markers fill"/><path fill="none" stroke="#bdbdbd" stroke-width=".41108" d="m-23.38066 328.20523 13.22781-.006m-13.21983 3.34463 13.22782-.006" transform="matrix(3.244 0 0 1 177.6745 -247.77822)"/><path fill="#fff" d="M88.5489 150.95441v-13.2349h13.2349v13.2349z" paint-order="stroke markers fill"/><path fill="none" stroke="#bdbdbd" stroke-width=".41108" d="m91.71014 150.94289-.006-13.22782m3.34463 13.21983-.006-13.22781m3.13704 13.22781-.006-13.22781m3.34463 13.21983-.006-13.22781"/><path fill="#fff" d="M88.54326 137.74076v-13.2349h13.2349v13.2349z" paint-order="stroke markers fill"/><path fill="none" stroke="#bdbdbd" stroke-width=".41108" d="m91.70451 137.72923-.006-13.22781m3.34463 13.21983-.006-13.22782m3.13704 13.22782-.006-13.22782m3.34463 13.21983-.006-13.22781"/><path fill="#fff" d="M88.53662 124.50526v-13.2349h13.2349v13.2349z" paint-order="stroke markers fill"/><path fill="none" stroke="#bdbdbd" stroke-width=".41108" d="m91.69787 124.49373-.006-13.22781m3.34463 13.21983-.006-13.22781m3.13704 13.22781-.006-13.22781m3.34463 13.21983-.006-13.22782"/><path fill="#fff" d="M242.64604 67.35054h13.2349v13.2349h-13.2349z" paint-order="stroke markers fill"/><path fill="none" stroke="#bdbdbd" stroke-width=".41108" d="m242.65757 70.51179 13.22781-.006m-13.21983 3.34463 13.22782-.006m-13.22782 3.13704 13.22782-.006m-13.21983 3.34463 13.22781-.006"/><path fill="#fff" d="M242.64604 80.58543h13.2349v13.2349h-13.2349z" paint-order="stroke markers fill"/><path fill="none" stroke="#bdbdbd" stroke-width=".41108" d="m242.65757 83.74668 13.22781-.006m-13.21983 3.34463 13.22782-.006m-13.22782 3.13704 13.22782-.006m-13.21983 3.34463 13.22781-.006"/><path fill="#fff" d="M242.65974 93.88014h13.2349v13.2349h-13.2349z" paint-order="stroke markers fill"/><path fill="none" stroke="#bdbdbd" stroke-width=".41108" d="m242.67127 97.04139 13.22781-.006m-13.21983 3.34463 13.22782-.006m-13.22782 3.13704 13.22782-.006m-13.21983 3.34463 13.22781-.006"/><path fill="#fff" d="M242.46938 150.90275v-13.2349h13.2349v13.2349z" paint-order="stroke markers fill"/><path fill="none" stroke="#bdbdbd" stroke-width=".41108" d="m245.63063 150.89123-.006-13.22782m3.34463 13.21983-.006-13.22781m3.13704 13.22781-.006-13.22781m3.34463 13.21983-.006-13.22781"/><path fill="#fff" d="M242.46375 137.6891v-13.2349h13.2349v13.2349z" paint-order="stroke markers fill"/><path fill="none" stroke="#bdbdbd" stroke-width=".41108" d="m245.625 137.67757-.006-13.22781m3.34463 13.21983-.006-13.22782m3.13704 13.22782-.006-13.22782m3.34463 13.21983-.006-13.22781"/><path fill="#fff" d="M242.4571 124.4536v-13.2349h13.2349v13.2349z" paint-order="stroke markers fill"/><path fill="none" stroke="#bdbdbd" stroke-width=".41108" d="m245.61836 124.44207-.006-13.22781m3.34463 13.21983-.006-13.22781m3.13704 13.22781-.006-13.22781m3.34463 13.21982-.006-13.2278"/></g></svg>
