<svg xmlns="http://www.w3.org/2000/svg" width="1217.101" height="1445.635" viewBox="0 0 322.025 382.491"><g transform="translate(405.217 -90.218)"><path fill="#a5a8a7" d="m12.105 509.844-548.517-2.052V-30.576l546.834-.438z" style="stroke-width:.370438"/><path fill="green" d="M-554.616-38.057h193.233v177.715h-193.233zm383.111 2.71H21.728V142.37h-193.233zm2.298 379.489H24.026v177.715h-193.233zm-380.435-.654h193.233v177.715h-193.233z" style="stroke-width:.239595"/><path fill="#ccd0ce" stroke="#e1e1e1" stroke-miterlimit="10" stroke-width="3.157" d="m-328.244-22.474-.152 179.314c.044 12.971-8.167 19.414-17.577 19.394-81.585-.17-188.522-.223-188.522-.223l-.116-58.835 99.77-.008s46.43-1.366 47.84-44.422l.713-94.893"/><path fill="#ccd0ce" stroke="#e1e1e1" stroke-miterlimit="10" stroke-width="3.157" d="m-5.867 176.295-179.314-.153c-12.972.044-19.414-8.166-19.394-17.577.17-81.584.223-188.522.223-188.522l58.835-.116.008 99.77s1.366 46.431 44.422 47.84l94.893.713" style="stroke-width:3.157;stroke-dasharray:none"/><path fill="#ccd0ce" stroke="#e1e1e1" stroke-miterlimit="10" stroke-width="3.157" d="m-204.355 498.182.152-179.314c-.043-12.972 8.167-19.415 17.578-19.394 81.584.17 188.522.222 188.522.222l.116 58.835-99.77.008s-46.431 1.367-47.84 44.423l-.713 94.892m-380.422-198.441 179.315.152c12.971-.043 19.414 8.167 19.393 17.578-.17 81.584-.222 188.522-.222 188.522l-58.835.115-.008-99.77s-1.367-46.43-44.423-47.839l-94.892-.713"/><g transform="matrix(.26356 .02328 -.02328 .26356 -591.808 -9.328)"><path fill="none" stroke="#432918" stroke-miterlimit="10" stroke-width="1.27" d="M1531.955 990.245a7.587 7.003 0 0 0-15.16 0v29.966a19.257 17.777 0 0 0-4.48-.513h-30.4a18.504 17.081 0 0 0-7.48 1.44v-30.893a7.587 7.003 0 0 0-15.16 0v39.727a7.56 6.979 0 0 0 3.964 6.1v.854a18.702 17.265 0 0 0 18.716 17.265h30.4a18.702 17.265 0 0 0 18.714-17.265 19.39 17.899 0 0 0-.317-3.16 7.56 6.979 0 0 0 1.243-3.843z"/><path fill="none" stroke="#432918" stroke-miterlimit="10" stroke-width="1.27" d="M1483.871 990.83a9.252 8.54 0 0 0-9.252 8.468v13.946a9.186 8.48 0 0 0 18.359 0v-13.946a9.173 8.468 0 0 0-9.107-8.467zm24.835 10.786h-2.3a8.062 7.443 0 0 0-8.062 7.443v4.758a8.062 7.443 0 0 0 8.062 7.43h2.3a8.05 7.43 0 0 0 8.05-7.43v-4.758a8.062 7.443 0 0 0-8.05-7.443z"/><rect width="180" height="8.525" x="-1103.279" y="1492.793" fill="#060709" rx="3.172" transform="rotate(-90)"/><path fill="#fdd535" d="M1531.955 990.245a7.587 7.003 0 0 0-15.16 0v29.966a19.257 17.777 0 0 0-4.48-.513h-30.4a18.504 17.081 0 0 0-7.48 1.44v-30.893a7.587 7.003 0 0 0-15.16 0v39.727a7.56 6.979 0 0 0 3.964 6.1v.854a18.702 17.265 0 0 0 18.716 17.265h30.4a18.702 17.265 0 0 0 18.714-17.265 19.39 17.899 0 0 0-.317-3.16 7.56 6.979 0 0 0 1.243-3.843z"/><path fill="#1e8dc7" d="M1483.871 990.83a9.252 8.54 0 0 0-9.252 8.468v13.946a9.186 8.48 0 0 0 18.359 0v-13.946a9.173 8.468 0 0 0-9.107-8.467zm24.835 10.786h-2.3a8.062 7.443 0 0 0-8.062 7.443v4.758a8.062 7.443 0 0 0 8.062 7.43h2.3a8.05 7.43 0 0 0 8.05-7.43v-4.758a8.062 7.443 0 0 0-8.05-7.443z"/><rect width="19.68" height="21.319" x="-1048.261" y="1484.744" fill="#b04f1a" rx="9.834" transform="rotate(-90)"/><path fill="#060709" d="m1490.202 961.316-25.496 17.204a3.635 3.355 0 0 0 4.283 5.417l25.43-17.216a3.627 3.348 0 1 0-4.283-5.405zm37.47 19.68-23.275-17.935a3.621 3.343 0 1 0-4.639 5.124l23.196 17.924a3.622 3.343 0 0 0 4.653-5.125z"/></g><g transform="rotate(-90 26.659 560.246) scale(.26458)"><path fill="none" stroke="#432918" stroke-miterlimit="10" stroke-width="1.27" d="M1531.955 990.245a7.587 7.003 0 0 0-15.16 0v29.966a19.257 17.777 0 0 0-4.48-.513h-30.4a18.504 17.081 0 0 0-7.48 1.44v-30.893a7.587 7.003 0 0 0-15.16 0v39.727a7.56 6.979 0 0 0 3.964 6.1v.854a18.702 17.265 0 0 0 18.716 17.265h30.4a18.702 17.265 0 0 0 18.714-17.265 19.39 17.899 0 0 0-.317-3.16 7.56 6.979 0 0 0 1.243-3.843z"/><path fill="none" stroke="#432918" stroke-miterlimit="10" stroke-width="1.27" d="M1483.871 990.83a9.252 8.54 0 0 0-9.252 8.468v13.946a9.186 8.48 0 0 0 18.359 0v-13.946a9.173 8.468 0 0 0-9.107-8.467zm24.835 10.786h-2.3a8.062 7.443 0 0 0-8.062 7.443v4.758a8.062 7.443 0 0 0 8.062 7.43h2.3a8.05 7.43 0 0 0 8.05-7.43v-4.758a8.062 7.443 0 0 0-8.05-7.443z"/><rect width="180" height="8.525" x="-1103.279" y="1492.793" fill="#060709" rx="3.172" transform="rotate(-90)"/><path fill="#fdd535" d="M1531.955 990.245a7.587 7.003 0 0 0-15.16 0v29.966a19.257 17.777 0 0 0-4.48-.513h-30.4a18.504 17.081 0 0 0-7.48 1.44v-30.893a7.587 7.003 0 0 0-15.16 0v39.727a7.56 6.979 0 0 0 3.964 6.1v.854a18.702 17.265 0 0 0 18.716 17.265h30.4a18.702 17.265 0 0 0 18.714-17.265 19.39 17.899 0 0 0-.317-3.16 7.56 6.979 0 0 0 1.243-3.843z"/><path fill="#1e8dc7" d="M1483.871 990.83a9.252 8.54 0 0 0-9.252 8.468v13.946a9.186 8.48 0 0 0 18.359 0v-13.946a9.173 8.468 0 0 0-9.107-8.467zm24.835 10.786h-2.3a8.062 7.443 0 0 0-8.062 7.443v4.758a8.062 7.443 0 0 0 8.062 7.43h2.3a8.05 7.43 0 0 0 8.05-7.43v-4.758a8.062 7.443 0 0 0-8.05-7.443z"/><rect width="19.68" height="21.319" x="-1048.261" y="1484.744" fill="#b04f1a" rx="9.834" transform="rotate(-90)"/><path fill="#060709" d="m1490.202 961.316-25.496 17.204a3.635 3.355 0 0 0 4.283 5.417l25.43-17.216a3.627 3.348 0 1 0-4.283-5.405zm37.47 19.68-23.275-17.935a3.621 3.343 0 1 0-4.639 5.124l23.196 17.924a3.622 3.343 0 0 0 4.653-5.125z"/></g><rect width="20.995" height="79.171" x="-367.102" y="-61.689" ry="10.444" style="fill:#ccd0ce;fill-opacity:1;stroke:#e1e1e1;stroke-width:4.417;stroke-linecap:round;stroke-linejoin:round;stroke-dasharray:none;stroke-dashoffset:0;stroke-opacity:1;paint-order:stroke markers fill" transform="rotate(-45.293) skewX(-.108)"/><circle cx="-357.581" cy="-124.347" r="7.969" fill="#f60" style="stroke-width:.5333" transform="rotate(-44.599)"/><circle cx="-354.9" cy="-61.224" r="7.969" fill="#f60" style="stroke-width:.5333" transform="rotate(-46.92)"/><circle cx="-356.609" cy="11.173" r="7.969" fill="#f60" style="stroke-width:.5333" transform="rotate(-44.599)"/><circle cx="-359.3" cy="74.308" r="7.969" fill="#f60" style="stroke-width:.5333" transform="rotate(-46.92)"/><g transform="matrix(-.29902 .0018 .00133 .26458 -20.798 -102.184)"><rect width="155.9" height="441.8" x="671.4" y="1687.2" fill="#89bd27" rx="28" transform="rotate(.2)"/><path fill="#8a8989" d="M793.8 1694a25 34.1.2 0 1 25 34.1l-1.3 365.2a25 34.1.2 0 1-25.1 34.1l-99.8-.3a25 34.1.2 0 1-25-34.2l1.3-365.3a25 34.1.2 0 1 25-34l99.9.3m0-8.2-99.8-.4a31 42.4.2 0 0-31.2 42.3l-1.2 365.2a31 42.4.2 0 0 31 42.5l99.8.4a31.1 42.4.2 0 0 31.2-42.3l1.1-365.2a31.1 42.4.2 0 0-30.9-42.5z"/><path fill="#060709" d="m784.9 2029 6.2 31c1 5.4-3 10.5-8.3 10.5l-79.4-.3a8.7 8.7 0 0 1-8.3-10.4l6.4-31.2c.8-4 4.1-6.7 8-6.7l67.4.2c3.9 0 7.1 2.8 8 6.8zm-107.5-113.1.1-47a6 8.8.2 0 1 6.1-8.7h3.6a2.4 3.5.2 0 1 2.4 3.6l-.2 57.4a2.4 3.5.2 0 1-2.4 3.5h-3.6a6 8.8.2 0 1-6-8.8zm133.5-115.2v-5.4a6 6.8.2 0 1 6-6.8h7.7a6 6.8.2 0 1 6 6.8 6 6.8.2 0 1-6 6.8H812a1.2 1.4.2 0 1-1.2-1.4zm-155.3-6a6 6.8.2 0 1 6-6.8h7.7a6 6.8.2 0 1 6 6.9v5.4a1.2 1.4.2 0 1-1.2 1.4h-12.5a6 6.8.2 0 1-6-6.9zm21.6 206.8.1-47a6 8.8.2 0 1 6-8.7h3.7a2.4 3.5.2 0 1 2.4 3.5l-.2 57.4a2.4 3.5.2 0 1-2.4 3.5h-3.6a6 8.8.2 0 1-6-8.8zm128.1-46.6-.4 47a6 8.8.6 0 1-6.2 8.6h-3.6a2.4 3.5.6 0 1-2.4-3.6l.6-57.4a2.4 3.5.6 0 1 2.5-3.4h3.6a6 8.8.6 0 1 6 8.8zm.9-85.6-.5 47a6 8.8.6 0 1-6.2 8.6H796a2.4 3.5.6 0 1-2.4-3.5l.6-57.4a2.4 3.5.6 0 1 2.5-3.5h3.6a6 8.8.6 0 1 6 8.8zm-7.5-60.3-8.6 34.5c-1 4.4-5 7.3-9.6 7.3l-76.1-.3a9.5 9.5 0 0 1-9.5-7l-9-34.6c-1.6-5.8 3.9-11.7 10.6-11.7l91.7.3c6.6 0 12 5.8 10.5 11.5z"/><rect width="17.9" height="36.2" x="-2112.1" y="689.6" fill="#9b4c17" rx="8.9" transform="rotate(-89.8)"/><g fill="#ff7f2a" transform="translate(-1.4 391.2)"><rect width="17.9" height="36.2" x="-1720.9" y="782" rx="8.9" transform="rotate(-89.8)"/><rect width="22" height="5" x="815.1" y="1712.3" rx="0" ry="2.5"/><rect width="20" height="5" x="-150.1" y="1883.6" rx="0" ry="2.5" transform="rotate(-30)"/><rect width="20" height="5" x="1564.3" y="-1086.6" rx="0" ry="2.5" transform="scale(1 -1) rotate(-30)"/></g><rect width="17.9" height="36.2" x="-2112.1" y="777.6" fill="#9b4c17" rx="8.9" transform="rotate(-89.8)"/><rect width="17.9" height="36.2" x="-1721" y="689.6" fill="#edeeac" rx="8.9" transform="rotate(-89.8)"/><rect width="17.9" height="36.2" x="-1720.9" y="782" fill="#ff7f2a" rx="8.9" transform="rotate(-89.8)"/><rect width="22" height="5" x="815.1" y="1712.3" fill="#ff7f2a" rx="0" ry="2.5"/><rect width="20" height="5" x="-150.1" y="1883.6" fill="#ff7f2a" rx="0" ry="2.5" transform="rotate(-30)"/><rect width="20" height="5" x="1564.3" y="-1086.6" fill="#ff7f2a" rx="0" ry="2.5" transform="scale(1 -1) rotate(-30)"/><rect width="17.9" height="36.2" x="-1721" y="774.8" fill="#edeeac" rx="8.9" transform="rotate(-89.8)"/></g><g transform="matrix(.0018 -.29902 .26458 .00133 -619.366 439.42)"><rect width="155.9" height="441.8" x="671.4" y="1687.2" fill="#89bd27" rx="28" transform="rotate(.2)"/><path fill="#8a8989" d="M793.8 1694a25 34.1.2 0 1 25 34.1l-1.3 365.2a25 34.1.2 0 1-25.1 34.1l-99.8-.3a25 34.1.2 0 1-25-34.2l1.3-365.3a25 34.1.2 0 1 25-34l99.9.3m0-8.2-99.8-.4a31 42.4.2 0 0-31.2 42.3l-1.2 365.2a31 42.4.2 0 0 31 42.5l99.8.4a31.1 42.4.2 0 0 31.2-42.3l1.1-365.2a31.1 42.4.2 0 0-30.9-42.5z"/><path fill="#060709" d="m784.9 2029 6.2 31c1 5.4-3 10.5-8.3 10.5l-79.4-.3a8.7 8.7 0 0 1-8.3-10.4l6.4-31.2c.8-4 4.1-6.7 8-6.7l67.4.2c3.9 0 7.1 2.8 8 6.8zm-107.5-113.1.1-47a6 8.8.2 0 1 6.1-8.7h3.6a2.4 3.5.2 0 1 2.4 3.6l-.2 57.4a2.4 3.5.2 0 1-2.4 3.5h-3.6a6 8.8.2 0 1-6-8.8zm133.5-115.2v-5.4a6 6.8.2 0 1 6-6.8h7.7a6 6.8.2 0 1 6 6.8 6 6.8.2 0 1-6 6.8H812a1.2 1.4.2 0 1-1.2-1.4zm-155.3-6a6 6.8.2 0 1 6-6.8h7.7a6 6.8.2 0 1 6 6.9v5.4a1.2 1.4.2 0 1-1.2 1.4h-12.5a6 6.8.2 0 1-6-6.9zm21.6 206.8.1-47a6 8.8.2 0 1 6-8.7h3.7a2.4 3.5.2 0 1 2.4 3.5l-.2 57.4a2.4 3.5.2 0 1-2.4 3.5h-3.6a6 8.8.2 0 1-6-8.8zm128.1-46.6-.4 47a6 8.8.6 0 1-6.2 8.6h-3.6a2.4 3.5.6 0 1-2.4-3.6l.6-57.4a2.4 3.5.6 0 1 2.5-3.4h3.6a6 8.8.6 0 1 6 8.8zm.9-85.6-.5 47a6 8.8.6 0 1-6.2 8.6H796a2.4 3.5.6 0 1-2.4-3.5l.6-57.4a2.4 3.5.6 0 1 2.5-3.5h3.6a6 8.8.6 0 1 6 8.8zm-7.5-60.3-8.6 34.5c-1 4.4-5 7.3-9.6 7.3l-76.1-.3a9.5 9.5 0 0 1-9.5-7l-9-34.6c-1.6-5.8 3.9-11.7 10.6-11.7l91.7.3c6.6 0 12 5.8 10.5 11.5z"/><rect width="17.9" height="36.2" x="-2112.1" y="689.6" fill="#9b4c17" rx="8.9" transform="rotate(-89.8)"/><g fill="#ff7f2a" transform="translate(-1.4 391.2)"><rect width="17.9" height="36.2" x="-1720.9" y="782" rx="8.9" transform="rotate(-89.8)"/><rect width="22" height="5" x="815.1" y="1712.3" rx="0" ry="2.5"/><rect width="20" height="5" x="-150.1" y="1883.6" rx="0" ry="2.5" transform="rotate(-30)"/><rect width="20" height="5" x="1564.3" y="-1086.6" rx="0" ry="2.5" transform="scale(1 -1) rotate(-30)"/></g><rect width="17.9" height="36.2" x="-2112.1" y="777.6" fill="#9b4c17" rx="8.9" transform="rotate(-89.8)"/><rect width="17.9" height="36.2" x="-1721" y="689.6" fill="#edeeac" rx="8.9" transform="rotate(-89.8)"/><rect width="17.9" height="36.2" x="-1720.9" y="782" fill="#ff7f2a" rx="8.9" transform="rotate(-89.8)"/><rect width="22" height="5" x="815.1" y="1712.3" fill="#ff7f2a" rx="0" ry="2.5"/><rect width="20" height="5" x="-150.1" y="1883.6" fill="#ff7f2a" rx="0" ry="2.5" transform="rotate(-30)"/><rect width="20" height="5" x="1564.3" y="-1086.6" fill="#ff7f2a" rx="0" ry="2.5" transform="scale(1 -1) rotate(-30)"/><rect width="17.9" height="36.2" x="-1721" y="774.8" fill="#edeeac" rx="8.9" transform="rotate(-89.8)"/></g><g transform="rotate(128.173 40.434 94.25) scale(.26458)"><path fill="none" stroke="#432918" stroke-miterlimit="10" stroke-width="1.27" d="M1531.955 990.245a7.587 7.003 0 0 0-15.16 0v29.966a19.257 17.777 0 0 0-4.48-.513h-30.4a18.504 17.081 0 0 0-7.48 1.44v-30.893a7.587 7.003 0 0 0-15.16 0v39.727a7.56 6.979 0 0 0 3.964 6.1v.854a18.702 17.265 0 0 0 18.716 17.265h30.4a18.702 17.265 0 0 0 18.714-17.265 19.39 17.899 0 0 0-.317-3.16 7.56 6.979 0 0 0 1.243-3.843z"/><path fill="none" stroke="#432918" stroke-miterlimit="10" stroke-width="1.27" d="M1483.871 990.83a9.252 8.54 0 0 0-9.252 8.468v13.946a9.186 8.48 0 0 0 18.359 0v-13.946a9.173 8.468 0 0 0-9.107-8.467zm24.835 10.786h-2.3a8.062 7.443 0 0 0-8.062 7.443v4.758a8.062 7.443 0 0 0 8.062 7.43h2.3a8.05 7.43 0 0 0 8.05-7.43v-4.758a8.062 7.443 0 0 0-8.05-7.443z"/><rect width="180" height="8.525" x="-1103.279" y="1492.793" fill="#060709" rx="3.172" transform="rotate(-90)"/><path fill="#fdd535" d="M1531.955 990.245a7.587 7.003 0 0 0-15.16 0v29.966a19.257 17.777 0 0 0-4.48-.513h-30.4a18.504 17.081 0 0 0-7.48 1.44v-30.893a7.587 7.003 0 0 0-15.16 0v39.727a7.56 6.979 0 0 0 3.964 6.1v.854a18.702 17.265 0 0 0 18.716 17.265h30.4a18.702 17.265 0 0 0 18.714-17.265 19.39 17.899 0 0 0-.317-3.16 7.56 6.979 0 0 0 1.243-3.843z"/><path fill="#1e8dc7" d="M1483.871 990.83a9.252 8.54 0 0 0-9.252 8.468v13.946a9.186 8.48 0 0 0 18.359 0v-13.946a9.173 8.468 0 0 0-9.107-8.467zm24.835 10.786h-2.3a8.062 7.443 0 0 0-8.062 7.443v4.758a8.062 7.443 0 0 0 8.062 7.43h2.3a8.05 7.43 0 0 0 8.05-7.43v-4.758a8.062 7.443 0 0 0-8.05-7.443z"/><rect width="19.68" height="21.319" x="-1048.261" y="1484.744" fill="#b04f1a" rx="9.834" transform="rotate(-90)"/><path fill="#060709" d="m1490.202 961.316-25.496 17.204a3.635 3.355 0 0 0 4.283 5.417l25.43-17.216a3.627 3.348 0 1 0-4.283-5.405zm37.47 19.68-23.275-17.935a3.621 3.343 0 1 0-4.639 5.124l23.196 17.924a3.622 3.343 0 0 0 4.653-5.125z"/></g></g></svg>
