<svg xmlns="http://www.w3.org/2000/svg" xmlns:xlink="http://www.w3.org/1999/xlink" viewBox="0 0 600.995 600.995" width="25" height="25"><defs><path d="m 23.859,456.511 0,-0.047 -0.05,0 0.05,0.047 z" id="reuse-4"/><path d="m 23.809,456.464 0,0.047 0,-0.047 0.05,0.047 -0.05,-0.047 z" id="reuse-3"/><path d="m 23.859,456.464 -0.05,0 0.023,0 0,0.047 0.027,-0.047 z" id="reuse-2"/><path d="m 23.809,456.464 0,0.047 0.05,-0.047 -0.05,0 z m 0.05,0 -0.05,0.047 0,-0.047 0.05,0 z" id="reuse-1"/><path d="m 23.809,456.511 0.051,0 0,-0.047 -0.051,0 0,0.047 z" id="reuse-0"/></defs><path d="m 480.398,240.398 c 0,-132.551 -107.449,-240 -240,-240 -132.55,0 -240,107.449 -240,240 0,132.55 107.45,240 240,240 132.551,0 240,-107.45 240,-240 z" fill="#fff" transform="matrix(1.25 0 0 -1.25 0 601)"/><path d="M 240.398,480.796 C 107.633,480.796 0,373.163 0,240.398 0,107.632 107.633,-0.001 240.398,-0.001 c 132.766,0 240.399,107.633 240.399,240.399 0,132.765 -107.633,240.398 -240.399,240.398 z m 0,-0.398 c 132.551,0 240,-107.45 240,-240 0,-132.551 -107.449,-240 -240,-240 -132.55,0 -240,107.449 -240,240 0,132.55 107.45,240 240,240 z" transform="matrix(1.25 0 0 -1.25 0 601)"/><path d="m 240.398,472.398 c -127.746,0 -232,-104.254 -232,-232 0,-127.747 104.254,-232 232,-232 127.747,0 232,104.253 232,232 0,127.746 -104.253,232 -232,232 z m 0,-64.321 c 92.989,0 167.68,-74.691 167.68,-167.679 0,-92.989 -74.691,-167.68 -167.68,-167.68 -92.988,0 -167.679,74.691 -167.679,167.68 0,92.988 74.691,167.679 167.679,167.679 z" fill="#c1121c" transform="matrix(1.25 0 0 -1.25 0 601)"/><path d="m 23.832,456.511 0,-0.024 -0.023,0 0.023,0.024 z" transform="matrix(1.25 0 0 -1.25 0 601)"/><path d="m 23.809,456.511 0.023,0 0,-0.023 -0.023,0 0,0.023 z" transform="matrix(1.25 0 0 -1.25 0 601)"/><path d="m 23.809,456.487 0,0.024 0.023,-0.024 -0.023,0 z m 0.023,0 -0.023,0.024 0,-0.024 0.023,0 z" transform="matrix(1.25 0 0 -1.25 0 601)"/><path d="m 23.859,456.487 -0.05,0 0.023,0 0,0.024 0.027,-0.024 z" transform="matrix(1.25 0 0 -1.25 0 601)"/><path d="m 23.809,456.487 0,0.024 0,-0.024 0.023,0.024 -0.023,-0.024 z" transform="matrix(1.25 0 0 -1.25 0 601)"/><path d="M23.809 456.511l.023 0 0-.023-.023 0 0 .023zM23.859 456.511l0-.047-.05 0 .05.047z" transform="matrix(1.25 0 0 -1.25 0 601)"/><use transform="matrix(1.25 0 0 -1.25 0 601)" xlink:href="#reuse-0"/><use transform="matrix(1.25 0 0 -1.25 0 601)" xlink:href="#reuse-1"/><use transform="matrix(1.25 0 0 -1.25 0 601)" xlink:href="#reuse-2"/><use transform="matrix(1.25 0 0 -1.25 0 601)" xlink:href="#reuse-3"/><use transform="matrix(1.25 0 0 -1.25 0 601)" xlink:href="#reuse-0"/><use transform="matrix(1.25 0 0 -1.25 0 601)" xlink:href="#reuse-4"/><use transform="matrix(1.25 0 0 -1.25 0 601)" xlink:href="#reuse-0"/><use transform="matrix(1.25 0 0 -1.25 0 601)" xlink:href="#reuse-1"/><use transform="matrix(1.25 0 0 -1.25 0 601)" xlink:href="#reuse-2"/><use transform="matrix(1.25 0 0 -1.25 0 601)" xlink:href="#reuse-3"/><use transform="matrix(1.25 0 0 -1.25 0 601)" xlink:href="#reuse-0"/><use transform="matrix(1.25 0 0 -1.25 0 601)" xlink:href="#reuse-4"/><use transform="matrix(1.25 0 0 -1.25 0 601)" xlink:href="#reuse-0"/><use transform="matrix(1.25 0 0 -1.25 0 601)" xlink:href="#reuse-1"/><use transform="matrix(1.25 0 0 -1.25 0 601)" xlink:href="#reuse-2"/><use transform="matrix(1.25 0 0 -1.25 0 601)" xlink:href="#reuse-3"/><use transform="matrix(1.25 0 0 -1.25 0 601)" xlink:href="#reuse-0"/><path d="M201.723 272.887c0 27.187-22.035 49.222-49.223 49.222-27.184 0-49.223-22.035-49.223-49.222 0-27.184 22.039-49.223 49.223-49.223 27.188 0 49.223 22.039 49.223 49.223zM377.52 271.969c0 27.187-22.04 49.222-49.223 49.222-27.188 0-49.223-22.035-49.223-49.222 0-27.184 22.035-49.223 49.223-49.223 27.183 0 49.223 22.039 49.223 49.223z" fill="none" stroke="#000" stroke-width="12.22922611" transform="matrix(1.25 0 0 1.25 0 0)"/><path d="m 218.074,328.222 c -40.527,-0.395 -33.656,4.187 -55.461,-65.887 -17.761,-55.992 -15.828,-49.887 -15.922,-53.816 -0.066,-3.051 2.399,-5.469 5.493,-5.676 6.437,0.652 3.73,-0.695 26.046,68.601 81.543,-86.019 50.95,-72.07 94.833,-73.816 57.675,0.555 62.363,-3.004 63.046,5.453 -0.078,2.867 -1.421,4.582 -41.004,92.672 l 3.793,10.43 13.036,0.234 -0.473,10.902 -48.59,0 c -4.293,-5.871 1.738,-5.843 23.465,-10.664 l -3.793,-10.664 -96.938,-0.238 c 6.532,22.805 2.844,21.383 32.235,21.332 l 0.234,11.137 z m -35.269,-44.16 94.855,0.168 -27.414,-73.664 -67.441,73.496 z m 106.293,-4.371 -26.91,-70.637 58.863,-0.172 -31.953,70.809 z" fill-rule="evenodd" transform="matrix(1.25 0 0 -1.25 0 601)"/></svg>
