<svg xmlns="http://www.w3.org/2000/svg" width="25" height="25" viewBox="0 0 600.995 600.995"><path fill="#fff" d="M600.498 300.502c0 165.69-134.312 300-300 300s-300-134.31-300-300c0-165.687 134.312-300 300-300s300 134.313 300 300z"/><path d="M300.498.005C134.54.005 0 134.546 0 300.503S134.541 601 300.498 601s300.497-134.54 300.497-300.497S466.455.005 300.497.005zm0 .497c165.688 0 300 134.313 300 300 0 165.69-134.312 300-300 300s-300-134.31-300-300c0-165.687 134.312-300 300-300z"/><path fill="#c1121c" d="M300.498 10.502c-159.683 0-290 130.318-290 290 0 159.684 130.317 290 290 290s290-130.316 290-290c0-159.682-130.317-290-290-290zm0 80.402c116.236 0 209.6 93.363 209.6 209.598 0 116.237-93.364 209.6-209.6 209.6-116.235 0-209.6-93.363-209.6-209.6 0-116.235 93.365-209.598 209.6-209.598z"/><path d="M29.79 30.361v.03h-.029l.029-.03z"/><path d="M29.761 30.361h.029v.029h-.029v-.029z"/><path d="M29.761 30.391v-.03l.029.03h-.029zm.029 0-.029-.03v.03h.029z"/><path d="M29.824 30.391h-.063.029v-.03l.034.03zm-.063 0v-.03.03l.029-.03-.029.03z"/><path d="M29.761 30.361h.029v.029h-.029v-.029zm.063 0v.059h-.063l.063-.059z"/><path fill="none" stroke="#000" stroke-width="15.286" d="M252.154 341.109c0 33.984-27.544 61.527-61.529 61.527-33.98 0-61.529-27.544-61.529-61.527 0-33.98 27.549-61.529 61.529-61.529 33.985 0 61.529 27.549 61.529 61.529zM471.9 339.96c0 33.984-27.55 61.528-61.529 61.528-33.985 0-61.529-27.544-61.529-61.528 0-33.98 27.544-61.529 61.53-61.529 33.978 0 61.528 27.55 61.528 61.53z"/><path fill-rule="evenodd" d="M272.593 190.723c-50.66.493-42.07-5.234-69.327 82.358-22.201 69.99-19.785 62.359-19.902 67.27-.083 3.814 2.999 6.837 6.866 7.095 8.046-.815 4.663.869 32.558-85.751 101.928 107.524 63.687 90.088 118.54 92.27 72.095-.694 77.955 3.755 78.808-6.816-.097-3.584-1.776-5.728-51.255-115.84l4.742-13.038 16.295-.292-.592-13.628H328.59c-5.366 7.339 2.172 7.304 29.331 13.33l-4.741 13.33-121.173.298c8.165-28.506 3.555-26.729 40.294-26.665l.293-13.921zm-44.087 55.2 118.569-.21-34.267 92.08-84.302-91.87zm132.867 5.463-33.638 88.297 73.579.215-39.941-88.512z"/></svg>