<svg xmlns="http://www.w3.org/2000/svg" viewBox="0 0 600.995 600.995" width="25" height="25"><path d="m 480.398,240.398 c 0,-132.551 -107.449,-240 -240,-240 -132.55,0 -240,107.449 -240,240 0,132.55 107.45,240 240,240 132.551,0 240,-107.45 240,-240 z" fill="#fff" transform="matrix(1.25 0 0 -1.25 0 601)"/><path d="M 240.398,480.796 C 107.633,480.796 0,373.163 0,240.398 0,107.632 107.633,-0.001 240.398,-0.001 c 132.766,0 240.399,107.633 240.399,240.399 0,132.765 -107.633,240.398 -240.399,240.398 z m 0,-0.398 c 132.551,0 240,-107.45 240,-240 0,-132.551 -107.449,-240 -240,-240 -132.55,0 -240,107.449 -240,240 0,132.55 107.45,240 240,240 z" transform="matrix(1.25 0 0 -1.25 0 601)"/><path d="m 240.398,472.398 c -127.746,0 -232,-104.254 -232,-232 0,-127.747 104.254,-232 232,-232 127.747,0 232,104.253 232,232 0,127.746 -104.253,232 -232,232 z m 0,-64.321 c 92.989,0 167.68,-74.691 167.68,-167.679 0,-92.989 -74.691,-167.68 -167.68,-167.68 -92.988,0 -167.679,74.691 -167.679,167.68 0,92.988 74.691,167.679 167.679,167.679 z" fill="#c1121c" transform="matrix(1.25 0 0 -1.25 0 601)"/><path transform="matrix(.30953 0 0 -.30953 98 380)" d="m 729.355,567.926 c -31.062,0 -58.507,-20.235 -67.695,-49.91 l 0.004,0.004 C 627.57,407.883 590.578,288.523 556.41,178.156 H 305.691 l -138.332,151.481 -9.695,-31.309 -0.137,-0.437 -17.746,-57.336 c -6.058,0.925 -12.179,1.386 -18.308,1.386 C 54.938,241.941 1,188.004 1,121.473 1,54.938 54.938,1 121.473,1 c 66.535,0 120.468,53.938 120.468,120.473 0,46.293 -26.527,88.492 -68.246,108.562 l -35.3,-113.801 24.66,79.414 c 26.84,-15.043 43.457,-43.41 43.457,-74.175 0,-46.969 -38.074,-85.039 -85.039,-85.039 -46.965,0 -85.039,38.07 -85.039,85.039 0,46.965 38.074,85.039 85.039,85.039 2.558,0 5.117,-0.117 7.668,-0.344 l -24.59,-79.449 c -0.528,-1.699 -0.797,-3.469 -0.797,-5.246 0,-9.785 7.934,-17.719 17.719,-17.719 7.765,0 14.625,5.058 16.922,12.48 L 182.93,260.117 290.133,142.73 h 627.129 l 51.093,-0.007 C 985.195,60.238 1057.754,1 1141.938,1 c 97.843,0 177.164,79.32 177.164,177.164 0,97.844 -79.321,177.164 -177.164,177.164 -18.649,0 -37.18,-2.945 -54.911,-8.723 l -51.386,115.024 13.281,35.43 h 39.859 v 35.433 l -150.652,-0.14 c -4.852,0 -8.789,-3.934 -8.789,-8.79 0,-4.062 2.789,-7.597 6.742,-8.542 l 75,-17.961 C 985.395,428.57 958.984,360.574 933.562,291.855 H 791.426 L 670.34,426.195 h -0.176 l 11.145,35.434 14.199,45.914 c 4.594,14.836 18.316,24.949 33.847,24.949 h 58.254 v 35.434 z m 288.571,-153.528 36.679,-82.093 C 999.086,300.852 964.773,241.973 964.773,178.164 H 929.34 Z M 658.234,387.125 846.246,178.164 H 593.438 l 64.699,208.641 z m 483.704,-67.23 c 78.277,0 141.73,-63.454 141.73,-141.731 0,-78.277 -63.453,-141.73 -141.73,-141.73 -64.626,0 -121.071,43.718 -137.231,106.293 v 0.003 l 146.02,-0.14 c 9.863,0 17.855,7.996 17.855,17.859 0,2.496 -0.523,4.969 -1.535,7.25 l -65.496,146.321 c 13.109,3.898 26.711,5.875 40.387,5.875 z m -72.786,-20.118 54.321,-121.613 h -123.266 c 0,49.84 26.18,96.02 68.945,121.613 z M 823.363,256.422 h 97.09 l -28.246,-76.371 z"/><path transform="matrix(.30953 0 0 -.30953 98 380)" d="M 622.723,440.367 545.926,192.336 H 312.211 L 150.941,368.98 c 52.403,78.239 251.407,76.887 471.782,71.387"/></svg>
