<svg width="1560.346" height="1740.562" xmlns="http://www.w3.org/2000/svg"><path d="m1379.766 1742.805-1214.423-6.754V-35.959l1210.697-1.44z" fill="#a5a8a7"/><path d="M-412.777 1246.132v-730.28h1438.29v730.28z" fill="#a5a8a7"/><g transform="translate(-288.478 85.983)"><path d="M1531.955 990.245a7.587 7.003 0 0 0-15.16 0v29.966a19.257 17.777 0 0 0-4.48-.513h-30.4a18.504 17.081 0 0 0-7.48 1.44v-30.893a7.587 7.003 0 0 0-15.16 0v39.727a7.56 6.979 0 0 0 3.964 6.1v.854a18.702 17.265 0 0 0 18.716 17.265h30.4a18.702 17.265 0 0 0 18.714-17.265 19.39 17.899 0 0 0-.317-3.16 7.56 6.979 0 0 0 1.243-3.843z" fill="none" stroke="#432918" stroke-width="1.27" stroke-miterlimit="10"/><path d="M1483.871 990.83a9.252 8.54 0 0 0-9.252 8.468v13.946a9.186 8.48 0 0 0 18.359 0v-13.946a9.173 8.468 0 0 0-9.107-8.467zm24.835 10.786h-2.3a8.062 7.443 0 0 0-8.062 7.443v4.758a8.062 7.443 0 0 0 8.062 7.43h2.3a8.05 7.43 0 0 0 8.05-7.43v-4.758a8.062 7.443 0 0 0-8.05-7.443z" fill="none" stroke="#432918" stroke-width="1.27" stroke-miterlimit="10"/><rect x="-1103.279" y="1492.793" width="180" height="8.525" rx="3.172" transform="rotate(-90)" fill="#060709"/><path d="M1531.955 990.245a7.587 7.003 0 0 0-15.16 0v29.966a19.257 17.777 0 0 0-4.48-.513h-30.4a18.504 17.081 0 0 0-7.48 1.44v-30.893a7.587 7.003 0 0 0-15.16 0v39.727a7.56 6.979 0 0 0 3.964 6.1v.854a18.702 17.265 0 0 0 18.716 17.265h30.4a18.702 17.265 0 0 0 18.714-17.265 19.39 17.899 0 0 0-.317-3.16 7.56 6.979 0 0 0 1.243-3.843z" fill="#fdd535"/><path d="M1483.871 990.83a9.252 8.54 0 0 0-9.252 8.468v13.946a9.186 8.48 0 0 0 18.359 0v-13.946a9.173 8.468 0 0 0-9.107-8.467zm24.835 10.786h-2.3a8.062 7.443 0 0 0-8.062 7.443v4.758a8.062 7.443 0 0 0 8.062 7.43h2.3a8.05 7.43 0 0 0 8.05-7.43v-4.758a8.062 7.443 0 0 0-8.05-7.443z" fill="#1e8dc7"/><rect x="-1048.261" y="1484.744" width="19.68" height="21.319" rx="9.834" transform="rotate(-90)" fill="#b04f1a"/><path d="m1490.202 961.316-25.496 17.204a3.635 3.355 0 0 0 4.283 5.417l25.43-17.216a3.627 3.348 0 1 0-4.283-5.405zm37.47 19.68-23.275-17.935a3.621 3.343 0 1 0-4.639 5.124l23.196 17.924a3.622 3.343 0 0 0 4.653-5.125z" fill="#060709"/></g><g transform="matrix(1.17143 0 0 1 -480.636 -10.448)"><rect x="1148.301" y="1247.945" width="155.886" height="441.752" rx="28.048" fill="#89bd27"/><path d="M1276.139 1252.085a25.026 34.146 0 0 1 25.026 34.146v365.213a25.026 34.146 0 0 1-25.026 34.146h-99.802a25.014 34.13 0 0 1-25.014-34.146V1286.23a25.014 34.13 0 0 1 25.014-34.146h99.802m0-8.248h-99.802a31.095 42.427 0 0 0-31.059 42.394v365.213a31.095 42.427 0 0 0 31.06 42.393h99.8a31.107 42.443 0 0 0 31.071-42.393V1286.23a31.107 42.443 0 0 0-31.07-42.394z" fill="#8a8989"/><path d="m1268.304 1587.123 6.323 31.122c1.076 5.35-2.998 10.46-8.293 10.46h-79.418c-5.283 0-9.37-5.14-8.294-10.46l6.323-31.122c.81-3.99 4.099-6.798 7.967-6.798h67.377c3.88 0 7.157 2.809 8.015 6.798zM1160.44 1474.42v-46.9a6.045 8.76 0 0 1 6.044-8.76h3.627a2.418 3.504 0 0 1 2.418 3.504v57.411a2.418 3.504 0 0 1-2.418 3.504h-3.627a6.045 8.76 0 0 1-6.045-8.76zM1293.548 1358.829v-5.449a6.045 6.81 0 0 1 6.045-6.81h7.629a6.045 6.81 0 0 1 6.044 6.81 6.045 6.81 0 0 1-6.044 6.811h-12.465a1.209 1.362 0 0 1-1.21-1.362zm-155.282-5.489a6.045 6.81 0 0 1 6.045-6.811h7.629a6.045 6.81 0 0 1 6.045 6.81v5.449a1.209 1.362 0 0 1-1.21 1.362h-12.464a6.045 6.81 0 0 1-6.045-6.81zM1160.5 1560.002v-46.9a6.045 8.76 0 0 1 6.044-8.759h3.627a2.418 3.504 0 0 1 2.418 3.503v57.412a2.418 3.504 0 0 1-2.418 3.503h-3.627a6.045 8.76 0 0 1-6.045-8.76zm128.024-46.949-.332 46.898a6.045 8.76.407 0 1-6.107 8.716l-3.627-.026a2.418 3.504.407 0 1-2.393-3.52l.407-57.41a2.418 3.504.407 0 1 2.443-3.486l3.627.026a6.045 8.76.407 0 1 5.982 8.802zm.548-85.581-.333 46.899a6.045 8.76.407 0 1-6.107 8.716l-3.627-.026a2.418 3.504.407 0 1-2.393-3.52l.407-57.41a2.418 3.504.407 0 1 2.443-3.487l3.627.026a6.045 8.76.407 0 1 5.983 8.802zM1281.422 1367.175l-8.463 34.564c-1.052 4.313-4.92 7.259-9.587 7.259h-76.166c-4.558 0-8.354-2.815-9.466-6.995l-9.213-34.565c-1.547-5.794 3.942-11.752 10.627-11.752h91.726c6.564-.033 11.932 5.744 10.542 11.489z" fill="#060709"/><rect x="-1672.852" y="1166.557" width="17.858" height="36.197" rx="8.922" transform="rotate(-90)" fill="#9b4c17"/><rect x="-1672.852" y="1254.534" width="17.858" height="36.197" rx="8.922" transform="rotate(-90)" fill="#9b4c17"/><rect x="-1281.703" y="1166.544" width="17.858" height="36.197" rx="8.922" transform="rotate(-90)" fill="#edeeac"/><rect x="-1281.703" y="1251.741" width="17.858" height="36.197" rx="8.922" transform="rotate(-90)" fill="#edeeac"/></g><path d="M787.277-120.728V1850" fill="none" stroke="#fff" stroke-width="12.5" stroke-miterlimit="10" stroke-dasharray="150,150"/><path d="M434.361 315.813V1383.38" fill="none" stroke="#fff" stroke-width="25" stroke-miterlimit="10" stroke-dasharray="75,25"/><path d="M225.275 264.514h195.541V1449.54H225.275Z" fill="#db9f9d"/><path d="M212.898 535.323v690.035m898.145-698.468v690.035" fill="none" stroke="#fff" stroke-width="25" stroke-miterlimit="10" stroke-dasharray="75,25"/><path style="-inkscape-stroke:none" d="M1136.351 426.895v75h12.5v-75zm0 100v75h12.5v-75zm0 100v75h12.5v-75zm0 100v75h12.5v-75zm0 100v75h12.5v-75zm0 100v75h12.5v-75zm0 100v75h12.5v-75z" color="#000" fill="#fff"/><path d="m214.709-124.914 5.626 460.6c2.336 191.223-144.84 291.889-419.77 286.498l-97.865-1.92-273.17 1.352c-18.508 0-7.603-10.51-7.603-23.5v-98.5c0-13.06-10.762-93.61 7.83-93.5l381.498-1.21S4.464 411.224.11 239.596l-2.43-364.51M-530.201 1108.65l460.6-5.626c191.223-2.336 291.889 144.84 286.498 419.77l-1.92 97.865 1.353 273.17c0 18.508-10.51 7.603-23.5 7.603h-98.5c-13.06 0-93.61 10.762-93.5-7.83l-1.21-381.498s6.317-193.208-165.31-188.855l-364.51 2.43" fill="#ccd0ce" stroke="#e1e1e1" stroke-width="11.932" stroke-miterlimit="10"/><g transform="rotate(180 927.204 839.411)"><path d="M1531.955 990.245a7.587 7.003 0 0 0-15.16 0v29.966a19.257 17.777 0 0 0-4.48-.513h-30.4a18.504 17.081 0 0 0-7.48 1.44v-30.893a7.587 7.003 0 0 0-15.16 0v39.727a7.56 6.979 0 0 0 3.964 6.1v.854a18.702 17.265 0 0 0 18.716 17.265h30.4a18.702 17.265 0 0 0 18.714-17.265 19.39 17.899 0 0 0-.317-3.16 7.56 6.979 0 0 0 1.243-3.843z" fill="none" stroke="#432918" stroke-width="1.27" stroke-miterlimit="10"/><path d="M1483.871 990.83a9.252 8.54 0 0 0-9.252 8.468v13.946a9.186 8.48 0 0 0 18.359 0v-13.946a9.173 8.468 0 0 0-9.107-8.467zm24.835 10.786h-2.3a8.062 7.443 0 0 0-8.062 7.443v4.758a8.062 7.443 0 0 0 8.062 7.43h2.3a8.05 7.43 0 0 0 8.05-7.43v-4.758a8.062 7.443 0 0 0-8.05-7.443z" fill="none" stroke="#432918" stroke-width="1.27" stroke-miterlimit="10"/><rect x="-1103.279" y="1492.793" width="180" height="8.525" rx="3.172" transform="rotate(-90)" fill="#060709"/><path d="M1531.955 990.245a7.587 7.003 0 0 0-15.16 0v29.966a19.257 17.777 0 0 0-4.48-.513h-30.4a18.504 17.081 0 0 0-7.48 1.44v-30.893a7.587 7.003 0 0 0-15.16 0v39.727a7.56 6.979 0 0 0 3.964 6.1v.854a18.702 17.265 0 0 0 18.716 17.265h30.4a18.702 17.265 0 0 0 18.714-17.265 19.39 17.899 0 0 0-.317-3.16 7.56 6.979 0 0 0 1.243-3.843z" fill="#fdd535"/><path d="M1483.871 990.83a9.252 8.54 0 0 0-9.252 8.468v13.946a9.186 8.48 0 0 0 18.359 0v-13.946a9.173 8.468 0 0 0-9.107-8.467zm24.835 10.786h-2.3a8.062 7.443 0 0 0-8.062 7.443v4.758a8.062 7.443 0 0 0 8.062 7.43h2.3a8.05 7.43 0 0 0 8.05-7.43v-4.758a8.062 7.443 0 0 0-8.05-7.443z" fill="#1e8dc7"/><rect x="-1048.261" y="1484.744" width="19.68" height="21.319" rx="9.834" transform="rotate(-90)" fill="#b04f1a"/><path d="m1490.202 961.316-25.496 17.204a3.635 3.355 0 0 0 4.283 5.417l25.43-17.216a3.627 3.348 0 1 0-4.283-5.405zm37.47 19.68-23.275-17.935a3.621 3.343 0 1 0-4.639 5.124l23.196 17.924a3.622 3.343 0 0 0 4.653-5.125z" fill="#060709"/></g><g transform="translate(-277.805 -833.82)"><path d="M1531.955 990.245a7.587 7.003 0 0 0-15.16 0v29.966a19.257 17.777 0 0 0-4.48-.513h-30.4a18.504 17.081 0 0 0-7.48 1.44v-30.893a7.587 7.003 0 0 0-15.16 0v39.727a7.56 6.979 0 0 0 3.964 6.1v.854a18.702 17.265 0 0 0 18.716 17.265h30.4a18.702 17.265 0 0 0 18.714-17.265 19.39 17.899 0 0 0-.317-3.16 7.56 6.979 0 0 0 1.243-3.843z" fill="none" stroke="#432918" stroke-width="1.27" stroke-miterlimit="10"/><path d="M1483.871 990.83a9.252 8.54 0 0 0-9.252 8.468v13.946a9.186 8.48 0 0 0 18.359 0v-13.946a9.173 8.468 0 0 0-9.107-8.467zm24.835 10.786h-2.3a8.062 7.443 0 0 0-8.062 7.443v4.758a8.062 7.443 0 0 0 8.062 7.43h2.3a8.05 7.43 0 0 0 8.05-7.43v-4.758a8.062 7.443 0 0 0-8.05-7.443z" fill="none" stroke="#432918" stroke-width="1.27" stroke-miterlimit="10"/><rect x="-1103.279" y="1492.793" width="180" height="8.525" rx="3.172" transform="rotate(-90)" fill="#060709"/><path d="M1531.955 990.245a7.587 7.003 0 0 0-15.16 0v29.966a19.257 17.777 0 0 0-4.48-.513h-30.4a18.504 17.081 0 0 0-7.48 1.44v-30.893a7.587 7.003 0 0 0-15.16 0v39.727a7.56 6.979 0 0 0 3.964 6.1v.854a18.702 17.265 0 0 0 18.716 17.265h30.4a18.702 17.265 0 0 0 18.714-17.265 19.39 17.899 0 0 0-.317-3.16 7.56 6.979 0 0 0 1.243-3.843z" fill="#fdd535"/><path d="M1483.871 990.83a9.252 8.54 0 0 0-9.252 8.468v13.946a9.186 8.48 0 0 0 18.359 0v-13.946a9.173 8.468 0 0 0-9.107-8.467zm24.835 10.786h-2.3a8.062 7.443 0 0 0-8.062 7.443v4.758a8.062 7.443 0 0 0 8.062 7.43h2.3a8.05 7.43 0 0 0 8.05-7.43v-4.758a8.062 7.443 0 0 0-8.05-7.443z" fill="#1e8dc7"/><rect x="-1048.261" y="1484.744" width="19.68" height="21.319" rx="9.834" transform="rotate(-90)" fill="#b04f1a"/><path d="m1490.202 961.316-25.496 17.204a3.635 3.355 0 0 0 4.283 5.417l25.43-17.216a3.627 3.348 0 1 0-4.283-5.405zm37.47 19.68-23.275-17.935a3.621 3.343 0 1 0-4.639 5.124l23.196 17.924a3.622 3.343 0 0 0 4.653-5.125z" fill="#060709"/></g><g transform="translate(-289.505 -10.448)"><path d="M764.687 274.8v-1825.196" fill="none" stroke="#e1e1e1" stroke-width="50" stroke-linejoin="round" stroke-miterlimit="20" stroke-dasharray="400,50"/><circle cx="764.045" cy="249.075" r="14.942" fill="#f60"/><circle cx="764.156" cy="198.06" r="14.942" fill="#f60"/><circle cx="764.204" cy="142.742" r="14.942" fill="#f60"/></g><g transform="matrix(1 0 0 -1 -290.162 1687.985)"><path d="M764.687 274.8v-1825.196" fill="none" stroke="#e1e1e1" stroke-width="50" stroke-linejoin="round" stroke-miterlimit="20" stroke-dasharray="400,50"/><circle cx="764.045" cy="249.075" r="14.942" fill="#f60"/><circle cx="764.156" cy="198.06" r="14.942" fill="#f60"/><circle cx="764.204" cy="142.742" r="14.942" fill="#f60"/></g><g transform="matrix(1 0 0 -1 359.507 1371.755)"><path d="M764.687 274.8v-1825.196" fill="none" stroke="#e1e1e1" stroke-width="50" stroke-linejoin="round" stroke-miterlimit="20" stroke-dasharray="400,50"/><circle cx="764.045" cy="249.075" r="14.942" fill="#f60"/><circle cx="764.156" cy="198.06" r="14.942" fill="#f60"/><circle cx="764.204" cy="142.742" r="14.942" fill="#f60"/></g><g transform="translate(358.618 353.4)"><path d="M764.687 274.8v-1825.196" fill="none" stroke="#e1e1e1" stroke-width="50" stroke-linejoin="round" stroke-miterlimit="20" stroke-dasharray="400,50"/><circle cx="764.045" cy="249.075" r="14.942" fill="#f60"/><circle cx="764.156" cy="198.06" r="14.942" fill="#f60"/><circle cx="764.204" cy="142.742" r="14.942" fill="#f60"/></g><path d="M1377.529-77.974h317.203v1885.866h-317.203z" fill="green"/></svg>
