<svg data-name="Ebene 1" width="1810.797" height="1738.748" xmlns="http://www.w3.org/2000/svg"><path style="fill:#a5a8a7" transform="matrix(1.9523 0 0 1.1256 -956.773 -29.962)" d="m1309.6 1585.35-586.71-6V5.07l579.97 2.61z"/><path transform="rotate(-90)" style="fill:#a5a8a7;stroke-width:1.39803" d="M-1200.77-123.272h674.471v1438.289h-674.471z"/><g transform="translate(1.027 96.431)"><path d="M1531.955 990.245a7.587 7.003 0 0 0-15.16 0v29.966a19.257 17.777 0 0 0-4.48-.513h-30.4a18.504 17.081 0 0 0-7.48 1.44v-30.893a7.587 7.003 0 0 0-15.16 0v39.727a7.56 6.979 0 0 0 3.964 6.1v.854a18.702 17.265 0 0 0 18.716 17.265h30.4a18.702 17.265 0 0 0 18.714-17.265 19.39 17.899 0 0 0-.317-3.16 7.56 6.979 0 0 0 1.243-3.843z" style="fill:none;stroke:#432918;stroke-width:1.26989;stroke-miterlimit:10"/><path d="M1483.871 990.83a9.252 8.54 0 0 0-9.252 8.468v13.946a9.186 8.48 0 0 0 18.359 0v-13.946a9.173 8.468 0 0 0-9.107-8.467zm24.835 10.786h-2.3a8.062 7.443 0 0 0-8.062 7.443v4.758a8.062 7.443 0 0 0 8.062 7.43h2.3a8.05 7.43 0 0 0 8.05-7.43v-4.758a8.062 7.443 0 0 0-8.05-7.443z" style="fill:none;stroke:#432918;stroke-width:1.26989;stroke-miterlimit:10"/><rect x="-1103.279" y="1492.793" width="180" height="8.525" rx="3.172" transform="rotate(-90)" style="fill:#060709;stroke-width:1.13932"/><path d="M1531.955 990.245a7.587 7.003 0 0 0-15.16 0v29.966a19.257 17.777 0 0 0-4.48-.513h-30.4a18.504 17.081 0 0 0-7.48 1.44v-30.893a7.587 7.003 0 0 0-15.16 0v39.727a7.56 6.979 0 0 0 3.964 6.1v.854a18.702 17.265 0 0 0 18.716 17.265h30.4a18.702 17.265 0 0 0 18.714-17.265 19.39 17.899 0 0 0-.317-3.16 7.56 6.979 0 0 0 1.243-3.843z" style="fill:#fdd535;stroke-width:1.26989"/><path d="M1483.871 990.83a9.252 8.54 0 0 0-9.252 8.468v13.946a9.186 8.48 0 0 0 18.359 0v-13.946a9.173 8.468 0 0 0-9.107-8.467zm24.835 10.786h-2.3a8.062 7.443 0 0 0-8.062 7.443v4.758a8.062 7.443 0 0 0 8.062 7.43h2.3a8.05 7.43 0 0 0 8.05-7.43v-4.758a8.062 7.443 0 0 0-8.05-7.443z" style="fill:#1e8dc7;stroke-width:1.26989"/><rect x="-1048.261" y="1484.744" width="19.68" height="21.319" rx="9.834" transform="rotate(-90)" style="fill:#b04f1a;stroke-width:1.26989"/><path d="m1490.202 961.316-25.496 17.204a3.635 3.355 0 0 0 4.283 5.417l25.43-17.216a3.627 3.348 0 1 0-4.283-5.405zm37.47 19.68-23.275-17.935a3.621 3.343 0 1 0-4.639 5.124l23.196 17.924a3.622 3.343 0 0 0 4.653-5.125z" style="fill:#060709;stroke-width:1.26989"/></g><rect x="1148.301" y="1247.945" width="155.886" height="441.752" rx="28.048" style="fill:#89bd27;stroke-width:1.41219"/><path d="M1276.139 1252.085a25.026 34.146 0 0 1 25.026 34.146v365.213a25.026 34.146 0 0 1-25.026 34.146h-99.802a25.014 34.13 0 0 1-25.014-34.146V1286.23a25.014 34.13 0 0 1 25.014-34.146h99.802m0-8.248h-99.802a31.095 42.427 0 0 0-31.059 42.394v365.213a31.095 42.427 0 0 0 31.06 42.393h99.8a31.107 42.443 0 0 0 31.071-42.393V1286.23a31.107 42.443 0 0 0-31.07-42.394z" style="fill:#8a8989;stroke-width:1.41219"/><path d="m1268.304 1587.123 6.323 31.122c1.076 5.35-2.998 10.46-8.293 10.46h-79.418c-5.283 0-9.37-5.14-8.294-10.46l6.323-31.122c.81-3.99 4.099-6.798 7.967-6.798h67.377c3.88 0 7.157 2.809 8.015 6.798z" style="fill:#060709;stroke-width:1.344"/><path d="M1160.44 1474.42v-46.9a6.045 8.76 0 0 1 6.044-8.76h3.627a2.418 3.504 0 0 1 2.418 3.504v57.411a2.418 3.504 0 0 1-2.418 3.504h-3.627a6.045 8.76 0 0 1-6.045-8.76z" style="fill:#060709;stroke-width:1.45537"/><path d="M1293.548 1358.829v-5.449a6.045 6.81 0 0 1 6.045-6.81h7.629a6.045 6.81 0 0 1 6.044 6.81 6.045 6.81 0 0 1-6.044 6.811h-12.465a1.209 1.362 0 0 1-1.21-1.362zM1138.266 1353.34a6.045 6.81 0 0 1 6.045-6.811h7.629a6.045 6.81 0 0 1 6.045 6.81v5.449a1.209 1.362 0 0 1-1.21 1.362h-12.464a6.045 6.81 0 0 1-6.045-6.81z" style="fill:#060709;stroke-width:1.28329"/><path d="M1160.5 1560.002v-46.9a6.045 8.76 0 0 1 6.044-8.759h3.627a2.418 3.504 0 0 1 2.418 3.503v57.412a2.418 3.504 0 0 1-2.418 3.503h-3.627a6.045 8.76 0 0 1-6.045-8.76zM1288.524 1513.053l-.332 46.898a6.045 8.76.407 0 1-6.107 8.716l-3.627-.026a2.418 3.504.407 0 1-2.393-3.52l.407-57.41a2.418 3.504.407 0 1 2.443-3.486l3.627.026a6.045 8.76.407 0 1 5.982 8.802zM1289.072 1427.472l-.333 46.899a6.045 8.76.407 0 1-6.107 8.716l-3.627-.026a2.418 3.504.407 0 1-2.393-3.52l.407-57.41a2.418 3.504.407 0 1 2.443-3.487l3.627.026a6.045 8.76.407 0 1 5.983 8.802z" style="fill:#060709;stroke-width:1.45537"/><path d="m1281.422 1367.175-8.463 34.564c-1.052 4.313-4.92 7.259-9.587 7.259h-76.166c-4.558 0-8.354-2.815-9.466-6.995l-9.213-34.565c-1.547-5.794 3.942-11.752 10.627-11.752h91.726c6.564-.033 11.932 5.744 10.542 11.489z" style="fill:#060709;stroke-width:1.41064"/><rect x="-1672.852" y="1166.557" width="17.858" height="36.197" rx="8.922" transform="rotate(-90)" style="fill:#9b4c17;stroke-width:1.28329"/><rect x="-1672.852" y="1254.534" width="17.858" height="36.197" rx="8.922" transform="rotate(-90)" style="fill:#9b4c17;stroke-width:1.28329"/><rect x="-1281.703" y="1166.544" width="17.858" height="36.197" rx="8.922" transform="rotate(-90)" style="fill:#edeeac;stroke-width:1.28329"/><rect x="-1281.703" y="1251.741" width="17.858" height="36.197" rx="8.922" transform="rotate(-90)" style="fill:#edeeac;stroke-width:1.28329"/><path d="M1402.291-175.044V1814.69M752.572-229.413v525.526M752.572 1423.828v525.526" style="fill:none;stroke:#fff;stroke-width:25;stroke-miterlimit:10;stroke-dasharray:none"/><path d="M1076.782-110.28v1970.727" style="fill:none;stroke:#fff;stroke-width:12.5;stroke-miterlimit:10;stroke-dasharray:150,150;stroke-dashoffset:0"/><path d="M752.572 326.261v1067.567" style="fill:none;stroke:#fff;stroke-width:25;stroke-miterlimit:10;stroke-dasharray:75,25;stroke-dashoffset:0"/><path style="fill:#ccd0ce;fill-opacity:1;stroke:#e1e1e1;stroke-width:11.143;stroke-linecap:round;stroke-linejoin:round;stroke-miterlimit:10;stroke-dasharray:none;stroke-opacity:1" d="M1591.94-8h218.857v1746.748H1591.94z"/><path style="fill:#db9f9d;fill-opacity:1;stroke:none;stroke-width:14.0842;stroke-linecap:round;stroke-linejoin:round;stroke-miterlimit:10;stroke-dasharray:none;stroke-dashoffset:0" d="M558.143 274.962h181.21v1185.025h-181.21z"/><path d="M545.806 545.771v690.035" style="fill:none;stroke:#fff;stroke-width:25;stroke-miterlimit:10;stroke-dasharray:75,25;stroke-dashoffset:0"/><path d="m550.665-112.415 5.626 460.601c2.336 191.222-144.84 291.888-419.77 286.497l-97.865-1.92-273.17 1.352c-18.508 0-7.603-10.51-7.603-23.5v-98.5c0-13.06-10.762-93.61 7.83-93.5l381.498-1.21s193.209 6.318 188.855-165.31l-2.43-364.51M-194.245 1121.15l460.601-5.626c191.222-2.336 291.888 144.84 286.497 419.77l-1.92 97.865 1.353 273.17c0 18.508-10.51 7.603-23.5 7.603h-98.5c-13.06 0-93.61 10.762-93.5-7.83l-1.21-381.498s6.317-193.208-165.31-188.855l-364.51 2.43" style="fill:#ccd0ce;stroke:#e1e1e1;stroke-width:11.9316px;stroke-miterlimit:10"/><g transform="rotate(180 1071.956 844.635)"><path d="M1531.955 990.245a7.587 7.003 0 0 0-15.16 0v29.966a19.257 17.777 0 0 0-4.48-.513h-30.4a18.504 17.081 0 0 0-7.48 1.44v-30.893a7.587 7.003 0 0 0-15.16 0v39.727a7.56 6.979 0 0 0 3.964 6.1v.854a18.702 17.265 0 0 0 18.716 17.265h30.4a18.702 17.265 0 0 0 18.714-17.265 19.39 17.899 0 0 0-.317-3.16 7.56 6.979 0 0 0 1.243-3.843z" style="fill:none;stroke:#432918;stroke-width:1.26989;stroke-miterlimit:10"/><path d="M1483.871 990.83a9.252 8.54 0 0 0-9.252 8.468v13.946a9.186 8.48 0 0 0 18.359 0v-13.946a9.173 8.468 0 0 0-9.107-8.467zm24.835 10.786h-2.3a8.062 7.443 0 0 0-8.062 7.443v4.758a8.062 7.443 0 0 0 8.062 7.43h2.3a8.05 7.43 0 0 0 8.05-7.43v-4.758a8.062 7.443 0 0 0-8.05-7.443z" style="fill:none;stroke:#432918;stroke-width:1.26989;stroke-miterlimit:10"/><rect x="-1103.279" y="1492.793" width="180" height="8.525" rx="3.172" transform="rotate(-90)" style="fill:#060709;stroke-width:1.13932"/><path d="M1531.955 990.245a7.587 7.003 0 0 0-15.16 0v29.966a19.257 17.777 0 0 0-4.48-.513h-30.4a18.504 17.081 0 0 0-7.48 1.44v-30.893a7.587 7.003 0 0 0-15.16 0v39.727a7.56 6.979 0 0 0 3.964 6.1v.854a18.702 17.265 0 0 0 18.716 17.265h30.4a18.702 17.265 0 0 0 18.714-17.265 19.39 17.899 0 0 0-.317-3.16 7.56 6.979 0 0 0 1.243-3.843z" style="fill:#fdd535;stroke-width:1.26989"/><path d="M1483.871 990.83a9.252 8.54 0 0 0-9.252 8.468v13.946a9.186 8.48 0 0 0 18.359 0v-13.946a9.173 8.468 0 0 0-9.107-8.467zm24.835 10.786h-2.3a8.062 7.443 0 0 0-8.062 7.443v4.758a8.062 7.443 0 0 0 8.062 7.43h2.3a8.05 7.43 0 0 0 8.05-7.43v-4.758a8.062 7.443 0 0 0-8.05-7.443z" style="fill:#1e8dc7;stroke-width:1.26989"/><rect x="-1048.261" y="1484.744" width="19.68" height="21.319" rx="9.834" transform="rotate(-90)" style="fill:#b04f1a;stroke-width:1.26989"/><path d="m1490.202 961.316-25.496 17.204a3.635 3.355 0 0 0 4.283 5.417l25.43-17.216a3.627 3.348 0 1 0-4.283-5.405zm37.47 19.68-23.275-17.935a3.621 3.343 0 1 0-4.639 5.124l23.196 17.924a3.622 3.343 0 0 0 4.653-5.125z" style="fill:#060709;stroke-width:1.26989"/></g><g transform="translate(11.7 -823.372)"><path d="M1531.955 990.245a7.587 7.003 0 0 0-15.16 0v29.966a19.257 17.777 0 0 0-4.48-.513h-30.4a18.504 17.081 0 0 0-7.48 1.44v-30.893a7.587 7.003 0 0 0-15.16 0v39.727a7.56 6.979 0 0 0 3.964 6.1v.854a18.702 17.265 0 0 0 18.716 17.265h30.4a18.702 17.265 0 0 0 18.714-17.265 19.39 17.899 0 0 0-.317-3.16 7.56 6.979 0 0 0 1.243-3.843z" style="fill:none;stroke:#432918;stroke-width:1.26989;stroke-miterlimit:10"/><path d="M1483.871 990.83a9.252 8.54 0 0 0-9.252 8.468v13.946a9.186 8.48 0 0 0 18.359 0v-13.946a9.173 8.468 0 0 0-9.107-8.467zm24.835 10.786h-2.3a8.062 7.443 0 0 0-8.062 7.443v4.758a8.062 7.443 0 0 0 8.062 7.43h2.3a8.05 7.43 0 0 0 8.05-7.43v-4.758a8.062 7.443 0 0 0-8.05-7.443z" style="fill:none;stroke:#432918;stroke-width:1.26989;stroke-miterlimit:10"/><rect x="-1103.279" y="1492.793" width="180" height="8.525" rx="3.172" transform="rotate(-90)" style="fill:#060709;stroke-width:1.13932"/><path d="M1531.955 990.245a7.587 7.003 0 0 0-15.16 0v29.966a19.257 17.777 0 0 0-4.48-.513h-30.4a18.504 17.081 0 0 0-7.48 1.44v-30.893a7.587 7.003 0 0 0-15.16 0v39.727a7.56 6.979 0 0 0 3.964 6.1v.854a18.702 17.265 0 0 0 18.716 17.265h30.4a18.702 17.265 0 0 0 18.714-17.265 19.39 17.899 0 0 0-.317-3.16 7.56 6.979 0 0 0 1.243-3.843z" style="fill:#fdd535;stroke-width:1.26989"/><path d="M1483.871 990.83a9.252 8.54 0 0 0-9.252 8.468v13.946a9.186 8.48 0 0 0 18.359 0v-13.946a9.173 8.468 0 0 0-9.107-8.467zm24.835 10.786h-2.3a8.062 7.443 0 0 0-8.062 7.443v4.758a8.062 7.443 0 0 0 8.062 7.43h2.3a8.05 7.43 0 0 0 8.05-7.43v-4.758a8.062 7.443 0 0 0-8.05-7.443z" style="fill:#1e8dc7;stroke-width:1.26989"/><rect x="-1048.261" y="1484.744" width="19.68" height="21.319" rx="9.834" transform="rotate(-90)" style="fill:#b04f1a;stroke-width:1.26989"/><path d="m1490.202 961.316-25.496 17.204a3.635 3.355 0 0 0 4.283 5.417l25.43-17.216a3.627 3.348 0 1 0-4.283-5.405zm37.47 19.68-23.275-17.935a3.621 3.343 0 1 0-4.639 5.124l23.196 17.924a3.622 3.343 0 0 0 4.653-5.125z" style="fill:#060709;stroke-width:1.26989"/></g></svg>
