<svg xmlns="http://www.w3.org/2000/svg" width="2430.067" height="2263.078"><path fill="#a5a8a7" d="m0-24.842 1907.28 8.687v2279.233l-1885.37-3.779Z"/><path fill="#a5a8a7" d="m1794.307-11.868 635.76 1.476v387.36l-628.457-.643z"/><g transform="matrix(1.17143 .00321 -.00376 1 210.75 -70.093)"><rect width="155.886" height="441.752" x="-416.821" y="-471.996" fill="#89bd27" rx="28.048" transform="scale(-1)"/><path fill="#8a8989" d="M288.983 467.856a25.026 34.146 0 0 1-25.026-34.146V68.497a25.026 34.146 0 0 1 25.026-34.146h99.802A25.014 34.13 0 0 1 413.8 68.497v365.214a25.014 34.13 0 0 1-25.014 34.146h-99.802m0 8.248h99.802a31.095 42.427 0 0 0 31.06-42.394V68.498a31.095 42.427 0 0 0-31.06-42.393h-99.8a31.107 42.443 0 0 0-31.072 42.393v365.213a31.107 42.443 0 0 0 31.07 42.394z"/><path fill="#060709" d="m296.818 132.818-6.323-31.122c-1.076-5.35 2.998-10.46 8.293-10.46h79.418c5.283 0 9.37 5.14 8.294 10.46l-6.323 31.122c-.81 3.99-4.099 6.798-7.967 6.798h-67.377c-3.88 0-7.157-2.809-8.015-6.798zM404.682 245.521v46.9a6.045 8.76 0 0 1-6.044 8.76h-3.627a2.418 3.504 0 0 1-2.418-3.504v-57.411a2.418 3.504 0 0 1 2.418-3.504h3.627a6.045 8.76 0 0 1 6.045 8.76zM271.574 361.112v5.449a6.045 6.81 0 0 1-6.045 6.81H257.9a6.045 6.81 0 0 1-6.044-6.81 6.045 6.81 0 0 1 6.044-6.811h12.465a1.209 1.362 0 0 1 1.21 1.362zm155.282 5.489a6.045 6.81 0 0 1-6.045 6.811h-7.629a6.045 6.81 0 0 1-6.045-6.81v-5.449a1.209 1.362 0 0 1 1.21-1.362h12.464a6.045 6.81 0 0 1 6.045 6.81zM404.622 159.939v46.9a6.045 8.76 0 0 1-6.044 8.759h-3.627a2.418 3.504 0 0 1-2.418-3.503v-57.412a2.418 3.504 0 0 1 2.418-3.503h3.627a6.045 8.76 0 0 1 6.045 8.76zm-128.024 46.949.332-46.898a6.045 8.76.407 0 1 6.107-8.716l3.627.026a2.418 3.504.407 0 1 2.393 3.52l-.407 57.41a2.418 3.504.407 0 1-2.443 3.486l-3.627-.026a6.045 8.76.407 0 1-5.982-8.802zm-.548 85.581.333-46.899a6.045 8.76.407 0 1 6.107-8.716l3.627.026a2.418 3.504.407 0 1 2.393 3.52l-.407 57.41a2.418 3.504.407 0 1-2.443 3.487l-3.627-.026a6.045 8.76.407 0 1-5.983-8.802zM283.7 352.766l8.463-34.564c1.052-4.313 4.92-7.259 9.587-7.259h76.166c4.558 0 8.354 2.815 9.466 6.995l9.213 34.565c1.547 5.794-3.942 11.752-10.627 11.752h-91.726c-6.564.033-11.932-5.744-10.542-11.489z"/><rect width="17.858" height="36.197" x="47.089" y="-398.565" fill="#9b4c17" rx="8.922" transform="rotate(90)"/><rect width="17.858" height="36.197" x="47.089" y="-310.588" fill="#9b4c17" rx="8.922" transform="rotate(90)"/><rect width="17.858" height="36.197" x="438.238" y="-398.578" fill="#edeeac" rx="8.922" transform="rotate(90)"/><rect width="17.858" height="36.197" x="438.238" y="-313.381" fill="#edeeac" rx="8.922" transform="rotate(90)"/></g><path fill="#fff" d="M777.62 640.837h325v50h-325z"/><g transform="rotate(180 909.28 598.269)"><path fill="none" stroke="#432918" stroke-miterlimit="10" stroke-width="1.27" d="M1531.955 990.245a7.587 7.003 0 0 0-15.16 0v29.966a19.257 17.777 0 0 0-4.48-.513h-30.4a18.504 17.081 0 0 0-7.48 1.44v-30.893a7.587 7.003 0 0 0-15.16 0v39.727a7.56 6.979 0 0 0 3.964 6.1v.854a18.702 17.265 0 0 0 18.716 17.265h30.4a18.702 17.265 0 0 0 18.714-17.265 19.39 17.899 0 0 0-.317-3.16 7.56 6.979 0 0 0 1.243-3.843z"/><path fill="none" stroke="#432918" stroke-miterlimit="10" stroke-width="1.27" d="M1483.871 990.83a9.252 8.54 0 0 0-9.252 8.468v13.946a9.186 8.48 0 0 0 18.359 0v-13.946a9.173 8.468 0 0 0-9.107-8.467zm24.835 10.786h-2.3a8.062 7.443 0 0 0-8.062 7.443v4.758a8.062 7.443 0 0 0 8.062 7.43h2.3a8.05 7.43 0 0 0 8.05-7.43v-4.758a8.062 7.443 0 0 0-8.05-7.443z"/><rect width="180" height="8.525" x="-1103.279" y="1492.793" fill="#060709" rx="3.172" transform="rotate(-90)"/><path fill="#fdd535" d="M1531.955 990.245a7.587 7.003 0 0 0-15.16 0v29.966a19.257 17.777 0 0 0-4.48-.513h-30.4a18.504 17.081 0 0 0-7.48 1.44v-30.893a7.587 7.003 0 0 0-15.16 0v39.727a7.56 6.979 0 0 0 3.964 6.1v.854a18.702 17.265 0 0 0 18.716 17.265h30.4a18.702 17.265 0 0 0 18.714-17.265 19.39 17.899 0 0 0-.317-3.16 7.56 6.979 0 0 0 1.243-3.843z"/><path fill="#1e8dc7" d="M1483.871 990.83a9.252 8.54 0 0 0-9.252 8.468v13.946a9.186 8.48 0 0 0 18.359 0v-13.946a9.173 8.468 0 0 0-9.107-8.467zm24.835 10.786h-2.3a8.062 7.443 0 0 0-8.062 7.443v4.758a8.062 7.443 0 0 0 8.062 7.43h2.3a8.05 7.43 0 0 0 8.05-7.43v-4.758a8.062 7.443 0 0 0-8.05-7.443z"/><rect width="19.68" height="21.319" x="-1048.261" y="1484.744" fill="#b04f1a" rx="9.834" transform="rotate(-90)"/><path fill="#060709" d="m1490.202 961.316-25.496 17.204a3.635 3.355 0 0 0 4.283 5.417l25.43-17.216a3.627 3.348 0 1 0-4.283-5.405zm37.47 19.68-23.275-17.935a3.621 3.343 0 1 0-4.639 5.124l23.196 17.924a3.622 3.343 0 0 0 4.653-5.125z"/></g><path fill="#db9f9d" d="M1335.157 2572.073H1124.86V473.96h210.297z"/><path fill="#fff" d="M1252.408 2154.86s-3.144-70.225-3.586-78.64c-.443-8.414 4.012-11.736 5.758-11.736.178 2.069 0 23.646 0 23.646l8.9-28.519-8.9-36.904-.178 28.71s-6.419.912-7.389 10.707c-3.402 31.67-3.53 61.682-5.234 92.736z"/><g transform="translate(-276.799 -406.46)"><path fill="none" stroke="#432918" stroke-miterlimit="10" stroke-width="1.27" d="M1531.955 990.245a7.587 7.003 0 0 0-15.16 0v29.966a19.257 17.777 0 0 0-4.48-.513h-30.4a18.504 17.081 0 0 0-7.48 1.44v-30.893a7.587 7.003 0 0 0-15.16 0v39.727a7.56 6.979 0 0 0 3.964 6.1v.854a18.702 17.265 0 0 0 18.716 17.265h30.4a18.702 17.265 0 0 0 18.714-17.265 19.39 17.899 0 0 0-.317-3.16 7.56 6.979 0 0 0 1.243-3.843z"/><path fill="none" stroke="#432918" stroke-miterlimit="10" stroke-width="1.27" d="M1483.871 990.83a9.252 8.54 0 0 0-9.252 8.468v13.946a9.186 8.48 0 0 0 18.359 0v-13.946a9.173 8.468 0 0 0-9.107-8.467zm24.835 10.786h-2.3a8.062 7.443 0 0 0-8.062 7.443v4.758a8.062 7.443 0 0 0 8.062 7.43h2.3a8.05 7.43 0 0 0 8.05-7.43v-4.758a8.062 7.443 0 0 0-8.05-7.443z"/><rect width="180" height="8.525" x="-1103.279" y="1492.793" fill="#060709" rx="3.172" transform="rotate(-90)"/><path fill="#fdd535" d="M1531.955 990.245a7.587 7.003 0 0 0-15.16 0v29.966a19.257 17.777 0 0 0-4.48-.513h-30.4a18.504 17.081 0 0 0-7.48 1.44v-30.893a7.587 7.003 0 0 0-15.16 0v39.727a7.56 6.979 0 0 0 3.964 6.1v.854a18.702 17.265 0 0 0 18.716 17.265h30.4a18.702 17.265 0 0 0 18.714-17.265 19.39 17.899 0 0 0-.317-3.16 7.56 6.979 0 0 0 1.243-3.843z"/><path fill="#1e8dc7" d="M1483.871 990.83a9.252 8.54 0 0 0-9.252 8.468v13.946a9.186 8.48 0 0 0 18.359 0v-13.946a9.173 8.468 0 0 0-9.107-8.467zm24.835 10.786h-2.3a8.062 7.443 0 0 0-8.062 7.443v4.758a8.062 7.443 0 0 0 8.062 7.43h2.3a8.05 7.43 0 0 0 8.05-7.43v-4.758a8.062 7.443 0 0 0-8.05-7.443z"/><rect width="19.68" height="21.319" x="-1048.261" y="1484.744" fill="#b04f1a" rx="9.834" transform="rotate(-90)"/><path fill="#060709" d="m1490.202 961.316-25.496 17.204a3.635 3.355 0 0 0 4.283 5.417l25.43-17.216a3.627 3.348 0 1 0-4.283-5.405zm37.47 19.68-23.275-17.935a3.621 3.343 0 1 0-4.639 5.124l23.196 17.924a3.622 3.343 0 0 0 4.653-5.125z"/></g><g transform="translate(-271.414 857.824)"><path fill="none" stroke="#432918" stroke-miterlimit="10" stroke-width="1.27" d="M1531.955 990.245a7.587 7.003 0 0 0-15.16 0v29.966a19.257 17.777 0 0 0-4.48-.513h-30.4a18.504 17.081 0 0 0-7.48 1.44v-30.893a7.587 7.003 0 0 0-15.16 0v39.727a7.56 6.979 0 0 0 3.964 6.1v.854a18.702 17.265 0 0 0 18.716 17.265h30.4a18.702 17.265 0 0 0 18.714-17.265 19.39 17.899 0 0 0-.317-3.16 7.56 6.979 0 0 0 1.243-3.843z"/><path fill="none" stroke="#432918" stroke-miterlimit="10" stroke-width="1.27" d="M1483.871 990.83a9.252 8.54 0 0 0-9.252 8.468v13.946a9.186 8.48 0 0 0 18.359 0v-13.946a9.173 8.468 0 0 0-9.107-8.467zm24.835 10.786h-2.3a8.062 7.443 0 0 0-8.062 7.443v4.758a8.062 7.443 0 0 0 8.062 7.43h2.3a8.05 7.43 0 0 0 8.05-7.43v-4.758a8.062 7.443 0 0 0-8.05-7.443z"/><rect width="180" height="8.525" x="-1103.279" y="1492.793" fill="#060709" rx="3.172" transform="rotate(-90)"/><path fill="#fdd535" d="M1531.955 990.245a7.587 7.003 0 0 0-15.16 0v29.966a19.257 17.777 0 0 0-4.48-.513h-30.4a18.504 17.081 0 0 0-7.48 1.44v-30.893a7.587 7.003 0 0 0-15.16 0v39.727a7.56 6.979 0 0 0 3.964 6.1v.854a18.702 17.265 0 0 0 18.716 17.265h30.4a18.702 17.265 0 0 0 18.714-17.265 19.39 17.899 0 0 0-.317-3.16 7.56 6.979 0 0 0 1.243-3.843z"/><path fill="#1e8dc7" d="M1483.871 990.83a9.252 8.54 0 0 0-9.252 8.468v13.946a9.186 8.48 0 0 0 18.359 0v-13.946a9.173 8.468 0 0 0-9.107-8.467zm24.835 10.786h-2.3a8.062 7.443 0 0 0-8.062 7.443v4.758a8.062 7.443 0 0 0 8.062 7.43h2.3a8.05 7.43 0 0 0 8.05-7.43v-4.758a8.062 7.443 0 0 0-8.05-7.443z"/><rect width="19.68" height="21.319" x="-1048.261" y="1484.744" fill="#b04f1a" rx="9.834" transform="rotate(-90)"/><path fill="#060709" d="m1490.202 961.316-25.496 17.204a3.635 3.355 0 0 0 4.283 5.417l25.43-17.216a3.627 3.348 0 1 0-4.283-5.405zm37.47 19.68-23.275-17.935a3.621 3.343 0 1 0-4.639 5.124l23.196 17.924a3.622 3.343 0 0 0 4.653-5.125z"/></g><g transform="rotate(180 901.397 1160.15)"><path fill="none" stroke="#432918" stroke-miterlimit="10" stroke-width="1.27" d="M1531.955 990.245a7.587 7.003 0 0 0-15.16 0v29.966a19.257 17.777 0 0 0-4.48-.513h-30.4a18.504 17.081 0 0 0-7.48 1.44v-30.893a7.587 7.003 0 0 0-15.16 0v39.727a7.56 6.979 0 0 0 3.964 6.1v.854a18.702 17.265 0 0 0 18.716 17.265h30.4a18.702 17.265 0 0 0 18.714-17.265 19.39 17.899 0 0 0-.317-3.16 7.56 6.979 0 0 0 1.243-3.843z"/><path fill="none" stroke="#432918" stroke-miterlimit="10" stroke-width="1.27" d="M1483.871 990.83a9.252 8.54 0 0 0-9.252 8.468v13.946a9.186 8.48 0 0 0 18.359 0v-13.946a9.173 8.468 0 0 0-9.107-8.467zm24.835 10.786h-2.3a8.062 7.443 0 0 0-8.062 7.443v4.758a8.062 7.443 0 0 0 8.062 7.43h2.3a8.05 7.43 0 0 0 8.05-7.43v-4.758a8.062 7.443 0 0 0-8.05-7.443z"/><rect width="180" height="8.525" x="-1103.279" y="1492.793" fill="#060709" rx="3.172" transform="rotate(-90)"/><path fill="#fdd535" d="M1531.955 990.245a7.587 7.003 0 0 0-15.16 0v29.966a19.257 17.777 0 0 0-4.48-.513h-30.4a18.504 17.081 0 0 0-7.48 1.44v-30.893a7.587 7.003 0 0 0-15.16 0v39.727a7.56 6.979 0 0 0 3.964 6.1v.854a18.702 17.265 0 0 0 18.716 17.265h30.4a18.702 17.265 0 0 0 18.714-17.265 19.39 17.899 0 0 0-.317-3.16 7.56 6.979 0 0 0 1.243-3.843z"/><path fill="#1e8dc7" d="M1483.871 990.83a9.252 8.54 0 0 0-9.252 8.468v13.946a9.186 8.48 0 0 0 18.359 0v-13.946a9.173 8.468 0 0 0-9.107-8.467zm24.835 10.786h-2.3a8.062 7.443 0 0 0-8.062 7.443v4.758a8.062 7.443 0 0 0 8.062 7.43h2.3a8.05 7.43 0 0 0 8.05-7.43v-4.758a8.062 7.443 0 0 0-8.05-7.443z"/><rect width="19.68" height="21.319" x="-1048.261" y="1484.744" fill="#b04f1a" rx="9.834" transform="rotate(-90)"/><path fill="#060709" d="m1490.202 961.316-25.496 17.204a3.635 3.355 0 0 0 4.283 5.417l25.43-17.216a3.627 3.348 0 1 0-4.283-5.405zm37.47 19.68-23.275-17.935a3.621 3.343 0 1 0-4.639 5.124l23.196 17.924a3.622 3.343 0 0 0 4.653-5.125z"/></g><path fill="#fff" d="M1099.86 423.96h260.297v50H1099.86zM1350.572 640.837h325v50h-325z"/><path fill="none" stroke="#fff" stroke-dasharray="75 25" stroke-miterlimit="10" stroke-width="25" d="M1347.552 1514.684V1050.25"/><path fill="#fff" d="M1335.157 473.96h25v554.748h-25zM1099.706 1743.796h25v837.597h-25z"/><path fill="none" stroke="#fff" stroke-dasharray="75 25" stroke-miterlimit="10" stroke-width="25" d="M1112.255 1718.033v-667.782"/><path fill="#fff" d="M1099.86 473.96h25v554.748h-25z"/><g transform="matrix(1.11566 .1805 -.15873 .98733 426.007 -100.191)"><rect width="155.886" height="441.752" x="671.38" y="1687.211" fill="#89bd27" rx="28.048" transform="rotate(.184)"/><path fill="#8a8989" d="M793.79 1693.906a25.026 34.146.184 0 1 24.916 34.226l-1.171 365.211a25.026 34.146.184 0 1-25.136 34.066l-99.801-.32a25.014 34.13.184 0 1-24.905-34.227l1.172-365.212a25.014 34.13.184 0 1 25.123-34.065l99.802.32m.026-8.248-99.801-.32a31.095 42.427.184 0 0-31.195 42.294l-1.171 365.211a31.095 42.427.184 0 0 30.923 42.492l99.8.32a31.107 42.443.184 0 0 31.207-42.293l1.171-365.21a31.107 42.443.184 0 0-30.934-42.494z"/><path fill="#060709" d="m784.88 2028.917 6.223 31.142c1.06 5.353-3.031 10.45-8.326 10.433l-79.418-.254c-5.283-.017-9.353-5.17-8.26-10.487l6.423-31.101c.822-3.988 4.12-6.785 7.988-6.773l67.377.216c3.88.013 7.148 2.832 7.993 6.824zM677.378 1915.869l.15-46.9a6.045 8.76.184 0 1 6.073-8.74l3.627.011a2.418 3.504.184 0 1 2.406 3.512l-.184 57.41a2.418 3.504.184 0 1-2.429 3.497l-3.627-.012a6.045 8.76.184 0 1-6.017-8.78zM810.856 1800.705l.018-5.449a6.045 6.81.184 0 1 6.067-6.79l7.628.024a6.045 6.81.184 0 1 6.023 6.829 6.045 6.81.184 0 1-6.066 6.791l-12.465-.04a1.209 1.362.184 0 1-1.206-1.365zm-155.263-5.987a6.045 6.81.184 0 1 6.066-6.792l7.63.024a6.045 6.81.184 0 1 6.022 6.83l-.017 5.449a1.209 1.362.184 0 1-1.214 1.358l-12.464-.04a6.045 6.81.184 0 1-6.023-6.83zM677.164 2001.45l.15-46.9a6.045 8.76.184 0 1 6.072-8.739l3.627.012a2.418 3.504.184 0 1 2.407 3.51l-.184 57.412a2.418 3.504.184 0 1-2.43 3.496l-3.626-.012a6.045 8.76.184 0 1-6.017-8.78zm128.174-46.538-.483 46.897a6.045 8.76.59 0 1-6.135 8.696l-3.627-.038a2.418 3.504.59 0 1-2.381-3.527l.59-57.409a2.418 3.504.59 0 1 2.455-3.478l3.627.038a6.045 8.76.59 0 1 5.954 8.821zm.822-85.579-.483 46.898a6.045 8.76.59 0 1-6.135 8.696l-3.627-.038a2.418 3.504.59 0 1-2.382-3.527l.591-57.409a2.418 3.504.59 0 1 2.454-3.479l3.627.038a6.045 8.76.59 0 1 5.955 8.821zM798.703 1809.012l-8.573 34.537c-1.066 4.31-4.944 7.243-9.61 7.228l-76.166-.244c-4.558-.015-8.345-2.842-9.444-7.026l-9.102-34.594c-1.528-5.799 3.98-11.74 10.665-11.718l91.725.294c6.564-.012 11.914 5.783 10.505 11.523z"/><rect width="17.858" height="36.197" x="-2112.118" y="689.636" fill="#9b4c17" rx="8.922" transform="rotate(-89.816)"/><g fill="#ff7f2a" transform="translate(-1.373 391.184)"><rect width="17.858" height="36.197" x="-1720.925" y="782.024" rx="8.922" transform="rotate(-89.816)"/><rect width="22" height="5" x="815.084" y="1712.303" rx="0" ry="2.5"/><rect width="20" height="5" x="-150.139" y="1883.638" rx="0" ry="2.5" transform="rotate(-30)"/><rect width="20" height="5" x="1564.318" y="-1086.644" rx="0" ry="2.5" transform="scale(1 -1) rotate(-30)"/></g><rect width="17.858" height="36.197" x="-2112.118" y="777.613" fill="#9b4c17" rx="8.922" transform="rotate(-89.816)"/><rect width="17.858" height="36.197" x="-1720.969" y="689.623" fill="#edeeac" rx="8.922" transform="rotate(-89.816)"/><rect width="17.858" height="36.197" x="-1720.925" y="782.024" fill="#ff7f2a" rx="8.922" transform="rotate(-89.816)"/><rect width="22" height="5" x="815.084" y="1712.303" fill="#ff7f2a" rx="0" ry="2.5"/><rect width="20" height="5" x="-150.139" y="1883.638" fill="#ff7f2a" rx="0" ry="2.5" transform="rotate(-30)"/><rect width="20" height="5" x="1564.318" y="-1086.644" fill="#ff7f2a" rx="0" ry="2.5" transform="scale(1 -1) rotate(-30)"/><rect width="17.858" height="36.197" x="-1720.969" y="774.82" fill="#edeeac" rx="8.922" transform="rotate(-89.816)"/></g><path fill="#fff" d="M948.54 1333.962h-41.968s12.412-280.255 14.165-313.483h-23.281l29.413-208.281 32.134 208.281H932.86zM1515.516 1306.108s-12.412-277.262-14.16-310.484c-1.747-33.223 15.84-46.338 22.734-46.338.704 8.17 0 93.36 0 93.36l35.142-112.598-35.142-145.704-.703 113.355s-25.341 3.599-29.17 42.27c-13.432 125.04-13.94 243.531-20.669 366.139z"/><g transform="translate(1441.682 1423.169) scale(.1198)"><circle cx="215" cy="409" r="161" fill="none" stroke="#fff" stroke-width="40"/><circle cx="790" cy="406" r="161" fill="none" stroke="#fff" stroke-width="40"/><path fill="#fff" fill-rule="evenodd" d="M429.484 15.467C296.918 16.76 319.4 1.771 248.078 230.985 189.975 414.125 196.304 394.154 196 407c-.213 9.98 7.843 17.893 17.967 18.57 21.054-2.128 12.198 2.277 85.19-224.39C565.87 482.537 465.806 436.913 609.341 442.627c188.642-1.81 203.975 9.82 206.214-17.83-.258-9.39-4.651-14.989-134.117-303.12l12.404-34.111 42.638-.776-1.55-35.66H576.005c-14.04 19.208 5.685 19.122 76.75 34.885L640.35 120.9l-317.074.775c21.362-74.595 9.303-69.944 105.433-69.771ZM314.114 159.91l310.264-.55-89.669 240.95Zm347.671 14.303L573.767 405.26l192.54.55z"/></g><path fill="#ccd0ce" stroke="#e1e1e1" stroke-miterlimit="10" stroke-width="11.932" d="M1335.157 2572.073s-6.02-473.63 1.834-569.13c-6.742-347.662 333.291-244.55 333.291-565.73l9.249-947.195c-2.336-191.222 144.84-291.888 419.77-286.497l97.865 1.92 273.17-1.352c18.508 0 7.603 10.51 7.603 23.5v98.5c0 13.06 10.762 93.61-7.83 93.5l-381.498 1.21s-193.21-6.318-188.855 165.31l2.536 1980.853m527.775-2849.908-460.601 5.626c-191.222 2.336-291.888-144.84-286.497-419.77l1.92-97.865-1.353-273.17c0-18.508 10.51-7.603 23.5-7.603h98.5c13.06 0 93.61-10.762 93.5 7.83l1.21 381.498s-6.317 193.208 165.31 188.855l364.51-2.43"/><path fill="#fff" d="M1213.006 2154.86h-13.724s4.059-70.983 4.632-79.4h-7.613l9.619-52.753 10.508 52.754h-8.55zM766.172 640.837h12.5v1885.87h-12.5zM416.175-489.645h25v3023.117h-25z"/><path fill="#ccd0ce" stroke="#e1e1e1" stroke-linecap="round" stroke-linejoin="round" stroke-miterlimit="10" stroke-width="15.631" d="M2.108-717.263h215.078v3497.351H2.108Z"/></svg>