<svg xmlns="http://www.w3.org/2000/svg" width="1000" height="3000"><path stroke="#ed6706" stroke-width="100" d="M500 0v500m0 0v500"/><path fill="none" stroke="#ed6706" stroke-width="100" d="M500 500a250 250 0 0 1-250 250"/><path stroke="#ed6706" stroke-width="100" d="M500 1000v500"/><path fill="none" stroke="#ed6706" stroke-width="100" d="M500 1000a250 250 0 0 1-250 250"/><path stroke="#ed6706" stroke-width="100" d="M500 1500v500"/><path fill="none" stroke="#ed6706" stroke-width="100" d="M500 1500a250 250 0 0 1-250 250m250.012 249.972a250 250 0 0 1-250 250"/><path stroke="#ed6706" stroke-width="100" d="M500 2000v500m0 0v500"/><path fill="none" stroke="#ed6706" stroke-width="100" d="M640 2950H360m140-450a250 250 0 0 1-250 250"/></svg>