<svg xmlns="http://www.w3.org/2000/svg" width="1000" height="5500"><path stroke="#008aa7" d="M500 0v500m0 0v500m0 0v500" stroke-width="100"/><path stroke="#008aa7" d="M500 1000a250 250 0 0 1-250 250" stroke-width="100" fill="none"/><path stroke="#008aa7" d="M500 1500v500m0 0v500m0 0v500" stroke-width="100"/><path stroke="#008aa7" d="M500 2500a250 250 0 0 1-250 250" stroke-width="100" fill="none"/><path stroke="#008aa7" d="M500 3000v500m0 0v500" stroke-width="100"/><path stroke="#008aa7" d="M500 3500a250 250 0 0 1-250 250" stroke-width="100" fill="none"/><path stroke="#008aa7" d="M500 4000v500m0 0v500" stroke-width="100"/><path stroke="#008aa7" stroke-opacity=".4" d="M470 4975v525m60-525v525" stroke-width="40" stroke-dasharray="50"/></svg>
