<svg xmlns="http://www.w3.org/2000/svg" width="1000" height="5000"><path stroke="#f28801" d="M500 0v500" stroke-width="100"/><path stroke="#f28801" d="M500 0a250 250 0 0 1-250 250" stroke-width="100" fill="none"/><path stroke="#f28801" d="M500 500v500" stroke-width="100"/><path stroke="#f28801" d="M500 500a250 250 0 0 1-250 250" stroke-width="100" fill="none"/><path stroke="#f28801" d="M500 1000v500" stroke-width="100"/><path stroke="#f28801" d="M500 1000a250 250 0 0 1-250 250" stroke-width="100" fill="none"/><path stroke="#f28801" d="M500 1500v500M500 2000v500" stroke-width="100"/><path stroke="#f28801" d="M500 2000a250 250 0 0 1-250 250" stroke-width="100" fill="none"/><path stroke="#f28801" d="M500 2500v500M500 3000v500" stroke-width="100"/><path stroke="#f28801" d="M500 3000a250 250 0 0 1-250 250" stroke-width="100" fill="none"/><path stroke="#f28801" d="M500 3500v500" stroke-width="100"/><path stroke="#f28801" d="M500 3500a250 250 0 0 1-250 250" stroke-width="100" fill="none"/><path stroke="#f28801" d="M500 4000v500" stroke-width="100"/><path stroke="#f28801" d="M500 4000a250 250 0 0 1-250 250" stroke-width="100" fill="none"/><path stroke="#f28801" d="M500 4500v500" stroke-width="100"/><path d="M640 4950H360M500 4500a250 250 0 0 1-250 250" fill="none" stroke-width="100" stroke="#f28801"/></svg>