<svg xmlns="http://www.w3.org/2000/svg" width="1000" height="6500"><path stroke="#2a3283" stroke-width="100" d="M500 0v500M500 500v500"/><path fill="none" stroke="#2a3283" stroke-width="100" d="M500 500a250 250 0 0 1-250 250"/><path stroke="#2a3283" stroke-width="100" d="M500 1000v500"/><path fill="none" stroke="#2a3283" stroke-width="100" d="M500 1000a250 250 0 0 1-250 250"/><path stroke="#2a3283" stroke-width="100" d="M500 1500v500M500 2000v500"/><path fill="none" stroke="#2a3283" stroke-width="100" d="M500 2000a250 250 0 0 1-250 250"/><path stroke="#2a3283" stroke-width="100" d="M500 2500v500M500 3000v500M500 3500v500M500 4000v500M500 4500v500"/><path fill="none" stroke="#2a3283" stroke-width="100" d="M500 4500a250 250 0 0 1-250 250"/><path stroke="#2a3283" stroke-width="100" d="M500 5000v500"/><path fill="none" stroke="#2a3283" stroke-width="100" d="M500 5000a250 250 0 0 1-250 250"/><path stroke="#2a3283" stroke-width="100" d="M500 5500v500"/><path stroke="#2a3283" stroke-dasharray="50" stroke-opacity=".4" stroke-width="40" d="M470 5975v525M530 5975v525"/></svg>