<svg xmlns="http://www.w3.org/2000/svg" width="1000" height="6000"><path stroke="#e20612" stroke-width="100" d="M500 0v500m0 0v500"/><path fill="none" stroke="#e20612" stroke-width="100" d="M500 500a250 250 0 0 1-250 250"/><path stroke="#e20612" stroke-width="100" d="M500 1000v500m0 0v500"/><path fill="none" stroke="#e20612" stroke-width="100" d="M500 1500a250 250 0 0 1-250 250"/><path stroke="#e20612" stroke-width="100" d="M500 2000v500m0 0v500m0 0v500"/><path fill="none" stroke="#e20612" stroke-width="100" d="M500 3000a250 250 0 0 1-250 250M250 4000c0-125 62.5-187.5 125-250s125-125 125-250m250 500c0-125-62.5-187.5-125-250s-125-125-125-250M390 3950H110"/><path stroke="#e20612" stroke-width="100" d="M750 4000v500m0 0v500"/><path fill="none" stroke="#e20612" stroke-width="100" d="M750 4500a250 250 0 0 0 250 250"/><path stroke="#e20612" stroke-dasharray="50" stroke-opacity=".4" stroke-width="40" d="M720 4975v525m60-525v525m-60-25v525m60-525v525"/></svg>