<svg xmlns="http://www.w3.org/2000/svg" width="1000" height="6500"><path stroke="#2a3283" stroke-width="100" d="M500 0v500m0 0v500M500 1000v500"/><path fill="none" stroke="#2a3283" stroke-width="100" d="M500 1000a250 250 0 0 1-250 250"/><path stroke="#2a3283" stroke-width="100" d="M500 1500v500m0 0v500"/><path fill="none" stroke="#2a3283" stroke-width="100" d="M500 2000a250 250 0 0 1-250 250"/><path stroke="#2a3283" stroke-width="100" d="M500 2500v500m0 0v500m0 0v500m0 0v500m0 0v500"/><path fill="none" stroke="#2a3283" stroke-width="100" d="M500 4500a250 250 0 0 1-250 250"/><path stroke="#2a3283" stroke-width="100" d="M500 5000v500"/><path fill="none" stroke="#2a3283" stroke-width="100" d="M500 5000a250 250 0 0 1-250 250"/><path stroke="#2a3283" stroke-width="100" d="M500 5500v500"/><path stroke="#2a3283" stroke-dasharray="50" stroke-opacity=".4" stroke-width="40" d="M470 5975v525m60-525v525"/><path fill="none" stroke="#2a3283" stroke-width="100" d="M500 4000.305a250 250 0 0 1-250 250"/></svg>