<svg xmlns="http://www.w3.org/2000/svg" width="1000" height="7000"><path stroke="#00a0e2" d="M500 0v500m0 0v500" stroke-width="100"/><path stroke="#00a0e2" d="M500 500a250 250 0 0 1-250 250" stroke-width="100" fill="none"/><path stroke="#00a0e2" d="M500 1000v500" stroke-width="100"/><path stroke="#00a0e2" d="M500 1000a250 250 0 0 1-250 250" stroke-width="100" fill="none"/><path stroke="#00a0e2" d="M500 1500v500" stroke-width="100"/><path stroke="#00a0e2" d="M500 1500a250 250 0 0 1-250 250" stroke-width="100" fill="none"/><path stroke="#00a0e2" d="M500 2000v500m0 0v500m0 0v500m0 0v500" stroke-width="100"/><path stroke="#00a0e2" d="M500 3500a250 250 0 0 1-250 250M250 4500c0-125 62.5-187.5 125-250s125-125 125-250m250 500c0-125-62.5-187.5-125-250s-125-125-125-250" stroke-width="100" fill="none"/><path stroke="#00a0e2" d="M500 4000a250 250 0 0 1-250 250m50 0H200" stroke-width="100" fill="none"/><path stroke="#00a0e2" stroke-opacity=".4" d="M220 4475v525m60-525v525" stroke-width="40" stroke-dasharray="50"/><path stroke="#00a0e2" d="M750 4500v500m0 0v500m0 0v500m0 0v500" stroke-width="100"/><path stroke="#00a0e2" stroke-opacity=".4" d="M720 6475v525m60-525v525" stroke-width="40" stroke-dasharray="50"/></svg>
