<svg xmlns="http://www.w3.org/2000/svg" width="1000" height="6500"><path stroke="#2a3283" d="M500 0v500M500 500v500" stroke-width="100"/><path stroke="#2a3283" d="M500 500a250 250 0 0 1-250 250" stroke-width="100" fill="none"/><path stroke="#2a3283" d="M500 1000v500" stroke-width="100"/><path stroke="#2a3283" d="M500 1000a250 250 0 0 1-250 250" stroke-width="100" fill="none"/><path stroke="#2a3283" d="M500 1500v500M500 2000v500" stroke-width="100"/><path stroke="#2a3283" d="M500 2000a250 250 0 0 1-250 250" stroke-width="100" fill="none"/><path stroke="#2a3283" d="M500 2500v500M500 3000v500M500 3500v500M500 4000v500M500 4500v500" stroke-width="100"/><path stroke="#2a3283" d="M500 4500a250 250 0 0 1-250 250" stroke-width="100" fill="none"/><path stroke="#2a3283" d="M500 5000v500" stroke-width="100"/><path stroke="#2a3283" d="M500 5000a250 250 0 0 1-250 250" stroke-width="100" fill="none"/><path stroke="#2a3283" d="M500 5500v500" stroke-width="100"/><path stroke="#2a3283" stroke-opacity=".4" d="M470 5975v525M530 5975v525" stroke-width="40" stroke-dasharray="50"/></svg>
