<svg xmlns="http://www.w3.org/2000/svg" width="1000" height="8000"><path stroke="#fdb801" d="M500 0v500" stroke-width="100"/><path stroke="#fdb801" d="M500 0a250 250 0 0 1-250 250" stroke-width="100" fill="none"/><path stroke="#fdb801" d="M500 500v500" stroke-width="100"/><path stroke="#fdb801" d="M500 500a250 250 0 0 1-250 250" stroke-width="100" fill="none"/><path stroke="#fdb801" d="M500 1000v500M500 1500v500" stroke-width="100"/><path stroke="#fdb801" d="M500 1500a250 250 0 0 1-250 250" stroke-width="100" fill="none"/><path stroke="#fdb801" d="M500 2000v500M500 2500v500" stroke-width="100"/><path stroke="#fdb801" d="M500 2500a250 250 0 0 1-250 250" stroke-width="100" fill="none"/><path stroke="#fdb801" d="M500 3000v500" stroke-width="100"/><path stroke="#fdb801" d="M500 3000a250 250 0 0 1-250 250" stroke-width="100" fill="none"/><path stroke="#fdb801" d="M500 3500v500M500 4000v500" stroke-width="100"/><path stroke="#fdb801" d="M500 4000a250 250 0 0 1-250 250" stroke-width="100" fill="none"/><path stroke="#fdb801" d="M500 4500v500M500 5000v500" stroke-width="100"/><path stroke="#fdb801" d="M500 5000a250 250 0 0 1-250 250" stroke-width="100" fill="none"/><path stroke="#fdb801" d="M500 5500v500" stroke-width="100"/><path stroke="#fdb801" d="M500 5500a250 250 0 0 1-250 250" stroke-width="100" fill="none"/><path stroke="#fdb801" d="M500 6000v500" stroke-width="100"/><path stroke="#fdb801" d="M500 6000a250 250 0 0 1-250 250" stroke-width="100" fill="none"/><path stroke="#fdb801" d="M500 6500v500" stroke-width="100"/><path stroke="#fdb801" d="M500 6500a250 250 1 0 0 250 250M500 6500a250 250 0 0 1-250 250" stroke-width="100" fill="none"/><path stroke="#fdb801" d="M500 7000v500M500 7500v500" stroke-width="100"/><path d="M640 7950H360M500 7500a250 250 0 0 1-250 250" fill="none" stroke-width="100" stroke="#fdb801"/></svg>