<svg xmlns="http://www.w3.org/2000/svg" width="1000" height="6000"><path stroke="#552976" stroke-width="100" d="M500 0v500m0 0v500m0 0v500"/><path fill="none" stroke="#552976" stroke-width="100" d="M500 1000a250 250 0 0 1-250 250"/><path stroke="#552976" stroke-width="100" d="M500 1500v500m0 0v500"/><path fill="none" stroke="#552976" stroke-width="100" d="M500 2000a250 250 0 0 1-250 250"/><path stroke="#552976" stroke-width="100" d="M500 2500v500m0 0v500m0 0v500m0 0v994.163"/><path stroke="#552976" stroke-dasharray="50" stroke-opacity=".4" stroke-width="40" d="M470 4974.742v1025m60-1025v1025"/><path fill="none" stroke="#552976" stroke-width="100" d="M500 2500.026a250 250 0 0 1-250 250m250.133 250.125a250 250 0 0 1-250 250M500 500.078a250 250 0 0 1-250 250m250.133 2750.001a250 250 0 0 1-250 250"/></svg>