<svg xmlns="http://www.w3.org/2000/svg" width="1000" height="3500"><path stroke="#97ba22" stroke-width="100" d="M500 0v500m0 0v500"/><path fill="none" stroke="#97ba22" stroke-width="100" d="M500 500a250 250 0 0 1-250 250"/><path stroke="#97ba22" stroke-width="100" d="M500 1000v500m0 0v500"/><path fill="none" stroke="#97ba22" stroke-width="100" d="M500 1500a250 250 0 0 1-250 250"/><path stroke="#97ba22" stroke-width="100" d="M500 1500v500m0 0v500"/><path fill="none" stroke="#97ba22" stroke-width="100" d="M250 3000c0-125 62.5-187.5 125-250s125-125 125-250m250 500c0-125-62.5-187.5-125-250s-125-125-125-250"/><path fill="none" stroke="#97ba22" stroke-width="100" d="M500 2500a250 250 0 0 1-250 250m50 0H200m300-250a250 250 0 0 0 250 250m50 0H700"/><path stroke="#97ba22" stroke-dasharray="50" stroke-opacity=".4" stroke-width="40" d="M220 2975v525m60-525v525"/><path stroke="#97ba22" stroke-width="100" d="M750 3000v500"/><path fill="none" stroke="#97ba22" stroke-width="100" d="M890 3450H610M500 999.956a250 250 0 0 1-250 250m250 750a250 250 0 0 1-250 250"/></svg>