<svg xmlns="http://www.w3.org/2000/svg" width="1000" height="6000"><path stroke="#9d2928" stroke-width="100" d="M500 0v500m0 0v500"/><path fill="none" stroke="#9d2928" stroke-width="100" d="M500 500a250 250 0 0 1-250 250m250.818 749.993a250 250 0 0 1-250 250m249.608 1250.014a250 250 0 0 1-250 250M500 4000a250 250 0 0 1-250 250"/><path stroke="#9d2928" stroke-width="100" d="M500 1000v500m0 0v500m0 0v500m0 0v500m0 0v500m0 0v500m0 0v500m0 0v500"/><path fill="none" stroke="#9d2928" stroke-width="100" d="M500 4500a250 250 0 0 1-250 250"/><path stroke="#9d2928" stroke-dasharray="50" stroke-opacity=".4" stroke-width="40" d="M470 4975v525m60-525v525m-60-25v525m60-525v525"/></svg>