<svg xmlns="http://www.w3.org/2000/svg" width="1000" height="4000"><path stroke="#97ba22" d="M500 0v500m0 0v500" stroke-width="100"/><path stroke="#97ba22" d="M500 500a250 250 0 0 1-250 250" stroke-width="100" fill="none"/><path stroke="#97ba22" d="M500 1000v500m0 0v500" stroke-width="100"/><path stroke="#97ba22" d="M500 1500a250 250 0 0 1-250 250" stroke-width="100" fill="none"/><path stroke="#97ba22" d="M500 2000v500" stroke-width="100"/><path stroke="#97ba22" d="M500 2000a250 250 0 0 1-250 250" stroke-width="100" fill="none"/><path stroke="#97ba22" d="M500 2500v500" stroke-width="100"/><path d="M250 3500c0-125 62.5-187.5 125-250s125-125 125-250m250 500c0-125-62.5-187.5-125-250s-125-125-125-250" stroke="#97ba22" stroke-width="100" fill="none"/><path stroke="#97ba22" d="M500 3000a250 250 0 0 1-250 250m50 0H200m300-250a250 250 1 0 0 250 250m50 0H700" stroke-width="100" fill="none"/><path stroke="#97ba22" stroke-opacity=".4" d="M220 3475v525m60-525v525" stroke-width="40" stroke-dasharray="50"/><path stroke="#97ba22" d="M750 3500v500" stroke-width="100"/><path d="M890 3950H610" fill="none" stroke-width="100" stroke="#97ba22"/></svg>
