<svg xmlns="http://www.w3.org/2000/svg" width="1000" height="8000"><path stroke="#fdb801" stroke-width="100" d="M500 0v500m0 0v500"/><path fill="none" stroke="#fdb801" stroke-width="100" d="M500 500a250 250 0 0 1-250 250m250 250a250 250 0 0 1-250 250"/><path stroke="#fdb801" stroke-width="100" d="M500 1000v500m0 0v500"/><path fill="none" stroke="#fdb801" stroke-width="100" d="M500 1500a250 250 0 0 1-250 250"/><path stroke="#fdb801" stroke-width="100" d="M500 2000v500m0 0v500"/><path fill="none" stroke="#fdb801" stroke-width="100" d="M500 2500a250 250 0 0 1-250 250"/><path stroke="#fdb801" stroke-width="100" d="M500 3000v500"/><path fill="none" stroke="#fdb801" stroke-width="100" d="M500 3000a250 250 0 0 1-250 250"/><path stroke="#fdb801" stroke-width="100" d="M500 3500v500m0 0v500"/><path fill="none" stroke="#fdb801" stroke-width="100" d="M500 4000a250 250 0 0 1-250 250"/><path stroke="#fdb801" stroke-width="100" d="M500 4500v500m0 0v500"/><path fill="none" stroke="#fdb801" stroke-width="100" d="M500 5000a250 250 0 0 1-250 250"/><path stroke="#fdb801" stroke-width="100" d="M500 5500v500"/><path fill="none" stroke="#fdb801" stroke-width="100" d="M500 5500a250 250 0 0 1-250 250"/><path stroke="#fdb801" stroke-width="100" d="M500 6000v500"/><path fill="none" stroke="#fdb801" stroke-width="100" d="M500 6000a250 250 0 0 1-250 250"/><path stroke="#fdb801" stroke-width="100" d="M500 6500v500"/><path fill="none" stroke="#fdb801" stroke-width="100" d="M500 6500a250 250 1 0 0 250 250m-250-250a250 250 0 0 1-250 250"/><path stroke="#fdb801" stroke-width="100" d="M500 7000v500m0 0v500"/><path fill="none" stroke="#fdb801" stroke-width="100" d="M640 7950H360m140-450a250 250 0 0 1-250 250"/></svg>