<svg width="1223.782" height="1834.723" xmlns="http://www.w3.org/2000/svg"><rect width="1223.782" height="1834.723" ry="1.967" fill="#a5a8a7"/><path d="M1007.12-266.014h215.078v3497.352H1007.12zM-.232-614.792h215.078V2882.56H-.232Z" fill="#ccd0ce" stroke="#e1e1e1" stroke-width="15.631" stroke-linecap="round" stroke-linejoin="round" stroke-miterlimit="10"/><g transform="rotate(180 897.99 801.108)"><path d="M1531.955 990.245a7.587 7.003 0 0 0-15.16 0v29.966a19.257 17.777 0 0 0-4.48-.513h-30.4a18.504 17.081 0 0 0-7.48 1.44v-30.893a7.587 7.003 0 0 0-15.16 0v39.727a7.56 6.979 0 0 0 3.964 6.1v.854a18.702 17.265 0 0 0 18.716 17.265h30.4a18.702 17.265 0 0 0 18.714-17.265 19.39 17.899 0 0 0-.317-3.16 7.56 6.979 0 0 0 1.243-3.843z" fill="none" stroke="#432918" stroke-width="1.27" stroke-miterlimit="10"/><path d="M1483.871 990.83a9.252 8.54 0 0 0-9.252 8.468v13.946a9.186 8.48 0 0 0 18.359 0v-13.946a9.173 8.468 0 0 0-9.107-8.467zm24.835 10.786h-2.3a8.062 7.443 0 0 0-8.062 7.443v4.758a8.062 7.443 0 0 0 8.062 7.43h2.3a8.05 7.43 0 0 0 8.05-7.43v-4.758a8.062 7.443 0 0 0-8.05-7.443z" fill="none" stroke="#432918" stroke-width="1.27" stroke-miterlimit="10"/><rect x="-1103.279" y="1492.793" width="180" height="8.525" rx="3.172" transform="rotate(-90)" fill="#060709"/><path d="M1531.955 990.245a7.587 7.003 0 0 0-15.16 0v29.966a19.257 17.777 0 0 0-4.48-.513h-30.4a18.504 17.081 0 0 0-7.48 1.44v-30.893a7.587 7.003 0 0 0-15.16 0v39.727a7.56 6.979 0 0 0 3.964 6.1v.854a18.702 17.265 0 0 0 18.716 17.265h30.4a18.702 17.265 0 0 0 18.714-17.265 19.39 17.899 0 0 0-.317-3.16 7.56 6.979 0 0 0 1.243-3.843z" fill="#fc0"/><path d="M1483.871 990.83a9.252 8.54 0 0 0-9.252 8.468v13.946a9.186 8.48 0 0 0 18.359 0v-13.946a9.173 8.468 0 0 0-9.107-8.467zm24.835 10.786h-2.3a8.062 7.443 0 0 0-8.062 7.443v4.758a8.062 7.443 0 0 0 8.062 7.43h2.3a8.05 7.43 0 0 0 8.05-7.43v-4.758a8.062 7.443 0 0 0-8.05-7.443z" fill="#1e8dc7"/><rect x="-1048.261" y="1484.744" width="19.68" height="21.319" rx="9.834" transform="rotate(-90)" fill="#b04f1a"/><path d="m1490.202 961.316-25.496 17.204a3.635 3.355 0 0 0 4.283 5.417l25.43-17.216a3.627 3.348 0 1 0-4.283-5.405zm37.47 19.68-23.275-17.935a3.621 3.343 0 1 0-4.639 5.124l23.196 17.924a3.622 3.343 0 0 0 4.653-5.125z" fill="#060709"/></g><g transform="translate(-570.403 -102.45)"><path d="M1531.955 990.245a7.587 7.003 0 0 0-15.16 0v29.966a19.257 17.777 0 0 0-4.48-.513h-30.4a18.504 17.081 0 0 0-7.48 1.44v-30.893a7.587 7.003 0 0 0-15.16 0v39.727a7.56 6.979 0 0 0 3.964 6.1v.854a18.702 17.265 0 0 0 18.716 17.265h30.4a18.702 17.265 0 0 0 18.714-17.265 19.39 17.899 0 0 0-.317-3.16 7.56 6.979 0 0 0 1.243-3.843z" fill="none" stroke="#432918" stroke-width="1.27" stroke-miterlimit="10"/><path d="M1483.871 990.83a9.252 8.54 0 0 0-9.252 8.468v13.946a9.186 8.48 0 0 0 18.359 0v-13.946a9.173 8.468 0 0 0-9.107-8.467zm24.835 10.786h-2.3a8.062 7.443 0 0 0-8.062 7.443v4.758a8.062 7.443 0 0 0 8.062 7.43h2.3a8.05 7.43 0 0 0 8.05-7.43v-4.758a8.062 7.443 0 0 0-8.05-7.443z" fill="none" stroke="#432918" stroke-width="1.27" stroke-miterlimit="10"/><rect x="-1103.279" y="1492.793" width="180" height="8.525" rx="3.172" transform="rotate(-90)" fill="#060709"/><path d="M1531.955 990.245a7.587 7.003 0 0 0-15.16 0v29.966a19.257 17.777 0 0 0-4.48-.513h-30.4a18.504 17.081 0 0 0-7.48 1.44v-30.893a7.587 7.003 0 0 0-15.16 0v39.727a7.56 6.979 0 0 0 3.964 6.1v.854a18.702 17.265 0 0 0 18.716 17.265h30.4a18.702 17.265 0 0 0 18.714-17.265 19.39 17.899 0 0 0-.317-3.16 7.56 6.979 0 0 0 1.243-3.843z" fill="#fc0"/><path d="M1483.871 990.83a9.252 8.54 0 0 0-9.252 8.468v13.946a9.186 8.48 0 0 0 18.359 0v-13.946a9.173 8.468 0 0 0-9.107-8.467zm24.835 10.786h-2.3a8.062 7.443 0 0 0-8.062 7.443v4.758a8.062 7.443 0 0 0 8.062 7.43h2.3a8.05 7.43 0 0 0 8.05-7.43v-4.758a8.062 7.443 0 0 0-8.05-7.443z" fill="#1e8dc7"/><rect x="-1048.261" y="1484.744" width="19.68" height="21.319" rx="9.834" transform="rotate(-90)" fill="#b04f1a"/><path d="m1490.202 961.316-25.496 17.204a3.635 3.355 0 0 0 4.283 5.417l25.43-17.216a3.627 3.348 0 1 0-4.283-5.405zm37.47 19.68-23.275-17.935a3.621 3.343 0 1 0-4.639 5.124l23.196 17.924a3.622 3.343 0 0 0 4.653-5.125z" fill="#060709"/></g><g transform="matrix(-1.17143 -.00321 .00376 -1 1120.656 552.554)"><rect x="-416.821" y="-471.996" width="155.886" height="441.752" rx="28.048" transform="scale(-1)" fill="#89bd27"/><path d="M288.983 467.856a25.026 34.146 0 0 1-25.026-34.146V68.497a25.026 34.146 0 0 1 25.026-34.146h99.802A25.014 34.13 0 0 1 413.8 68.497v365.214a25.014 34.13 0 0 1-25.014 34.146h-99.802m0 8.248h99.802a31.095 42.427 0 0 0 31.06-42.394V68.498a31.095 42.427 0 0 0-31.06-42.393h-99.8a31.107 42.443 0 0 0-31.072 42.393v365.213a31.107 42.443 0 0 0 31.07 42.394z" fill="#8a8989"/><path d="m296.818 132.818-6.323-31.122c-1.076-5.35 2.998-10.46 8.293-10.46h79.418c5.283 0 9.37 5.14 8.294 10.46l-6.323 31.122c-.81 3.99-4.099 6.798-7.967 6.798h-67.377c-3.88 0-7.157-2.809-8.015-6.798zm107.864 112.703v46.9a6.045 8.76 0 0 1-6.044 8.76h-3.627a2.418 3.504 0 0 1-2.418-3.504v-57.411a2.418 3.504 0 0 1 2.418-3.504h3.627a6.045 8.76 0 0 1 6.045 8.76zM271.574 361.112v5.449a6.045 6.81 0 0 1-6.045 6.81H257.9a6.045 6.81 0 0 1-6.044-6.81 6.045 6.81 0 0 1 6.044-6.811h12.465a1.209 1.362 0 0 1 1.21 1.362zm155.282 5.489a6.045 6.81 0 0 1-6.045 6.811h-7.629a6.045 6.81 0 0 1-6.045-6.81v-5.449a1.209 1.362 0 0 1 1.21-1.362h12.464a6.045 6.81 0 0 1 6.045 6.81zm-22.234-206.662v46.9a6.045 8.76 0 0 1-6.044 8.759h-3.627a2.418 3.504 0 0 1-2.418-3.503v-57.412a2.418 3.504 0 0 1 2.418-3.503h3.627a6.045 8.76 0 0 1 6.045 8.76zm-128.024 46.949.332-46.898a6.045 8.76.407 0 1 6.107-8.716l3.627.026a2.418 3.504.407 0 1 2.393 3.52l-.407 57.41a2.418 3.504.407 0 1-2.443 3.486l-3.627-.026a6.045 8.76.407 0 1-5.982-8.802zm-.548 85.581.333-46.899a6.045 8.76.407 0 1 6.107-8.716l3.627.026a2.418 3.504.407 0 1 2.393 3.52l-.407 57.41a2.418 3.504.407 0 1-2.443 3.487l-3.627-.026a6.045 8.76.407 0 1-5.983-8.802zm7.65 60.297 8.463-34.564c1.052-4.313 4.92-7.259 9.587-7.259h76.166c4.558 0 8.354 2.815 9.466 6.995l9.213 34.565c1.547 5.794-3.942 11.752-10.627 11.752h-91.726c-6.564.033-11.932-5.744-10.542-11.489z" fill="#060709"/><rect x="47.089" y="-398.565" width="17.858" height="36.197" rx="8.922" transform="rotate(90)" fill="#9b4c17"/><rect x="47.089" y="-310.588" width="17.858" height="36.197" rx="8.922" transform="rotate(90)" fill="#9b4c17"/><rect x="438.238" y="-398.578" width="17.858" height="36.197" rx="8.922" transform="rotate(90)" fill="#edeeac"/><rect x="438.238" y="-313.381" width="17.858" height="36.197" rx="8.922" transform="rotate(90)" fill="#edeeac"/></g><g transform="matrix(1.17143 .00321 -.00376 1 93.916 -184.795)"><rect x="-416.821" y="-471.996" width="155.886" height="441.752" rx="28.048" transform="scale(-1)" fill="#89bd27"/><path d="M288.983 467.856a25.026 34.146 0 0 1-25.026-34.146V68.497a25.026 34.146 0 0 1 25.026-34.146h99.802A25.014 34.13 0 0 1 413.8 68.497v365.214a25.014 34.13 0 0 1-25.014 34.146h-99.802m0 8.248h99.802a31.095 42.427 0 0 0 31.06-42.394V68.498a31.095 42.427 0 0 0-31.06-42.393h-99.8a31.107 42.443 0 0 0-31.072 42.393v365.213a31.107 42.443 0 0 0 31.07 42.394z" fill="#8a8989"/><path d="m296.818 132.818-6.323-31.122c-1.076-5.35 2.998-10.46 8.293-10.46h79.418c5.283 0 9.37 5.14 8.294 10.46l-6.323 31.122c-.81 3.99-4.099 6.798-7.967 6.798h-67.377c-3.88 0-7.157-2.809-8.015-6.798zm107.864 112.703v46.9a6.045 8.76 0 0 1-6.044 8.76h-3.627a2.418 3.504 0 0 1-2.418-3.504v-57.411a2.418 3.504 0 0 1 2.418-3.504h3.627a6.045 8.76 0 0 1 6.045 8.76zM271.574 361.112v5.449a6.045 6.81 0 0 1-6.045 6.81H257.9a6.045 6.81 0 0 1-6.044-6.81 6.045 6.81 0 0 1 6.044-6.811h12.465a1.209 1.362 0 0 1 1.21 1.362zm155.282 5.489a6.045 6.81 0 0 1-6.045 6.811h-7.629a6.045 6.81 0 0 1-6.045-6.81v-5.449a1.209 1.362 0 0 1 1.21-1.362h12.464a6.045 6.81 0 0 1 6.045 6.81zm-22.234-206.662v46.9a6.045 8.76 0 0 1-6.044 8.759h-3.627a2.418 3.504 0 0 1-2.418-3.503v-57.412a2.418 3.504 0 0 1 2.418-3.503h3.627a6.045 8.76 0 0 1 6.045 8.76zm-128.024 46.949.332-46.898a6.045 8.76.407 0 1 6.107-8.716l3.627.026a2.418 3.504.407 0 1 2.393 3.52l-.407 57.41a2.418 3.504.407 0 1-2.443 3.486l-3.627-.026a6.045 8.76.407 0 1-5.982-8.802zm-.548 85.581.333-46.899a6.045 8.76.407 0 1 6.107-8.716l3.627.026a2.418 3.504.407 0 1 2.393 3.52l-.407 57.41a2.418 3.504.407 0 1-2.443 3.487l-3.627-.026a6.045 8.76.407 0 1-5.983-8.802zm7.65 60.297 8.463-34.564c1.052-4.313 4.92-7.259 9.587-7.259h76.166c4.558 0 8.354 2.815 9.466 6.995l9.213 34.565c1.547 5.794-3.942 11.752-10.627 11.752h-91.726c-6.564.033-11.932-5.744-10.542-11.489z" fill="#060709"/><rect x="47.089" y="-398.565" width="17.858" height="36.197" rx="8.922" transform="rotate(90)" fill="#9b4c17"/><rect x="47.089" y="-310.588" width="17.858" height="36.197" rx="8.922" transform="rotate(90)" fill="#9b4c17"/><rect x="438.238" y="-398.578" width="17.858" height="36.197" rx="8.922" transform="rotate(90)" fill="#edeeac"/><rect x="438.238" y="-313.381" width="17.858" height="36.197" rx="8.922" transform="rotate(90)" fill="#edeeac"/></g><path d="M372.844-212.194v2676.886m476-2676.886v2676.886" fill="none" stroke="#fff" stroke-width="13.715" stroke-dasharray="109.721,109.721"/><g transform="matrix(1.0196 0 0 1 371.24 748.75)"><path d="M520.371 1042.971v-65.964a2.937 2.828 0 0 1 2.938-2.828h4.405a7.343 7.07 0 0 1 7.343 7.07v57.48a7.343 7.07 0 0 1-7.343 7.07h-4.405a2.937 2.828 0 0 1-2.938-2.828zm-1.483 16.219v65.964a2.937 2.828 0 0 0 2.937 2.828h4.406c4.053 0 7.343-3.167 8.811-7.07v-57.48c-1.468-3.903-4.758-7.07-8.811-7.07h-4.406a2.937 2.828 0 0 0-2.937 2.828zm1.483 383.737v-65.964a2.937 2.828 0 0 1 2.938-2.829h4.405a7.343 7.07 0 0 1 7.343 7.07v57.48a7.343 7.07 0 0 1-7.343 7.07h-4.405a2.937 2.828 0 0 1-2.938-2.827zm-.029 82.197v-65.964a2.937 2.828 0 0 1 2.937-2.828h4.406a7.343 7.07 0 0 1 7.343 7.07v57.48a7.343 7.07 0 0 1-7.343 7.07h-4.406a2.937 2.828 0 0 1-2.937-2.828z" fill="#060709"/><path d="M332.073 858.738a18.372 17.69 0 0 1-18.357-17.676v-91.049a34.1 32.834 0 0 1 34.056-32.805h121.23a34.115 32.848 0 0 1 34.07 32.805v91.092a18.386 17.704 0 0 1-18.357 17.675z" fill="#9c9b9b"/><path d="M469.001 720.743a30.4 29.27 0 0 1 30.4 29.27v91.092a14.686 14.14 0 0 1-14.686 14.14H332.073a14.686 14.14 0 0 1-14.685-14.14v-91.092a30.384 29.256 0 0 1 30.384-29.27h121.23m0-7.07h-121.23a37.771 36.369 0 0 0-37.727 36.34v91.092a22.028 21.21 0 0 0 22.028 21.21h152.642a22.028 21.21 0 0 0 22.028-21.21v-91.092a37.786 36.383 0 0 0-37.742-36.34Z" fill="#8a8989"/><path d="M499.4 768.75v74.349c0 6.702-4.875 12.146-10.882 12.146H328.284c-6.006 0-10.882-5.444-10.882-12.146v-74.35c0-13.886 10.09-25.141 22.528-25.141h136.943c12.438 0 22.527 11.255 22.527 25.141z" fill="#bdbdbd"/><rect x="313.716" y="858.78" width="189.356" height="84.757" rx="18.357" fill="#bdbdbd"/><path d="M484.715 862.315a14.686 14.14 0 0 1 14.685 14.14v49.407a14.686 14.14 0 0 1-14.685 14.14H332.073a14.686 14.14 0 0 1-14.685-14.14v-49.406a14.686 14.14 0 0 1 14.685-14.14h152.642m0-7.07H332.073a22.028 21.21 0 0 0-22.028 21.21v49.406a22.028 21.21 0 0 0 22.028 21.21h152.642a22.028 21.21 0 0 0 22.028-21.21v-49.406a22.028 21.21 0 0 0-22.028-21.21z" fill="#8a8989"/><path d="M321.177 920.078v-37.853a7.343 7.07 0 0 1 7.342-7.07h4.406a2.937 2.828 0 0 1 2.937 2.828v46.337a2.937 2.828 0 0 1-2.937 2.828h-4.406a7.343 7.07 0 0 1-7.342-7.07zm-41.091 118.637v-57.48a7.343 7.07 0 0 1 7.343-7.07h4.406a2.937 2.828 0 0 1 2.937 2.828v65.964a2.937 2.828 0 0 1-2.937 2.828h-4.406a7.343 7.07 0 0 1-7.343-7.07zm0 82.197v-57.48a7.343 7.07 0 0 1 7.343-7.07h4.406a2.937 2.828 0 0 1 2.937 2.828v65.964a2.937 2.828 0 0 1-2.937 2.828h-4.406a7.343 7.07 0 0 1-7.343-7.07zm0 317.773v-57.48a7.343 7.07 0 0 1 7.343-7.07h4.406a2.937 2.828 0 0 1 2.937 2.828v65.964a2.937 2.828 0 0 1-2.937 2.828h-4.406a7.343 7.07 0 0 1-7.343-7.07zm-.029 82.183v-57.48a7.343 7.07 0 0 1 7.343-7.07h4.405a2.937 2.828 0 0 1 2.938 2.828v65.964a2.937 2.828 0 0 1-2.938 2.828H287.4a7.343 7.07 0 0 1-7.343-7.07zM494.07 882.437v37.472a7.343 7.07 0 0 1-7.343 7.07h-4.406a2.937 2.828 0 0 1-2.937-2.828v-45.956a2.937 2.828 0 0 1 2.937-2.828h4.406a7.343 7.07 0 0 1 7.343 7.07zm-3.921-28.691v-2.828a3.686 3.55 0 0 1 3.686-3.549h16.609a3.686 3.55 0 0 1 3.686 3.55 3.686 3.55 0 0 1-3.686 3.548h-19.561a.734.707 0 0 1-.734-.707zM325.347 842.83v2.828a62.09 59.785 0 0 0-.763 9.078l-19.518-.523c-2.056-8.484-3.67-10.068-3.612-12.033a3.715 3.577 0 0 1 3.818-3.479l16.536.438a3.7 3.563 0 0 1 3.54 3.691zm159.633-23.558-3.188 29.978c-.455 4.242-5.786 7.31-13.217 7.31h-120.98c-7.24 0-12.467-2.828-13.025-7.07l-4.098-30.048c-.587-4.383 8.136-8.71 16.962-8.71h120.833c8.68.014 17.153 4.171 16.712 8.54z" fill="#060709"/><rect x="-1563.404" y="317.388" width="18.538" height="43.969" rx="9.262" transform="rotate(-90)" fill="#9b4c17"/><rect x="-1563.404" y="457.444" width="18.538" height="43.969" rx="9.262" transform="rotate(-90)" fill="#9b4c17"/><rect x="-743.594" y="330.458" width="18.538" height="43.969" rx="5.656" transform="rotate(-90)" fill="#edeeac"/><rect x="-743.608" y="442.758" width="18.538" height="43.969" rx="5.656" transform="rotate(-90)" fill="#edeeac"/><path d="M317.285 752.686c-1.542-16.219 12.864-30.303 28.769-33.315 7.9-.268 23.409-.664 31.31-.791 25.626-.425 51.795-.283 77.451.297l15.493.48h.47c15.846 3.055 30.18 17.124 28.622 33.286-1.13-14.875-14.685-26.442-29.562-28.35-5.066.367-23.496.664-30.516.82-25.626.424-51.796.282-77.452-.312l-15.493-.396h.455c-14.847 1.91-28.431 13.49-29.547 28.366z" fill="#1d1d1b"/><path d="M490.472 847.595v-8.328a3.686 3.55 0 0 1 3.686-3.55h16.609a3.686 3.55 0 0 1 3.686 3.55v5.5a3.686 3.55 0 0 1-3.686 3.55h-19.546a.734.707 0 0 1-.735-.708zm-164.743-5.062-.073 5.062c0 .707-.353 1.259-.764 1.23l-19.517-.905c-2.056-.099-3.671-3.011-3.613-6.518 0-3.507 1.763-6.264 3.818-6.165l16.536.763c2.056.113 3.672 3.026 3.613 6.533z" fill="#f2f2f2"/><rect x="294.214" y="945.391" width="228.346" height="607.655" rx="18.357" fill="#bdbdbd"/><path d="M504.203 949.904a14.686 18.05 0 0 1 14.685 18.05v562.53a14.686 18.05 0 0 1-14.685 18.05H312.57a14.686 18.05 0 0 1-14.686-18.05v-562.53a14.686 18.05 0 0 1 14.686-18.05h191.632m0-9.025H312.57a22.028 27.075 0 0 0-22.029 27.075v562.53a22.028 27.075 0 0 0 22.029 27.074h191.632a22.028 27.075 0 0 0 22.028-27.075v-562.53a22.028 27.075 0 0 0-22.028-27.074Z" fill="#8a8989"/></g><g transform="matrix(-1.0196 0 0 -1 881.564 2449.755)"><path d="M520.371 1042.971v-65.964a2.937 2.828 0 0 1 2.938-2.828h4.405a7.343 7.07 0 0 1 7.343 7.07v57.48a7.343 7.07 0 0 1-7.343 7.07h-4.405a2.937 2.828 0 0 1-2.938-2.828zm-1.483 16.219v65.964a2.937 2.828 0 0 0 2.937 2.828h4.406c4.053 0 7.343-3.167 8.811-7.07v-57.48c-1.468-3.903-4.758-7.07-8.811-7.07h-4.406a2.937 2.828 0 0 0-2.937 2.828zm1.483 383.737v-65.964a2.937 2.828 0 0 1 2.938-2.829h4.405a7.343 7.07 0 0 1 7.343 7.07v57.48a7.343 7.07 0 0 1-7.343 7.07h-4.405a2.937 2.828 0 0 1-2.938-2.827zm-.029 82.197v-65.964a2.937 2.828 0 0 1 2.937-2.828h4.406a7.343 7.07 0 0 1 7.343 7.07v57.48a7.343 7.07 0 0 1-7.343 7.07h-4.406a2.937 2.828 0 0 1-2.937-2.828z" fill="#060709"/><path d="M332.073 858.738a18.372 17.69 0 0 1-18.357-17.676v-91.049a34.1 32.834 0 0 1 34.056-32.805h121.23a34.115 32.848 0 0 1 34.07 32.805v91.092a18.386 17.704 0 0 1-18.357 17.675z" fill="#9c9b9b"/><path d="M469.001 720.743a30.4 29.27 0 0 1 30.4 29.27v91.092a14.686 14.14 0 0 1-14.686 14.14H332.073a14.686 14.14 0 0 1-14.685-14.14v-91.092a30.384 29.256 0 0 1 30.384-29.27h121.23m0-7.07h-121.23a37.771 36.369 0 0 0-37.727 36.34v91.092a22.028 21.21 0 0 0 22.028 21.21h152.642a22.028 21.21 0 0 0 22.028-21.21v-91.092a37.786 36.383 0 0 0-37.742-36.34Z" fill="#8a8989"/><path d="M499.4 768.75v74.349c0 6.702-4.875 12.146-10.882 12.146H328.284c-6.006 0-10.882-5.444-10.882-12.146v-74.35c0-13.886 10.09-25.141 22.528-25.141h136.943c12.438 0 22.527 11.255 22.527 25.141z" fill="#bdbdbd"/><rect x="313.716" y="858.78" width="189.356" height="84.757" rx="18.357" fill="#bdbdbd"/><path d="M484.715 862.315a14.686 14.14 0 0 1 14.685 14.14v49.407a14.686 14.14 0 0 1-14.685 14.14H332.073a14.686 14.14 0 0 1-14.685-14.14v-49.406a14.686 14.14 0 0 1 14.685-14.14h152.642m0-7.07H332.073a22.028 21.21 0 0 0-22.028 21.21v49.406a22.028 21.21 0 0 0 22.028 21.21h152.642a22.028 21.21 0 0 0 22.028-21.21v-49.406a22.028 21.21 0 0 0-22.028-21.21z" fill="#8a8989"/><path d="M321.177 920.078v-37.853a7.343 7.07 0 0 1 7.342-7.07h4.406a2.937 2.828 0 0 1 2.937 2.828v46.337a2.937 2.828 0 0 1-2.937 2.828h-4.406a7.343 7.07 0 0 1-7.342-7.07zm-41.091 118.637v-57.48a7.343 7.07 0 0 1 7.343-7.07h4.406a2.937 2.828 0 0 1 2.937 2.828v65.964a2.937 2.828 0 0 1-2.937 2.828h-4.406a7.343 7.07 0 0 1-7.343-7.07zm0 82.197v-57.48a7.343 7.07 0 0 1 7.343-7.07h4.406a2.937 2.828 0 0 1 2.937 2.828v65.964a2.937 2.828 0 0 1-2.937 2.828h-4.406a7.343 7.07 0 0 1-7.343-7.07zm0 317.773v-57.48a7.343 7.07 0 0 1 7.343-7.07h4.406a2.937 2.828 0 0 1 2.937 2.828v65.964a2.937 2.828 0 0 1-2.937 2.828h-4.406a7.343 7.07 0 0 1-7.343-7.07zm-.029 82.183v-57.48a7.343 7.07 0 0 1 7.343-7.07h4.405a2.937 2.828 0 0 1 2.938 2.828v65.964a2.937 2.828 0 0 1-2.938 2.828H287.4a7.343 7.07 0 0 1-7.343-7.07zM494.07 882.437v37.472a7.343 7.07 0 0 1-7.343 7.07h-4.406a2.937 2.828 0 0 1-2.937-2.828v-45.956a2.937 2.828 0 0 1 2.937-2.828h4.406a7.343 7.07 0 0 1 7.343 7.07zm-3.921-28.691v-2.828a3.686 3.55 0 0 1 3.686-3.549h16.609a3.686 3.55 0 0 1 3.686 3.55 3.686 3.55 0 0 1-3.686 3.548h-19.561a.734.707 0 0 1-.734-.707zM325.347 842.83v2.828a62.09 59.785 0 0 0-.763 9.078l-19.518-.523c-2.056-8.484-3.67-10.068-3.612-12.033a3.715 3.577 0 0 1 3.818-3.479l16.536.438a3.7 3.563 0 0 1 3.54 3.691zm159.633-23.558-3.188 29.978c-.455 4.242-5.786 7.31-13.217 7.31h-120.98c-7.24 0-12.467-2.828-13.025-7.07l-4.098-30.048c-.587-4.383 8.136-8.71 16.962-8.71h120.833c8.68.014 17.153 4.171 16.712 8.54z" fill="#060709"/><rect x="-1563.404" y="317.388" width="18.538" height="43.969" rx="9.262" transform="rotate(-90)" fill="#9b4c17"/><rect x="-1563.404" y="457.444" width="18.538" height="43.969" rx="9.262" transform="rotate(-90)" fill="#9b4c17"/><rect x="-743.594" y="330.458" width="18.538" height="43.969" rx="5.656" transform="rotate(-90)" fill="#edeeac"/><rect x="-743.608" y="442.758" width="18.538" height="43.969" rx="5.656" transform="rotate(-90)" fill="#edeeac"/><path d="M317.285 752.686c-1.542-16.219 12.864-30.303 28.769-33.315 7.9-.268 23.409-.664 31.31-.791 25.626-.425 51.795-.283 77.451.297l15.493.48h.47c15.846 3.055 30.18 17.124 28.622 33.286-1.13-14.875-14.685-26.442-29.562-28.35-5.066.367-23.496.664-30.516.82-25.626.424-51.796.282-77.452-.312l-15.493-.396h.455c-14.847 1.91-28.431 13.49-29.547 28.366z" fill="#1d1d1b"/><path d="M490.472 847.595v-8.328a3.686 3.55 0 0 1 3.686-3.55h16.609a3.686 3.55 0 0 1 3.686 3.55v5.5a3.686 3.55 0 0 1-3.686 3.55h-19.546a.734.707 0 0 1-.735-.708zm-164.743-5.062-.073 5.062c0 .707-.353 1.259-.764 1.23l-19.517-.905c-2.056-.099-3.671-3.011-3.613-6.518 0-3.507 1.763-6.264 3.818-6.165l16.536.763c2.056.113 3.672 3.026 3.613 6.533z" fill="#f2f2f2"/><rect x="294.214" y="945.391" width="228.346" height="607.655" rx="18.357" fill="#bdbdbd"/><path d="M504.203 949.904a14.686 18.05 0 0 1 14.685 18.05v562.53a14.686 18.05 0 0 1-14.685 18.05H312.57a14.686 18.05 0 0 1-14.686-18.05v-562.53a14.686 18.05 0 0 1 14.686-18.05h191.632m0-9.025H312.57a22.028 27.075 0 0 0-22.029 27.075v562.53a22.028 27.075 0 0 0 22.029 27.074h191.632a22.028 27.075 0 0 0 22.028-27.075v-562.53a22.028 27.075 0 0 0-22.028-27.074Z" fill="#8a8989"/></g></svg>
