<svg width="83.344" height="65.039" viewBox="0 0 22.051 17.208" xmlns="http://www.w3.org/2000/svg"><g style="font-weight:700;font-size:10.2306px;line-height:1.25;font-family:'Noto Sans';-inkscape-font-specification:'Noto Sans Bold';letter-spacing:0;word-spacing:0;stroke-width:.264583;fill:#fff"><path d="M53.605 70.717q.614 0 1.115.277.502.276.798.798.297.521.297 1.278 0 1.228-.737 1.883-.736.655-2.23.655-1.268 0-2.087-.4v-1.616q.389.174.931.317.542.144.992.144.543 0 .84-.236.296-.235.296-.685 0-.42-.307-.655-.297-.235-.9-.235-.276 0-.542.061-.256.051-.46.113l-.727-.358.276-3.857h4.164v1.647h-2.486l-.092.961.327-.061q.174-.03.532-.03z" style="font-weight:900;-inkscape-font-specification:'Noto Sans Heavy';fill:#fff" transform="translate(-37.972 -62.927)" aria-label="5"/></g><g style="font-size:28.4213px;line-height:1.25;letter-spacing:0;word-spacing:0;stroke-width:.296054;fill:#fff"><path d="M45.51 77.667 47.163 76q.888.875 2.026 1.36 1.083.458 2.401.458 1.318 0 2.345-.458 1.194-.54 2.026-1.36.916-.916 1.374-2.04.458-1.124.458-2.414 0-1.235-.458-2.36-.485-1.151-1.374-2.04-.888-.874-2.026-1.36-1.082-.458-2.4-.458-1.319 0-2.346.458-1.193.542-2.026 1.36-.916.916-1.374 2.04-.319.791-.416 1.666l3.22-3.248 1.665 1.666-5.44 5.467h-1.25L38.1 69.271l1.665-1.666L43 70.84q.11-1.332.61-2.554.666-1.568 1.902-2.803 1.165-1.152 2.775-1.873 1.43-.639 3.275-.639 1.777 0 3.275.639 1.569.666 2.776 1.873 1.249 1.235 1.901 2.803.638 1.555.638 3.262 0 1.762-.638 3.316-.652 1.569-1.901 2.804-1.152 1.151-2.776 1.873-1.429.638-3.275.638-1.776 0-3.275-.638-1.47-.624-2.775-1.873z" style="-inkscape-font-specification:sans-serif;fill:#fff" transform="translate(-37.972 -62.927)" aria-label="⟲"/></g></svg>
