<svg width="83.344" height="65.039" viewBox="0 0 22.051 17.208" xmlns="http://www.w3.org/2000/svg"><text xml:space="preserve" style="font-style:normal;font-weight:400;font-size:25.4px;line-height:1.25;font-family:sans-serif;letter-spacing:0;word-spacing:0;fill:#000;fill-opacity:1;stroke:none;stroke-width:.264583" x="134.015" y="176.396" transform="translate(-118.72 -166.44)"/><g style="font-weight:700;font-size:10.2306px;line-height:1.25;font-family:'Noto Sans';-inkscape-font-specification:'Noto Sans Bold';letter-spacing:0;word-spacing:0;fill:#fff;stroke-width:.264583"><path d="M126.279 173.768q.614 0 1.115.277.501.276.798.798.297.521.297 1.279 0 1.227-.737 1.882-.737.655-2.23.655-1.269 0-2.087-.4v-1.616q.388.174.93.317.543.144.993.144.542 0 .839-.236.297-.235.297-.685 0-.42-.307-.655-.297-.235-.9-.235-.277 0-.543.061-.256.051-.46.113l-.727-.358.277-3.857h4.164v1.647h-2.486l-.093.962.328-.062q.174-.03.532-.03z" style="font-weight:900;-inkscape-font-specification:'Noto Sans Heavy';fill:#fff" transform="translate(-118.72 -166.44)" aria-label="5"/></g><g style="font-size:28.4213px;line-height:1.25;letter-spacing:0;word-spacing:0;fill:#fff;stroke-width:.296054"><path d="M133.36 181.137q-1.304 1.249-2.775 1.873-1.499.639-3.275.639-1.846 0-3.275-.639-1.61-.721-2.776-1.873-1.235-1.235-1.9-2.803-.64-1.555-.64-3.317 0-1.707.64-3.261.665-1.568 1.9-2.804 1.222-1.207 2.776-1.873 1.499-.638 3.275-.638 1.846 0 3.275.638 1.61.722 2.776 1.873 1.235 1.236 1.9 2.804.5 1.22.611 2.553l3.234-3.233 1.665 1.665-5.468 5.468h-1.249l-5.44-5.468 1.666-1.665 3.22 3.247q-.098-.874-.417-1.665-.458-1.124-1.374-2.04-.833-.82-2.026-1.36-1.027-.458-2.345-.458-1.319 0-2.401.458-1.138.485-2.026 1.36-.888.888-1.374 2.04-.458 1.124-.458 2.359 0 1.29.458 2.415.458 1.124 1.374 2.04.832.818 2.026 1.36 1.027.458 2.345.458 1.319 0 2.401-.458 1.138-.486 2.026-1.36z" style="-inkscape-font-specification:sans-serif;fill:#fff" transform="translate(-118.72 -166.44)" aria-label="⟳"/></g></svg>
