<svg xmlns="http://www.w3.org/2000/svg" width="26.052" height="21.864"><defs><filter id="a" width="1.265" height="1.036" x="-.132" y="-.018" color-interpolation-filters="sRGB"><feGaussianBlur stdDeviation=".164"/></filter><filter id="b" width="1.265" height="1.036" x="-.132" y="-.018" color-interpolation-filters="sRGB"><feGaussianBlur stdDeviation=".164"/></filter></defs><path fill="none" stroke="#7e7979" stroke-opacity=".667" stroke-width=".2" d="M6.304 0c-.056 3.07-3.722 2.499-3.725 5.452.007 5.48-.003 5.48-.003 10.948-.097 3.41 3.672 2.176 3.728 5.464" filter="url(#a)"/><path fill="#f8f8f8" d="M6.357 0h.712v21.864h-.712z" paint-order="stroke markers fill"/><path fill="#f8f8f8" d="M6.482 0c0 3.07-3.723 2.499-3.726 5.452.007 5.48-.003 5.48-.003 10.948-.097 3.41 3.717 2.178 3.729 5.464z"/><path fill="none" stroke="#d2d2d2" stroke-width=".2" d="M6.382 0c-.057 3.07-3.724 2.499-3.726 5.452.007 5.48-.003 5.48-.003 10.948-.097 3.41 3.672 2.176 3.728 5.464"/><path fill="#bfbfbf" d="M7.19 13.654c0 .064-.025.095-.074.095a.09.09 0 0 1-.032-.01l-3.228-2.773c-.02-.02-.062-.05-.063-.064 0-.012.042-.044.063-.063l3.217-2.773h.043c.05 0 .074.035.074.106z"/><path fill="none" stroke="#7e7979" stroke-opacity=".667" stroke-width=".2" d="M19.498 0c-.056 3.07-3.722 2.499-3.725 5.452.007 5.48-.003 5.48-.003 10.948-.097 3.41 3.672 2.176 3.728 5.464" filter="url(#b)"/><path fill="#f8f8f8" d="M19.568 0h.712v21.864h-.712z" paint-order="stroke markers fill"/><path fill="#f8f8f8" d="M19.676 0c-.003 3.048-3.723 2.499-3.726 5.452.007 5.48-.003 5.48-.003 10.948-.097 3.41 3.729 2.177 3.73 5.464z"/><path fill="none" stroke="#d2d2d2" stroke-width=".2" d="M19.576 0c-.057 3.07-3.724 2.499-3.726 5.452.007 5.48-.003 5.48-.003 10.948-.097 3.41 3.672 2.176 3.728 5.464"/><path fill="#bfbfbf" d="M17.689 8.161c0-.064.025-.095.074-.095a.09.09 0 0 1 .032.01l3.228 2.773c.02.02.062.05.063.064 0 .012-.042.044-.063.063l-3.217 2.773h-.043c-.05 0-.074-.035-.074-.106z"/></svg>