<svg width="49.231" height="82.634" viewBox="0 0 13.026 21.864" enable-background="new" xmlns="http://www.w3.org/2000/svg"><defs><filter style="color-interpolation-filters:sRGB" id="a" x="-.132" y="-.018" width="1.265" height="1.036"><feGaussianBlur stdDeviation=".164"/></filter></defs><path style="fill:none;fill-opacity:1;stroke:#7e7979;stroke-width:.200005;stroke-linecap:butt;stroke-linejoin:miter;stroke-miterlimit:4;stroke-dasharray:none;stroke-opacity:.66666669;filter:url(#a)" d="M6.392 0C6.336 3.07 2.67 2.499 2.667 5.452c.007 5.48-.003 5.48-.003 10.948-.097 3.41 3.672 2.176 3.728 5.464"/><path style="fill:#f8f8f8;fill-opacity:1;stroke:none;stroke-width:.200189px;stroke-linecap:butt;stroke-linejoin:miter;stroke-opacity:.666667" d="M6.57 0c-.057 3.07-3.723 2.499-3.726 5.452.007 5.48-.003 5.48-.003 10.948-.097 3.41 3.672 2.176 3.729 5.464z"/><path style="fill:none;fill-opacity:1;stroke:#d2d2d2;stroke-width:.20000458;stroke-linecap:butt;stroke-linejoin:miter;stroke-opacity:1;stroke-miterlimit:4;stroke-dasharray:none" d="M6.47 0c-.057 3.07-3.724 2.499-3.726 5.452.007 5.48-.003 5.48-.003 10.948-.097 3.41 3.672 2.176 3.728 5.464"/><path d="M7.027 13.654c0 .064-.025.095-.074.095a.09.09 0 0 1-.032-.01l-3.228-2.773c-.02-.02-.062-.05-.063-.064 0-.012.042-.044.063-.063L6.91 8.066h.043c.05 0 .074.035.074.106z" transform="translate(.251)" aria-label="â´" style="fill:#bfbfbf;stroke-width:.264589"/></svg>
