<svg xmlns="http://www.w3.org/2000/svg" width="49.231" height="82.634" viewBox="0 0 13.026 21.864" enable-background="new"><defs><filter id="a" x="-.331" width="1.663" y="-.573" height="2.147" color-interpolation-filters="sRGB"><feGaussianBlur stdDeviation="1.082"/><feBlend mode="overlay" in2="BackgroundImage"/></filter></defs><path opacity=".05" fill="none" stroke="#000" stroke-width="7.487" stroke-linecap="round" stroke-linejoin="round" d="M5.236 3.743h2.588V18.12H5.236z"/><path d="M108.365 103.81a.133.133 0 00-.078.04l-2.031 2.03a.133.133 0 00-.04.095v.464a.133.133 0 00.04.094l2.031 2.03a.133.133 0 00.188 0l.62-.62a.133.133 0 000-.187l-.978-.979h4.301l-.979.979a.133.133 0 000 .187l.622.62a.133.133 0 00.185 0l2.031-2.03a.133.133 0 00.04-.094v-.464a.133.133 0 00-.04-.094l-2.03-2.031a.133.133 0 00-.186 0l-.622.619a.133.133 0 000 .187l.979.979h-4.3l.978-.979a.133.133 0 000-.187l-.621-.62a.133.133 0 00-.11-.038z" opacity=".199" stroke="#000" filter="url(#a)" transform="translate(-103.754 -95.285)"/><path d="M6.52 2.979v15.888" fill="#fff" stroke="#000" stroke-width=".191"/><path style="line-height:1.25;font-variant-ligatures:normal;font-variant-position:normal;font-variant-caps:normal;font-variant-numeric:normal;font-variant-alternates:normal;font-feature-settings:normal;text-indent:0;text-align:start;text-decoration-line:none;text-decoration-style:solid;text-decoration-color:#000;text-transform:none;text-orientation:mixed;white-space:normal;shape-padding:0;isolation:auto;mix-blend-mode:normal;solid-color:#000;solid-opacity:1" d="M4.611 8.525a.133.133 0 00-.078.04l-2.031 2.03a.133.133 0 00-.04.095v.464a.133.133 0 00.04.094l2.03 2.03a.133.133 0 00.188 0l.621-.62a.133.133 0 000-.187l-.978-.979h4.3l-.978.979a.133.133 0 000 .187l.621.62a.133.133 0 00.186 0l2.031-2.03a.133.133 0 00.04-.094v-.464a.133.133 0 00-.04-.094L8.492 8.565a.133.133 0 00-.186 0l-.62.619a.133.133 0 000 .187l.978.979H4.363l.978-.979a.133.133 0 000-.187l-.62-.62a.133.133 0 00-.11-.039zm.016.32l.433.432L3.95 10.39a.133.133 0 00.094.226h4.94a.133.133 0 00.093-.226l-1.11-1.112.432-.431 1.898 1.898v.356l-1.898 1.896-.432-.431 1.11-1.112a.133.133 0 00-.094-.224h-4.94a.133.133 0 00-.093.224l1.111 1.112-.433.431L2.728 11.1v-.356z" color="#000" font-weight="400" font-size="10.583" font-family="sans-serif" letter-spacing="0" word-spacing="0" overflow="visible" enable-background="accumulate"/><path d="M2.604 11.164v-.465l2.031-2.031.62.62-1.204 1.204h4.94L7.788 9.288l.62-.62 2.031 2.03v.466l-2.03 2.03-.62-.62 1.204-1.203h-4.94l1.203 1.204-.62.62z" aria-label="↔" style="fill:#ffffff;fill-opacity:1;stroke:#000000;stroke-width:0.26499999;stroke-linecap:round;stroke-linejoin:round;stroke-miterlimit:4;stroke-dasharray:none;stroke-opacity:1;paint-order:normal" font-weight="400" font-size="10.583" font-family="sans-serif" letter-spacing="0" word-spacing="0" fill="#fff" stroke="#000" stroke-width=".265" stroke-linecap="round" stroke-linejoin="round"/></svg>