<svg height="1004.331" width="669.219" xml:space="preserve" xmlns="http://www.w3.org/2000/svg"><path d="M44.18 0C19.815 0 0 19.815 0 44.18v915.971c0 24.36 19.815 44.18 44.18 44.18h580.864c24.36 0 44.175-19.82 44.175-44.18V44.18c0-24.365-19.815-44.18-44.175-44.18" fill="#f0c900"/><path d="M44.755 10.618c-18.512 0-33.517 15.005-33.517 33.512v915.976c0 18.51 15.005 33.496 33.517 33.496h580.863c18.507 0 33.492-14.986 33.492-33.496V44.13c0-18.507-14.985-33.512-33.492-33.512zm0 16.758h580.863c9.244 0 16.758 7.51 16.758 16.754v915.976c0 9.242-7.514 16.757-16.758 16.757H44.755c-9.268 0-16.758-7.515-16.758-16.757V44.13c0-9.244 7.49-16.754 16.758-16.754z"/><path d="M335.175 524.45 435.72 624.999v55.86l-78.203-78.203v301.59H312.85v-301.59l-78.203 78.202v-55.859m36.313-497.301c-15.525-.006-29.242 10.1-33.835 24.93l-25.713 83.032c-41.254-8.369-82.679 13.486-99.106 52.254-19.035 45.027 2.017 96.963 47.024 116.017 45.027 19.074 96.955-1.971 116.012-46.999 19.054-45.027-1.996-96.955-47.02-116.01l7.048-22.72 104.634 116.063a17.75 17.75 0 0 0 13.167 5.884h37.187a93.568 93.568 0 0 0 2.577 9.715c15.163 46.477 65.114 71.88 111.591 56.7 46.478-15.146 71.873-65.089 56.716-111.566-15.148-46.477-65.09-71.887-111.568-56.733L423.981 180.8l6.659-17.708h19.91v-17.696h-75.261a4.401 4.401 0 0 0-4.292 3.385 4.394 4.394 0 0 0 3.263 5.325l37.464 8.986-6.66 17.708h-158.13l7.11-22.937a17.7 17.7 0 0 1 16.918-12.465h29.108v-17.7zM241.45 198.5h156.99l-46.144 122.974zm173.69 5.904 18.341 40.997c-27.75 15.7-44.91 45.165-44.91 77.04h-17.7Zm-220.89 47.205c3.987.021 7.965.384 11.89 1.084l-20.756 67.117a8.854 8.854 0 0 0 5.84 11.076 8.842 8.842 0 0 0 11.047-5.84l20.784-67.116c35.632 16.152 51.437 58.102 35.285 93.714-16.13 35.63-58.108 51.434-93.74 35.282-35.618-16.132-51.442-58.11-35.284-93.748 11.688-25.77 37.36-41.755 64.934-41.57zm276.787.237c32.803-2.846 64.205 17.61 73.954 50.408 11.13 37.498-10.23 76.942-47.722 88.061-37.497 11.131-76.928-10.222-88.061-47.721-.228-.813-.477-1.618-.687-2.445h73.005c4.912 0 8.842-3.995 8.842-8.868a8.793 8.793 0 0 0-.759-3.605l-32.677-73.141a71.723 71.723 0 0 1 14.103-2.689zm-30.294 9.807 27.11 60.788h-61.581a70.859 70.859 0 0 1 34.471-60.79z"/></svg>
