<svg xmlns="http://www.w3.org/2000/svg" width="1226.14" height="588.083" viewBox="0 0 324.416 155.597"><path fill="#333" d="M0 0h324.416v155.597H0z"/><path d="M118.084 37.428l9.103 45.195c.642 2.999 1.928 5.355 5.033 5.355 2.25 0 6.212-.107 8.675-.535l10.71-53.549c-12.316 0-12.316 0-12.637 2.356l-1.5 13.066c-1.07 9.21-2.035 25.596-2.035 25.596h-.214s-.964-16.386-2.142-25.596l-1.928-15.422c-13.708 0-13.815 0-13.065 3.534z" font-weight="700" font-size="13" fill="#fff" aria-label="v" style="font-weight:700;font-size:13px;font-family:'Yanone Kaffeesatz';fill:#ffffff" font-family="Yanone Kaffeesatz" letter-spacing="0" word-spacing="0" stroke-width=".007"/><path d="M176.42 14.378v73.468c11.994 0 11.994 0 11.994-2.142V45.543c1.5-.964 2.892-1.285 4.177-1.285 3.213 0 3.427 3.32 3.427 6.533v37.055c11.674 0 12.424 0 12.424-2.142V47.042c0-9.103-1.607-13.815-9.853-13.815-3.535 0-7.711 1.285-10.175 3.748V9.13c-9.853 0-11.995 0-11.995 5.248z" font-weight="700" font-size="13" fill="#fff" aria-label="h" style="font-weight:700;font-size:13px;font-family:'Yanone Kaffeesatz';fill:#ffffff" font-family="Yanone Kaffeesatz" letter-spacing="0" word-spacing="0" stroke-width=".007"/><g transform="translate(111.615 9.387) scale(7.84199)"><circle r="2.808" cy="9.089" cx="6.17" fill="#e30513" stroke="#fff" stroke-width=".048"/><g fill="#fff"><path d="M6.097 6.71c-.007.007-.012.027-.012.045 0 .032 0 .032-.049.032-.064 0-.072.012-.068.102l.003.072.057.003.057.003V7c0 .03-.004.034-.042.046a.47.47 0 00-.293.235.267.267 0 00-.037.153c0 .073-.003.08-.022.08a.05.05 0 00-.032.011.49.49 0 000 .215c.007.007.031.012.055.012h.043v1.391h-.109V7.871h-.825v1.272h-.075c-.111 0-.114.004-.114.18 0 .125.002.14.02.158.02.02.032.02 1.508.02 1.43 0 1.491 0 1.506-.018.014-.015.017-.042.017-.159 0-.172-.005-.18-.1-.18h-.059V7.87h-.825v1.272h-.12v-1.39h.049c.025 0 .052-.005.06-.012a.49.49 0 000-.215.047.047 0 00-.03-.012c-.015 0-.018-.009-.018-.059a.426.426 0 00-.298-.394c-.077-.028-.08-.03-.08-.06 0-.033 0-.033.053-.036l.051-.003.003-.078c.003-.09 0-.096-.064-.096h-.043V6.75c0-.026-.005-.041-.016-.045a.327.327 0 00-.151.006z"/><path d="M5.142 7.33c-.032.044-.033.044-.092.044-.032 0-.058.004-.058.009 0 .005.004.032.011.059.011.048.01.05-.024.098l-.036.049.052.026c.05.024.053.027.065.081l.012.055.055-.024.055-.025.048.025.049.025.01-.038a.267.267 0 00.01-.054c0-.01.02-.028.056-.045l.055-.028-.037-.048c-.035-.046-.036-.049-.025-.09.02-.074.018-.075-.046-.075-.057 0-.059-.001-.092-.045l-.035-.045a.587.587 0 00-.033.045zm1.998 0c-.032.044-.033.044-.092.044-.032 0-.059.004-.059.009 0 .005.005.032.012.059.011.048.01.05-.024.098l-.036.049.052.026c.05.024.053.027.065.081l.012.055.055-.024.055-.025.048.025.049.025.01-.038a.267.267 0 00.01-.054c0-.01.02-.028.056-.045l.055-.028-.037-.048c-.035-.046-.036-.049-.025-.09.02-.074.018-.075-.046-.075-.057 0-.06-.001-.092-.045l-.035-.045a.587.587 0 00-.033.045zm-2.485 2.993c-.096.382-.175.7-.178.706-.003.01.133.013.663.013h.667v-.252c0-.283.01-.368.058-.469a.445.445 0 01.175-.192.278.278 0 01.239 0 .428.428 0 01.2.253c.027.077.027.082.031.369l.004.29h.681c.541 0 .68-.002.677-.012-.003-.006-.082-.324-.178-.706l-.173-.693H4.827z"/></g></g><g font-family="yanone Kaffeesatz" fill="#fff" aria-label="Video lädt…" style="line-height:1.25" font-weight="400" font-size="22.188" letter-spacing="0" word-spacing="0" stroke-width=".555"><path d="M127.076 115.312s2.196 10.25 3.084 13.867c.177.755.488 1.287 1.065 1.287.688 0 1.02-.022 1.509-.089l3.416-15.598h-1.575c-.333 0-.4.178-.466.533l-1.642 8.054c-.355 1.952-.621 3.994-.798 5.414-.222-1.42-.51-3.44-.888-5.414l-1.842-8.587h-1.464c-.488 0-.488.156-.4.533zM137.282 115.69c0 1.042.333 1.375.91 1.397.687 0 1.02-.533 1.02-1.442.022-.932-.2-1.287-.887-1.287-.71 0-1.02.532-1.043 1.331zm1.82 14.244v-10.717c-1.465 0-1.842 0-1.842.82v10.274c1.82 0 1.841 0 1.841-.377zM145.78 114.824v4.615c-.377-.289-.888-.444-1.575-.444-1.909 0-3.395 1.775-3.395 6.168 0 4.815 1.664 5.37 3.594 5.37 1.376 0 2.44-.311 3.173-.666v-15.864c-1.464 0-1.797 0-1.797.82zm0 6.035v7.721c-.355.244-.821.333-1.31.333-1.042 0-1.663-.621-1.663-3.95 0-3.638.976-4.393 1.952-4.393.466 0 .732.067 1.02.289zM153.146 128.78c-1.353 0-1.997-.621-2.063-2.973 1.11-.023 3.173-.067 4.615-.355.2-.8.266-1.908.266-2.885 0-2.396-.954-3.572-2.818-3.572-1.952 0-3.95.799-3.95 6.346 0 4.326 1.487 5.192 3.55 5.192 1.687 0 3.085-.533 3.085-1.22 0-.356-.045-.888-.178-1.221a5.117 5.117 0 01-2.507.688zm-.222-8.21c.977 0 1.265.6 1.287 2.197 0 .422-.022.932-.11 1.331-.755.222-2.153.244-3.018.244.133-2.995.932-3.772 1.841-3.772zM157.14 124.764c0 4.992 1.22 5.769 3.483 5.769 2.374 0 3.661-1.709 3.661-5.836 0-4.504-1.131-5.702-3.461-5.702-2.307 0-3.683 1.708-3.683 5.769zm1.952.044c0-3.461.688-4.238 1.664-4.238 1.065 0 1.554.622 1.554 4.15 0 3.46-.688 4.282-1.642 4.282-.999 0-1.576-.533-1.576-4.194zM171.207 129.934v-15.931c-1.442 0-1.797 0-1.797.82v15.488c1.797 0 1.797 0 1.797-.377zM173.559 116.133c0 .71.288 1.131 1.087 1.131.688 0 1.11-.51 1.11-1.131 0-.666-.311-1.132-1.11-1.132-.688 0-1.087.533-1.087 1.132zm3.173 0c0 .71.266 1.131 1.065 1.131.71 0 1.109-.51 1.109-1.131 0-.666-.31-1.132-1.11-1.132-.665 0-1.064.533-1.064 1.132zm-3.839 4.082c0 .267.044.666.244 1.021.644-.266 1.82-.488 2.929-.488.887 0 1.376.266 1.376 1.309v1.753c-.444-.222-1.132-.289-1.62-.289-1.487 0-2.951.555-2.951 3.64 0 3.039 1.553 3.394 3.173 3.372 1.442 0 2.485-.4 3.084-.755.11-1.686.133-4.349.133-6.9v-1.176c0-1.997-.843-2.707-2.751-2.707-1.687 0-2.996.355-3.373.6-.177.11-.244.376-.244.62zm4.549 4.86c0 1.198 0 2.84-.067 3.572-.2.2-.688.377-1.176.377-.865 0-1.442-.289-1.442-1.908 0-1.93.754-2.241 1.642-2.241.31 0 .754.066 1.043.2zM185.74 114.824v4.615c-.377-.289-.888-.444-1.576-.444-1.908 0-3.394 1.775-3.394 6.168 0 4.815 1.664 5.37 3.594 5.37 1.376 0 2.44-.311 3.173-.666v-15.864c-1.464 0-1.797 0-1.797.82zm0 6.035v7.721c-.355.244-.821.333-1.31.333-1.042 0-1.663-.621-1.663-3.95 0-3.638.976-4.393 1.952-4.393.466 0 .732.067 1.02.289zM190.443 120.77v6.457c0 1.997.222 3.306 2.108 3.306.866 0 1.908-.178 1.908-.999 0-.355-.066-.643-.133-.887-.443.222-.776.333-1.287.333-.798 0-.798-.8-.798-1.753v-6.457h1.908c.355 0 .355-.155.355-1.553h-2.263v-3.994c-1.465 0-1.798 0-1.798.621v3.373h-1.131c-.377 0-.4.177-.4 1.553zM195.746 129.18c0 .776.31 1.264 1.243 1.264.776 0 1.242-.555 1.242-1.265 0-.754-.332-1.287-1.242-1.287-.777 0-1.243.6-1.243 1.287zm3.772 0c0 .776.31 1.264 1.243 1.264.776 0 1.242-.555 1.242-1.265 0-.754-.333-1.287-1.242-1.287-.777 0-1.243.6-1.243 1.287zm3.772 0c0 .776.31 1.264 1.243 1.264.776 0 1.242-.555 1.242-1.265 0-.754-.333-1.287-1.242-1.287-.777 0-1.243.6-1.243 1.287z" style="-inkscape-font-specification:'yanone Kaffeesatz'"/></g></svg>
