<?xml version="1.0" encoding="UTF-8" standalone="no"?>
<svg
   xmlns:dc="http://purl.org/dc/elements/1.1/"
   xmlns:cc="http://creativecommons.org/ns#"
   xmlns:rdf="http://www.w3.org/1999/02/22-rdf-syntax-ns#"
   xmlns:svg="http://www.w3.org/2000/svg"
   xmlns="http://www.w3.org/2000/svg"
   xmlns:sodipodi="http://sodipodi.sourceforge.net/DTD/sodipodi-0.dtd"
   xmlns:inkscape="http://www.inkscape.org/namespaces/inkscape"
   width="324.41632mm"
   height="155.59692mm"
   viewBox="0 0 324.41632 155.59693"
   version="1.1"
   id="svg24"
   inkscape:version="1.0.2 (e86c870879, 2021-01-15)"
   sodipodi:docname="video_poster_inkscape.svg">
  <defs
     id="defs18" />
  <sodipodi:namedview
     id="base"
     pagecolor="#ffffff"
     bordercolor="#666666"
     borderopacity="1.0"
     inkscape:pageopacity="0.0"
     inkscape:pageshadow="2"
     inkscape:zoom="0.49497474"
     inkscape:cx="603.28992"
     inkscape:cy="485.54497"
     inkscape:document-units="mm"
     inkscape:current-layer="layer1"
     inkscape:document-rotation="0"
     showgrid="false"
     inkscape:window-width="1916"
     inkscape:window-height="1058"
     inkscape:window-x="0"
     inkscape:window-y="0"
     inkscape:window-maximized="1"
     showguides="true"
     inkscape:guide-bbox="true"
     fit-margin-top="0"
     fit-margin-left="0"
     fit-margin-right="0"
     fit-margin-bottom="0">
    <inkscape:grid
       type="xygrid"
       id="grid21"
       dotted="true"
       originx="-13.895395"
       originy="-114.37371" />
  </sodipodi:namedview>
  <metadata
     id="metadata21">
    <rdf:RDF>
      <cc:Work
         rdf:about="">
        <dc:format>image/svg+xml</dc:format>
        <dc:type
           rdf:resource="http://purl.org/dc/dcmitype/StillImage" />
        <dc:title></dc:title>
      </cc:Work>
    </rdf:RDF>
  </metadata>
  <g
     inkscape:label="Layer 1"
     inkscape:groupmode="layer"
     id="layer1"
     transform="translate(57.080972,-0.31975921)">
    <path
       fill="#333333"
       d="M -57.080972,0.31975921 H 267.33536 V 155.91669 H -57.080972 Z"
       id="path2"
       style="stroke-width:18.7189" />
    <g
       aria-label="v"
       style="font-weight:400;font-size:0.287px;line-height:1.25;font-family:'Yanone Kaffeesatz';letter-spacing:0;word-spacing:0;stroke-width:0.007"
       id="text6"
       transform="matrix(8.2382498,0,0,8.2382498,59.124334,6.8957238)">
      <path
         d="m 0.228,3.745 1.105,5.486 c 0.078,0.364 0.234,0.65 0.611,0.65 0.273,0 0.754,-0.013 1.053,-0.065 l 1.3,-6.5 c -1.495,0 -1.495,0 -1.534,0.286 L 2.581,5.188 C 2.451,6.306 2.334,8.295 2.334,8.295 H 2.308 c 0,0 -0.117,-1.989 -0.26,-3.107 L 1.814,3.316 c -1.664,0 -1.677,0 -1.586,0.429 z"
         style="font-weight:700;font-size:13px;font-family:'Yanone Kaffeesatz';fill:#ffffff"
         id="path835"
         inkscape:connector-curvature="0" />
    </g>
    <g
       aria-label="h"
       style="font-weight:400;font-size:0.287px;line-height:1.25;font-family:'Yanone Kaffeesatz';letter-spacing:0;word-spacing:0;stroke-width:0.007"
       id="text10"
       transform="matrix(8.2382498,0,0,8.2382498,54.725894,6.8957238)">
      <path
         d="M 7.843,0.94699977 V 9.8649998 c 1.456,0 1.456,0 1.456,-0.26 v -4.875 c 0.182,-0.117 0.351,-0.156 0.507,-0.156 0.39,0 0.416,0.403 0.416,0.793 v 4.498 c 1.417,0 1.508,0 1.508,-0.26 v -4.693 c 0,-1.105 -0.195,-1.677 -1.196,-1.677 -0.429,0 -0.936,0.156 -1.235,0.455 V 0.30999977 c -1.196,0 -1.456,0 -1.456,0.637 z"
         style="font-weight:700;font-size:13px;font-family:'Yanone Kaffeesatz';fill:#ffffff"
         id="path838"
         inkscape:connector-curvature="0" />
    </g>
    <g
       transform="matrix(7.84199,0,0,7.84199,54.533934,9.7065028)"
       id="g20">
      <circle
         r="2.8080001"
         cy="9.0889997"
         cx="6.1700001"
         id="circle12"
         style="fill:#e30513;stroke:#ffffff;stroke-width:0.048" />
      <g
         id="g18"
         style="fill:#ffffff">
        <path
           d="M 6.097,6.71 C 6.09,6.717 6.085,6.737 6.085,6.755 c 0,0.032 0,0.032 -0.049,0.032 -0.064,0 -0.072,0.012 -0.068,0.102 L 5.971,6.961 6.028,6.964 6.085,6.967 V 7 c 0,0.03 -0.004,0.034 -0.042,0.046 A 0.47,0.47 0 0 0 5.75,7.281 0.267,0.267 0 0 0 5.713,7.434 c 0,0.073 -0.003,0.08 -0.022,0.08 a 0.05,0.05 0 0 0 -0.032,0.011 0.49,0.49 0 0 0 0,0.215 C 5.666,7.747 5.69,7.752 5.714,7.752 H 5.757 V 9.143 H 5.648 V 7.871 H 4.823 V 9.143 H 4.748 c -0.111,0 -0.114,0.004 -0.114,0.18 0,0.125 0.002,0.14 0.02,0.158 0.02,0.02 0.032,0.02 1.508,0.02 1.43,0 1.491,0 1.506,-0.018 0.014,-0.015 0.017,-0.042 0.017,-0.159 0,-0.172 -0.005,-0.18 -0.1,-0.18 H 7.526 V 7.87 H 6.701 V 9.142 H 6.581 V 7.752 H 6.63 c 0.025,0 0.052,-0.005 0.06,-0.012 A 0.49,0.49 0 0 0 6.69,7.525 0.047,0.047 0 0 0 6.66,7.513 C 6.645,7.513 6.642,7.504 6.642,7.454 A 0.426,0.426 0 0 0 6.344,7.06 C 6.267,7.032 6.264,7.03 6.264,7 c 0,-0.033 0,-0.033 0.053,-0.036 L 6.368,6.961 6.371,6.883 c 0.003,-0.09 0,-0.096 -0.064,-0.096 H 6.264 V 6.75 C 6.264,6.724 6.259,6.709 6.248,6.705 A 0.327,0.327 0 0 0 6.097,6.711 Z"
           id="path14"
           inkscape:connector-curvature="0" />
        <path
           d="M 5.142,7.33 C 5.11,7.374 5.109,7.374 5.05,7.374 c -0.032,0 -0.058,0.004 -0.058,0.009 0,0.005 0.004,0.032 0.011,0.059 0.011,0.048 0.01,0.05 -0.024,0.098 L 4.943,7.589 4.995,7.615 C 5.045,7.639 5.048,7.642 5.06,7.696 L 5.072,7.751 5.127,7.727 5.182,7.702 5.23,7.727 5.279,7.752 5.289,7.714 A 0.267,0.267 0 0 0 5.299,7.66 c 0,-0.01 0.02,-0.028 0.056,-0.045 L 5.41,7.587 5.373,7.539 C 5.338,7.493 5.337,7.49 5.348,7.449 5.368,7.375 5.366,7.374 5.302,7.374 5.245,7.374 5.243,7.373 5.21,7.329 L 5.175,7.284 A 0.587,0.587 0 0 0 5.142,7.329 Z m 1.998,0 C 7.108,7.374 7.107,7.374 7.048,7.374 c -0.032,0 -0.059,0.004 -0.059,0.009 0,0.005 0.005,0.032 0.012,0.059 0.011,0.048 0.01,0.05 -0.024,0.098 L 6.941,7.589 6.993,7.615 c 0.05,0.024 0.053,0.027 0.065,0.081 L 7.07,7.751 7.125,7.727 7.18,7.702 7.228,7.727 7.277,7.752 7.287,7.714 A 0.267,0.267 0 0 0 7.297,7.66 c 0,-0.01 0.02,-0.028 0.056,-0.045 L 7.408,7.587 7.371,7.539 C 7.336,7.493 7.335,7.49 7.346,7.449 7.366,7.375 7.364,7.374 7.3,7.374 7.243,7.374 7.24,7.373 7.208,7.329 L 7.173,7.284 A 0.587,0.587 0 0 0 7.14,7.329 Z m -2.485,2.993 c -0.096,0.382 -0.175,0.7 -0.178,0.706 -0.003,0.01 0.133,0.013 0.663,0.013 H 5.807 V 10.79 c 0,-0.283 0.01,-0.368 0.058,-0.469 a 0.445,0.445 0 0 1 0.175,-0.192 0.278,0.278 0 0 1 0.239,0 0.428,0.428 0 0 1 0.2,0.253 c 0.027,0.077 0.027,0.082 0.031,0.369 l 0.004,0.29 h 0.681 c 0.541,0 0.68,-0.002 0.677,-0.012 C 7.869,11.023 7.79,10.705 7.694,10.323 L 7.521,9.63 H 4.827 Z"
           id="path16"
           inkscape:connector-curvature="0" />
      </g>
    </g>
    <g
       aria-label="Video lädt…"
       id="text84"
       style="font-style:normal;font-weight:normal;font-size:22.1877px;line-height:1.25;font-family:sans-serif;letter-spacing:0px;word-spacing:0px;fill:#000000;fill-opacity:1;stroke:none;stroke-width:0.554694"
       transform="translate(-0.82378201,0.58837957)">
      <g
         id="g54">
        <path
           d="m 70.818469,115.04326 c 0,0 2.196582,10.25072 3.08409,13.86731 0.177501,0.75438 0.488129,1.28689 1.065009,1.28689 0.687819,0 1.020635,-0.0222 1.508764,-0.0888 l 3.416906,-15.59796 h -1.575327 c -0.332815,0 -0.399378,0.17751 -0.465942,0.53251 l -1.641889,8.05413 c -0.355004,1.95252 -0.621256,3.99379 -0.798758,5.4138 -0.221877,-1.42001 -0.510317,-3.43909 -0.887508,-5.4138 l -1.841579,-8.58664 h -1.464388 c -0.488129,0 -0.488129,0.15532 -0.399378,0.53251 z"
           style="font-style:normal;font-variant:normal;font-weight:normal;font-stretch:normal;font-family:'yanone Kaffeesatz';-inkscape-font-specification:'yanone Kaffeesatz';fill:#ffffff;stroke-width:0.554694"
           id="path23" />
        <path
           d="m 81.02477,115.42045 c 0,1.04282 0.332815,1.37564 0.909696,1.39783 0.687818,0 1.020634,-0.53251 1.020634,-1.44221 0.02219,-0.93188 -0.19969,-1.28688 -0.887508,-1.28688 -0.710007,0 -1.020634,0.5325 -1.042822,1.33126 z m 1.819391,14.2445 v -10.71666 c -1.464388,0 -1.841579,0 -1.841579,0.82095 v 10.2729 c 1.819392,0 1.841579,0 1.841579,-0.37719 z"
           style="font-style:normal;font-variant:normal;font-weight:normal;font-stretch:normal;font-family:'yanone Kaffeesatz';-inkscape-font-specification:'yanone Kaffeesatz';fill:#ffffff;stroke-width:0.554694"
           id="path25" />
        <path
           d="m 89.522642,114.55513 v 4.61504 c -0.377191,-0.28844 -0.887508,-0.44375 -1.575327,-0.44375 -1.908142,0 -3.394718,1.77501 -3.394718,6.16818 0,4.81473 1.664078,5.36942 3.594408,5.36942 1.375637,0 2.440647,-0.31063 3.172841,-0.66563 v -15.8642 c -1.464388,0 -1.797204,0 -1.797204,0.82094 z m 0,6.03505 v 7.72132 c -0.355003,0.24407 -0.820945,0.33282 -1.309074,0.33282 -1.042822,0 -1.664078,-0.62126 -1.664078,-3.94941 0,-3.63878 0.976259,-4.39317 1.952518,-4.39317 0.465942,0 0.732194,0.0666 1.020634,0.28844 z"
           style="font-style:normal;font-variant:normal;font-weight:normal;font-stretch:normal;font-family:'yanone Kaffeesatz';-inkscape-font-specification:'yanone Kaffeesatz';fill:#ffffff;stroke-width:0.554694"
           id="path27" />
        <path
           d="m 96.888939,128.51119 c -1.353449,0 -1.996893,-0.62125 -2.063456,-2.97315 1.109385,-0.0222 3.172841,-0.0666 4.615042,-0.355 0.199689,-0.79876 0.266252,-1.90814 0.266252,-2.8844 0,-2.39627 -0.954071,-3.57222 -2.817838,-3.57222 -1.952517,0 -3.94941,0.79875 -3.94941,6.34568 0,4.3266 1.486576,5.19192 3.550032,5.19192 1.686265,0 3.08409,-0.5325 3.08409,-1.22032 0,-0.355 -0.04438,-0.88751 -0.177502,-1.22033 -0.732194,0.42157 -1.619702,0.68782 -2.50721,0.68782 z m -0.221877,-8.20945 c 0.976259,0 1.264699,0.59907 1.286887,2.19659 0,0.42156 -0.02219,0.93188 -0.110939,1.33126 -0.754381,0.22188 -2.152207,0.24406 -3.017527,0.24406 0.133126,-2.99534 0.931884,-3.77191 1.841579,-3.77191 z"
           style="font-style:normal;font-variant:normal;font-weight:normal;font-stretch:normal;font-family:'yanone Kaffeesatz';-inkscape-font-specification:'yanone Kaffeesatz';fill:#ffffff;stroke-width:0.554694"
           id="path29" />
        <path
           d="m 100.8827,124.49522 c 0,4.99223 1.22032,5.7688 3.48347,5.7688 2.37408,0 3.66097,-1.70845 3.66097,-5.83536 0,-4.50411 -1.13157,-5.70224 -3.46128,-5.70224 -2.30752,0 -3.68316,1.70845 -3.68316,5.7688 z m 1.95252,0.0444 c 0,-3.46129 0.68781,-4.23786 1.66407,-4.23786 1.06501,0 1.55314,0.62126 1.55314,4.1491 0,3.46129 -0.68782,4.28223 -1.64189,4.28223 -0.99844,0 -1.57532,-0.5325 -1.57532,-4.19347 z"
           style="font-style:normal;font-variant:normal;font-weight:normal;font-stretch:normal;font-family:'yanone Kaffeesatz';-inkscape-font-specification:'yanone Kaffeesatz';fill:#ffffff;stroke-width:0.554694"
           id="path31" />
        <path
           d="m 114.94967,129.66495 v -15.93076 c -1.4422,0 -1.79721,0 -1.79721,0.82094 v 15.48701 c 1.79721,0 1.79721,0 1.79721,-0.37719 z"
           style="font-style:normal;font-variant:normal;font-weight:normal;font-stretch:normal;font-family:'yanone Kaffeesatz';-inkscape-font-specification:'yanone Kaffeesatz';fill:#ffffff;stroke-width:0.554694"
           id="path33" />
        <path
           d="m 117.30153,115.8642 c 0,0.71001 0.28844,1.13158 1.08719,1.13158 0.68782,0 1.10939,-0.51032 1.10939,-1.13158 0,-0.66563 -0.31063,-1.13157 -1.10939,-1.13157 -0.68781,0 -1.08719,0.53251 -1.08719,1.13157 z m 3.17284,0 c 0,0.71001 0.26625,1.13158 1.06501,1.13158 0.71,0 1.10938,-0.51032 1.10938,-1.13158 0,-0.66563 -0.31063,-1.13157 -1.10938,-1.13157 -0.66563,0 -1.06501,0.53251 -1.06501,1.13157 z m -3.83847,4.08254 c 0,0.26625 0.0444,0.66563 0.24406,1.02064 0.64344,-0.26626 1.81939,-0.48813 2.92878,-0.48813 0.8875,0 1.37563,0.26625 1.37563,1.30907 v 1.75283 c -0.44375,-0.22188 -1.13157,-0.28844 -1.6197,-0.28844 -1.48657,0 -2.95096,0.55469 -2.95096,3.63878 0,3.03972 1.55314,3.39472 3.17284,3.37253 1.4422,0 2.48502,-0.39938 3.08409,-0.75438 0.11094,-1.68627 0.13313,-4.34879 0.13313,-6.90037 v -1.17595 c 0,-1.9969 -0.84314,-2.7069 -2.75128,-2.7069 -1.68626,0 -2.99534,0.355 -3.37253,0.59907 -0.1775,0.11093 -0.24406,0.37719 -0.24406,0.62125 z m 4.54847,4.85911 c 0,1.19813 0,2.84002 -0.0666,3.57222 -0.19969,0.19969 -0.68782,0.37719 -1.17595,0.37719 -0.86532,0 -1.4422,-0.28844 -1.4422,-1.90814 0,-1.93033 0.75438,-2.24096 1.64189,-2.24096 0.31063,0 0.75438,0.0666 1.04282,0.19969 z"
           style="font-style:normal;font-variant:normal;font-weight:normal;font-stretch:normal;font-family:'yanone Kaffeesatz';-inkscape-font-specification:'yanone Kaffeesatz';fill:#ffffff;stroke-width:0.554694"
           id="path35" />
        <path
           d="m 129.48253,114.55513 v 4.61504 c -0.37719,-0.28844 -0.88751,-0.44375 -1.57532,-0.44375 -1.90815,0 -3.39472,1.77501 -3.39472,6.16818 0,4.81473 1.66408,5.36942 3.59441,5.36942 1.37563,0 2.44064,-0.31063 3.17284,-0.66563 v -15.8642 c -1.46439,0 -1.79721,0 -1.79721,0.82094 z m 0,6.03505 v 7.72132 c -0.355,0.24407 -0.82094,0.33282 -1.30907,0.33282 -1.04282,0 -1.66408,-0.62126 -1.66408,-3.94941 0,-3.63878 0.97626,-4.39317 1.95252,-4.39317 0.46594,0 0.73219,0.0666 1.02063,0.28844 z"
           style="font-style:normal;font-variant:normal;font-weight:normal;font-stretch:normal;font-family:'yanone Kaffeesatz';-inkscape-font-specification:'yanone Kaffeesatz';fill:#ffffff;stroke-width:0.554694"
           id="path37" />
        <path
           d="m 134.18631,120.50143 v 6.45662 c 0,1.9969 0.22187,3.30597 2.10783,3.30597 0.86532,0 1.90814,-0.1775 1.90814,-0.99844 0,-0.35501 -0.0666,-0.64345 -0.13312,-0.88751 -0.44376,0.22187 -0.77657,0.33281 -1.28689,0.33281 -0.79876,0 -0.79876,-0.79875 -0.79876,-1.75283 v -6.45662 h 1.90814 c 0.35501,0 0.35501,-0.15531 0.35501,-1.55314 h -2.26315 v -3.99378 c -1.46439,0 -1.7972,0 -1.7972,0.62125 v 3.37253 h -1.13158 c -0.37719,0 -0.39937,0.17751 -0.39937,1.55314 z"
           style="font-style:normal;font-variant:normal;font-weight:normal;font-stretch:normal;font-family:'yanone Kaffeesatz';-inkscape-font-specification:'yanone Kaffeesatz';fill:#ffffff;stroke-width:0.554694"
           id="path39" />
        <path
           d="m 139.48913,128.91057 c 0,0.77657 0.31063,1.2647 1.24251,1.2647 0.77657,0 1.24251,-0.55469 1.24251,-1.2647 0,-0.75438 -0.33281,-1.28688 -1.24251,-1.28688 -0.77657,0 -1.24251,0.59906 -1.24251,1.28688 z m 3.77191,0 c 0,0.77657 0.31063,1.2647 1.24251,1.2647 0.77657,0 1.24251,-0.55469 1.24251,-1.2647 0,-0.75438 -0.33281,-1.28688 -1.24251,-1.28688 -0.77657,0 -1.24251,0.59906 -1.24251,1.28688 z m 3.77191,0 c 0,0.77657 0.31063,1.2647 1.24251,1.2647 0.77657,0 1.24251,-0.55469 1.24251,-1.2647 0,-0.75438 -0.33281,-1.28688 -1.24251,-1.28688 -0.77657,0 -1.24251,0.59906 -1.24251,1.28688 z"
           style="font-style:normal;font-variant:normal;font-weight:normal;font-stretch:normal;font-family:'yanone Kaffeesatz';-inkscape-font-specification:'yanone Kaffeesatz';fill:#ffffff;stroke-width:0.554694"
           id="path41" />
      </g>
    </g>
  </g>
</svg>
