<svg xmlns="http://www.w3.org/2000/svg" xmlns:xlink="http://www.w3.org/1999/xlink" width="19.146" height="25.937" viewBox="0 0 5.066 6.863"><defs><linearGradient id="a"><stop offset="0" stop-color="#1c1c7d"/><stop offset="1" stop-color="#4979f2"/></linearGradient><linearGradient id="b" x1="27.695" x2="32.76" y1="41.537" y2="41.537" gradientTransform="translate(-66.626 -86.803)" gradientUnits="userSpaceOnUse" xlink:href="#a"/></defs><g transform="translate(-33.866 -41.834)"><path fill="url(#b)" d="M-38.912-47.798h5.046v4.565a.5.5 135 0 1-.5.5h-4.065a.5.5 45 0 1-.5-.5v-4.546a.02.02 135 0 1 .02-.02z" paint-order="markers stroke fill" transform="scale(-1)"/><circle cx="36.388" cy="45.264" r="2.367" fill="#d14a1f"/><path fill="#f9f9f9" d="M33.867 47.798h5.065v.4a.5.5 135 0 1-.5.5h-4.065a.5.5 45 0 1-.5-.5z"/><path fill="none" d="M33.866 41.834h5.065v.9h-5.065z"/><path fill="#0d3aac" d="M33.947 47.982h.136l.14.388.14-.388h.136l-.195.526h-.162zm.621 0h.367v.102h-.23v.098h.216v.103h-.217v.12h.24v.103h-.376zm.494 0h.136v.424h.238v.102h-.374zm.675.089q-.062 0-.096.045-.034.046-.034.13 0 .083.034.128.034.046.096.046.063 0 .097-.046.034-.045.034-.128 0-.084-.034-.13-.034-.045-.097-.045zm0-.1q.127 0 .2.074.071.073.071.2 0 .128-.072.2-.072.074-.199.074-.126 0-.199-.073-.072-.073-.072-.2 0-.128.072-.201.073-.073.2-.073zm.566.244q.043 0 .062-.016.018-.015.018-.052 0-.036-.018-.051-.019-.016-.06-.016h-.058v.135zm-.056.094v.2h-.136v-.527h.207q.104 0 .153.035.048.035.048.11 0 .052-.025.086-.025.033-.076.05.028.006.05.028.022.022.045.068l.073.15h-.144l-.065-.131q-.019-.04-.04-.054-.019-.015-.052-.015zm.661-.238q-.062 0-.097.045-.034.046-.034.13 0 .083.034.128.035.046.097.046t.096-.046q.035-.045.035-.128 0-.084-.035-.13-.034-.045-.096-.045zm0-.1q.127 0 .2.074.071.073.071.2 0 .128-.072.2-.072.074-.2.074-.126 0-.198-.073-.072-.073-.072-.2 0-.128.072-.201.072-.073.2-.073zm.373.01h.136v.316q0 .066.021.094.022.028.07.028.05 0 .07-.028.021-.028.021-.094v-.315h.136v.315q0 .112-.056.167-.056.055-.17.055-.116 0-.172-.055-.056-.055-.056-.167zm.524 0h.485v.103h-.174v.424h-.136v-.424h-.175zm.556 0h.366v.103h-.23v.098h.216v.103h-.216v.12h.238v.103h-.374z"/></g></svg>