<svg xmlns="http://www.w3.org/2000/svg" width="25" height="25" viewBox="0 0 602 602"><g fill-rule="evenodd"><path d="M301 0a287.4 287.4 0 0 0-150.4 40.3A287.7 287.7 0 0 0 40.4 150.5 287.7 287.7 0 0 0 0 301c0 55.4 12.6 102.5 40.3 150.5 27.7 48 62.2 82.5 110.2 110.2 48 27.7 95 40.3 150.4 40.3 55.4 0 102.5-12.6 150.5-40.3 48-27.7 82.5-62.2 110.2-110.2 27.7-48 40.3-95 40.3-150.5 0-55.4-12.6-102.5-40.3-150.5A287.6 287.6 0 0 0 451.5 40.3 287.8 287.8 0 0 0 301 0zm0 .5c55.3 0 102.4 12.6 150.3 40.2a287 287 0 0 1 110 110A287 287 0 0 1 601.5 301a287 287 0 0 1-40.2 150.2 287 287 0 0 1-110 110c-48 27.7-95 40.3-150.3 40.3a286.9 286.9 0 0 1-150.2-40.3c-48-27.6-82.3-62-110-110A287 287 0 0 1 .6 301a287 287 0 0 1 40.2-150.2c27.7-48 62-82.4 110-110A286.8 286.8 0 0 1 301 .4z"/><path fill="#fff" d="M601.5 301a287 287 0 0 0-40.2-150.2 287 287 0 0 0-110-110C403.3 13 356.3.5 301 .5a286.8 286.8 0 0 0-150.2 40.3c-48 27.6-82.3 62-110 110A287 287 0 0 0 .5 301a287 287 0 0 0 40.3 150.2 287 287 0 0 0 110 110A286.9 286.9 0 0 0 301 601.5c55.3 0 102.3-12.6 150.3-40.3a287 287 0 0 0 110-110A287 287 0 0 0 601.5 301z"/><path fill="#154889" d="M587.5 301c0-52.7-12-97.6-38.4-143.2A273.6 273.6 0 0 0 444.3 52.9 273.4 273.4 0 0 0 301 14.5c-52.7 0-97.5 12-143.2 38.4A273.9 273.9 0 0 0 53 157.8 273.6 273.6 0 0 0 14.6 301c0 52.7 12 97.6 38.4 143.2a273.6 273.6 0 0 0 104.8 104.9A273.2 273.2 0 0 0 301 587.4c52.7 0 97.6-12 143.3-38.3A273.7 273.7 0 0 0 549 444.2 273.3 273.3 0 0 0 587.5 301z"/><path fill="#fff" d="m250.7 69.2.2 8.5-.3-8.3-89.4 89.2.1 65 64.5-63.3-.2 372.5h51.5v-86.6c5-35.8 24.8-60.5 68-69.4l94.2-.1-62.8 63.6 65.7.2 88.7-90-8.5.2 8.3-.2-89.2-89.4-65 .1 62.6 62.8-90.4-.6a162 162 0 0 0-71.7 22.1l-.2-184.7 63.6 62.8.2-65.7z"/></g><path fill-rule="evenodd" d="M513.5 88.6a287 287 0 0 1 77.8 134.6 287.3 287.3 0 0 1 0 155.6 287.1 287.1 0 0 1-77.8 134.7 287.2 287.2 0 0 1-134.7 77.8 287.1 287.1 0 0 1-155.6 0 287 287 0 0 1-134.6-77.8 287.3 287.3 0 0 1-77.9-134.7 287 287 0 0 1 0-155.6A287 287 0 0 1 88.5 88.6a287.2 287.2 0 0 1 134.7-77.9 287.2 287.2 0 0 1 155.6 0 287.3 287.3 0 0 1 134.7 77.9zm-.3.3c-39-39-81.2-63.4-134.5-77.7a286.6 286.6 0 0 0-155.3 0A286.6 286.6 0 0 0 88.9 89c-39 39-63.4 81.1-77.7 134.5a286.6 286.6 0 0 0 0 155.3A286.8 286.8 0 0 0 89 513.2c39 39 81.1 63.3 134.5 77.6a286.7 286.7 0 0 0 155.3 0A286.6 286.6 0 0 0 513 513.2c39.1-39 63.4-81.2 77.7-134.5a286.7 286.7 0 0 0 0-155.4A286.3 286.3 0 0 0 513.2 89z"/></svg>