<svg xmlns="http://www.w3.org/2000/svg" width="25" height="25" viewBox="0 0 602 602"><g fill-rule="evenodd"><path d="M602 301c0-55.4-12.7-102.4-40.3-150.4A287.7 287.7 0 0 0 451.5 40.4 287.7 287.7 0 0 0 301 0a287.6 287.6 0 0 0-150.5 40.3A287.6 287.6 0 0 0 40.3 150.6C12.6 198.6 0 245.6 0 301c0 55.4 12.6 102.5 40.3 150.5 27.7 48 62.2 82.5 110.2 110.2 48 27.7 95 40.3 150.5 40.3 55.4 0 102.5-12.6 150.5-40.3a288 288 0 0 0 110.2-110.2c27.6-48 40.3-95 40.3-150.5zm-.5 0c0 55.4-12.6 102.4-40.3 150.3a287 287 0 0 1-110 110A287 287 0 0 1 301 601.5a287 287 0 0 1-150.2-40.2 287 287 0 0 1-110-110C13 403.3.5 356.3.5 301c0-55.3 12.6-102.3 40.3-150.2a287 287 0 0 1 110-110A287 287 0 0 1 301 .6a287 287 0 0 1 150.2 40.2 287 287 0 0 1 110 110A286.8 286.8 0 0 1 601.5 301z"/><path fill="#fff" d="M301 601.5a287 287 0 0 0 150.2-40.2 287 287 0 0 0 110-110c27.7-48 40.3-95 40.3-150.3 0-55.3-12.6-102.3-40.3-150.2a287 287 0 0 0-110-110A287 287 0 0 0 301 .6a287 287 0 0 0-150.2 40.2 287 287 0 0 0-110 110A286.9 286.9 0 0 0 .6 301c0 55.3 12.5 102.4 40.2 150.3a287 287 0 0 0 110 110A287 287 0 0 0 301 601.5z"/><path fill="#154889" d="M301 587.5c52.7 0 97.5-12 143.2-38.4A273.6 273.6 0 0 0 549 444.3 273.4 273.4 0 0 0 587.4 301c0-52.7-12-97.5-38.3-143.1a273.9 273.9 0 0 0-105-105A273.6 273.6 0 0 0 301 14.7c-52.7 0-97.6 12-143.2 38.4A273.5 273.5 0 0 0 52.9 157.9 273.1 273.1 0 0 0 14.6 301c0 52.8 12 97.6 38.3 143.3A273.7 273.7 0 0 0 157.8 549 273.3 273.3 0 0 0 301 587.5z"/></g><path fill="#fff" d="M439.8 293 332.4 185.7v341.8h-62.8v-342L162.2 292.6v-79.1L301 74.6l-.2 13.8.4-13.5 138.7 139z"/></svg>