<svg xmlns="http://www.w3.org/2000/svg" xml:space="preserve" width="847.159" height="743.623" viewBox="0 0 847.159 743.623"><path d="M338.859 594.5c7.512 0 15.028-2.867 20.758-8.598a29.3 29.3 0 0 0 4.707-6.152l15.246-26.157h.071L672.742 45.554c.055-.097.098-.195.153-.293a29.4 29.4 0 0 0 3.425-7.91c4.196-15.656-5.097-31.754-20.757-35.949a29.2 29.2 0 0 0-7.739-1H29.758C13.543.402.402 13.543.402 29.758a29.2 29.2 0 0 0 3.879 14.578q.028.046.051.097l304.367 528.41c3.864 6.665 5.653 9.305 9.406 13.059a29.26 29.26 0 0 0 20.754 8.598" style="fill:#fff;fill-opacity:1;fill-rule:nonzero;stroke:none" transform="matrix(1.25 0 0 -1.25 0 743.623)"/><path d="M338.859 587.144c7.125.051 14.95-3.59 18.782-10.406L666.934 40.847c1.785-3.648 2.535-6.82 2.558-10.449 0-6.496-2.875-12.66-7.847-16.84-4.383-3.394-8.536-5.16-14.122-5.16H29.617c-3.769-.035-7.547.871-10.976 3.133A21.55 21.55 0 0 0 8.23 29.957c.184 3.894 1.145 8 2.879 10.89l309.114 535.981q.041.07.09.14l.093.145a20 20 0 0 0 4.039 4.633 22 22 0 0 0 12.825 5.316c.531.047 1.062.078 1.589.082M647.523 8.398h1.524-1.555zM339.18 480.933 103.477 72.398h471.738z" style="fill:#c1121c;fill-opacity:1;fill-rule:nonzero;stroke:none" transform="matrix(1.25 0 0 -1.25 0 743.623)"/><path d="M338.859 594.898c7.618 0 15.231-2.906 21.039-8.715a29.7 29.7 0 0 0 4.774-6.234l15.129-25.957h.07L673.086 45.754c.066-.118.113-.219.16-.301a29.8 29.8 0 0 0 3.461-7.996c4.25-15.871-5.172-32.188-21.039-36.442A30 30 0 0 0 647.824 0H29.758C13.328 0 0 13.328 0 29.758a29.6 29.6 0 0 0 3.934 14.773q.016.028.05.098l304.364 528.414c3.871 6.668 5.695 9.363 9.468 13.14 5.809 5.809 13.426 8.715 21.039 8.715zm0-.398a29.26 29.26 0 0 1-20.754-8.598c-3.753-3.754-5.542-6.394-9.406-13.059L4.336 44.433c-.02-.035-.035-.066-.055-.097A29.2 29.2 0 0 1 .402 29.758C.402 13.543 13.543.402 29.758.402h618.066a29.2 29.2 0 0 1 7.739 1c15.66 4.195 24.953 20.293 20.757 35.949a29.2 29.2 0 0 1-3.425 7.91c-.055.098-.098.196-.153.293L379.641 553.593h-.071l-15.246 26.157a29.3 29.3 0 0 1-4.707 6.152c-5.73 5.731-13.242 8.598-20.758 8.598" style="fill:#000;fill-opacity:1;fill-rule:nonzero;stroke:none" transform="matrix(1.25 0 0 -1.25 0 743.623)"/><path d="M323.824 386.082c0-12.157 9.856-22.012 22.016-22.012 12.156 0 22.015 9.855 22.015 22.012 0 12.16-9.859 22.015-22.015 22.015-12.16 0-22.016-9.855-22.016-22.015m-11.015-65.473v-63.863h44.031v52.804l28.594-44.031c5.793-8.914 17.718-11.461 26.648-5.652l-54.176 83.422c-8.281 12.746-25.324 16.359-38.066 8.082a26 26 0 0 1-2.703-1.996l-36.957-31.004a16.5 16.5 0 0 1-5.883-12.653v-26.957c0-10.628 8.617-19.265 19.246-19.265v44.941zm22.015-80.457 51.969-95.719c5.809-10.691 19.172-14.648 29.863-8.84l-58.488 107.696a11 11 0 0 0-1.328 5.254v2.703h-44.031v-2.703c0-1.856-.465-3.664-1.329-5.254l-43.718-80.535c-5.793-10.676-1.84-24.055 8.851-29.832zM201.918 92.648l35.578 80.535h-35.781l-48.106-80.535zm80.566 0 10.504 57.746-13.949-25.676-5.316 2.891c-13.625 7.383-18.66 24.406-11.278 38.035l4.094 7.539h-5.191l-27.203-80.535zm80.536 0-6.29 80.535h-35.765l-6.27-80.535zm80.55 0-27.207 80.535h-13.254l21.735-40.047-5.313-2.855a27.99 27.99 0 0 0-31.765 3.461l7.464-41.094zm80.535 0-48.109 80.535h-35.781l35.566-80.535" style="fill:#000;fill-opacity:1;fill-rule:nonzero;stroke:none" transform="matrix(1.25 0 0 -1.25 0 743.623)"/></svg>