<svg xmlns="http://www.w3.org/2000/svg" xml:space="preserve" width="601.001" height="601.002" viewBox="0 0 601.001 601.002"><path d="M27.375 450.376c-27.059.016-27-27.004-27-27.004V27.376s-.059-27.023 27-27h396c27.234-.027 27 27 27 27v395.996s.223 27.094-27 27.004z" style="fill:#fff;fill-opacity:1;fill-rule:nonzero;stroke:none" transform="matrix(1.33333 0 0 -1.33333 0 601.002)"/><path d="M27.375 441.376c-9.937 0-18-8.058-18-18v-396c0-9.949 8.063-18 18-18h396c9.941 0 18 8.051 18 18v396c0 9.942-8.059 18-18 18z" style="fill:#154889;fill-opacity:1;fill-rule:nonzero;stroke:none" transform="matrix(1.33333 0 0 -1.33333 0 601.002)"/><path d="M27.375 450.751c-13.656.008-20.57-6.859-23.984-13.703S0 423.368 0 423.368V27.376S-.02 20.54 3.391 13.7C6.805 6.857 13.719-.011 27.375.001h396c13.742-.015 20.66 6.856 24.051 13.699 3.387 6.84 3.324 13.672 3.324 13.676v395.996c0 .004.059 6.852-3.332 13.7-3.391 6.851-10.309 13.722-24.043 13.679zm0-.375h396c27.223.09 27-27.004 27-27.004V27.376s.234-27.027-27-27h-396c-27.059-.023-27 27-27 27v395.996s-.059 27.02 27 27.004" style="fill:#000;fill-opacity:1;fill-rule:nonzero;stroke:none" transform="matrix(1.33333 0 0 -1.33333 0 601.002)"/><path d="M37.48 71.661h375.79L225.383 397.095" style="fill:#fff;fill-opacity:1;fill-rule:nonzero;stroke:none" transform="matrix(1.33333 0 0 -1.33333 0 601.002)"/><path d="M237.309 320.38c0-9.641-7.829-17.469-17.469-17.469-9.645 0-17.461 7.828-17.461 17.469 0 9.645 7.816 17.461 17.461 17.461 9.64 0 17.469-7.816 17.469-17.461m8.734-51.941v-50.645h-34.93v41.879l-22.679-34.926c-4.602-7.078-14.063-9.09-21.137-4.5l42.965 66.184c6.566 10.109 20.093 12.984 30.203 6.418a26 26 0 0 0 2.144-1.59l29.305-24.59a13.1 13.1 0 0 0 4.68-10.031v-21.387c0-8.437-6.848-15.277-15.278-15.277v35.644zM228.57 204.63l-41.226-75.941c-4.602-8.461-15.199-11.61-23.672-6.996l46.387 85.425a8.7 8.7 0 0 1 1.054 4.157v2.16h34.93v-2.16c0-1.453.348-2.887 1.055-4.157l34.675-63.867c4.59-8.472 1.454-19.07-7.019-23.683zm105.407-117-28.204 63.879h28.375l38.165-63.879Zm-63.879 0-8.325 45.817 11.051-20.375 4.215 2.285c10.801 5.871 14.809 19.375 8.938 30.164l-3.247 5.988h4.122l21.582-63.879Zm-63.879 0 4.976 63.879h28.371l4.989-63.879zm-63.891 0 21.57 63.879h10.508l-17.23-31.746 4.203-2.285a22.25 22.25 0 0 1 25.215 2.75l-5.93-32.598zm-63.875 0 38.16 63.879h28.375L116.773 87.63" style="fill:#000;fill-opacity:1;fill-rule:nonzero;stroke:none" transform="matrix(1.33333 0 0 -1.33333 0 601.002)"/></svg>