<svg xmlns="http://www.w3.org/2000/svg" xml:space="preserve" width="600" height="450.003" viewBox="0 0 600 450.003"><path d="M31.996 359.772c-17.504 0-31.754-14.25-31.754-31.765V31.999C.242 14.491 14.492.241 31.996.241h416.008c17.516 0 31.766 14.25 31.766 31.758v296.008c0 17.515-14.25 31.765-31.766 31.765" style="fill:#fff;fill-opacity:1;fill-rule:nonzero;stroke:none" transform="matrix(1.25 0 0 -1.25 0 450.003)"/><path d="M31.996.471C14.613.471.473 14.612.473 31.999v296.008c0 17.382 14.14 31.511 31.523 31.511h416.008c17.383 0 31.523-14.129 31.523-31.511V31.999c0-17.387-14.14-31.528-31.523-31.528zm416.008 359.532H31.996C14.328 360.003 0 345.675 0 328.007V31.999c0-17.672 14.328-32 31.996-32h416.008c17.668 0 31.996 14.328 31.996 32v296.008c0 17.668-14.328 31.996-31.996 31.996" style="fill:#000;fill-opacity:1;fill-rule:nonzero;stroke:none" transform="matrix(1.25 0 0 -1.25 0 450.003)"/><path d="M31.996 7.995c-13.25 0-23.992 10.754-23.992 24.004v296.008c0 13.257 10.742 24 23.992 24h416.008c13.25 0 24.004-10.743 24.004-24V31.999c0-13.25-10.754-24.004-24.004-24.004" style="fill:#000;fill-opacity:1;fill-rule:nonzero;stroke:none" transform="matrix(1.25 0 0 -1.25 0 450.003)"/><path d="M31.996 20.003C25.379 20.003 20 25.366 20 31.999v296.008c0 6.629 5.379 11.996 11.996 11.996h416.008c6.629 0 12.004-5.367 12.004-11.996V31.999c0-6.633-5.375-11.996-12.004-11.996" style="fill:#fff;fill-opacity:1;fill-rule:nonzero;stroke:none" transform="matrix(1.25 0 0 -1.25 0 450.003)"/><path d="M307.199 120.8h-9.597v9.597h9.597zm0-57.594h-9.597v47.996h9.597zm-52.801 28.797h20.411c0 5.629-4.575 10.203-10.207 10.203-5.629 0-10.204-4.574-10.204-10.203m30.008-8.403h-30.008v-1.199c0-4.176 2.54-7.914 6.422-9.465a13.43 13.43 0 0 1 15.176 3.727l7.289-6.27c-6.422-7.465-16.89-10.039-26.027-6.375a19.8 19.8 0 0 0-12.457 18.383v9.602c0 10.929 8.863 19.8 19.801 19.8 10.941 0 19.804-8.871 19.804-19.8zm-76.804-20.394v47.996h9.597v-5.41c5.629 6.949 15.824 8.035 22.785 2.406H240l-6.828-8.41c-3.957 3.515-10.027 3.164-13.547-.793a9.63 9.63 0 0 1-2.43-6.391v-29.39h-9.597zm-29.997 0v40.199h-4.804v7.797h4.804v7.199c0 6.633 5.364 12 11.997 12h7.203v-8.996h-6.598a3 3 0 0 1-3.004-3.004v-7.199h9.602v-7.797h-9.602V63.206m-33.711 206.07a5.1 5.1 0 0 1-3.586-1.484l-33.957-33.965-71.711-11.953a5.066 5.066 0 0 1-4.234-4.992v-23.567a5.06 5.06 0 0 1 5.058-5.054h12.657c0 13.972 11.336 25.312 25.324 25.312 13.973 0 25.309-11.34 25.309-25.312h129.113c0 13.972 11.34 25.312 25.312 25.312 13.989 0 25.325-11.34 25.325-25.312h10.128a5.055 5.055 0 0 1 5.055 5.054v33.012a5.08 5.08 0 0 1-1.89 3.957l-47.348 37.883a5.1 5.1 0 0 1-3.168 1.109zm-.004-10.125h43.481v-30.383h-69.848a2.53 2.53 0 0 0-2.527 2.532c0 .668.265 1.316.738 1.789l24.574 24.578a5.1 5.1 0 0 0 3.582 1.484m51.067 0h35.879a5.1 5.1 0 0 0 3.586-1.484l20.253-20.258a5.066 5.066 0 0 0 0-7.168 5.1 5.1 0 0 0-3.585-1.473h-56.133zM83.043 208.514c-11.184 0-20.258-9.074-20.258-20.253 0-11.196 9.074-20.258 20.258-20.258 11.18 0 20.25 9.062 20.25 20.258 0 11.179-9.07 20.253-20.25 20.253m179.734 0c-11.172 0-20.242-9.074-20.242-20.253 0-11.196 9.07-20.258 20.242-20.258 11.196 0 20.266 9.062 20.266 20.258 0 11.179-9.07 20.253-20.266 20.253m177.231-5.07h-35.449c-8.391 11.195-24.258 13.461-35.442 5.07a24.9 24.9 0 0 1-5.058-5.07h-35.45v45.578c0 5.586 4.543 10.125 10.129 10.125h91.145c5.586 0 10.125-4.539 10.125-10.125zm0-5.058-5.07-10.125h-25.321c0 3.484-.715 6.937-2.101 10.125zm-35.449-10.125c0-11.196-9.075-20.258-20.243-20.258-11.195 0-20.257 9.062-20.257 20.258 0 11.179 9.062 20.253 20.257 20.253 11.168 0 20.243-9.074 20.243-20.253m-96.204 0v5.054h20.254v5.071h32.493a25.5 25.5 0 0 1-2.11-10.125" style="fill:#000;fill-opacity:1;fill-rule:nonzero;stroke:none" transform="matrix(1.25 0 0 -1.25 0 450.003)"/></svg>