<svg xmlns="http://www.w3.org/2000/svg" xml:space="preserve" width="600.998" height="331.008" viewBox="0 0 600.998 331.008"><path d="M32.402.404c-17.672 0-32 14.379-32 32.109v199.77c0 17.73 14.328 32.121 32 32.121h416.004c17.672 0 31.996-14.391 31.996-32.121V32.513c0-17.73-14.324-32.109-31.996-32.109z" style="fill:#fff;fill-opacity:1;fill-rule:nonzero;stroke:none" transform="matrix(1.25 0 0 -1.25 0 331.008)"/><path d="M32.402 8.435c-13.261 0-24 10.774-24 24.082v199.766c0 13.308 10.739 24.082 24 24.082h416.004c13.246 0 24-10.774 24-24.082V32.517c0-13.308-10.754-24.082-24-24.082z" style="fill:#000;fill-opacity:1;fill-rule:nonzero;stroke:none" transform="matrix(1.25 0 0 -1.25 0 331.008)"/><path d="M32.402 20.474c-6.632 0-12.007 5.395-12.007 12.051v199.766c0 6.64 5.375 12.035 12.007 12.035h416.004c6.633 0 11.992-5.395 11.992-12.035V32.525c0-6.656-5.359-12.051-11.992-12.051z" style="fill:#fff;fill-opacity:1;fill-rule:nonzero;stroke:none" transform="matrix(1.25 0 0 -1.25 0 331.008)"/><path d="M86.141 180.662v47.574h11.004c6.078 0 11.003-4.945 11.003-11.043v-3.816a8.52 8.52 0 0 0-4.769-7.657 8.48 8.48 0 0 0 4.769-7.644v-6.371c0-6.102-4.925-11.043-11.003-11.043zm6.777 6.8h4.227a4.656 4.656 0 0 1 4.656 4.672v5.942a4.656 4.656 0 0 1-4.656 4.672h-4.227zm0 21.243h4.227a4.656 4.656 0 0 1 4.656 4.672v3.816a4.656 4.656 0 0 1-4.656 4.672h-4.227zm41.484-18.27c0-5.629-4.558-10.203-10.164-10.203-5.609 0-10.152 4.574-10.152 10.203v14.442c0 5.628 4.543 10.199 10.152 10.199 5.606 0 10.164-4.571 10.164-10.199v-9.77h-13.554v-4.672a3.4 3.4 0 0 1 3.39-3.402 3.39 3.39 0 0 1 3.387 3.402zm-13.554 10.199h6.777v4.243a3.394 3.394 0 0 1-3.387 3.402c-1.867 0-3.39-1.531-3.39-3.402zm31.336-19.972h-3.391c-4.215 0-7.617 3.429-7.617 7.644v20.813h-3.387v5.531h3.387v10.184h6.765V214.65h4.243v-5.531h-4.243v-19.957a2.13 2.13 0 0 1 2.121-2.129h2.122zm5.921 0v33.988h6.774v-3.844a11.4 11.4 0 0 0 8.887 4.27v-7.141c-3.547 1.172-7.375-.773-8.543-4.328a6.8 6.8 0 0 1-.344-2.129v-20.816zm19.047 33.988h6.778v-33.988h-6.778zm0 13.586h6.778v-6.801h-6.778zm33.868-37.801c0-5.629-4.543-10.203-10.165-10.203-5.609 0-10.152 4.574-10.152 10.203v14.442c0 5.628 4.543 10.199 10.152 10.199 5.622 0 10.165-4.571 10.165-10.199v-9.77h-13.54v-4.672c0-1.875 1.512-3.402 3.375-3.402a3.39 3.39 0 0 1 3.387 3.402zm-13.54 10.199h6.762v4.243a3.394 3.394 0 0 1-3.387 3.402c-1.863 0-3.375-1.531-3.375-3.402zm19.461-19.972v47.574h6.778v-16.988c1.879 3.515 6.234 4.859 9.738 2.972a7.22 7.22 0 0 0 3.813-6.371v-20.387c0-3.988-3.231-7.23-7.204-7.23a7.2 7.2 0 0 0-6.347 3.828v-3.398zm6.778 9.773c0-1.875 1.523-3.402 3.386-3.402a3.395 3.395 0 0 1 3.391 3.402v14.442a3.4 3.4 0 0 1-3.391 3.402c-1.863 0-3.386-1.531-3.386-3.402zm17.781 0h6.348a3.825 3.825 0 0 1 3.816-3.832c2.106 0 3.801 1.715 3.801 3.832a3.83 3.83 0 0 1-2.262 3.5l-5.484 2.012c-4.926 2.187-7.129 7.957-4.969 12.887 2.18 4.929 7.93 7.156 12.855 4.972a9.77 9.77 0 0 0 5.797-8.929h-6.351c0 1.871-1.524 3.402-3.387 3.402a3.394 3.394 0 0 1-3.387-3.402c0-1.344.782-2.571 2.004-3.114l5.496-2.015c5.125-2.27 7.446-8.301 5.168-13.442-2.261-5.16-8.269-7.472-13.394-5.203a10.23 10.23 0 0 0-6.051 9.332m27.09 12.313h20.316v-6.801H268.59zm67.734-22.086h-6.773v3.398c-1.867-3.512-6.223-4.855-9.739-2.969-2.335 1.243-3.8 3.7-3.8 6.371v27.188h6.761v-24.215c0-1.875 1.524-3.402 3.387-3.402a3.395 3.395 0 0 1 3.391 3.402v24.215h6.773zm6.778 0v33.988h6.777v-3.402c1.863 3.515 6.223 4.859 9.738 2.972a7.24 7.24 0 0 0 3.801-6.371v-27.187h-6.777v24.215a3.394 3.394 0 0 1-3.387 3.402c-1.867 0-3.375-1.531-3.375-3.402v-24.215zm46.566 0h-6.777v3.398c-1.864-3.512-6.235-4.855-9.735-2.969a7.2 7.2 0 0 0-3.816 6.371v20.387c0 3.985 3.23 7.227 7.203 7.227a7.18 7.18 0 0 0 6.348-3.828v16.988h6.777zm-6.777 9.773v14.442c0 1.871-1.524 3.402-3.387 3.402s-3.387-1.531-3.387-3.402v-14.442c0-1.875 1.524-3.402 3.387-3.402s3.387 1.527 3.387 3.402m-336.754-77.18-9.739 47.586h7.204l5.496-33.144 5.507 33.144h7.192l-9.738-47.586zm37.683 9.77c0-5.629-4.558-10.199-10.164-10.199-5.609 0-10.168 4.57-10.168 10.199v14.445c0 5.629 4.559 10.2 10.168 10.2 5.606 0 10.164-4.571 10.164-10.2v-9.773H70.266v-4.672a3.39 3.39 0 0 1 3.39-3.398 3.4 3.4 0 0 1 3.387 3.398zm-13.554 10.203h6.777v4.242c0 1.871-1.523 3.399-3.387 3.399a3.39 3.39 0 0 1-3.39-3.399zm19.476-19.973v33.985h6.774v-3.84a11.4 11.4 0 0 0 8.886 4.27v-7.141c-3.547 1.168-7.375-.774-8.558-4.332a7.2 7.2 0 0 1-.328-2.129v-20.813zm18.192 9.77h6.363c0-2.113 1.695-3.828 3.801-3.828a3.82 3.82 0 0 1 3.816 3.828 3.84 3.84 0 0 1-2.262 3.5l-5.496 2.016c-4.91 2.187-7.133 7.957-4.953 12.886 2.176 4.942 7.93 7.157 12.84 4.973a9.74 9.74 0 0 0 5.793-8.93h-6.348a3.39 3.39 0 0 1-3.39 3.399c-1.864 0-3.387-1.528-3.387-3.399 0-1.343.797-2.558 2.023-3.101l5.481-2.028c5.137-2.273 7.445-8.3 5.18-13.445-2.278-5.141-8.286-7.469-13.411-5.199a10.23 10.23 0 0 0-6.05 9.328m24.558 0v14.445c0 5.629 4.555 10.2 10.164 10.2 5.61 0 10.164-4.571 10.164-10.2v-14.445c0-5.629-4.554-10.199-10.164-10.199s-10.164 4.57-10.164 10.199m6.778 0a3.39 3.39 0 0 1 3.386-3.398 3.4 3.4 0 0 1 3.387 3.398v14.445a3.4 3.4 0 0 1-3.387 3.399 3.39 3.39 0 0 1-3.386-3.399zm20.312-9.77v33.985h6.777v-3.84a11.4 11.4 0 0 0 8.899 4.27v-7.141a6.78 6.78 0 0 1-8.555-4.332 6.7 6.7 0 0 1-.344-2.129v-20.813zm25.824-3.828a3.39 3.39 0 0 1 3.391-3.386 3.39 3.39 0 0 1 3.387 3.386v7.227c-1.864-3.512-6.235-4.856-9.739-2.969a7.22 7.22 0 0 0-3.812 6.371v20.387c0 3.984 3.23 7.227 7.203 7.227a7.18 7.18 0 0 0 6.348-3.829v3.399h6.777v-37.813c0-5.629-4.555-10.187-10.164-10.187s-10.164 4.558-10.164 10.187zm6.778 13.598v14.445c0 1.871-1.524 3.399-3.387 3.399a3.403 3.403 0 0 1-3.391-3.399v-14.445a3.4 3.4 0 0 1 3.391-3.398 3.4 3.4 0 0 1 3.387 3.398m33.867-9.77h-6.778v3.399c-1.863-3.512-6.234-4.856-9.734-2.969a7.21 7.21 0 0 0-3.816 6.371v27.184h6.777v-24.215a3.4 3.4 0 0 1 3.387-3.398 3.39 3.39 0 0 1 3.386 3.398v24.215h6.778zm6.777 0v33.985h6.762v-3.399c1.879 3.516 6.234 4.86 9.738 2.973a7.22 7.22 0 0 0 3.817-6.371v-27.188h-6.778v24.215a3.39 3.39 0 0 1-3.39 3.399c-1.864 0-3.387-1.528-3.387-3.399v-24.215zm33.012-3.828a3.39 3.39 0 0 1 3.39-3.386 3.39 3.39 0 0 1 3.387 3.386v7.227c-1.879-3.512-6.234-4.856-9.738-2.969a7.21 7.21 0 0 0-3.813 6.371v20.387c0 3.984 3.231 7.227 7.204 7.227a7.2 7.2 0 0 0 6.347-3.829v3.399h6.778v-37.813c0-5.629-4.555-10.187-10.165-10.187s-10.164 4.558-10.164 10.187zm6.777 13.598v14.445c0 1.871-1.523 3.399-3.387 3.399a3.4 3.4 0 0 1-3.39-3.399v-14.445a3.4 3.4 0 0 1 3.39-3.398 3.4 3.4 0 0 1 3.387 3.398m11.844 0h6.351a3.82 3.82 0 0 1 3.813-3.828 3.82 3.82 0 0 1 3.816 3.828 3.83 3.83 0 0 1-2.277 3.5l-5.48 2.016c-4.911 2.187-7.133 7.957-4.954 12.886 2.176 4.942 7.93 7.157 12.84 4.973a9.76 9.76 0 0 0 5.793-8.93h-6.347a3.39 3.39 0 0 1-3.391 3.399c-1.863 0-3.387-1.528-3.387-3.399 0-1.343.797-2.558 2.024-3.101l5.48-2.028c5.137-2.273 7.446-8.3 5.18-13.445-2.277-5.141-8.285-7.469-13.41-5.199a10.24 10.24 0 0 0-6.051 9.328m44.875-9.77h-6.766v3.399c-1.879-3.512-6.234-4.856-9.734-2.969a7.21 7.21 0 0 0-3.816 6.371v20.387c0 3.984 3.218 7.227 7.203 7.227a7.19 7.19 0 0 0 6.347-3.829v17h6.766zm-6.766 9.77v14.445a3.4 3.4 0 0 1-3.386 3.399 3.39 3.39 0 0 1-3.387-3.399v-14.445a3.39 3.39 0 0 1 3.387-3.398 3.4 3.4 0 0 1 3.386 3.398m14.395 24.215h6.777v-33.985h-6.777zm0 13.601h6.777v-6.8h-6.777zm33.867-37.816c0-5.629-4.555-10.199-10.164-10.199s-10.164 4.57-10.164 10.199v14.445c0 5.629 4.555 10.2 10.164 10.2s10.164-4.571 10.164-10.2v-9.773h-13.551v-4.672a3.4 3.4 0 0 1 3.387-3.398 3.4 3.4 0 0 1 3.387 3.398zm-13.551 10.203h6.774v4.242c0 1.871-1.524 3.399-3.387 3.399s-3.387-1.528-3.387-3.399zm19.473-19.973v33.985h6.777v-3.399c1.864 3.516 6.223 4.86 9.739 2.973a7.24 7.24 0 0 0 3.8-6.371v-27.188h-6.777v24.215c0 1.871-1.508 3.399-3.375 3.399a3.39 3.39 0 0 1-3.387-3.399v-24.215zm25.398 9.77h6.348a3.824 3.824 0 0 1 3.816-3.828c2.106 0 3.801 1.715 3.801 3.828a3.82 3.82 0 0 1-2.262 3.5l-5.48 2.016c-4.926 2.187-7.148 7.957-4.969 12.886a9.724 9.724 0 0 0 12.856 4.973 9.77 9.77 0 0 0 5.793-8.93h-6.352c0 1.871-1.523 3.399-3.387 3.399a3.39 3.39 0 0 1-3.386-3.399 3.38 3.38 0 0 1 2.008-3.101l5.492-2.028c5.125-2.273 7.445-8.3 5.168-13.445-2.262-5.141-8.27-7.469-13.395-5.199a10.21 10.21 0 0 0-6.051 9.328m37.254-9.77h-3.386c-4.215 0-7.618 3.43-7.618 7.641v20.816h-3.386v5.528h3.386v10.203h6.762V147.24h4.242v-5.528h-4.242v-19.957c0-1.171.957-2.128 2.121-2.128h2.121zM195.832 37.162v28.824h-3.434v5.601h3.434v5.168c0 4.747 3.836 8.61 8.582 8.61h5.133v-6.453h-4.703a2.15 2.15 0 0 1-2.149-2.157v-5.168h6.852v-5.601h-6.852V37.162zm21.445 0v34.425h6.864v-3.894c4.007 4.996 11.304 5.777 16.281 1.738h.012l-4.872-6.035a6.847 6.847 0 0 1-9.691-.578 6.83 6.83 0 0 1-1.73-4.574V37.162zm54.883 14.629h-21.441v-.856a7.33 7.33 0 0 1 4.586-6.801 9.59 9.59 0 0 1 10.843 2.68l5.204-4.488a16.395 16.395 0 0 0-18.602-4.574 14.2 14.2 0 0 0-8.898 13.183v6.891c0 7.828 6.347 14.195 14.164 14.195 7.812 0 14.144-6.367 14.144-14.195zm-21.441 6.035h14.578c0 4.035-3.258 7.308-7.281 7.308-4.024 0-7.297-3.273-7.297-7.308m30.871 13.761h6.867V37.162h-6.867zm0 13.778h6.867v-6.891h-6.867z" style="fill:#000;fill-opacity:1;fill-rule:nonzero;stroke:none" transform="matrix(1.25 0 0 -1.25 0 331.008)"/><path d="M32.398 264.806C14.516 264.806 0 250.24 0 232.291V32.513C0 14.564 14.516.002 32.398.002h416c17.887 0 32.399 14.562 32.399 32.511v199.778c0 17.949-14.512 32.515-32.399 32.515zm0-.402h416.008c17.672 0 32-14.391 32-32.121V32.513c0-17.73-14.328-32.105-32-32.105H32.398C14.73.408.406 14.783.406 32.513v199.77c0 17.73 14.324 32.121 31.992 32.121" style="fill:#000;fill-opacity:1;fill-rule:nonzero;stroke:none" transform="matrix(1.25 0 0 -1.25 0 331.008)"/></svg>