<svg xmlns="http://www.w3.org/2000/svg" xml:space="preserve" width="421.001" height="232.002" viewBox="0 0 421.001 232.002"><path d="M22.652 185.204c-12.273 0-22.254-9.954-22.254-22.184V22.575C.398 10.348 10.379.403 22.652.403h291.496c12.274 0 22.25 9.945 22.25 22.172V163.02c0 12.23-9.976 22.184-22.25 22.184z" style="fill:#fff;fill-opacity:1;fill-rule:nonzero;stroke:none" transform="matrix(1.25 0 0 -1.25 0 232.003)"/><path d="M22.652 185.602C10.164 185.602 0 175.465 0 163.02V22.575C0 10.129 10.164 0 22.652 0h291.496c12.489 0 22.653 10.129 22.653 22.575V163.02c0 12.445-10.164 22.582-22.653 22.582zm0-.398h291.496c12.274 0 22.25-9.954 22.25-22.184V22.575c0-12.227-9.976-22.172-22.25-22.172H22.652C10.379.403.398 10.348.398 22.575V163.02c0 12.23 9.981 22.184 22.254 22.184" style="fill:#000;fill-opacity:1;fill-rule:nonzero;stroke:none" transform="matrix(1.25 0 0 -1.25 0 232.003)"/><path d="M22.645 14.118h291.496c4.644 0 8.41 3.75 8.41 8.379v140.605c0 4.629-3.766 8.379-8.41 8.379H22.645c-4.649 0-8.411-3.75-8.411-8.379V22.497c0-4.629 3.762-8.379 8.411-8.379m.398-7.981c-9.289 0-16.816 7.5-16.816 16.758V162.7c0 9.257 7.527 16.757 16.816 16.757H313.82c9.289 0 16.817-7.5 16.817-16.757V22.895c0-9.258-7.528-16.758-16.817-16.758" style="fill:#000;fill-opacity:1;fill-rule:nonzero;stroke:none" transform="matrix(1.25 0 0 -1.25 0 232.003)"/><path d="M254.289 43.684h-8.75c-8.699 0-15.754 7.051-15.754 15.75v42.879h-6.996v11.371h6.996v21.004h14v-21.004h10.504v-11.371h-10.504V61.188a4.376 4.376 0 0 1 4.379-4.375h6.125zM97.277 141.106l-14.769-12.75v-15.301l14.769 12.965V44.325h13.864v96.781zm94.93-96.785v12.492h-39.422l30.313 36.988c5.98 7.34 9.109 12.371 9.109 20.934 0 16.719-11.418 27.187-28.004 27.187-16.449 0-28.137-10.875-28.137-27.324h13.864c0 10.875 6.933 14.953 14.273 14.953 8.973 0 14.137-5.98 14.137-14.679 0-4.895-1.496-8.426-5.164-12.915L135.93 56.813V44.321z" style="fill:#000;fill-opacity:1;fill-rule:nonzero;stroke:none" transform="matrix(1.25 0 0 -1.25 0 232.003)"/></svg>