<?xml version="1.0" encoding="UTF-8" standalone="no"?>
<svg
   xmlns:dc="http://purl.org/dc/elements/1.1/"
   xmlns:cc="http://creativecommons.org/ns#"
   xmlns:rdf="http://www.w3.org/1999/02/22-rdf-syntax-ns#"
   xmlns:svg="http://www.w3.org/2000/svg"
   xmlns="http://www.w3.org/2000/svg"
   xmlns:sodipodi="http://sodipodi.sourceforge.net/DTD/sodipodi-0.dtd"
   xmlns:inkscape="http://www.inkscape.org/namespaces/inkscape"
   version="1"
   width="16"
   height="16"
   viewBox="0 0 12 12"
   id="svg22"
   sodipodi:docname="favicon.svg"
   inkscape:version="0.92.3 (2405546, 2018-03-11)">
  <metadata
     id="metadata28">
    <rdf:RDF>
      <cc:Work
         rdf:about="">
        <dc:format>image/svg+xml</dc:format>
        <dc:type
           rdf:resource="http://purl.org/dc/dcmitype/StillImage" />
      </cc:Work>
    </rdf:RDF>
  </metadata>
  <defs
     id="defs26" />
  <sodipodi:namedview
     pagecolor="#ffffff"
     bordercolor="#666666"
     borderopacity="1"
     objecttolerance="10"
     gridtolerance="10"
     guidetolerance="10"
     inkscape:pageopacity="0"
     inkscape:pageshadow="2"
     inkscape:window-width="3840"
     inkscape:window-height="2160"
     id="namedview24"
     showgrid="false"
     inkscape:zoom="59"
     inkscape:cx="5.0164991"
     inkscape:cy="8.3536148"
     inkscape:window-x="0"
     inkscape:window-y="0"
     inkscape:window-maximized="0"
     inkscape:current-layer="svg22" />
  <path
     fill="#333"
     d="M0 .003h12.008V12H0z"
     id="path2" />
  <g
     aria-label="v"
     style="font-weight:400;font-size:0.287px;line-height:1.25;font-family:'Yanone Kaffeesatz';letter-spacing:0;word-spacing:0;stroke-width:0.007"
     id="text6">
    <path
       d="m 0.228,3.745 1.105,5.486 c 0.078,0.364 0.234,0.65 0.611,0.65 0.273,0 0.754,-0.013 1.053,-0.065 l 1.3,-6.5 c -1.495,0 -1.495,0 -1.534,0.286 L 2.581,5.188 C 2.451,6.306 2.334,8.295 2.334,8.295 H 2.308 c 0,0 -0.117,-1.989 -0.26,-3.107 L 1.814,3.316 c -1.664,0 -1.677,0 -1.586,0.429 z"
       style="font-weight:700;font-size:13px;font-family:'Yanone Kaffeesatz';fill:#ffffff"
       id="path835" />
  </g>
  <g
     aria-label="h"
     style="font-weight:400;font-size:0.287px;line-height:1.25;font-family:'Yanone Kaffeesatz';letter-spacing:0;word-spacing:0;stroke-width:0.007"
     id="text10">
    <path
       d="M 7.843,0.94699977 V 9.8649998 c 1.456,0 1.456,0 1.456,-0.26 v -4.875 c 0.182,-0.117 0.351,-0.156 0.507,-0.156 0.39,0 0.416,0.403 0.416,0.793 v 4.498 c 1.417,0 1.508,0 1.508,-0.26 v -4.693 c 0,-1.105 -0.195,-1.677 -1.196,-1.677 -0.429,0 -0.936,0.156 -1.235,0.455 V 0.30999977 c -1.196,0 -1.456,0 -1.456,0.637 z"
       style="font-weight:700;font-size:13px;font-family:'Yanone Kaffeesatz';fill:#ffffff"
       id="path838" />
  </g>
  <g
     transform="translate(-.214 .57) scale(.9519)"
     id="g20">
    <circle
       r="2.808"
       cy="9.089"
       cx="6.17"
       fill="#e30513"
       stroke="#fff"
       stroke-width=".048"
       id="circle12" />
    <g
       fill="#fff"
       id="g18">
      <path
         d="M6.097 6.71c-.007.007-.012.027-.012.045 0 .032 0 .032-.049.032-.064 0-.072.012-.068.102l.003.072.057.003.057.003V7c0 .03-.004.034-.042.046a.47.47 0 0 0-.293.235.267.267 0 0 0-.037.153c0 .073-.003.08-.022.08a.05.05 0 0 0-.032.011.49.49 0 0 0 0 .215c.007.007.031.012.055.012h.043v1.391h-.109V7.871h-.825v1.272h-.075c-.111 0-.114.004-.114.18 0 .125.002.14.02.158.02.02.032.02 1.508.02 1.43 0 1.491 0 1.506-.018.014-.015.017-.042.017-.159 0-.172-.005-.18-.1-.18h-.059V7.87h-.825v1.272h-.12v-1.39h.049c.025 0 .052-.005.06-.012a.49.49 0 0 0 0-.215.047.047 0 0 0-.03-.012c-.015 0-.018-.009-.018-.059a.426.426 0 0 0-.298-.394c-.077-.028-.08-.03-.08-.06 0-.033 0-.033.053-.036l.051-.003.003-.078c.003-.09 0-.096-.064-.096h-.043V6.75c0-.026-.005-.041-.016-.045a.327.327 0 0 0-.151.006z"
         id="path14" />
      <path
         d="M5.142 7.33c-.032.044-.033.044-.092.044-.032 0-.058.004-.058.009 0 .005.004.032.011.059.011.048.01.05-.024.098l-.036.049.052.026c.05.024.053.027.065.081l.012.055.055-.024.055-.025.048.025.049.025.01-.038a.267.267 0 0 0 .01-.054c0-.01.02-.028.056-.045l.055-.028-.037-.048c-.035-.046-.036-.049-.025-.09.02-.074.018-.075-.046-.075-.057 0-.059-.001-.092-.045l-.035-.045a.587.587 0 0 0-.033.045zm1.998 0c-.032.044-.033.044-.092.044-.032 0-.059.004-.059.009 0 .005.005.032.012.059.011.048.01.05-.024.098l-.036.049.052.026c.05.024.053.027.065.081l.012.055.055-.024.055-.025.048.025.049.025.01-.038a.267.267 0 0 0 .01-.054c0-.01.02-.028.056-.045l.055-.028-.037-.048c-.035-.046-.036-.049-.025-.09.02-.074.018-.075-.046-.075-.057 0-.06-.001-.092-.045l-.035-.045a.587.587 0 0 0-.033.045zm-2.485 2.993c-.096.382-.175.7-.178.706-.003.01.133.013.663.013h.667v-.252c0-.283.01-.368.058-.469a.445.445 0 0 1 .175-.192.278.278 0 0 1 .239 0 .428.428 0 0 1 .2.253c.027.077.027.082.031.369l.004.29h.681c.541 0 .68-.002.677-.012-.003-.006-.082-.324-.178-.706l-.173-.693H4.827z"
         id="path16" />
    </g>
  </g>
</svg>
