<svg xmlns="http://www.w3.org/2000/svg" width="20" height="20"><defs><filter id="a" x="-.5" width="2" y="-.5" height="2" color-interpolation-filters="sRGB"><feGaussianBlur stdDeviation=".303"/></filter></defs><path d="M9.995 2.833c-.901-.014-.901 1.345 0 1.332h1.999v1.687l-3.735 3.11-1.3-3.464h.37c.901.013.901-1.346 0-1.333H4.664c-.9-.013-.9 1.346 0 1.333h.87L6.72 8.663a4.599 4.599 0 0 0-2.056-.5A4.674 4.674 0 0 0 0 12.827a4.674 4.674 0 0 0 4.664 4.665 4.674 4.674 0 0 0 4.664-4.665c0-.892-.267-1.72-.705-2.43l3.758-3.132.617 1.546c-1.389.81-2.337 2.299-2.337 4.016a4.674 4.674 0 0 0 4.664 4.665 4.674 4.674 0 0 0 4.664-4.665 4.674 4.674 0 0 0-4.664-4.664c-.377 0-.739.058-1.09.143l-.909-2.272V3.499a.666.666 0 0 0-.666-.666zm-5.33 6.663c.789 0 1.502.282 2.071.736l-2.499 2.083c-.68.569.17 1.591.854 1.025l2.499-2.082c.25.469.406.998.406 1.57a3.322 3.322 0 0 1-3.332 3.33 3.322 3.322 0 0 1-3.331-3.33 3.321 3.321 0 0 1 3.331-3.332zm10.66 0a3.322 3.322 0 0 1 3.332 3.331 3.322 3.322 0 0 1-3.332 3.332 3.322 3.322 0 0 1-3.331-3.332c0-1.168.595-2.188 1.499-2.782l1.213 3.03c.328.83 1.573.333 1.239-.495l-1.21-3.024c.192-.035.388-.06.59-.06z" fill="none" stroke-width="2" stroke="#fff" filter="url(#a)"/><path d="M9.995 2.833c-.901-.014-.901 1.345 0 1.332h1.999v1.687l-3.735 3.11-1.3-3.464h.37c.901.013.901-1.346 0-1.333H4.664c-.9-.013-.9 1.346 0 1.333h.87L6.72 8.663a4.599 4.599 0 0 0-2.056-.5A4.674 4.674 0 0 0 0 12.827a4.674 4.674 0 0 0 4.664 4.665 4.674 4.674 0 0 0 4.664-4.665c0-.892-.267-1.72-.705-2.43l3.758-3.132.617 1.546c-1.389.81-2.337 2.299-2.337 4.016a4.674 4.674 0 0 0 4.664 4.665 4.674 4.674 0 0 0 4.664-4.665 4.674 4.674 0 0 0-4.664-4.664c-.377 0-.739.058-1.09.143l-.909-2.272V3.499a.666.666 0 0 0-.666-.666zm-5.33 6.663c.789 0 1.502.282 2.071.736l-2.499 2.083c-.68.569.17 1.591.854 1.025l2.499-2.082c.25.469.406.998.406 1.57a3.322 3.322 0 0 1-3.332 3.33 3.322 3.322 0 0 1-3.331-3.33 3.321 3.321 0 0 1 3.331-3.332zm10.66 0a3.322 3.322 0 0 1 3.332 3.331 3.322 3.322 0 0 1-3.332 3.332 3.322 3.322 0 0 1-3.331-3.332c0-1.168.595-2.188 1.499-2.782l1.213 3.03c.328.83 1.573.333 1.239-.495l-1.21-3.024c.192-.035.388-.06.59-.06z" fill="#d93a3a"/></svg>