<svg xmlns="http://www.w3.org/2000/svg" width="25" height="25" viewBox="0 0 847.156 743.622"><path fill="#fff" d="M423.584.876c-9.394 0-18.784 3.584-25.948 10.748a36.682 36.682 0 0 0-5.884 7.69l-19.057 32.695h-.088L6.23 687.059c-.068.121-.121.244-.19.366a36.735 36.735 0 0 0-4.283 9.888c-5.243 19.57 6.373 39.692 25.948 44.936a36.547 36.547 0 0 0 9.673 1.25H809.96c20.269 0 36.694-16.427 36.694-36.695 0-6.63-1.767-12.852-4.849-18.223-.023-.039-.043-.077-.067-.121L461.284 27.946c-4.829-8.33-7.065-11.63-11.758-16.322C442.364 4.46 432.974.876 423.584.876z"/><path fill="#c1121c" d="M423.584 10.071c-8.906-.064-18.686 4.488-23.476 13.008L13.49 692.942c-2.231 4.56-3.169 8.525-3.198 13.062 0 8.12 3.593 15.825 9.81 21.05 5.478 4.242 10.668 6.45 17.65 6.45h772.383c4.713.043 9.434-1.089 13.721-3.917a26.94 26.94 0 0 0 13.013-23.032c-.23-4.867-1.43-10-3.599-13.613L446.88 22.966c-.034-.059-.079-.117-.112-.176a6.497 6.497 0 0 1-.118-.18c-1.371-2.193-3.09-4.131-5.049-5.791a27.49 27.49 0 0 0-16.03-6.645 24.694 24.694 0 0 0-1.987-.103zM37.754 733.504H35.85h1.942-.038zm385.43-590.669 294.628 510.669H128.14l295.044-510.669z"/><path d="M423.584.379c-9.521 0-19.038 3.632-26.299 10.893a37.177 37.177 0 0 0-5.966 7.793l-18.911 32.446h-.09L5.802 686.81c-.084.147-.142.274-.201.376a37.241 37.241 0 0 0-4.325 9.995c-5.313 19.839 6.464 40.24 26.299 45.553A37.353 37.353 0 0 0 37.377 744h772.584c20.537 0 37.198-16.66 37.198-37.197a37.03 37.03 0 0 0-4.918-18.466c-.015-.03-.033-.07-.068-.128L461.719 27.692c-4.839-8.33-7.119-11.703-11.836-16.42C442.623 4.012 433.1.38 423.582.38zm0 .497c9.39 0 18.78 3.584 25.942 10.748 4.693 4.692 6.929 7.992 11.758 16.322L841.739 688.46c.023.044.043.083.067.121a36.511 36.511 0 0 1 4.849 18.223c0 20.269-16.425 36.695-36.694 36.695H37.377a36.547 36.547 0 0 1-9.672-1.25C8.13 737.005-3.486 716.883 1.758 697.312a36.735 36.735 0 0 1 4.282-9.887c.069-.122.123-.245.19-.366l366.377-635.05h.088l19.057-32.695a36.682 36.682 0 0 1 5.884-7.69C404.8 4.46 414.19.876 423.584.876z"/><path fill-rule="evenodd" d="M478.584 568.128c0-42.34-45.835-68.804-82.5-47.632-36.67 21.167-36.67 74.092 0 95.259 36.665 21.171 82.5-5.289 82.5-47.627z"/><path fill="#008754" fill-rule="evenodd" d="M473.584 568.128c0-38.492-41.67-62.55-75-43.307-33.335 19.249-33.335 67.359 0 86.608 33.33 19.242 75-4.815 75-43.301z"/><path fill-rule="evenodd" d="M478.584 442.59c0-42.339-45.835-68.799-82.5-47.631-36.67 21.171-36.67 74.096 0 95.264 36.665 21.17 82.5-5.294 82.5-47.633z"/><path fill="#f0ca00" fill-rule="evenodd" d="M473.584 442.59c0-38.486-41.67-62.544-75-43.3-33.335 19.247-33.335 67.358 0 86.601 33.33 19.248 75-4.81 75-43.301z"/><path fill-rule="evenodd" d="M478.584 317.059c0-42.34-45.835-68.8-82.5-47.633-36.67 21.173-36.67 74.097 0 95.264 36.665 21.173 82.5-5.292 82.5-47.631z"/><path fill="#c1121c" fill-rule="evenodd" d="M473.584 317.059c0-38.491-41.67-62.545-75-43.301-33.335 19.242-33.335 67.358 0 86.6 33.33 19.25 75-4.808 75-43.3z"/></svg>