<svg xmlns="http://www.w3.org/2000/svg" width="15" height="15"><path d="M7.524 14.985a7.475 7.475 0 1 1 0-14.95 7.475 7.475 0 0 1 0 14.95z" fill="#f0c900" fill-rule="evenodd"/><path d="M14.667 7.51c0-4.01-3.272-7.142-7.144-7.142C3.65.368.38 3.5.38 7.51s3.27 7.143 7.142 7.143c3.872 0 7.144-3.133 7.144-7.143zm-1.994 0a5.15 5.15 0 1 1-10.298 0 5.15 5.15 0 0 1 10.298 0z" fill="#008754" fill-rule="evenodd"/><path d="M4.752 4.188a.052.052 0 0 0-.052.053v6.54c0 .028.024.051.052.051h1.39a.052.052 0 0 0 .053-.052V8.258h2.658v2.522c0 .029.023.052.052.052h1.39a.052.052 0 0 0 .053-.052V4.24a.052.052 0 0 0-.052-.052h-1.39a.052.052 0 0 0-.053.053v2.522H6.195V4.24a.052.052 0 0 0-.052-.053z" fill="#008754"/></svg>