<svg xmlns="http://www.w3.org/2000/svg" xmlns:svg="http://www.w3.org/2000/svg" id="svg5" width="15" height="15" version="1.1" viewBox="0 0 3.969 3.969" xml:space="preserve"><g id="layer1"><rect style="opacity:1;fill:#735139;fill-opacity:1;stroke:none;stroke-width:.0791796;stroke-linejoin:round;stroke-opacity:.4" id="rect3469" width="2.375" height=".522" x=".261" y=".007" ry=".261"/><rect style="opacity:1;fill:#735139;fill-opacity:1;stroke:none;stroke-width:.0591795;stroke-linejoin:round;stroke-opacity:.4" id="rect3575" width=".281" height=".718" x="1.308" y=".529" ry="0"/><rect style="opacity:1;fill:none;fill-opacity:1;stroke:#735139;stroke-width:.264583;stroke-linejoin:round;stroke-dasharray:none;stroke-opacity:1" id="rect4305" width="1.051" height="2.638" x=".923" y="1.197" ry=".083"/><path style="fill:none;stroke:#735139;stroke-width:.264583;stroke-linecap:round;stroke-linejoin:miter;stroke-dasharray:none;stroke-opacity:1" id="path6721" d="m 1.448454,3.3088663 c 1.1894406,0 1.0556783,0.1206235 1.0556783,-1.7170762 0,-0.5441994 0.7884425,-0.5274605 0.7884425,0.00783 0,0.1045481 -3.28e-4,0.4234986 -3.28e-4,0.4234986"/><rect style="opacity:1;fill:#735139;fill-opacity:1;stroke:none;stroke-width:.0460126;stroke-linecap:round;stroke-linejoin:round;stroke-dasharray:none;stroke-opacity:1" id="rect9678" width=".455" height=".483" x="3.062" y="1.982" ry=".041"/><path style="fill:none;stroke:#735139;stroke-width:.149231;stroke-linecap:butt;stroke-linejoin:miter;stroke-dasharray:.0746158,.0746158;stroke-dashoffset:0;stroke-opacity:1" id="path27408" d="M 3.0602911,2.602145 2.8140438,3.2148544"/><path style="fill:none;stroke:#735139;stroke-width:.149231;stroke-linecap:butt;stroke-linejoin:miter;stroke-dasharray:.0746158,.0746158;stroke-dashoffset:0;stroke-opacity:1" id="path27408-6" d="M 3.7659436,3.2012795 3.5196962,2.58857"/><path style="fill:none;stroke:#735139;stroke-width:.149231;stroke-linecap:butt;stroke-linejoin:miter;stroke-dasharray:.0746158,.0746158;stroke-dashoffset:0;stroke-opacity:1" id="path27408-5" d="m 3.2910988,2.7063831 -0.00382,0.661952"/><rect style="opacity:1;fill:#735139;fill-opacity:1;stroke:none;stroke-width:.580042;stroke-linecap:butt;stroke-linejoin:round;stroke-dasharray:none;stroke-dashoffset:0;stroke-opacity:1" id="rect39236" width="1.316" height=".262" x=".79" y="3.705" ry="0"/></g></svg>