<svg xmlns="http://www.w3.org/2000/svg" width="25" height="25" viewBox="0 0 847.159 743.623"><path fill="#fff" d="M423.574.875c9.39 0 18.785 3.584 25.947 10.748a36.64 36.64 0 0 1 5.884 7.69l19.058 32.696h.088l366.377 635.048c.068.122.122.244.19.367a36.71 36.71 0 0 1 4.282 9.887c5.245 19.57-6.371 39.693-25.946 44.936a36.55 36.55 0 0 1-9.674 1.25H37.198c-20.27 0-36.696-16.426-36.696-36.695 0-6.63 1.768-12.85 4.85-18.222a.928.928 0 0 0 .063-.121L385.874 27.946c4.83-8.331 7.066-11.631 11.757-16.324C404.795 4.46 414.185.875 423.574.875z"/><path fill="#c1121c" d="M423.574 10.07c8.906-.064 18.687 4.487 23.477 13.007l386.617 669.864c2.23 4.56 3.168 8.525 3.197 13.061 0 8.12-3.594 15.825-9.809 21.05-5.479 4.243-10.67 6.45-17.652 6.45H37.02c-4.711.044-9.434-1.088-13.72-3.916a26.94 26.94 0 0 1-13.013-23.032c.23-4.868 1.43-10 3.598-13.613L400.28 22.965c.034-.059.072-.117.112-.175.039-.059.078-.117.116-.181 1.373-2.193 3.092-4.131 5.05-5.791a27.49 27.49 0 0 1 16.03-6.645 24.692 24.692 0 0 1 1.987-.103zm385.83 723.433h1.905-1.944.039zm-385.429-590.67-294.629 510.67H719.02l-295.044-510.67z"/><path d="M423.574.377c9.522 0 19.038 3.633 26.298 10.894a37.174 37.174 0 0 1 5.968 7.793l18.911 32.446h.088l366.518 635.297c.083.148.142.274.2.377a37.204 37.204 0 0 1 4.327 9.995c5.312 19.839-6.465 40.235-26.299 45.552A37.363 37.363 0 0 1 809.78 744H37.198C16.66 744 0 727.34 0 706.803a37.033 37.033 0 0 1 4.918-18.467c.013-.023.033-.063.062-.122L385.435 27.696c4.839-8.335 7.119-11.703 11.835-16.425C404.531 4.01 414.052.378 423.569.378h.005zm0 .498c-9.389 0-18.779 3.584-25.943 10.747-4.691 4.693-6.927 7.993-11.757 16.324L5.42 688.46c-.025.044-.044.082-.069.121a36.511 36.511 0 0 0-4.848 18.222c0 20.27 16.426 36.695 36.694 36.695H809.78a36.55 36.55 0 0 0 9.674-1.25c19.575-5.243 31.191-25.366 25.946-44.936a36.554 36.554 0 0 0-4.281-9.887c-.069-.123-.123-.245-.192-.367L474.552 52.01h-.089l-19.057-32.697a36.64 36.64 0 0 0-5.884-7.69C442.36 4.46 432.97.875 423.574.875z"/><path d="m428.506 615.631 41.635-49.731c2.31-1.157 4.629-3.468 6.939-3.468l8.096-3.47c4.629-1.158 9.253-4.63 12.724-8.097l28.911-33.535c12.72-16.191 35.85-17.349 50.884-4.629 2.31 1.158 4.629 3.473 5.781 5.781l75.177 97.144c2.31 3.472 2.31 8.097-1.163 10.41-1.157 1.158-3.466 2.31-4.624 2.31H434.288c-4.63 0-6.94-3.467-6.94-8.096 0-1.156 0-3.466 1.158-4.624v.005zM484.02 335.76c0 15.034-12.72 27.759-27.754 27.759-15.035 0-27.759-12.725-27.759-27.76 0-15.034 12.724-26.597 27.759-26.597 15.034 0 27.754 11.563 27.754 26.598zM333.676 452.565l40.474-76.329h-28.911L327.89 408.62l17.348 15.034-5.781 10.405-17.348-13.877-8.091 15.034c-12.725-6.939-17.349-23.13-10.41-34.692l20.815-40.479c3.467-5.781 9.252-9.253 16.191-9.253h64.761c16.191 0 28.916 12.725 28.916 28.917v2.308l-6.938 108.712 68.232 57.822c-2.31 2.31-5.781 4.629-10.41 6.939l-58.98-49.727-1.157 12.72c-13.882-1.158-24.287-12.72-23.13-26.597V486.1l-17.349-13.877 5.781-10.405 12.72 9.248 2.315-45.102-26.601 50.889-45.103-24.288h.004zm75.171 175.786c-16.19 0-30.068-12.72-30.068-28.911l-2.309-61.294-30.069-46.26-72.861 136.465c-13.878-8.096-19.659-25.445-11.563-40.479l68.233-128.368 45.102 23.13 28.912 45.102c0 1.156 1.157 2.309 1.157 3.471"/></svg>