<svg xmlns="http://www.w3.org/2000/svg" height="25" width="75"><defs><clipPath id="a" clipPathUnits="userSpaceOnUse"><path d="M0 0h788v263H0z"/></clipPath><clipPath id="b" clipPathUnits="userSpaceOnUse"><path d="M0 0h788v263H0z"/></clipPath><clipPath id="c" clipPathUnits="userSpaceOnUse"><path d="M5.008 262.5H788V-.5H5.008z"/></clipPath><clipPath id="d" clipPathUnits="userSpaceOnUse"><path d="M5 0h783v263H5z"/></clipPath><clipPath id="e" clipPathUnits="userSpaceOnUse"><path d="M5.008 263H788V0H5.008z"/></clipPath><clipPath id="f" clipPathUnits="userSpaceOnUse"><path d="M71 45h645v137H71z"/></clipPath><clipPath id="g" clipPathUnits="userSpaceOnUse"><path d="M0 0h788v263H0z"/></clipPath><clipPath id="h" clipPathUnits="userSpaceOnUse"><path d="M7 8h774v248H7z"/></clipPath></defs><g clip-path="url(#a)" transform="matrix(.09523 0 0 -.09523 0 25.046)"><g clip-path="url(#b)"><path d="M30.008.5C13.438.5 0 14.082 0 30.844v201.812C0 249.418 13.438 263 30.008 263h727.496c16.57 0 29.996-13.582 29.996-30.344V30.844C787.5 14.082 774.074.5 757.504.5z" fill="#f0c900"/></g></g><g clip-path="url(#c)" transform="matrix(.09523 0 0 -.09523 0 24.999)"><g clip-path="url(#d)" transform="translate(0 -.5)"><g clip-path="url(#e)"><g fill="#231f20" clip-path="url(#f)"><path d="M71.895 181.078h15.679v-68.109c0-11.844 9.5-21.453 21.215-21.453 11.707 0 21.207 9.609 21.207 21.453v68.109h15.684v-68.109c0-20.602-16.516-37.309-36.891-37.309s-36.894 16.707-36.894 37.309v68.109M165.969 76.59v74.637h14.75v-8.422c8.652 10.828 24.32 12.504 35.023 3.761a25.329 25.329 0 0 0 4.414-4.683c9.676 11.965 27.098 13.746 38.93 3.965 6.434-5.321 10.176-13.274 10.176-21.676V76.59H254.5v45.715c0 8.242-6.605 14.922-14.758 14.922-8.144 0-14.75-6.68-14.75-14.922V76.59h-14.758v45.715c0 8.242-6.605 14.922-14.757 14.922-8.149 0-14.758-6.68-14.758-14.922V76.59h-14.75m149.394 0h-9.215c-9.171 0-16.601 7.515-16.601 16.789v87.699h14.746V95.242c0-2.57 2.07-4.66 4.621-4.66h6.449V76.59m75.629 31.723h-46.121v-1.872c0-6.48 3.906-12.32 9.859-14.722 8.2-3.321 17.579-.996 23.336 5.785l11.192-9.723c-9.86-11.629-25.942-15.609-40.004-9.926-11.559 4.676-19.129 15.993-19.129 28.586v14.934c0 17.004 13.617 30.781 30.426 30.781 16.808 0 30.441-13.777 30.441-30.781zm-46.121 13.062h31.359c0 8.758-7.015 15.852-15.679 15.852-8.653 0-15.68-7.094-15.68-15.852m81.152-44.785h-14.75v74.644h14.75zm0 89.566h-14.75v14.926h14.75zm53.5-89.566h-9.23c-9.164 0-16.59 7.515-16.59 16.789v45.726h-7.387v12.122h7.387v22.39h14.746v-22.39h11.074v-12.122h-11.074V95.242c0-2.57 2.074-4.66 4.61-4.66h6.464V76.59m75.61 0h-14.746v8.418c-8.641-10.82-24.324-12.496-35.024-3.754-5.843 4.785-9.238 11.984-9.238 19.598v50.375h14.742v-45.711c0-8.254 6.61-14.934 14.762-14.934 8.144 0 14.758 6.68 14.758 14.934v45.711h14.746V76.59m22.137 0v74.637h14.757v-8.422c8.645 10.828 24.325 12.504 35.016 3.761 5.852-4.785 9.25-11.98 9.25-19.597V76.59h-14.746v45.715c0 8.242-6.617 14.922-14.758 14.922-8.16 0-14.762-6.68-14.762-14.922V76.59H577.27m138.335 74.637V75.66c0-11.308-6.312-21.656-16.308-26.715-14.109-7.129-31.207-3.398-41.152 8.989l11.449 9.41c5.586-6.953 15.183-9.039 23.097-5.047 5 2.535 8.157 7.703 8.157 13.363v9.348c-8.641-10.82-24.325-12.496-35.016-3.754-5.848 4.785-9.25 11.984-9.25 19.598v26.117c0 13.91 11.148 25.187 24.895 25.187 7.531 0 14.644-3.429 19.371-9.351v8.422zm-14.757-45.711v16.789c0 8.242-6.606 14.922-14.75 14.922-8.157 0-14.758-6.68-14.758-14.922v-16.789c0-8.254 6.601-14.934 14.758-14.934 8.144 0 14.75 6.68 14.75 14.934"/></g></g></g></g><g clip-path="url(#g)" transform="matrix(.09523 0 0 -.09523 0 25.046)"><g clip-path="url(#h)"><path d="M30.008 255.414c-12.434 0-22.516-10.191-22.516-22.758V30.844c0-12.567 10.082-22.758 22.516-22.758h727.496c12.426 0 22.5 10.191 22.5 22.758v201.812c0 12.567-10.074 22.758-22.5 22.758zm0-11.383h727.496c6.207 0 11.246-5.097 11.246-11.375V30.844c0-6.278-5.039-11.375-11.246-11.375H30.008c-6.219 0-11.254 5.097-11.254 11.375v201.812c0 6.278 5.035 11.375 11.254 11.375z"/></g></g></svg>
