<svg xmlns="http://www.w3.org/2000/svg" viewBox="0 0 847.156 743.622" width="25" height="25"><path d="M423.584.876c-9.394 0-18.784 3.584-25.948 10.748a36.682 36.682 0 00-5.884 7.69l-19.057 32.695h-.088L6.23 687.059c-.068.121-.121.244-.19.366a36.735 36.735 0 00-4.283 9.888c-5.243 19.57 6.373 39.692 25.948 44.936a36.547 36.547 0 009.672 1.25h772.584c20.269 0 36.694-16.426 36.694-36.695 0-6.63-1.767-12.851-4.849-18.223-.024-.038-.044-.077-.067-.121L461.284 27.946c-4.829-8.33-7.065-11.63-11.758-16.322C442.364 4.46 432.974.876 423.584.876z" fill="#fff"/><path d="M423.584 10.071c-8.906-.064-18.686 4.488-23.476 13.008L13.49 692.943c-2.231 4.56-3.169 8.525-3.199 13.06 0 8.12 3.594 15.826 9.81 21.05 5.48 4.243 10.67 6.45 17.652 6.45h772.382c4.713.045 9.434-1.088 13.721-3.915a26.94 26.94 0 0013.013-23.033c-.23-4.867-1.43-10-3.599-13.612L446.88 22.966c-.034-.058-.079-.117-.112-.176a6.497 6.497 0 01-.118-.18c-1.371-2.192-3.09-4.131-5.049-5.791a27.49 27.49 0 00-16.03-6.645 24.694 24.694 0 00-1.987-.103zM37.754 733.504H35.85h1.942-.038zm385.43-590.669l294.628 510.669H128.14l295.044-510.669z" fill="#c1121c"/><path d="M423.584.379c-9.521 0-19.038 3.632-26.299 10.893a37.177 37.177 0 00-5.966 7.793l-18.911 32.446h-.09L5.802 686.81c-.083.147-.142.274-.201.376a37.241 37.241 0 00-4.325 9.995c-5.312 19.839 6.464 40.24 26.299 45.553A37.353 37.353 0 0037.378 744H809.96c20.537 0 37.198-16.66 37.198-37.197a37.03 37.03 0 00-4.918-18.466c-.015-.03-.033-.07-.068-.128L461.719 27.692c-4.839-8.33-7.119-11.703-11.837-16.42C442.622 4.012 433.1.38 423.584.38zm0 .497c9.39 0 18.78 3.584 25.942 10.748 4.693 4.692 6.929 7.992 11.758 16.322L841.739 688.46c.023.044.043.083.067.121a36.511 36.511 0 014.849 18.223c0 20.269-16.425 36.695-36.694 36.695H37.377a36.547 36.547 0 01-9.672-1.25C8.13 737.005-3.486 716.883 1.758 697.313a36.735 36.735 0 014.282-9.888c.069-.122.123-.245.19-.366l366.377-635.05h.088l19.057-32.695a36.682 36.682 0 015.884-7.69C404.8 4.46 414.19.876 423.584.876z"/><path d="M524.88 620.28h-42.72V488.06l-41.054-41.067V318.68h42.452l.403 110.468 40.463 40.331zM323.814 620.28h42.717V488.06l41.053-41.067V318.68h-42.452l-.402 110.468-40.463 40.331z" fill-rule="evenodd"/></svg>
