<svg xmlns="http://www.w3.org/2000/svg" width="25" height="25" viewBox="0 0 600.995 600.995"><path fill="#fff" d="M600.498 300.502c0 165.69-134.312 300-300 300s-300-134.31-300-300c0-165.687 134.312-300 300-300s300 134.313 300 300z"/><path d="M300.498.005C134.54.005 0 134.546 0 300.503S134.541 601 300.498 601 600.995 466.46 600.995 300.503 466.455.005 300.497.005zm0 .497c165.688 0 300 134.313 300 300 0 165.69-134.312 300-300 300s-300-134.31-300-300c0-165.687 134.312-300 300-300z"/><path fill="#c1121c" d="M300.498 10.502c-159.683 0-290 130.318-290 290 0 159.684 130.317 290 290 290s290-130.316 290-290c0-159.682-130.317-290-290-290zm0 80.402c116.236 0 209.6 93.363 209.6 209.598 0 116.237-93.364 209.6-209.6 209.6-116.235 0-209.6-93.363-209.6-209.6 0-116.235 93.365-209.598 209.6-209.598z"/><path d="M323.757 204.21a21.937 21.937 0 0 0-20.953 15.449v-.002c-10.552 34.091-22.002 71.036-32.578 105.198H192.62l-42.818-46.888-3.001 9.692-.043.135-5.493 17.747a37.545 37.545 0 0 0-5.666-.429c-20.595 0-37.29 16.695-37.29 37.288 0 20.595 16.695 37.29 37.29 37.29 20.594 0 37.288-16.695 37.288-37.29a37.29 37.29 0 0 0-21.124-33.603l-10.927 35.225 7.633-24.58a26.32 26.32 0 0 1 13.452 22.958c0 14.539-11.785 26.323-26.322 26.323-14.538 0-26.323-11.784-26.323-26.323 0-14.537 11.785-26.322 26.323-26.322.791 0 1.583.037 2.373.107l-7.611 24.592a5.485 5.485 0 1 0 10.476 3.245l13.784-44.536 33.183 36.335H381.92l15.815.002c5.212 25.532 27.672 43.867 53.73 43.867 30.284 0 54.837-24.551 54.837-54.837 0-30.286-24.553-54.838-54.838-54.838-5.772 0-11.508.912-16.997 2.7l-15.905-35.603 4.11-10.967h12.338v-10.967l-46.63.043a2.72 2.72 0 0 0-.635 5.365l23.215 5.56c-7.95 21.199-16.126 42.246-23.995 63.516H342.97l-37.48-41.582h-.054l3.45-10.968 4.395-14.212a10.967 10.967 0 0 1 10.476-7.722h18.032V204.21zm89.322 47.521 11.353 25.41a54.835 54.835 0 0 0-27.806 47.712H385.66Zm-111.336 8.442 58.196 64.68h-78.252l20.026-64.58zm149.721 20.81c24.23 0 43.87 19.64 43.87 43.87 0 24.229-19.64 43.87-43.87 43.87-20.004 0-37.475-13.532-42.477-32.901v-.001l45.198.043a5.527 5.527 0 0 0 5.051-7.772l-20.273-45.29a43.857 43.857 0 0 1 12.501-1.82zm-22.53 6.227 16.815 37.643h-38.155a43.87 43.87 0 0 1 21.34-37.643zm-76.078 13.42h30.052l-8.743 23.639z"/><path d="m290.751 243.693-23.77 76.773h-72.342L144.72 265.79c16.22-24.218 77.818-23.8 146.03-22.097"/></svg>