<svg width="19.142" height="19.142" viewBox="0 0 460.18 460.18" xmlns="http://www.w3.org/2000/svg"><g stroke-width=".766"><path d="M30.946.379h398.12c16.919 0 30.624 13.705 30.624 30.624v398.12c0 16.919-13.705 30.624-30.624 30.624H30.946c-16.919 0-30.624-13.705-30.624-30.624V31.003C.322 14.083 14.027.379 30.946.379" fill="#fff"/><path d="M30.946 8.035c-12.688 0-22.968 10.292-22.968 22.968v398.12c0 12.688 10.28 22.964 22.968 22.964h398.12c12.688 0 22.964-10.276 22.964-22.964V31.003c0-12.676-10.276-22.968-22.964-22.968zm0 11.484h398.12c6.345 0 11.484 5.14 11.484 11.484v398.12c0 6.348-5.14 11.484-11.484 11.484H30.946c-6.345 0-11.484-5.136-11.484-11.484V31.003c0-6.345 5.14-11.484 11.484-11.484z"/><path d="M30.946 19.519h398.12c6.345 0 11.484 5.14 11.484 11.484v398.12c0 6.345-5.14 11.484-11.484 11.484H30.946c-6.345 0-11.484-5.14-11.484-11.484V31.003c0-6.345 5.14-11.484 11.484-11.484z" fill="none" stroke="#000"/><path d="M30.946-.004C13.819-.004-.061 13.877-.061 31.003v398.12c0 17.122 13.88 31.007 31.007 31.007h398.12c17.122 0 31.007-13.885 31.007-31.007V31.003c0-17.127-13.885-31.007-31.007-31.007zm0 .383h398.12c16.919 0 30.624 13.705 30.624 30.624v398.12c0 16.919-13.705 30.624-30.624 30.624H30.946c-16.919 0-30.624-13.705-30.624-30.624V31.003C.322 14.083 14.027.379 30.946.379z"/><path d="M61.57 57.8h336.87a3.83 3.83 0 0 1 3.828 3.828v336.87a3.83 3.83 0 0 1-3.828 3.828H61.57a3.83 3.83 0 0 1-3.828-3.828V61.628A3.83 3.83 0 0 1 61.57 57.8" fill="#008754"/><path d="M212.78 174.03v8.614l-14.168-.013a8.608 8.608 0 0 0-8.226 6.065l-3.446 11.174h76.932l3.23-8.613-18.232-4.359a2.146 2.146 0 0 1 .503-4.231l36.618-.024v8.614h-9.69l-3.23 8.613 12.489 27.949a42.974 42.974 0 0 1 13.346-2.121c23.786 0 43.066 19.279 43.066 43.065 0 23.782-19.28 43.066-43.066 43.066-20.465 0-38.101-14.403-42.197-34.456l-18.096.005a8.613 8.613 0 0 1-6.395-2.847l-50.91-56.472-3.424 11.046a43.07 43.07 0 0 1 26.277 39.659c0 23.782-19.28 43.066-43.065 43.066s-43.066-19.283-43.066-43.066c0-23.786 19.28-43.066 43.066-43.066 2.874 0 5.742.287 8.557.857l12.5-40.407a17.225 17.225 0 0 1 16.458-12.129zm-28.507 34.452 53.931 59.834 22.438-59.834zm62.959 60.293 8.61-.012a43.071 43.071 0 0 1 21.835-37.471l-8.912-19.946zm-80.138-33.931-.005-.01a34.671 34.671 0 0 0-5.993-.524c-19.03 0-34.452 15.423-34.452 34.452 0 19.03 15.423 34.452 34.452 34.452s34.452-15.423 34.452-34.452a34.452 34.452 0 0 0-20.228-31.382l-10.093 32.662a4.323 4.323 0 0 1-4.131 3.047 4.327 4.327 0 0 1-4.132-5.607zm97.36 33.919.005.012h29.962L281.21 239.2a34.465 34.465 0 0 0-16.755 29.563zm1.096 8.625v-.011c3.928 15.212 17.645 25.839 33.356 25.839 19.03 0 34.452-15.423 34.452-34.452 0-19.03-15.423-34.452-34.452-34.452a34.46 34.46 0 0 0-9.809 1.424l15.866 35.604a4.287 4.287 0 0 1-3.912 6.038l-35.501.011m-145.03 93.545 15.312-45.17h83.451l-3.062 45.17H120.52m123.26 0-3.063-45.17h83.452l15.312 45.17h-95.7m-55.89-209.78 21.436-71.967h16.843l-2.297 71.967H187.89m48.233 0-2.296-71.967h16.843l21.437 71.967h-35.984" fill="#fff"/></g></svg>
