<svg xmlns="http://www.w3.org/2000/svg" width="15" height="15"><g fill-rule="evenodd" clip-rule="evenodd"><path fill="#008d4f" d="M15 7.5C15 3.363 11.637 0 7.5 0A7.507 7.507 0 0 0 0 7.5C0 11.637 3.363 15 7.5 15c4.137 0 7.5-3.363 7.5-7.5"/><path fill="#fff" d="M12.423 9.495c0 1.818-1.764 3.933-4.734 3.933-1.656 0-3.567-.744-4.611-1.68V9.387c.99 1.425 2.793 2.523 4.611 2.523 1.113 0 2.007-.636 2.007-1.317 0-2.562-6.714-.978-6.714-5.397 0-2.319 2.265-3.567 4.299-3.567 1.695 0 3.213.555 4.422 1.491v1.968C10.659 3.96 9.087 2.97 7.242 2.97c-1.044 0-1.641.555-1.641 1.206 0 2.742 6.822.816 6.822 5.319"/></g></svg>