<svg xmlns="http://www.w3.org/2000/svg" xmlns:svg="http://www.w3.org/2000/svg" id="svg8" width="19" height="19" version="1.1" viewBox="0 0 19 19"><title id="title2">bicycle-share.svg</title><rect id="rect4" width="19" height="19" x="0" y="0" fill="none"/><path id="path6" fill="#475bcc" d="m 12.388603,2.0673531 c -0.63815,0 -1.155441,0.517291 -1.155441,1.1554412 0,0.6381501 0.517291,1.1554411 1.155441,1.1554411 0.63815,0 1.155441,-0.517291 1.155441,-1.1554411 0,-0.6381502 -0.517291,-1.1554412 -1.155441,-1.1554412 z M 10.244682,4.3714183 C 10.094474,4.371996 9.950391,4.4311546 9.842935,4.5361842 L 6.7918771,7.424787 C 6.5312095,7.670665 6.554896,8.0920543 6.8415613,8.3071975 l 2.0807182,1.5593834 v 3.1774631 c -0.011555,0.781309 1.1665335,0.781309 1.1554405,0 V 9.5777205 C 10.078067,9.3958541 9.9927953,9.2245022 9.8475567,9.1150819 L 8.9606401,8.4493168 11.061232,6.4605714 11.925964,7.6142795 c 0.109421,0.1453544 0.280772,0.230626 0.462639,0.2302793 h 1.733162 c 0.781193,0.011555 0.781193,-1.1665333 0,-1.1554411 H 12.677463 L 11.810882,5.5336765 11.11808,4.6083992 C 11.013974,4.4655867 10.850133,4.3782354 10.673466,4.3714183 Z M 4.3005148,9 c -1.9144504,0 -3.46632344,1.551989 -3.46632344,3.466323 0,1.914335 1.55187304,3.466324 3.46632344,3.466324 1.9144505,0 3.4663235,-1.551989 3.4663235,-3.466324 C 7.7668383,10.551989 6.2149653,9 4.3005148,9 Z M 14.699485,9 c -1.91445,0 -3.466323,1.551989 -3.466323,3.466323 0,1.914335 1.551873,3.466324 3.466323,3.466324 1.914451,0 3.466324,-1.551989 3.466324,-3.466324 C 18.165809,10.551989 16.613936,9 14.699485,9 Z M 4.3005148,10.155441 c 1.2763003,0 2.3108823,1.034582 2.3108823,2.310882 0,1.276301 -1.034582,2.310882 -2.3108823,2.310882 -1.2763003,0 -2.3108823,-1.034581 -2.3108823,-2.310882 0,-1.2763 1.034582,-2.310882 2.3108823,-2.310882 z m 10.3989702,0 c 1.2763,0 2.310882,1.034582 2.310882,2.310882 0,1.276301 -1.034582,2.310882 -2.310882,2.310882 -1.2763,0 -2.310882,-1.034581 -2.310882,-2.310882 0,-1.2763 1.034582,-2.310882 2.310882,-2.310882 z" style="fill:#d7001c;fill-opacity:1;stroke-width:.5;stroke:#fff;stroke-opacity:.39910638;opacity:1;stroke-dasharray:none;paint-order:markers stroke fill"/></svg>