<svg xmlns="http://www.w3.org/2000/svg" viewBox="0 0 847.1546 743.62537" width="25" height="25">
  <defs />
  <path d="m 338.867,594.502 c -7.512,0 -15.023,-2.867 -20.758,-8.598 -1.882,-1.879 -3.449,-3.953 -4.711,-6.152 l -15.246,-26.156 -0.066,0 L 4.98,45.553 C 4.93,45.459 4.887,45.365 4.832,45.264 3.348,42.873 2.176,40.221 1.398,37.353 -2.789,21.697 6.504,5.599 22.16,1.404 c 2.59,-0.695 5.188,-1.012 7.738,-1 l 618.075,0 c 16.211,0 29.351,13.141 29.351,29.356 0,5.297 -1.418,10.281 -3.879,14.578 -0.019,0.035 -0.043,0.062 -0.05,0.097 L 369.023,572.846 c -3.863,6.664 -5.648,9.304 -9.402,13.058 -5.73,5.731 -13.242,8.598 -20.754,8.598 z" fill="#fff" transform="matrix(1.25 0 0 -1.25 0 744)" />
  <path d="m 338.867,587.146 c -7.125,0.051 -14.953,-3.593 -18.781,-10.398 L 10.789,40.849 C 9.008,37.201 8.258,34.029 8.234,30.4 8.234,23.904 11.105,17.74 16.082,13.553 20.469,10.166 24.617,8.4 30.203,8.4 l 617.906,0 c 3.77,-0.035 7.543,0.871 10.981,3.133 6.441,3.895 10.398,10.883 10.406,18.426 -0.184,3.894 -1.148,8 -2.879,10.89 L 357.504,576.83 c -0.031,0.047 -0.059,0.094 -0.094,0.141 -0.027,0.046 -0.062,0.086 -0.09,0.144 -1.097,1.758 -2.472,3.305 -4.047,4.633 -3.582,3.109 -8.078,4.976 -12.816,5.309 -0.531,0.054 -1.062,0.085 -1.59,0.089 z M 30.203,8.4 l -1.523,0 1.554,0 -0.031,0 z M 338.547,480.928 574.25,72.4 l -471.738,0 236.035,408.528 z" fill="#c1121c" transform="matrix(1.25 0 0 -1.25 0 744)" />
  <path d="m 338.867,594.9 c -7.617,0 -15.23,-2.906 -21.039,-8.722 -1.906,-1.895 -3.492,-4.004 -4.773,-6.227 l -15.129,-25.957 -0.074,0 L 4.641,45.756 C 4.574,45.639 4.523,45.537 4.477,45.455 2.973,43.033 1.797,40.353 1.02,37.459 -3.23,21.588 6.191,5.271 22.059,1.017 24.68,0.314 27.316,-0.006 29.898,0.002 l 618.075,0 c 16.425,0 29.75,13.328 29.75,29.758 0,5.375 -1.438,10.414 -3.934,14.773 -0.016,0.016 -0.023,0.051 -0.047,0.098 L 369.379,573.045 c -3.871,6.668 -5.695,9.363 -9.473,13.133 -5.808,5.816 -13.426,8.722 -21.035,8.722 l -0.004,0 z m 0,-0.398 c 7.512,0 15.024,-2.867 20.754,-8.598 3.754,-3.754 5.539,-6.394 9.402,-13.058 L 673.391,44.435 c 0.011,-0.035 0.035,-0.062 0.054,-0.097 2.461,-4.297 3.879,-9.281 3.879,-14.578 0,-16.215 -13.14,-29.356 -29.351,-29.356 l -618.075,0 C 27.348,0.392 24.75,0.709 22.16,1.404 6.504,5.599 -2.789,21.697 1.398,37.353 c 0.77,2.868 1.95,5.52 3.434,7.911 0.055,0.101 0.098,0.195 0.148,0.289 l 293.106,508.043 0.066,0 15.246,26.156 c 1.262,2.199 2.829,4.273 4.711,6.152 5.735,5.731 13.239,8.598 20.758,8.598 z" transform="matrix(1.25 0 0 -1.25 0 744)" />
  <path d="m 350.898,149.381 c 0,2.394 0.79,4.746 2.227,6.664 l 2.203,2.957 c 1.563,2.062 2.871,4.312 3.891,6.687 l 14.629,33.637 c 1.476,3.395 4.804,5.563 8.468,5.563 l 92.426,0 c 3.684,0 7.012,-2.168 8.488,-5.563 l 14.61,-33.637 c 1.039,-2.375 2.351,-4.625 3.89,-6.687 l 2.227,-2.957 c 1.434,-1.918 2.227,-4.27 2.227,-6.664 l 0,-24.059 c 0,-5.101 -4.141,-9.246 -9.262,-9.246 l -136.785,0 c -5.098,0 -9.239,4.145 -9.239,9.246 l 0,24.059 z m 17.559,14.808 120.164,0 -12.715,29.223 c -0.582,1.352 -1.914,2.227 -3.39,2.227 l -87.954,0 c -1.476,0 -2.808,-0.875 -3.39,-2.227 l -12.715,-29.223 z m -8.32,-51.82 22.179,0 0,-20.352 c 0,-3.058 -2.476,-5.539 -5.535,-5.539 l -11.09,0 c -3.058,0 -5.554,2.481 -5.554,5.539 l 0,20.352 z m 114.605,0 22.18,0 0,-20.352 c 0,-3.058 -2.473,-5.539 -5.535,-5.539 l -11.09,0 c -3.059,0 -5.555,2.481 -5.555,5.539 l 0,20.352 z" transform="matrix(1.25 0 0 -1.25 0 744)" />
  <path d="m 285.898,200.342 c 0,2.043 0.668,4.043 1.895,5.687 l 1.895,2.52 c 1.308,1.769 2.433,3.664 3.308,5.707 l 12.461,28.66 c 1.25,2.875 4.102,4.746 7.223,4.746 l 78.797,0 c 3.14,0 5.972,-1.871 7.218,-4.746 l 12.465,-28.66 c 0.895,-2.043 1.996,-3.938 3.328,-5.707 l 0.938,-1.25 -33.106,0 c -4.64,0 -8.82,-2.75 -10.675,-7 l -12.317,-28.344 -65.543,0 c -4.347,0 -7.887,3.519 -7.887,7.891 l 0,20.496 z m 14.961,12.621 102.434,0 -10.84,24.91 c -0.5,1.148 -1.621,1.898 -2.891,1.898 l -74.968,0 c -1.25,0 -2.395,-0.75 -2.895,-1.898 l -10.84,-24.91 z m -7.074,-44.176 18.895,0 0,-17.348 c 0,-2.605 -2.102,-4.73 -4.727,-4.73 l -9.445,0 c -2.621,0 -4.723,2.125 -4.723,4.73 l 0,17.348 z" transform="matrix(1.25 0 0 -1.25 0 744)" />
  <path d="m 228.125,245.642 c 0,1.727 0.559,3.415 1.602,4.809 l 1.601,2.125 c 1.125,1.5 2.059,3.125 2.809,4.832 l 10.551,24.266 c 1.058,2.437 3.453,4 6.093,4 l 66.668,0 c 2.664,0 5.055,-1.563 6.117,-4 l 10.551,-24.266 c 0.746,-1.707 1.684,-3.332 2.809,-4.832 l 1.601,-2.125 0.25,-0.375 -26.093,0 c -4.098,0 -7.801,-2.434 -9.426,-6.184 l -9.676,-22.285 -58.801,0 c -3.66,0 -6.656,2.996 -6.656,6.684 l 0,17.351 z m 12.672,10.684 86.66,0 -9.176,21.078 c -0.414,0.981 -1.371,1.606 -2.433,1.606 l -63.442,0 c -1.062,0 -2.019,-0.625 -2.457,-1.606 l -9.152,-21.078 z m -6.016,-37.387 16,0 0,-14.683 c 0,-2.207 -1.789,-4 -3.992,-4 l -7.992,0 c -2.203,0 -4.016,1.793 -4.016,4 l 0,14.683 z" transform="matrix(1.25 0 0 -1.25 0 744)" />
</svg>
