<?xml version="1.0" encoding="UTF-8" standalone="no"?>
<svg
   width="64"
   height="64"
   version="1.1"
   id="svg84085"
   sodipodi:docname="stripes.svg"
   inkscape:version="1.2.2 (b0a8486541, 2022-12-01)"
   xmlns:inkscape="http://www.inkscape.org/namespaces/inkscape"
   xmlns:sodipodi="http://sodipodi.sourceforge.net/DTD/sodipodi-0.dtd"
   xmlns="http://www.w3.org/2000/svg"
   xmlns:svg="http://www.w3.org/2000/svg">
  <defs
     id="defs84089" />
  <sodipodi:namedview
     id="namedview84087"
     pagecolor="#ffffff"
     bordercolor="#666666"
     borderopacity="1.0"
     inkscape:showpageshadow="2"
     inkscape:pageopacity="0.0"
     inkscape:pagecheckerboard="0"
     inkscape:deskcolor="#d1d1d1"
     showgrid="false"
     inkscape:zoom="9.656427"
     inkscape:cx="15.689033"
     inkscape:cy="35.106153"
     inkscape:window-width="1916"
     inkscape:window-height="1046"
     inkscape:window-x="0"
     inkscape:window-y="0"
     inkscape:window-maximized="1"
     inkscape:current-layer="svg84085" />
  <path
     fill="#e4e7f2"
     d="M3.25 64h1.5L0 59.25v1.5zM64 32.75v-1.5L32.75 0h-1.5zM64 28.75v-1.5L36.75 0h-1.5zM64 20.75v-1.5L44.75 0h-1.5zM64 4.75v-1.5L60.75 0h-1.5zM64 8.75v-1.5L56.75 0h-1.5zM64 16.75v-1.5L48.75 0h-1.5zM64 12.75v-1.5L52.75 0h-1.5zM64 24.75v-1.5L40.75 0h-1.5zM64 60.75v-1.5L4.75 0h-1.5zM63.25 0l.75.75V0zM64 56.75v-1.5L8.75 0h-1.5zM64 52.75v-1.5L12.75 0h-1.5zM64 36.75v-1.5L28.75 0h-1.5zM64 40.75v-1.5L24.75 0h-1.5zM64 48.75v-1.5L16.75 0h-1.5zM64 44.75v-1.5L20.75 0h-1.5zM47.25 64h1.5L0 15.25v1.5zM51.25 64h1.5L0 11.25v1.5zM43.25 64h1.5L0 19.25v1.5zM55.25 64h1.5L0 7.25v1.5zM39.25 64h1.5L0 23.25v1.5zM59.25 64h1.5L0 3.25v1.5zM7.25 64h1.5L0 55.25v1.5zM.75 64 0 63.25V64zM0 .75 63.25 64H64v-.75L.75 0H0zM15.25 64h1.5L0 47.25v1.5zM11.25 64h1.5L0 51.25v1.5zM35.25 64h1.5L0 27.25v1.5zM19.25 64h1.5L0 43.25v1.5zM31.25 64h1.5L0 31.25v1.5zM23.25 64h1.5L0 39.25v1.5zM27.25 64h1.5L0 35.25v1.5z"
     style="fill:#faf7f3;fill-opacity:0.8"
     id="path84083"
     transform="rotate(90 31.987 32.015)" />
</svg>
