<?xml version="1.0" encoding="UTF-8" standalone="no"?>
<svg
   viewBox="0 0 19 19"
   height="19"
   width="19"
   version="1.1"
   id="svg8"
   sodipodi:docname="arrow.svg"
   inkscape:version="1.2.2 (b0a8486541, 2022-12-01)"
   xmlns:inkscape="http://www.inkscape.org/namespaces/inkscape"
   xmlns:sodipodi="http://sodipodi.sourceforge.net/DTD/sodipodi-0.dtd"
   xmlns="http://www.w3.org/2000/svg"
   xmlns:svg="http://www.w3.org/2000/svg">
  <defs
     id="defs12" />
  <sodipodi:namedview
     id="namedview10"
     pagecolor="#ffffff"
     bordercolor="#666666"
     borderopacity="1.0"
     inkscape:showpageshadow="2"
     inkscape:pageopacity="0.0"
     inkscape:pagecheckerboard="0"
     inkscape:deskcolor="#d1d1d1"
     showgrid="false"
     inkscape:zoom="46"
     inkscape:cx="9.5326087"
     inkscape:cy="9.3478261"
     inkscape:window-width="1916"
     inkscape:window-height="1046"
     inkscape:window-x="0"
     inkscape:window-y="14"
     inkscape:window-maximized="1"
     inkscape:current-layer="svg8" />
  <title
     id="title2">arrow.svg</title>
  <rect
     fill="none"
     x="-19"
     y="0"
     width="19"
     height="19"
     id="rect4"
     transform="rotate(-90)" />
  <path
     fill="#735139"
     d="m 10.29289,5.7806917 c 0.39053,-0.2789402 1.02369,-0.2789402 1.41422,0 l 4.49999,3.2142559 c 0.3905,0.2789474 0.3905,0.7312003 0,1.0101474 l -4.49999,3.214249 c -0.39053,0.278926 -1.02369,0.278926 -1.41422,0 -0.39052,-0.278926 -0.39052,-0.731208 0,-1.010133 L 13,10.2143 H 3.5 c -0.552285,0 -1,-0.3197965 -1,-0.7142786 0,-0.394482 0.447715,-0.714279 1,-0.714279 H 13 L 10.29289,6.7908395 c -0.39052,-0.2789474 -0.39052,-0.7312003 0,-1.0101478 z"
     id="path6"
     style="fill:#cccccc;stroke-width:0.84515" />
</svg>
