<svg xmlns="http://www.w3.org/2000/svg" xmlns:svg="http://www.w3.org/2000/svg" id="svg8" width="19" height="19" version="1.1" viewBox="0 0 19 19"><title id="title2">arrow.svg</title><rect id="rect4" width="19" height="19" x="-19" y="0" fill="none" transform="rotate(-90)"/><path id="path6" fill="#735139" d="m 10.29289,5.7806917 c 0.39053,-0.2789402 1.02369,-0.2789402 1.41422,0 l 4.49999,3.2142559 c 0.3905,0.2789474 0.3905,0.7312003 0,1.0101474 l -4.49999,3.214249 c -0.39053,0.278926 -1.02369,0.278926 -1.41422,0 -0.39052,-0.278926 -0.39052,-0.731208 0,-1.010133 L 13,10.2143 H 3.5 c -0.552285,0 -1,-0.3197965 -1,-0.7142786 0,-0.394482 0.447715,-0.714279 1,-0.714279 H 13 L 10.29289,6.7908395 c -0.39052,-0.2789474 -0.39052,-0.7312003 0,-1.0101478 z" style="fill:#ccc;stroke-width:.84515"/></svg>